G04 EAGLE Gerber X2 export*
%TF.Part,Single*%
%TF.FileFunction,Copper,L1,Top,Mixed*%
%TF.FilePolarity,Positive*%
%TF.GenerationSoftware,Autodesk,EAGLE,8.7.0*%
%TF.CreationDate,2021-03-05T05:11:20Z*%
G75*
%MOMM*%
%FSLAX34Y34*%
%LPD*%
%AMOC8*
5,1,8,0,0,1.08239X$1,22.5*%
G01*
%ADD10C,1.524000*%
%ADD11R,0.800000X0.800000*%
%ADD12R,1.000000X1.500000*%
%ADD13R,1.500000X1.000000*%
%ADD14R,4.500000X4.500000*%
%ADD15R,1.400000X1.400000*%
%ADD16C,0.508000*%
%ADD17C,0.756400*%
%ADD18C,0.254000*%

G36*
X188107Y10164D02*
X188107Y10164D01*
X188141Y10162D01*
X188330Y10184D01*
X188521Y10201D01*
X188554Y10210D01*
X188588Y10214D01*
X188771Y10269D01*
X188955Y10319D01*
X188986Y10334D01*
X189019Y10344D01*
X189190Y10431D01*
X189362Y10513D01*
X189390Y10533D01*
X189421Y10548D01*
X189573Y10664D01*
X189728Y10775D01*
X189752Y10800D01*
X189779Y10820D01*
X189908Y10960D01*
X190042Y11097D01*
X190061Y11126D01*
X190085Y11152D01*
X190187Y11313D01*
X190294Y11470D01*
X190308Y11502D01*
X190326Y11531D01*
X190399Y11708D01*
X190476Y11882D01*
X190484Y11916D01*
X190497Y11948D01*
X190537Y12135D01*
X190583Y12320D01*
X190585Y12354D01*
X190592Y12388D01*
X190611Y12700D01*
X190611Y15408D01*
X190600Y15537D01*
X190598Y15667D01*
X190580Y15761D01*
X190571Y15856D01*
X190537Y15982D01*
X190512Y16109D01*
X190478Y16199D01*
X190453Y16291D01*
X190397Y16408D01*
X190350Y16529D01*
X190300Y16611D01*
X190259Y16697D01*
X190184Y16803D01*
X190116Y16914D01*
X190053Y16986D01*
X189997Y17063D01*
X189904Y17154D01*
X189818Y17252D01*
X189743Y17311D01*
X189675Y17377D01*
X189567Y17450D01*
X189465Y17531D01*
X189381Y17576D01*
X189302Y17630D01*
X189183Y17682D01*
X189068Y17744D01*
X188977Y17773D01*
X188890Y17812D01*
X188763Y17843D01*
X188640Y17883D01*
X188545Y17896D01*
X188452Y17918D01*
X188323Y17926D01*
X188194Y17944D01*
X188098Y17940D01*
X188003Y17946D01*
X187874Y17931D01*
X187744Y17926D01*
X187651Y17905D01*
X187556Y17894D01*
X187431Y17856D01*
X187304Y17828D01*
X187216Y17791D01*
X187125Y17764D01*
X187009Y17705D01*
X186889Y17655D01*
X186809Y17603D01*
X186723Y17559D01*
X186620Y17481D01*
X186511Y17410D01*
X186413Y17324D01*
X186365Y17287D01*
X186334Y17254D01*
X186276Y17203D01*
X185900Y16827D01*
X185321Y16492D01*
X184675Y16319D01*
X182879Y16319D01*
X182879Y22860D01*
X182879Y29401D01*
X184675Y29401D01*
X185321Y29228D01*
X185900Y28893D01*
X186373Y28420D01*
X186875Y27551D01*
X186937Y27463D01*
X187004Y27347D01*
X187050Y27294D01*
X187089Y27235D01*
X187119Y27203D01*
X187134Y27183D01*
X187205Y27112D01*
X187297Y27005D01*
X187351Y26960D01*
X187399Y26909D01*
X187438Y26881D01*
X187453Y26866D01*
X187532Y26812D01*
X187645Y26719D01*
X187706Y26685D01*
X187763Y26643D01*
X187809Y26621D01*
X187824Y26610D01*
X187906Y26573D01*
X188038Y26500D01*
X188104Y26477D01*
X188167Y26446D01*
X188220Y26431D01*
X188234Y26424D01*
X188315Y26404D01*
X188317Y26403D01*
X188463Y26353D01*
X188533Y26342D01*
X188600Y26323D01*
X188657Y26317D01*
X188671Y26314D01*
X188744Y26309D01*
X188755Y26307D01*
X188908Y26284D01*
X188978Y26285D01*
X189048Y26278D01*
X189107Y26283D01*
X189120Y26282D01*
X189188Y26289D01*
X189204Y26290D01*
X189358Y26294D01*
X189427Y26308D01*
X189497Y26314D01*
X189555Y26329D01*
X189568Y26330D01*
X189631Y26349D01*
X189648Y26353D01*
X189800Y26384D01*
X189865Y26410D01*
X189933Y26428D01*
X189987Y26453D01*
X190000Y26456D01*
X190061Y26487D01*
X190074Y26493D01*
X190218Y26550D01*
X190278Y26587D01*
X190342Y26617D01*
X190390Y26651D01*
X190403Y26657D01*
X190462Y26701D01*
X190469Y26706D01*
X190601Y26788D01*
X190653Y26835D01*
X190710Y26875D01*
X190751Y26916D01*
X190764Y26926D01*
X190820Y26986D01*
X190935Y27089D01*
X190978Y27145D01*
X191028Y27195D01*
X191060Y27241D01*
X191072Y27254D01*
X191119Y27326D01*
X191211Y27445D01*
X191244Y27507D01*
X191284Y27565D01*
X191312Y27624D01*
X191317Y27632D01*
X191325Y27650D01*
X191418Y27840D01*
X191420Y27844D01*
X191420Y27845D01*
X191421Y27846D01*
X191462Y27946D01*
X193034Y29518D01*
X195088Y30369D01*
X197761Y30369D01*
X197764Y30369D01*
X197766Y30369D01*
X197989Y30389D01*
X198210Y30409D01*
X198212Y30409D01*
X198214Y30409D01*
X198431Y30469D01*
X198644Y30527D01*
X198646Y30528D01*
X198649Y30529D01*
X198857Y30628D01*
X199051Y30721D01*
X199053Y30722D01*
X199055Y30723D01*
X199239Y30855D01*
X199417Y30983D01*
X199419Y30984D01*
X199420Y30986D01*
X199569Y31139D01*
X199731Y31305D01*
X199732Y31307D01*
X199734Y31309D01*
X199858Y31493D01*
X199983Y31678D01*
X199984Y31681D01*
X199985Y31682D01*
X200119Y31965D01*
X200672Y33348D01*
X200728Y33535D01*
X200790Y33723D01*
X200793Y33752D01*
X200802Y33779D01*
X200824Y33974D01*
X200851Y34169D01*
X200850Y34198D01*
X200853Y34226D01*
X200841Y34423D01*
X200832Y34619D01*
X200826Y34647D01*
X200824Y34676D01*
X200778Y34866D01*
X200735Y35059D01*
X200724Y35085D01*
X200717Y35113D01*
X200637Y35292D01*
X200561Y35474D01*
X200546Y35498D01*
X200534Y35524D01*
X200424Y35687D01*
X200317Y35852D01*
X200294Y35878D01*
X200281Y35897D01*
X200241Y35938D01*
X200110Y36086D01*
X199662Y36534D01*
X198811Y38588D01*
X198811Y55812D01*
X199662Y57866D01*
X201234Y59438D01*
X203288Y60289D01*
X223704Y60289D01*
X223739Y60292D01*
X223773Y60290D01*
X223962Y60312D01*
X224153Y60329D01*
X224186Y60338D01*
X224220Y60342D01*
X224403Y60397D01*
X224587Y60447D01*
X224618Y60462D01*
X224651Y60472D01*
X224822Y60559D01*
X224994Y60641D01*
X225022Y60661D01*
X225053Y60676D01*
X225205Y60792D01*
X225360Y60903D01*
X225384Y60928D01*
X225411Y60948D01*
X225540Y61088D01*
X225674Y61225D01*
X225693Y61254D01*
X225717Y61280D01*
X225819Y61441D01*
X225926Y61598D01*
X225940Y61630D01*
X225958Y61659D01*
X226031Y61836D01*
X226108Y62010D01*
X226116Y62044D01*
X226129Y62076D01*
X226169Y62263D01*
X226215Y62448D01*
X226217Y62482D01*
X226224Y62516D01*
X226243Y62828D01*
X226243Y158004D01*
X226229Y158168D01*
X226222Y158332D01*
X226209Y158392D01*
X226203Y158452D01*
X226160Y158611D01*
X226124Y158772D01*
X226101Y158828D01*
X226085Y158887D01*
X226014Y159035D01*
X225951Y159187D01*
X225918Y159238D01*
X225891Y159293D01*
X225796Y159427D01*
X225706Y159565D01*
X225655Y159623D01*
X225629Y159660D01*
X225586Y159702D01*
X225500Y159799D01*
X223176Y162123D01*
X223076Y162207D01*
X222983Y162298D01*
X222903Y162351D01*
X222830Y162412D01*
X222717Y162477D01*
X222610Y162550D01*
X222522Y162588D01*
X222439Y162636D01*
X222317Y162679D01*
X222198Y162732D01*
X222105Y162755D01*
X222015Y162787D01*
X221887Y162808D01*
X221760Y162839D01*
X221665Y162844D01*
X221571Y162860D01*
X221441Y162858D01*
X221311Y162866D01*
X221216Y162855D01*
X221120Y162854D01*
X220993Y162829D01*
X220864Y162814D01*
X220772Y162787D01*
X220678Y162768D01*
X220557Y162722D01*
X220433Y162684D01*
X220347Y162640D01*
X220258Y162606D01*
X220147Y162539D01*
X220031Y162480D01*
X219955Y162422D01*
X219874Y162372D01*
X219776Y162286D01*
X219673Y162208D01*
X219608Y162137D01*
X219536Y162074D01*
X219456Y161972D01*
X219367Y161876D01*
X219316Y161796D01*
X219257Y161721D01*
X219196Y161606D01*
X219126Y161497D01*
X219089Y161408D01*
X219044Y161324D01*
X219004Y161200D01*
X218955Y161080D01*
X218935Y160987D01*
X218905Y160896D01*
X218887Y160767D01*
X218860Y160640D01*
X218852Y160510D01*
X218844Y160450D01*
X218845Y160405D01*
X218841Y160328D01*
X218841Y151579D01*
X196340Y151579D01*
X196306Y151576D01*
X196271Y151578D01*
X196082Y151556D01*
X195892Y151539D01*
X195858Y151530D01*
X195824Y151526D01*
X195641Y151471D01*
X195457Y151421D01*
X195426Y151406D01*
X195393Y151396D01*
X195222Y151309D01*
X195051Y151227D01*
X195023Y151207D01*
X194992Y151191D01*
X194840Y151076D01*
X194685Y150965D01*
X194660Y150940D01*
X194633Y150919D01*
X194504Y150779D01*
X194370Y150643D01*
X194351Y150614D01*
X194328Y150588D01*
X194225Y150427D01*
X194118Y150269D01*
X194104Y150238D01*
X194086Y150209D01*
X194013Y150032D01*
X193936Y149858D01*
X193928Y149824D01*
X193915Y149792D01*
X193875Y149605D01*
X193830Y149420D01*
X193827Y149386D01*
X193820Y149352D01*
X193801Y149040D01*
X193801Y146499D01*
X193799Y146499D01*
X193799Y149040D01*
X193796Y149074D01*
X193798Y149109D01*
X193776Y149298D01*
X193759Y149488D01*
X193750Y149522D01*
X193746Y149556D01*
X193691Y149739D01*
X193641Y149923D01*
X193626Y149954D01*
X193616Y149987D01*
X193529Y150158D01*
X193447Y150329D01*
X193427Y150358D01*
X193411Y150388D01*
X193296Y150540D01*
X193185Y150696D01*
X193160Y150720D01*
X193139Y150747D01*
X192999Y150876D01*
X192863Y151010D01*
X192834Y151029D01*
X192808Y151052D01*
X192647Y151155D01*
X192489Y151262D01*
X192458Y151276D01*
X192429Y151294D01*
X192252Y151367D01*
X192078Y151444D01*
X192044Y151452D01*
X192012Y151465D01*
X191825Y151505D01*
X191640Y151551D01*
X191606Y151553D01*
X191572Y151560D01*
X191260Y151579D01*
X168759Y151579D01*
X168759Y169335D01*
X168932Y169981D01*
X169267Y170560D01*
X169740Y171033D01*
X170319Y171368D01*
X170965Y171541D01*
X176593Y171541D01*
X176723Y171552D01*
X176853Y171554D01*
X176946Y171572D01*
X177042Y171581D01*
X177167Y171615D01*
X177295Y171640D01*
X177384Y171674D01*
X177476Y171699D01*
X177593Y171755D01*
X177715Y171802D01*
X177797Y171852D01*
X177883Y171893D01*
X177988Y171968D01*
X178100Y172036D01*
X178171Y172099D01*
X178249Y172155D01*
X178340Y172248D01*
X178437Y172334D01*
X178496Y172409D01*
X178563Y172477D01*
X178636Y172585D01*
X178716Y172687D01*
X178762Y172771D01*
X178815Y172850D01*
X178868Y172969D01*
X178929Y173084D01*
X178959Y173175D01*
X178997Y173262D01*
X179028Y173389D01*
X179068Y173512D01*
X179081Y173607D01*
X179104Y173700D01*
X179112Y173829D01*
X179130Y173958D01*
X179126Y174054D01*
X179132Y174149D01*
X179117Y174278D01*
X179111Y174408D01*
X179091Y174501D01*
X179079Y174596D01*
X179042Y174721D01*
X179014Y174848D01*
X178977Y174936D01*
X178949Y175027D01*
X178890Y175143D01*
X178840Y175263D01*
X178788Y175343D01*
X178745Y175429D01*
X178666Y175532D01*
X178596Y175641D01*
X178510Y175739D01*
X178473Y175787D01*
X178440Y175818D01*
X178389Y175876D01*
X175989Y178275D01*
X174751Y181263D01*
X174751Y198910D01*
X174748Y198945D01*
X174750Y198979D01*
X174728Y199168D01*
X174711Y199359D01*
X174702Y199392D01*
X174698Y199426D01*
X174643Y199609D01*
X174593Y199793D01*
X174578Y199824D01*
X174568Y199857D01*
X174481Y200028D01*
X174399Y200200D01*
X174379Y200228D01*
X174364Y200259D01*
X174248Y200411D01*
X174137Y200566D01*
X174112Y200590D01*
X174092Y200617D01*
X173952Y200746D01*
X173815Y200880D01*
X173786Y200899D01*
X173760Y200923D01*
X173599Y201025D01*
X173442Y201132D01*
X173410Y201146D01*
X173381Y201164D01*
X173204Y201237D01*
X173030Y201314D01*
X172996Y201322D01*
X172964Y201335D01*
X172777Y201375D01*
X172592Y201421D01*
X172558Y201423D01*
X172524Y201430D01*
X172212Y201449D01*
X171930Y201449D01*
X171895Y201446D01*
X171861Y201448D01*
X171672Y201426D01*
X171481Y201409D01*
X171448Y201400D01*
X171414Y201396D01*
X171231Y201341D01*
X171047Y201291D01*
X171016Y201276D01*
X170983Y201266D01*
X170812Y201179D01*
X170640Y201097D01*
X170612Y201077D01*
X170581Y201062D01*
X170429Y200946D01*
X170274Y200835D01*
X170250Y200810D01*
X170223Y200790D01*
X170094Y200650D01*
X169960Y200513D01*
X169941Y200484D01*
X169917Y200458D01*
X169815Y200297D01*
X169708Y200140D01*
X169694Y200108D01*
X169676Y200079D01*
X169603Y199902D01*
X169526Y199728D01*
X169518Y199694D01*
X169505Y199662D01*
X169465Y199475D01*
X169419Y199290D01*
X169417Y199256D01*
X169410Y199222D01*
X169391Y198910D01*
X169391Y196256D01*
X167964Y192812D01*
X165328Y190176D01*
X161884Y188749D01*
X158156Y188749D01*
X154712Y190176D01*
X152076Y192812D01*
X150649Y196256D01*
X150649Y196988D01*
X150639Y197105D01*
X150639Y197222D01*
X150619Y197328D01*
X150609Y197437D01*
X150579Y197550D01*
X150558Y197664D01*
X150507Y197810D01*
X150491Y197871D01*
X150475Y197904D01*
X150471Y197915D01*
X150471Y216572D01*
X150468Y216607D01*
X150470Y216641D01*
X150448Y216830D01*
X150431Y217021D01*
X150422Y217054D01*
X150418Y217088D01*
X150363Y217271D01*
X150313Y217455D01*
X150298Y217486D01*
X150288Y217519D01*
X150201Y217690D01*
X150119Y217862D01*
X150099Y217890D01*
X150084Y217921D01*
X149968Y218073D01*
X149857Y218228D01*
X149832Y218252D01*
X149812Y218279D01*
X149672Y218408D01*
X149535Y218542D01*
X149506Y218561D01*
X149480Y218585D01*
X149319Y218687D01*
X149162Y218794D01*
X149130Y218808D01*
X149101Y218826D01*
X148924Y218899D01*
X148750Y218976D01*
X148716Y218984D01*
X148684Y218997D01*
X148497Y219037D01*
X148312Y219083D01*
X148278Y219085D01*
X148244Y219092D01*
X147932Y219111D01*
X127088Y219111D01*
X125034Y219962D01*
X123581Y221416D01*
X123455Y221521D01*
X123334Y221633D01*
X123282Y221665D01*
X123235Y221704D01*
X123093Y221786D01*
X123039Y221820D01*
X123039Y222050D01*
X123032Y222134D01*
X123034Y222218D01*
X123012Y222358D01*
X122999Y222498D01*
X122977Y222580D01*
X122964Y222663D01*
X122892Y222891D01*
X122881Y222933D01*
X122876Y222944D01*
X122870Y222961D01*
X122870Y222962D01*
X122777Y223152D01*
X122687Y223340D01*
X122678Y223352D01*
X122672Y223366D01*
X122547Y223536D01*
X122425Y223706D01*
X122414Y223717D01*
X122405Y223729D01*
X122253Y223873D01*
X122102Y224020D01*
X122090Y224029D01*
X122079Y224039D01*
X121903Y224155D01*
X121729Y224272D01*
X121715Y224278D01*
X121702Y224287D01*
X121510Y224369D01*
X121318Y224454D01*
X121303Y224458D01*
X121289Y224464D01*
X121084Y224511D01*
X120880Y224561D01*
X120865Y224562D01*
X120850Y224565D01*
X120641Y224576D01*
X120431Y224589D01*
X120415Y224587D01*
X120400Y224588D01*
X120194Y224561D01*
X119984Y224537D01*
X119969Y224532D01*
X119954Y224530D01*
X119755Y224468D01*
X119553Y224406D01*
X119539Y224399D01*
X119524Y224395D01*
X119338Y224297D01*
X119151Y224202D01*
X119139Y224193D01*
X119125Y224186D01*
X118959Y224056D01*
X118792Y223930D01*
X118782Y223919D01*
X118770Y223909D01*
X118629Y223753D01*
X118487Y223599D01*
X118479Y223586D01*
X118469Y223575D01*
X118358Y223396D01*
X118245Y223219D01*
X118240Y223205D01*
X118232Y223192D01*
X118154Y222996D01*
X118075Y222803D01*
X118071Y222788D01*
X118066Y222773D01*
X118024Y222568D01*
X117980Y222362D01*
X117979Y222344D01*
X117976Y222332D01*
X117975Y222289D01*
X117967Y222159D01*
X115165Y222159D01*
X114519Y222332D01*
X113940Y222667D01*
X113467Y223140D01*
X113132Y223719D01*
X112959Y224365D01*
X112959Y229661D01*
X120072Y229661D01*
X120107Y229664D01*
X120141Y229662D01*
X120330Y229684D01*
X120521Y229700D01*
X120554Y229710D01*
X120588Y229714D01*
X120771Y229769D01*
X120955Y229819D01*
X120986Y229834D01*
X121019Y229844D01*
X121190Y229931D01*
X121362Y230012D01*
X121390Y230033D01*
X121421Y230048D01*
X121573Y230163D01*
X121728Y230275D01*
X121752Y230299D01*
X121779Y230320D01*
X121908Y230460D01*
X122042Y230597D01*
X122061Y230626D01*
X122085Y230651D01*
X122187Y230812D01*
X122294Y230970D01*
X122308Y231002D01*
X122326Y231031D01*
X122399Y231208D01*
X122476Y231382D01*
X122484Y231416D01*
X122497Y231448D01*
X122537Y231634D01*
X122583Y231819D01*
X122585Y231854D01*
X122592Y231888D01*
X122611Y232200D01*
X122608Y232235D01*
X122610Y232269D01*
X122588Y232459D01*
X122571Y232649D01*
X122562Y232682D01*
X122558Y232716D01*
X122503Y232899D01*
X122453Y233083D01*
X122438Y233114D01*
X122428Y233147D01*
X122341Y233318D01*
X122259Y233490D01*
X122239Y233518D01*
X122224Y233549D01*
X122108Y233701D01*
X121997Y233856D01*
X121972Y233880D01*
X121952Y233907D01*
X121812Y234037D01*
X121675Y234170D01*
X121646Y234189D01*
X121620Y234213D01*
X121459Y234315D01*
X121302Y234422D01*
X121270Y234436D01*
X121241Y234454D01*
X121064Y234527D01*
X120890Y234604D01*
X120856Y234612D01*
X120824Y234625D01*
X120637Y234666D01*
X120452Y234711D01*
X120418Y234713D01*
X120384Y234720D01*
X120072Y234739D01*
X112959Y234739D01*
X112959Y240035D01*
X113132Y240681D01*
X113467Y241260D01*
X113743Y241536D01*
X113827Y241636D01*
X113917Y241729D01*
X113971Y241809D01*
X114032Y241882D01*
X114097Y241995D01*
X114170Y242102D01*
X114208Y242190D01*
X114256Y242273D01*
X114299Y242395D01*
X114352Y242514D01*
X114374Y242607D01*
X114406Y242697D01*
X114428Y242825D01*
X114458Y242952D01*
X114464Y243047D01*
X114480Y243141D01*
X114478Y243271D01*
X114486Y243401D01*
X114475Y243496D01*
X114474Y243591D01*
X114449Y243719D01*
X114434Y243848D01*
X114406Y243940D01*
X114388Y244034D01*
X114341Y244155D01*
X114304Y244279D01*
X114260Y244364D01*
X114226Y244454D01*
X114158Y244565D01*
X114099Y244681D01*
X114042Y244757D01*
X113992Y244838D01*
X113906Y244936D01*
X113827Y245039D01*
X113757Y245104D01*
X113694Y245176D01*
X113592Y245256D01*
X113496Y245345D01*
X113416Y245396D01*
X113341Y245455D01*
X113226Y245517D01*
X113116Y245586D01*
X113028Y245623D01*
X112944Y245668D01*
X112820Y245708D01*
X112700Y245757D01*
X112607Y245777D01*
X112516Y245807D01*
X112387Y245825D01*
X112260Y245852D01*
X112130Y245860D01*
X112070Y245868D01*
X112025Y245867D01*
X111948Y245871D01*
X111673Y245871D01*
X106818Y247882D01*
X103102Y251598D01*
X102246Y253666D01*
X102232Y253693D01*
X102222Y253721D01*
X102128Y253892D01*
X102037Y254065D01*
X102019Y254089D01*
X102004Y254115D01*
X101881Y254266D01*
X101761Y254421D01*
X101739Y254441D01*
X101720Y254465D01*
X101572Y254592D01*
X101427Y254722D01*
X101401Y254738D01*
X101378Y254758D01*
X101210Y254858D01*
X101045Y254960D01*
X101017Y254972D01*
X100990Y254987D01*
X100807Y255055D01*
X100627Y255127D01*
X100597Y255133D01*
X100568Y255144D01*
X100377Y255178D01*
X100185Y255217D01*
X100155Y255218D01*
X100125Y255223D01*
X99931Y255223D01*
X99735Y255228D01*
X99705Y255223D01*
X99675Y255223D01*
X99484Y255189D01*
X99290Y255159D01*
X99261Y255149D01*
X99232Y255144D01*
X99049Y255076D01*
X98865Y255013D01*
X98838Y254998D01*
X98809Y254987D01*
X98642Y254888D01*
X98471Y254793D01*
X98448Y254774D01*
X98422Y254759D01*
X98274Y254632D01*
X98123Y254508D01*
X98103Y254485D01*
X98080Y254465D01*
X97957Y254314D01*
X97830Y254166D01*
X97815Y254140D01*
X97796Y254116D01*
X97637Y253847D01*
X97590Y253755D01*
X96650Y252461D01*
X95519Y251330D01*
X94225Y250390D01*
X92800Y249664D01*
X91439Y249221D01*
X91439Y266700D01*
X91436Y266734D01*
X91438Y266769D01*
X91416Y266958D01*
X91399Y267148D01*
X91390Y267182D01*
X91386Y267216D01*
X91331Y267399D01*
X91281Y267583D01*
X91266Y267614D01*
X91256Y267647D01*
X91169Y267818D01*
X91088Y267989D01*
X91067Y268017D01*
X91052Y268048D01*
X90936Y268200D01*
X90825Y268355D01*
X90801Y268379D01*
X90780Y268407D01*
X90640Y268536D01*
X90503Y268669D01*
X90474Y268689D01*
X90449Y268712D01*
X90288Y268815D01*
X90130Y268921D01*
X90098Y268935D01*
X90069Y268954D01*
X89892Y269026D01*
X89718Y269104D01*
X89684Y269112D01*
X89652Y269125D01*
X89466Y269165D01*
X89280Y269210D01*
X89246Y269212D01*
X89212Y269220D01*
X88900Y269239D01*
X88865Y269236D01*
X88831Y269238D01*
X88641Y269216D01*
X88451Y269199D01*
X88418Y269190D01*
X88384Y269186D01*
X88201Y269131D01*
X88017Y269080D01*
X87986Y269066D01*
X87953Y269056D01*
X87782Y268969D01*
X87610Y268887D01*
X87582Y268867D01*
X87551Y268851D01*
X87399Y268736D01*
X87244Y268625D01*
X87220Y268600D01*
X87192Y268579D01*
X87063Y268439D01*
X86930Y268302D01*
X86911Y268274D01*
X86887Y268248D01*
X86785Y268087D01*
X86678Y267929D01*
X86664Y267898D01*
X86645Y267868D01*
X86573Y267692D01*
X86496Y267517D01*
X86488Y267484D01*
X86475Y267452D01*
X86434Y267265D01*
X86389Y267080D01*
X86387Y267046D01*
X86380Y267012D01*
X86361Y266700D01*
X86361Y249221D01*
X85000Y249664D01*
X83575Y250390D01*
X82281Y251330D01*
X81150Y252461D01*
X80210Y253755D01*
X80163Y253847D01*
X80147Y253873D01*
X80135Y253900D01*
X80028Y254062D01*
X79924Y254228D01*
X79903Y254251D01*
X79886Y254276D01*
X79752Y254417D01*
X79621Y254561D01*
X79597Y254580D01*
X79576Y254602D01*
X79418Y254717D01*
X79264Y254836D01*
X79237Y254850D01*
X79212Y254868D01*
X79038Y254953D01*
X78864Y255043D01*
X78835Y255052D01*
X78808Y255066D01*
X78621Y255119D01*
X78434Y255176D01*
X78404Y255180D01*
X78375Y255189D01*
X78180Y255208D01*
X77987Y255232D01*
X77957Y255230D01*
X77927Y255233D01*
X77732Y255218D01*
X77538Y255207D01*
X77508Y255200D01*
X77478Y255198D01*
X77289Y255148D01*
X77099Y255104D01*
X77072Y255092D01*
X77042Y255084D01*
X76866Y255002D01*
X76686Y254924D01*
X76661Y254907D01*
X76634Y254895D01*
X76474Y254783D01*
X76312Y254675D01*
X76290Y254654D01*
X76265Y254636D01*
X76128Y254498D01*
X75987Y254363D01*
X75969Y254338D01*
X75947Y254317D01*
X75837Y254157D01*
X75722Y253999D01*
X75709Y253972D01*
X75691Y253947D01*
X75554Y253666D01*
X74698Y251598D01*
X70982Y247882D01*
X66127Y245871D01*
X60873Y245871D01*
X56018Y247882D01*
X52302Y251598D01*
X50606Y255693D01*
X50524Y255851D01*
X50447Y256011D01*
X50420Y256050D01*
X50397Y256092D01*
X50289Y256232D01*
X50185Y256377D01*
X50151Y256410D01*
X50122Y256448D01*
X49990Y256567D01*
X49863Y256691D01*
X49823Y256718D01*
X49787Y256750D01*
X49637Y256844D01*
X49490Y256943D01*
X49446Y256962D01*
X49405Y256988D01*
X49240Y257053D01*
X49078Y257125D01*
X49031Y257137D01*
X48987Y257154D01*
X48813Y257190D01*
X48640Y257232D01*
X48593Y257235D01*
X48546Y257244D01*
X48368Y257249D01*
X48191Y257260D01*
X48143Y257254D01*
X48096Y257255D01*
X47920Y257228D01*
X47744Y257207D01*
X47698Y257194D01*
X47651Y257186D01*
X47483Y257129D01*
X47313Y257077D01*
X47270Y257055D01*
X47225Y257040D01*
X47070Y256953D01*
X46911Y256873D01*
X46873Y256844D01*
X46832Y256821D01*
X46694Y256708D01*
X46553Y256601D01*
X46520Y256566D01*
X46483Y256535D01*
X46368Y256400D01*
X46247Y256270D01*
X46222Y256229D01*
X46191Y256193D01*
X46101Y256040D01*
X46006Y255890D01*
X45987Y255846D01*
X45963Y255804D01*
X45902Y255638D01*
X45835Y255473D01*
X45825Y255427D01*
X45808Y255382D01*
X45777Y255207D01*
X45740Y255033D01*
X45736Y254974D01*
X45730Y254938D01*
X45730Y254875D01*
X45721Y254721D01*
X45721Y45131D01*
X45732Y45001D01*
X45734Y44871D01*
X45752Y44778D01*
X45761Y44682D01*
X45795Y44557D01*
X45820Y44429D01*
X45854Y44340D01*
X45879Y44248D01*
X45935Y44131D01*
X45982Y44009D01*
X46032Y43928D01*
X46073Y43841D01*
X46148Y43736D01*
X46216Y43625D01*
X46279Y43553D01*
X46335Y43475D01*
X46428Y43385D01*
X46514Y43287D01*
X46589Y43228D01*
X46657Y43161D01*
X46765Y43089D01*
X46867Y43008D01*
X46951Y42963D01*
X47030Y42909D01*
X47149Y42857D01*
X47264Y42795D01*
X47355Y42766D01*
X47442Y42727D01*
X47569Y42696D01*
X47692Y42656D01*
X47787Y42643D01*
X47880Y42620D01*
X48009Y42612D01*
X48138Y42595D01*
X48234Y42599D01*
X48329Y42593D01*
X48458Y42608D01*
X48588Y42613D01*
X48681Y42634D01*
X48776Y42645D01*
X48901Y42682D01*
X49028Y42711D01*
X49116Y42747D01*
X49207Y42775D01*
X49323Y42834D01*
X49443Y42884D01*
X49523Y42936D01*
X49609Y42979D01*
X49712Y43058D01*
X49821Y43128D01*
X49919Y43215D01*
X49967Y43251D01*
X49998Y43284D01*
X50056Y43335D01*
X50968Y44248D01*
X51020Y44278D01*
X51179Y44361D01*
X51216Y44389D01*
X51256Y44412D01*
X51394Y44527D01*
X51535Y44637D01*
X51566Y44671D01*
X51602Y44701D01*
X51809Y44935D01*
X52545Y45877D01*
X52671Y45964D01*
X52710Y46002D01*
X52753Y46035D01*
X52972Y46258D01*
X99203Y99743D01*
X99218Y99763D01*
X99235Y99781D01*
X99349Y99945D01*
X99466Y100108D01*
X99477Y100131D01*
X99491Y100151D01*
X99574Y100321D01*
X100457Y101204D01*
X100495Y101250D01*
X100583Y101339D01*
X101402Y102286D01*
X101505Y102353D01*
X101675Y102459D01*
X101694Y102475D01*
X101715Y102489D01*
X101856Y102614D01*
X103010Y103092D01*
X103063Y103119D01*
X103178Y103168D01*
X104297Y103730D01*
X104419Y103753D01*
X104616Y103785D01*
X104639Y103793D01*
X104664Y103797D01*
X104842Y103859D01*
X106091Y103859D01*
X106151Y103864D01*
X106276Y103865D01*
X107525Y103956D01*
X107645Y103930D01*
X107840Y103884D01*
X107865Y103883D01*
X107889Y103878D01*
X108201Y103859D01*
X163595Y103859D01*
X163759Y103873D01*
X163924Y103880D01*
X163999Y103895D01*
X164043Y103899D01*
X164102Y103915D01*
X164231Y103940D01*
X164481Y104005D01*
X165345Y103883D01*
X165366Y103882D01*
X165386Y103878D01*
X165698Y103859D01*
X166570Y103859D01*
X166809Y103760D01*
X166967Y103710D01*
X167122Y103654D01*
X167196Y103638D01*
X167238Y103625D01*
X167299Y103617D01*
X167428Y103591D01*
X167684Y103555D01*
X168435Y103113D01*
X168454Y103104D01*
X168471Y103092D01*
X168752Y102955D01*
X169558Y102621D01*
X169740Y102439D01*
X169867Y102333D01*
X169989Y102221D01*
X170052Y102178D01*
X170086Y102150D01*
X170139Y102119D01*
X170248Y102046D01*
X170471Y101915D01*
X170996Y101218D01*
X171010Y101203D01*
X171021Y101185D01*
X171228Y100951D01*
X171845Y100334D01*
X171943Y100096D01*
X172020Y99949D01*
X172089Y99800D01*
X172131Y99736D01*
X172152Y99697D01*
X172189Y99648D01*
X172262Y99539D01*
X172417Y99333D01*
X172636Y98488D01*
X172643Y98468D01*
X172647Y98448D01*
X172748Y98153D01*
X173082Y97347D01*
X173082Y97089D01*
X173097Y96924D01*
X173104Y96759D01*
X173118Y96684D01*
X173122Y96640D01*
X173138Y96581D01*
X173163Y96452D01*
X177073Y81351D01*
X177080Y81332D01*
X177083Y81312D01*
X177185Y81016D01*
X177519Y80210D01*
X177519Y79952D01*
X177533Y79787D01*
X177540Y79622D01*
X177555Y79548D01*
X177559Y79503D01*
X177575Y79444D01*
X177600Y79316D01*
X177665Y79065D01*
X177543Y78201D01*
X177542Y78181D01*
X177538Y78161D01*
X177519Y77849D01*
X177519Y76944D01*
X177538Y76732D01*
X177554Y76521D01*
X177557Y76509D01*
X177559Y76495D01*
X177615Y76290D01*
X177668Y76086D01*
X177674Y76074D01*
X177677Y76061D01*
X177768Y75871D01*
X177857Y75677D01*
X177865Y75666D01*
X177871Y75654D01*
X177993Y75483D01*
X178116Y75308D01*
X178125Y75299D01*
X178133Y75288D01*
X178285Y75140D01*
X178435Y74991D01*
X178446Y74984D01*
X178455Y74974D01*
X178631Y74855D01*
X178805Y74735D01*
X178820Y74728D01*
X178828Y74722D01*
X178864Y74706D01*
X179086Y74598D01*
X180568Y73984D01*
X183204Y71348D01*
X184631Y67904D01*
X184631Y64176D01*
X183204Y60732D01*
X182218Y59745D01*
X182198Y59722D01*
X182176Y59703D01*
X182054Y59550D01*
X181929Y59400D01*
X181914Y59374D01*
X181895Y59351D01*
X181802Y59178D01*
X181705Y59009D01*
X181695Y58981D01*
X181681Y58955D01*
X181575Y58661D01*
X181467Y58290D01*
X181462Y58264D01*
X181453Y58240D01*
X181419Y58043D01*
X181380Y57848D01*
X181380Y57822D01*
X181375Y57796D01*
X181376Y57597D01*
X181372Y57398D01*
X181376Y57372D01*
X181377Y57346D01*
X181412Y57150D01*
X181444Y56954D01*
X181453Y56929D01*
X181457Y56903D01*
X181559Y56607D01*
X181889Y55812D01*
X181889Y38588D01*
X181038Y36534D01*
X179466Y34962D01*
X177833Y34286D01*
X177676Y34204D01*
X177516Y34127D01*
X177477Y34100D01*
X177434Y34077D01*
X177294Y33969D01*
X177149Y33865D01*
X177116Y33831D01*
X177078Y33802D01*
X176959Y33670D01*
X176835Y33543D01*
X176809Y33503D01*
X176777Y33467D01*
X176683Y33317D01*
X176583Y33170D01*
X176564Y33126D01*
X176539Y33085D01*
X176473Y32920D01*
X176401Y32758D01*
X176390Y32711D01*
X176372Y32667D01*
X176337Y32493D01*
X176294Y32320D01*
X176292Y32273D01*
X176282Y32226D01*
X176278Y32048D01*
X176267Y31871D01*
X176272Y31823D01*
X176271Y31776D01*
X176298Y31600D01*
X176319Y31424D01*
X176333Y31378D01*
X176340Y31331D01*
X176398Y31162D01*
X176449Y30993D01*
X176471Y30950D01*
X176486Y30905D01*
X176573Y30750D01*
X176653Y30591D01*
X176682Y30553D01*
X176706Y30512D01*
X176818Y30374D01*
X176925Y30233D01*
X176961Y30200D01*
X176991Y30163D01*
X177126Y30048D01*
X177257Y29927D01*
X177297Y29902D01*
X177333Y29871D01*
X177487Y29781D01*
X177636Y29686D01*
X177681Y29667D01*
X177722Y29643D01*
X177801Y29614D01*
X177801Y22860D01*
X177801Y16319D01*
X175899Y16319D01*
X175762Y16343D01*
X175716Y16343D01*
X175670Y16349D01*
X175490Y16342D01*
X175312Y16341D01*
X175266Y16333D01*
X175220Y16331D01*
X175045Y16292D01*
X174869Y16260D01*
X174825Y16244D01*
X174780Y16234D01*
X174615Y16165D01*
X174447Y16102D01*
X174408Y16078D01*
X174365Y16060D01*
X174214Y15963D01*
X174060Y15871D01*
X174025Y15841D01*
X173986Y15816D01*
X173752Y15609D01*
X172639Y14496D01*
X172556Y14396D01*
X172465Y14303D01*
X172412Y14223D01*
X172350Y14150D01*
X172286Y14037D01*
X172213Y13930D01*
X172174Y13842D01*
X172127Y13759D01*
X172083Y13637D01*
X172031Y13518D01*
X172008Y13425D01*
X171976Y13335D01*
X171955Y13206D01*
X171924Y13080D01*
X171918Y12985D01*
X171903Y12891D01*
X171904Y12760D01*
X171896Y12631D01*
X171907Y12536D01*
X171909Y12440D01*
X171933Y12313D01*
X171948Y12184D01*
X171976Y12092D01*
X171994Y11998D01*
X172041Y11877D01*
X172079Y11753D01*
X172122Y11668D01*
X172157Y11578D01*
X172224Y11467D01*
X172283Y11351D01*
X172341Y11275D01*
X172390Y11194D01*
X172477Y11096D01*
X172555Y10993D01*
X172625Y10928D01*
X172689Y10856D01*
X172790Y10776D01*
X172886Y10687D01*
X172967Y10636D01*
X173042Y10577D01*
X173156Y10516D01*
X173266Y10446D01*
X173354Y10409D01*
X173439Y10364D01*
X173562Y10324D01*
X173683Y10275D01*
X173776Y10255D01*
X173867Y10225D01*
X173996Y10207D01*
X174123Y10180D01*
X174252Y10172D01*
X174313Y10164D01*
X174358Y10165D01*
X174435Y10161D01*
X188072Y10161D01*
X188107Y10164D01*
G37*
G36*
X403135Y10164D02*
X403135Y10164D01*
X403169Y10162D01*
X403358Y10184D01*
X403549Y10201D01*
X403582Y10210D01*
X403616Y10214D01*
X403799Y10269D01*
X403983Y10319D01*
X404014Y10334D01*
X404047Y10344D01*
X404218Y10431D01*
X404390Y10513D01*
X404418Y10533D01*
X404449Y10548D01*
X404601Y10664D01*
X404756Y10775D01*
X404780Y10800D01*
X404807Y10820D01*
X404936Y10960D01*
X405070Y11097D01*
X405089Y11126D01*
X405113Y11152D01*
X405215Y11313D01*
X405322Y11470D01*
X405336Y11502D01*
X405354Y11531D01*
X405427Y11708D01*
X405504Y11882D01*
X405512Y11916D01*
X405525Y11948D01*
X405565Y12135D01*
X405611Y12320D01*
X405613Y12354D01*
X405620Y12388D01*
X405639Y12700D01*
X405639Y279300D01*
X405636Y279335D01*
X405638Y279369D01*
X405616Y279558D01*
X405599Y279749D01*
X405590Y279782D01*
X405586Y279816D01*
X405531Y279999D01*
X405481Y280183D01*
X405466Y280214D01*
X405456Y280247D01*
X405369Y280418D01*
X405287Y280590D01*
X405267Y280618D01*
X405252Y280649D01*
X405136Y280801D01*
X405025Y280956D01*
X405000Y280980D01*
X404980Y281007D01*
X404840Y281136D01*
X404703Y281270D01*
X404674Y281289D01*
X404648Y281313D01*
X404487Y281415D01*
X404330Y281522D01*
X404298Y281536D01*
X404269Y281554D01*
X404092Y281627D01*
X403918Y281704D01*
X403884Y281712D01*
X403852Y281725D01*
X403665Y281765D01*
X403480Y281811D01*
X403446Y281813D01*
X403412Y281820D01*
X403100Y281839D01*
X385591Y281839D01*
X385461Y281828D01*
X385331Y281826D01*
X385238Y281808D01*
X385142Y281799D01*
X385017Y281765D01*
X384889Y281740D01*
X384800Y281706D01*
X384708Y281681D01*
X384591Y281625D01*
X384469Y281578D01*
X384388Y281528D01*
X384301Y281487D01*
X384196Y281412D01*
X384085Y281344D01*
X384013Y281281D01*
X383935Y281225D01*
X383845Y281132D01*
X383747Y281046D01*
X383688Y280971D01*
X383621Y280903D01*
X383548Y280795D01*
X383468Y280693D01*
X383423Y280609D01*
X383369Y280530D01*
X383317Y280411D01*
X383255Y280296D01*
X383226Y280205D01*
X383187Y280118D01*
X383156Y279991D01*
X383116Y279868D01*
X383103Y279773D01*
X383080Y279680D01*
X383072Y279551D01*
X383055Y279422D01*
X383059Y279326D01*
X383053Y279231D01*
X383068Y279102D01*
X383073Y278972D01*
X383094Y278879D01*
X383105Y278784D01*
X383142Y278659D01*
X383171Y278532D01*
X383207Y278444D01*
X383235Y278353D01*
X383294Y278237D01*
X383344Y278117D01*
X383396Y278037D01*
X383439Y277951D01*
X383518Y277848D01*
X383588Y277739D01*
X383675Y277641D01*
X383711Y277593D01*
X383744Y277562D01*
X383795Y277504D01*
X387118Y274182D01*
X389129Y269327D01*
X389129Y264073D01*
X387118Y259218D01*
X383695Y255796D01*
X383673Y255769D01*
X383647Y255746D01*
X383529Y255597D01*
X383407Y255450D01*
X383389Y255420D01*
X383368Y255393D01*
X383278Y255225D01*
X383183Y255059D01*
X383172Y255027D01*
X383155Y254996D01*
X383096Y254815D01*
X383032Y254635D01*
X383027Y254601D01*
X383016Y254568D01*
X382990Y254379D01*
X382959Y254191D01*
X382959Y254156D01*
X382955Y254122D01*
X382962Y253931D01*
X382965Y253741D01*
X382972Y253706D01*
X382973Y253672D01*
X383014Y253486D01*
X383051Y253298D01*
X383063Y253266D01*
X383071Y253232D01*
X383144Y253056D01*
X383213Y252878D01*
X383231Y252849D01*
X383244Y252817D01*
X383348Y252656D01*
X383447Y252494D01*
X383470Y252468D01*
X383489Y252439D01*
X383695Y252204D01*
X387118Y248782D01*
X389129Y243927D01*
X389129Y238673D01*
X387118Y233818D01*
X383695Y230396D01*
X383673Y230369D01*
X383647Y230346D01*
X383529Y230197D01*
X383407Y230050D01*
X383389Y230020D01*
X383368Y229993D01*
X383278Y229825D01*
X383183Y229659D01*
X383172Y229627D01*
X383155Y229596D01*
X383096Y229415D01*
X383032Y229235D01*
X383027Y229201D01*
X383016Y229168D01*
X382990Y228979D01*
X382959Y228791D01*
X382959Y228756D01*
X382955Y228722D01*
X382962Y228531D01*
X382965Y228341D01*
X382972Y228306D01*
X382973Y228272D01*
X383014Y228086D01*
X383051Y227898D01*
X383063Y227866D01*
X383071Y227832D01*
X383144Y227656D01*
X383213Y227478D01*
X383231Y227449D01*
X383244Y227417D01*
X383348Y227256D01*
X383447Y227094D01*
X383470Y227068D01*
X383489Y227039D01*
X383695Y226804D01*
X387118Y223382D01*
X389129Y218527D01*
X389129Y213273D01*
X387118Y208418D01*
X383695Y204996D01*
X383673Y204969D01*
X383647Y204946D01*
X383529Y204797D01*
X383407Y204650D01*
X383389Y204620D01*
X383368Y204593D01*
X383278Y204425D01*
X383183Y204259D01*
X383172Y204227D01*
X383155Y204196D01*
X383096Y204015D01*
X383032Y203835D01*
X383027Y203801D01*
X383016Y203768D01*
X382990Y203579D01*
X382959Y203391D01*
X382959Y203356D01*
X382955Y203322D01*
X382962Y203131D01*
X382965Y202941D01*
X382972Y202906D01*
X382973Y202872D01*
X383014Y202686D01*
X383051Y202498D01*
X383063Y202466D01*
X383071Y202432D01*
X383144Y202256D01*
X383213Y202078D01*
X383231Y202049D01*
X383244Y202017D01*
X383348Y201856D01*
X383447Y201694D01*
X383470Y201668D01*
X383489Y201639D01*
X383695Y201404D01*
X387118Y197982D01*
X389129Y193127D01*
X389129Y187873D01*
X387118Y183018D01*
X383695Y179596D01*
X383673Y179569D01*
X383647Y179546D01*
X383529Y179397D01*
X383407Y179250D01*
X383389Y179220D01*
X383368Y179193D01*
X383278Y179025D01*
X383183Y178859D01*
X383172Y178827D01*
X383155Y178796D01*
X383096Y178615D01*
X383032Y178435D01*
X383027Y178401D01*
X383016Y178368D01*
X382990Y178179D01*
X382959Y177991D01*
X382959Y177956D01*
X382955Y177922D01*
X382962Y177731D01*
X382965Y177541D01*
X382972Y177506D01*
X382973Y177472D01*
X383014Y177286D01*
X383051Y177098D01*
X383063Y177066D01*
X383071Y177032D01*
X383144Y176856D01*
X383213Y176678D01*
X383231Y176649D01*
X383244Y176617D01*
X383348Y176456D01*
X383447Y176294D01*
X383470Y176268D01*
X383489Y176239D01*
X383658Y176047D01*
X383660Y176044D01*
X383662Y176042D01*
X383695Y176004D01*
X387118Y172582D01*
X389129Y167727D01*
X389129Y162473D01*
X387118Y157618D01*
X383695Y154196D01*
X383673Y154169D01*
X383647Y154146D01*
X383529Y153997D01*
X383407Y153850D01*
X383389Y153820D01*
X383368Y153793D01*
X383278Y153625D01*
X383183Y153459D01*
X383172Y153427D01*
X383155Y153396D01*
X383096Y153215D01*
X383032Y153035D01*
X383027Y153001D01*
X383016Y152968D01*
X382990Y152779D01*
X382959Y152591D01*
X382959Y152556D01*
X382955Y152522D01*
X382962Y152331D01*
X382965Y152141D01*
X382972Y152106D01*
X382973Y152072D01*
X383014Y151886D01*
X383051Y151698D01*
X383063Y151666D01*
X383071Y151632D01*
X383144Y151456D01*
X383213Y151278D01*
X383231Y151249D01*
X383244Y151217D01*
X383348Y151056D01*
X383447Y150894D01*
X383470Y150868D01*
X383489Y150839D01*
X383645Y150662D01*
X383653Y150651D01*
X383660Y150645D01*
X383695Y150604D01*
X387118Y147182D01*
X389129Y142327D01*
X389129Y137073D01*
X387118Y132218D01*
X383695Y128796D01*
X383673Y128769D01*
X383647Y128746D01*
X383529Y128597D01*
X383407Y128450D01*
X383389Y128420D01*
X383368Y128393D01*
X383278Y128225D01*
X383183Y128059D01*
X383172Y128027D01*
X383155Y127996D01*
X383096Y127815D01*
X383032Y127635D01*
X383027Y127601D01*
X383016Y127568D01*
X382990Y127379D01*
X382959Y127191D01*
X382959Y127156D01*
X382955Y127122D01*
X382962Y126931D01*
X382965Y126741D01*
X382972Y126706D01*
X382973Y126672D01*
X383014Y126486D01*
X383051Y126298D01*
X383063Y126266D01*
X383071Y126232D01*
X383144Y126056D01*
X383213Y125878D01*
X383231Y125849D01*
X383244Y125817D01*
X383348Y125656D01*
X383447Y125494D01*
X383470Y125468D01*
X383489Y125439D01*
X383632Y125276D01*
X383645Y125259D01*
X383657Y125248D01*
X383695Y125204D01*
X387118Y121782D01*
X389129Y116927D01*
X389129Y111673D01*
X387118Y106818D01*
X383402Y103102D01*
X381334Y102246D01*
X381307Y102232D01*
X381279Y102222D01*
X381108Y102128D01*
X380935Y102037D01*
X380911Y102019D01*
X380885Y102004D01*
X380734Y101881D01*
X380579Y101761D01*
X380559Y101739D01*
X380535Y101720D01*
X380408Y101572D01*
X380278Y101427D01*
X380262Y101401D01*
X380242Y101378D01*
X380142Y101210D01*
X380040Y101045D01*
X380028Y101017D01*
X380013Y100990D01*
X379945Y100807D01*
X379873Y100627D01*
X379867Y100597D01*
X379856Y100568D01*
X379822Y100377D01*
X379783Y100185D01*
X379782Y100155D01*
X379777Y100125D01*
X379777Y99931D01*
X379772Y99735D01*
X379777Y99705D01*
X379777Y99675D01*
X379811Y99484D01*
X379841Y99290D01*
X379851Y99261D01*
X379856Y99232D01*
X379924Y99049D01*
X379987Y98865D01*
X380002Y98838D01*
X380013Y98809D01*
X380112Y98642D01*
X380207Y98471D01*
X380226Y98448D01*
X380241Y98422D01*
X380368Y98274D01*
X380492Y98123D01*
X380515Y98103D01*
X380535Y98080D01*
X380686Y97957D01*
X380834Y97830D01*
X380860Y97815D01*
X380884Y97796D01*
X381153Y97637D01*
X381245Y97590D01*
X382539Y96650D01*
X383670Y95519D01*
X384610Y94225D01*
X385336Y92800D01*
X385779Y91439D01*
X368300Y91439D01*
X368266Y91436D01*
X368231Y91438D01*
X368042Y91416D01*
X367852Y91399D01*
X367818Y91390D01*
X367784Y91386D01*
X367601Y91331D01*
X367417Y91281D01*
X367386Y91266D01*
X367353Y91256D01*
X367182Y91169D01*
X367011Y91088D01*
X366983Y91067D01*
X366952Y91052D01*
X366800Y90936D01*
X366645Y90825D01*
X366621Y90801D01*
X366593Y90780D01*
X366464Y90640D01*
X366331Y90503D01*
X366311Y90474D01*
X366288Y90449D01*
X366185Y90288D01*
X366079Y90130D01*
X366065Y90098D01*
X366046Y90069D01*
X365974Y89892D01*
X365896Y89718D01*
X365888Y89684D01*
X365875Y89652D01*
X365835Y89466D01*
X365790Y89280D01*
X365788Y89246D01*
X365780Y89212D01*
X365761Y88900D01*
X365764Y88865D01*
X365762Y88831D01*
X365784Y88641D01*
X365801Y88451D01*
X365810Y88418D01*
X365814Y88384D01*
X365869Y88201D01*
X365920Y88017D01*
X365934Y87986D01*
X365944Y87953D01*
X366031Y87782D01*
X366113Y87610D01*
X366133Y87582D01*
X366149Y87551D01*
X366264Y87399D01*
X366375Y87244D01*
X366400Y87220D01*
X366421Y87192D01*
X366561Y87063D01*
X366698Y86930D01*
X366726Y86911D01*
X366752Y86887D01*
X366913Y86785D01*
X367071Y86678D01*
X367102Y86664D01*
X367132Y86645D01*
X367308Y86573D01*
X367483Y86496D01*
X367516Y86488D01*
X367548Y86475D01*
X367735Y86434D01*
X367920Y86389D01*
X367954Y86387D01*
X367988Y86380D01*
X368300Y86361D01*
X385779Y86361D01*
X385336Y85000D01*
X384610Y83575D01*
X383670Y82281D01*
X382539Y81150D01*
X381245Y80210D01*
X381153Y80163D01*
X381127Y80147D01*
X381100Y80135D01*
X380938Y80028D01*
X380772Y79924D01*
X380749Y79903D01*
X380724Y79886D01*
X380583Y79752D01*
X380439Y79621D01*
X380420Y79597D01*
X380398Y79576D01*
X380283Y79418D01*
X380164Y79264D01*
X380150Y79237D01*
X380132Y79212D01*
X380047Y79038D01*
X379957Y78864D01*
X379948Y78835D01*
X379934Y78808D01*
X379881Y78621D01*
X379824Y78434D01*
X379820Y78404D01*
X379811Y78375D01*
X379792Y78180D01*
X379768Y77987D01*
X379770Y77957D01*
X379767Y77927D01*
X379782Y77732D01*
X379793Y77538D01*
X379800Y77508D01*
X379802Y77478D01*
X379852Y77289D01*
X379896Y77099D01*
X379908Y77072D01*
X379916Y77042D01*
X379998Y76866D01*
X380076Y76686D01*
X380093Y76661D01*
X380105Y76634D01*
X380217Y76474D01*
X380325Y76312D01*
X380346Y76290D01*
X380364Y76265D01*
X380502Y76128D01*
X380637Y75987D01*
X380662Y75969D01*
X380683Y75947D01*
X380843Y75837D01*
X381001Y75722D01*
X381028Y75709D01*
X381053Y75691D01*
X381334Y75554D01*
X383402Y74698D01*
X387118Y70982D01*
X389129Y66127D01*
X389129Y60873D01*
X387118Y56018D01*
X383695Y52596D01*
X383673Y52569D01*
X383647Y52546D01*
X383529Y52397D01*
X383407Y52250D01*
X383389Y52220D01*
X383368Y52193D01*
X383278Y52025D01*
X383183Y51859D01*
X383172Y51827D01*
X383155Y51796D01*
X383096Y51615D01*
X383032Y51435D01*
X383027Y51401D01*
X383016Y51368D01*
X382990Y51179D01*
X382959Y50991D01*
X382959Y50956D01*
X382955Y50922D01*
X382962Y50731D01*
X382965Y50541D01*
X382972Y50506D01*
X382973Y50472D01*
X383014Y50286D01*
X383015Y50284D01*
X383016Y50272D01*
X383018Y50265D01*
X383051Y50098D01*
X383063Y50066D01*
X383071Y50032D01*
X383136Y49876D01*
X383146Y49841D01*
X383161Y49812D01*
X383213Y49678D01*
X383231Y49649D01*
X383244Y49617D01*
X383322Y49496D01*
X383351Y49440D01*
X383386Y49394D01*
X383447Y49294D01*
X383470Y49268D01*
X383489Y49239D01*
X383594Y49119D01*
X383623Y49081D01*
X383648Y49058D01*
X383695Y49004D01*
X387118Y45582D01*
X389129Y40727D01*
X389129Y35473D01*
X387118Y30618D01*
X383402Y26902D01*
X378547Y24891D01*
X358053Y24891D01*
X353198Y26902D01*
X349482Y30618D01*
X347471Y35473D01*
X347471Y40727D01*
X349482Y45582D01*
X352905Y49004D01*
X352927Y49031D01*
X352953Y49054D01*
X353013Y49131D01*
X353067Y49186D01*
X353113Y49254D01*
X353193Y49350D01*
X353211Y49380D01*
X353232Y49407D01*
X353291Y49517D01*
X353319Y49559D01*
X353342Y49609D01*
X353417Y49741D01*
X353428Y49773D01*
X353445Y49804D01*
X353492Y49948D01*
X353502Y49971D01*
X353508Y49999D01*
X353568Y50165D01*
X353573Y50199D01*
X353584Y50232D01*
X353608Y50407D01*
X353608Y50408D01*
X353608Y50410D01*
X353610Y50421D01*
X353641Y50609D01*
X353641Y50644D01*
X353645Y50678D01*
X353638Y50869D01*
X353635Y51060D01*
X353628Y51094D01*
X353627Y51128D01*
X353586Y51314D01*
X353549Y51502D01*
X353537Y51534D01*
X353529Y51568D01*
X353456Y51743D01*
X353387Y51922D01*
X353369Y51951D01*
X353356Y51983D01*
X353253Y52143D01*
X353153Y52306D01*
X353130Y52332D01*
X353111Y52361D01*
X352905Y52596D01*
X349482Y56018D01*
X347471Y60873D01*
X347471Y66127D01*
X349482Y70982D01*
X353198Y74698D01*
X355266Y75554D01*
X355293Y75568D01*
X355321Y75578D01*
X355492Y75672D01*
X355665Y75763D01*
X355689Y75781D01*
X355715Y75796D01*
X355866Y75919D01*
X356021Y76039D01*
X356041Y76061D01*
X356065Y76080D01*
X356192Y76228D01*
X356322Y76373D01*
X356338Y76399D01*
X356358Y76422D01*
X356458Y76590D01*
X356560Y76755D01*
X356572Y76783D01*
X356587Y76810D01*
X356655Y76993D01*
X356727Y77173D01*
X356733Y77203D01*
X356744Y77232D01*
X356778Y77423D01*
X356817Y77615D01*
X356818Y77645D01*
X356823Y77675D01*
X356823Y77869D01*
X356828Y78065D01*
X356823Y78095D01*
X356823Y78125D01*
X356789Y78316D01*
X356759Y78510D01*
X356749Y78539D01*
X356744Y78568D01*
X356676Y78751D01*
X356613Y78935D01*
X356598Y78962D01*
X356587Y78991D01*
X356488Y79158D01*
X356393Y79329D01*
X356374Y79352D01*
X356359Y79378D01*
X356232Y79526D01*
X356108Y79677D01*
X356085Y79697D01*
X356065Y79720D01*
X355914Y79843D01*
X355766Y79970D01*
X355740Y79985D01*
X355716Y80004D01*
X355447Y80163D01*
X355355Y80210D01*
X354061Y81150D01*
X352930Y82281D01*
X351990Y83575D01*
X351275Y84977D01*
X351226Y85055D01*
X351185Y85139D01*
X351107Y85246D01*
X351036Y85358D01*
X350974Y85427D01*
X350919Y85502D01*
X350823Y85593D01*
X350733Y85692D01*
X350660Y85748D01*
X350592Y85812D01*
X350482Y85885D01*
X350376Y85966D01*
X350294Y86009D01*
X350216Y86060D01*
X350094Y86112D01*
X349977Y86173D01*
X349888Y86201D01*
X349802Y86237D01*
X349673Y86267D01*
X349547Y86307D01*
X349454Y86318D01*
X349364Y86339D01*
X349231Y86345D01*
X349100Y86362D01*
X349007Y86357D01*
X348914Y86361D01*
X348783Y86344D01*
X348650Y86337D01*
X348560Y86316D01*
X348467Y86304D01*
X348265Y86246D01*
X348212Y86234D01*
X348195Y86226D01*
X348167Y86218D01*
X346484Y85624D01*
X346460Y85613D01*
X346420Y85600D01*
X344942Y85032D01*
X344936Y85031D01*
X343353Y85115D01*
X343326Y85114D01*
X343284Y85118D01*
X341702Y85159D01*
X341630Y85170D01*
X341550Y85192D01*
X341306Y85220D01*
X341266Y85226D01*
X341255Y85226D01*
X341240Y85227D01*
X315775Y86581D01*
X315768Y86581D01*
X315761Y86582D01*
X315542Y86573D01*
X315325Y86565D01*
X315318Y86563D01*
X315311Y86563D01*
X315098Y86516D01*
X314885Y86469D01*
X314878Y86467D01*
X314872Y86465D01*
X314669Y86381D01*
X314468Y86298D01*
X314462Y86294D01*
X314456Y86292D01*
X314273Y86173D01*
X314089Y86056D01*
X314084Y86051D01*
X314078Y86047D01*
X313844Y85840D01*
X313784Y85780D01*
X313761Y85753D01*
X313758Y85750D01*
X313752Y85742D01*
X313679Y85654D01*
X313567Y85534D01*
X313535Y85482D01*
X313495Y85435D01*
X313414Y85292D01*
X313380Y85239D01*
X313150Y85239D01*
X313066Y85232D01*
X312982Y85234D01*
X312842Y85212D01*
X312702Y85199D01*
X312620Y85177D01*
X312537Y85164D01*
X312309Y85092D01*
X312267Y85081D01*
X312256Y85076D01*
X312239Y85070D01*
X312238Y85070D01*
X312048Y84977D01*
X311860Y84887D01*
X311848Y84878D01*
X311834Y84872D01*
X311663Y84746D01*
X311494Y84625D01*
X311483Y84614D01*
X311471Y84605D01*
X311326Y84453D01*
X311180Y84302D01*
X311171Y84290D01*
X311161Y84279D01*
X311045Y84103D01*
X310928Y83929D01*
X310922Y83915D01*
X310913Y83902D01*
X310830Y83708D01*
X310746Y83518D01*
X310742Y83503D01*
X310736Y83489D01*
X310689Y83284D01*
X310639Y83080D01*
X310638Y83065D01*
X310635Y83050D01*
X310624Y82841D01*
X310611Y82631D01*
X310613Y82615D01*
X310612Y82600D01*
X310639Y82394D01*
X310663Y82184D01*
X310668Y82169D01*
X310670Y82154D01*
X310732Y81955D01*
X310794Y81753D01*
X310801Y81739D01*
X310805Y81724D01*
X310903Y81538D01*
X310998Y81351D01*
X311007Y81339D01*
X311014Y81325D01*
X311144Y81159D01*
X311270Y80992D01*
X311281Y80982D01*
X311291Y80970D01*
X311447Y80829D01*
X311601Y80687D01*
X311614Y80679D01*
X311625Y80669D01*
X311804Y80558D01*
X311981Y80445D01*
X311995Y80440D01*
X312008Y80432D01*
X312204Y80354D01*
X312397Y80275D01*
X312412Y80271D01*
X312427Y80266D01*
X312632Y80224D01*
X312838Y80180D01*
X312856Y80179D01*
X312868Y80176D01*
X312911Y80175D01*
X313041Y80167D01*
X313041Y77365D01*
X312868Y76719D01*
X312533Y76140D01*
X312060Y75667D01*
X311481Y75332D01*
X310835Y75159D01*
X305539Y75159D01*
X305539Y82272D01*
X305536Y82307D01*
X305538Y82341D01*
X305516Y82530D01*
X305499Y82721D01*
X305490Y82754D01*
X305486Y82788D01*
X305431Y82971D01*
X305381Y83155D01*
X305366Y83186D01*
X305356Y83219D01*
X305269Y83390D01*
X305188Y83562D01*
X305167Y83590D01*
X305152Y83621D01*
X305036Y83773D01*
X304925Y83928D01*
X304901Y83952D01*
X304880Y83979D01*
X304740Y84108D01*
X304603Y84242D01*
X304574Y84261D01*
X304549Y84285D01*
X304388Y84387D01*
X304230Y84494D01*
X304198Y84508D01*
X304169Y84526D01*
X303992Y84599D01*
X303818Y84676D01*
X303784Y84684D01*
X303752Y84697D01*
X303566Y84737D01*
X303380Y84783D01*
X303346Y84785D01*
X303312Y84792D01*
X303000Y84811D01*
X302965Y84808D01*
X302931Y84810D01*
X302741Y84788D01*
X302551Y84771D01*
X302518Y84762D01*
X302484Y84758D01*
X302301Y84703D01*
X302117Y84653D01*
X302086Y84638D01*
X302053Y84628D01*
X301882Y84541D01*
X301710Y84459D01*
X301682Y84439D01*
X301651Y84424D01*
X301499Y84308D01*
X301344Y84197D01*
X301320Y84172D01*
X301292Y84152D01*
X301163Y84012D01*
X301030Y83875D01*
X301011Y83846D01*
X300987Y83820D01*
X300885Y83659D01*
X300778Y83502D01*
X300764Y83470D01*
X300745Y83441D01*
X300673Y83264D01*
X300596Y83090D01*
X300588Y83056D01*
X300575Y83024D01*
X300534Y82837D01*
X300489Y82652D01*
X300487Y82618D01*
X300480Y82584D01*
X300461Y82272D01*
X300461Y75159D01*
X295165Y75159D01*
X294519Y75332D01*
X293940Y75667D01*
X293467Y76140D01*
X293132Y76719D01*
X292959Y77365D01*
X292959Y80170D01*
X293060Y80179D01*
X293269Y80195D01*
X293284Y80199D01*
X293299Y80200D01*
X293502Y80256D01*
X293705Y80309D01*
X293718Y80315D01*
X293733Y80319D01*
X293923Y80409D01*
X294113Y80497D01*
X294126Y80506D01*
X294140Y80512D01*
X294311Y80635D01*
X294483Y80755D01*
X294493Y80766D01*
X294506Y80775D01*
X294653Y80925D01*
X294801Y81074D01*
X294809Y81086D01*
X294820Y81097D01*
X294938Y81271D01*
X295057Y81444D01*
X295064Y81458D01*
X295072Y81470D01*
X295158Y81663D01*
X295244Y81853D01*
X295248Y81868D01*
X295254Y81882D01*
X295304Y82086D01*
X295356Y82289D01*
X295357Y82305D01*
X295361Y82319D01*
X295374Y82528D01*
X295389Y82738D01*
X295388Y82754D01*
X295389Y82769D01*
X295364Y82978D01*
X295343Y83186D01*
X295338Y83201D01*
X295337Y83216D01*
X295276Y83417D01*
X295218Y83619D01*
X295211Y83632D01*
X295206Y83647D01*
X295112Y83833D01*
X295018Y84022D01*
X295009Y84035D01*
X295002Y84048D01*
X294876Y84215D01*
X294750Y84384D01*
X294739Y84395D01*
X294730Y84407D01*
X294575Y84550D01*
X294423Y84693D01*
X294410Y84702D01*
X294399Y84712D01*
X294221Y84825D01*
X294046Y84940D01*
X294029Y84948D01*
X294019Y84954D01*
X293979Y84971D01*
X293762Y85070D01*
X293761Y85070D01*
X293680Y85093D01*
X293603Y85125D01*
X293602Y85125D01*
X293464Y85155D01*
X293328Y85194D01*
X293244Y85202D01*
X293162Y85220D01*
X292923Y85235D01*
X292880Y85239D01*
X292868Y85238D01*
X292850Y85239D01*
X292624Y85239D01*
X292607Y85275D01*
X292512Y85408D01*
X292422Y85547D01*
X292371Y85604D01*
X292345Y85641D01*
X292302Y85683D01*
X292216Y85781D01*
X290762Y87234D01*
X289911Y89288D01*
X289911Y203112D01*
X290762Y205166D01*
X292334Y206738D01*
X294388Y207589D01*
X311628Y207589D01*
X311639Y207585D01*
X311714Y207552D01*
X311853Y207518D01*
X311990Y207475D01*
X312072Y207465D01*
X312152Y207445D01*
X312295Y207437D01*
X312436Y207419D01*
X312519Y207423D01*
X312601Y207418D01*
X312743Y207434D01*
X312886Y207442D01*
X312966Y207460D01*
X313048Y207470D01*
X313185Y207511D01*
X313325Y207544D01*
X313400Y207576D01*
X313479Y207600D01*
X313607Y207665D01*
X313738Y207722D01*
X313807Y207767D01*
X313881Y207804D01*
X313994Y207891D01*
X314114Y207970D01*
X314174Y208027D01*
X314239Y208076D01*
X314336Y208182D01*
X314440Y208280D01*
X314489Y208347D01*
X314545Y208408D01*
X314621Y208528D01*
X314706Y208644D01*
X314742Y208718D01*
X314786Y208787D01*
X314841Y208920D01*
X314903Y209048D01*
X314926Y209128D01*
X314957Y209204D01*
X314987Y209344D01*
X315027Y209481D01*
X315035Y209563D01*
X315052Y209644D01*
X315067Y209890D01*
X315071Y209929D01*
X315070Y209940D01*
X315071Y209956D01*
X315071Y211312D01*
X315922Y213366D01*
X317494Y214938D01*
X319548Y215789D01*
X335772Y215789D01*
X337826Y214938D01*
X339398Y213366D01*
X340249Y211312D01*
X340249Y200948D01*
X340256Y200866D01*
X340254Y200784D01*
X340276Y200643D01*
X340289Y200500D01*
X340310Y200420D01*
X340323Y200339D01*
X340370Y200203D01*
X340407Y200066D01*
X340442Y199991D01*
X340469Y199913D01*
X340539Y199788D01*
X340601Y199659D01*
X340648Y199592D01*
X340689Y199520D01*
X340779Y199409D01*
X340863Y199293D01*
X340922Y199235D01*
X340974Y199172D01*
X341083Y199079D01*
X341185Y198979D01*
X341254Y198933D01*
X341316Y198879D01*
X341440Y198807D01*
X341558Y198727D01*
X341634Y198693D01*
X341705Y198652D01*
X341839Y198602D01*
X341970Y198544D01*
X342050Y198525D01*
X342128Y198497D01*
X342269Y198472D01*
X342408Y198438D01*
X342490Y198433D01*
X342571Y198418D01*
X342714Y198419D01*
X342857Y198410D01*
X342939Y198420D01*
X343021Y198420D01*
X343162Y198446D01*
X343304Y198462D01*
X343383Y198486D01*
X343464Y198501D01*
X343697Y198581D01*
X343735Y198592D01*
X343745Y198597D01*
X343760Y198603D01*
X343823Y198629D01*
X349077Y198629D01*
X349241Y198643D01*
X349405Y198650D01*
X349465Y198663D01*
X349526Y198669D01*
X349684Y198712D01*
X349845Y198748D01*
X349901Y198771D01*
X349960Y198787D01*
X350108Y198858D01*
X350260Y198921D01*
X350311Y198954D01*
X350367Y198981D01*
X350500Y199076D01*
X350638Y199166D01*
X350696Y199217D01*
X350733Y199243D01*
X350775Y199286D01*
X350873Y199372D01*
X352905Y201405D01*
X352927Y201431D01*
X352953Y201454D01*
X353018Y201537D01*
X353022Y201541D01*
X353027Y201548D01*
X353071Y201603D01*
X353193Y201750D01*
X353211Y201780D01*
X353232Y201807D01*
X353322Y201975D01*
X353417Y202141D01*
X353428Y202173D01*
X353445Y202204D01*
X353504Y202385D01*
X353568Y202565D01*
X353573Y202599D01*
X353584Y202632D01*
X353610Y202821D01*
X353641Y203009D01*
X353641Y203044D01*
X353645Y203078D01*
X353638Y203269D01*
X353635Y203460D01*
X353628Y203493D01*
X353627Y203528D01*
X353586Y203715D01*
X353549Y203902D01*
X353537Y203934D01*
X353529Y203968D01*
X353456Y204143D01*
X353387Y204322D01*
X353369Y204351D01*
X353356Y204383D01*
X353252Y204543D01*
X353153Y204706D01*
X353130Y204732D01*
X353111Y204761D01*
X352905Y204996D01*
X349482Y208418D01*
X347471Y213273D01*
X347471Y218527D01*
X349482Y223382D01*
X352905Y226804D01*
X352927Y226831D01*
X352953Y226854D01*
X353071Y227003D01*
X353193Y227150D01*
X353211Y227180D01*
X353232Y227207D01*
X353322Y227375D01*
X353417Y227541D01*
X353428Y227573D01*
X353445Y227604D01*
X353504Y227785D01*
X353568Y227965D01*
X353573Y227999D01*
X353584Y228032D01*
X353610Y228221D01*
X353641Y228409D01*
X353641Y228444D01*
X353645Y228478D01*
X353638Y228669D01*
X353635Y228860D01*
X353628Y228894D01*
X353627Y228928D01*
X353586Y229114D01*
X353549Y229302D01*
X353537Y229334D01*
X353529Y229368D01*
X353456Y229543D01*
X353387Y229722D01*
X353369Y229751D01*
X353356Y229783D01*
X353253Y229943D01*
X353153Y230106D01*
X353130Y230132D01*
X353111Y230161D01*
X352905Y230396D01*
X349482Y233818D01*
X347471Y238673D01*
X347471Y243927D01*
X349482Y248782D01*
X352905Y252204D01*
X352927Y252231D01*
X352953Y252254D01*
X353071Y252403D01*
X353193Y252550D01*
X353211Y252580D01*
X353232Y252607D01*
X353322Y252775D01*
X353417Y252941D01*
X353428Y252973D01*
X353445Y253004D01*
X353504Y253185D01*
X353568Y253365D01*
X353573Y253399D01*
X353584Y253432D01*
X353610Y253621D01*
X353641Y253809D01*
X353641Y253844D01*
X353645Y253878D01*
X353638Y254069D01*
X353635Y254260D01*
X353628Y254294D01*
X353627Y254328D01*
X353586Y254514D01*
X353549Y254702D01*
X353537Y254734D01*
X353529Y254768D01*
X353456Y254943D01*
X353387Y255122D01*
X353369Y255151D01*
X353356Y255183D01*
X353253Y255343D01*
X353153Y255506D01*
X353130Y255532D01*
X353111Y255561D01*
X352905Y255796D01*
X349482Y259218D01*
X348294Y262087D01*
X348211Y262244D01*
X348135Y262404D01*
X348108Y262443D01*
X348085Y262486D01*
X347976Y262626D01*
X347873Y262770D01*
X347839Y262804D01*
X347810Y262842D01*
X347678Y262961D01*
X347551Y263084D01*
X347511Y263111D01*
X347475Y263143D01*
X347325Y263237D01*
X347178Y263337D01*
X347134Y263356D01*
X347093Y263381D01*
X346928Y263447D01*
X346766Y263519D01*
X346719Y263530D01*
X346675Y263548D01*
X346501Y263583D01*
X346328Y263625D01*
X346281Y263628D01*
X346234Y263638D01*
X346056Y263642D01*
X345879Y263653D01*
X345831Y263648D01*
X345784Y263649D01*
X345608Y263622D01*
X345432Y263601D01*
X345386Y263587D01*
X345339Y263580D01*
X345171Y263522D01*
X345001Y263471D01*
X344958Y263449D01*
X344913Y263434D01*
X344758Y263347D01*
X344599Y263266D01*
X344561Y263238D01*
X344520Y263214D01*
X344382Y263102D01*
X344241Y262994D01*
X344208Y262959D01*
X344171Y262929D01*
X344056Y262794D01*
X343935Y262663D01*
X343910Y262623D01*
X343879Y262587D01*
X343789Y262433D01*
X343694Y262284D01*
X343675Y262239D01*
X343651Y262198D01*
X343590Y262031D01*
X343523Y261867D01*
X343513Y261820D01*
X343496Y261775D01*
X343465Y261601D01*
X343428Y261427D01*
X343424Y261368D01*
X343418Y261332D01*
X343418Y261269D01*
X343409Y261115D01*
X343409Y256453D01*
X341398Y251598D01*
X337682Y247882D01*
X332827Y245871D01*
X330730Y245871D01*
X330592Y245859D01*
X330455Y245856D01*
X330369Y245839D01*
X330281Y245831D01*
X330148Y245795D01*
X330013Y245768D01*
X329931Y245736D01*
X329847Y245713D01*
X329723Y245654D01*
X329594Y245603D01*
X329519Y245557D01*
X329440Y245519D01*
X329328Y245439D01*
X329211Y245367D01*
X329145Y245308D01*
X329074Y245257D01*
X328978Y245158D01*
X328875Y245067D01*
X328821Y244998D01*
X328760Y244935D01*
X328683Y244820D01*
X328598Y244712D01*
X328541Y244610D01*
X328508Y244562D01*
X328488Y244516D01*
X328445Y244439D01*
X320931Y228936D01*
X320913Y228888D01*
X320870Y228801D01*
X320352Y227550D01*
X320328Y227519D01*
X320211Y227379D01*
X320190Y227342D01*
X320164Y227308D01*
X320115Y227223D01*
X319115Y226333D01*
X319079Y226295D01*
X319007Y226231D01*
X318050Y225274D01*
X318016Y225255D01*
X317854Y225170D01*
X317820Y225144D01*
X317783Y225123D01*
X317706Y225062D01*
X316441Y224623D01*
X316393Y224602D01*
X316302Y224570D01*
X315051Y224052D01*
X315013Y224048D01*
X314830Y224031D01*
X314789Y224020D01*
X314747Y224015D01*
X314653Y223989D01*
X313316Y224067D01*
X313264Y224065D01*
X313167Y224071D01*
X298085Y224071D01*
X297874Y224052D01*
X297663Y224036D01*
X297650Y224033D01*
X297637Y224031D01*
X297431Y223975D01*
X297227Y223922D01*
X297215Y223916D01*
X297203Y223913D01*
X297012Y223822D01*
X296819Y223733D01*
X296808Y223725D01*
X296796Y223719D01*
X296624Y223597D01*
X296450Y223474D01*
X296441Y223465D01*
X296430Y223457D01*
X296281Y223305D01*
X296133Y223155D01*
X296125Y223144D01*
X296116Y223135D01*
X295997Y222959D01*
X295877Y222785D01*
X295870Y222770D01*
X295864Y222762D01*
X295848Y222726D01*
X295739Y222504D01*
X295338Y221534D01*
X293766Y219962D01*
X291712Y219111D01*
X203288Y219111D01*
X201234Y219962D01*
X199689Y221507D01*
X199662Y221530D01*
X199639Y221556D01*
X199490Y221674D01*
X199344Y221796D01*
X199313Y221814D01*
X199286Y221835D01*
X199118Y221925D01*
X198953Y222020D01*
X198920Y222031D01*
X198889Y222048D01*
X198709Y222106D01*
X198528Y222170D01*
X198494Y222176D01*
X198461Y222187D01*
X198272Y222213D01*
X198084Y222244D01*
X198050Y222243D01*
X198015Y222248D01*
X197824Y222240D01*
X197634Y222238D01*
X197600Y222231D01*
X197565Y222230D01*
X197379Y222189D01*
X197192Y222152D01*
X197160Y222140D01*
X197126Y222132D01*
X196950Y222059D01*
X196772Y221990D01*
X196742Y221972D01*
X196710Y221959D01*
X196550Y221855D01*
X196387Y221756D01*
X196361Y221733D01*
X196332Y221714D01*
X196098Y221507D01*
X191752Y217162D01*
X191647Y217036D01*
X191535Y216915D01*
X191503Y216863D01*
X191464Y216817D01*
X191382Y216674D01*
X191294Y216535D01*
X191270Y216479D01*
X191240Y216426D01*
X191185Y216271D01*
X191123Y216119D01*
X191110Y216059D01*
X191089Y216001D01*
X191063Y215839D01*
X191028Y215678D01*
X191023Y215601D01*
X191016Y215557D01*
X191017Y215496D01*
X191009Y215366D01*
X191009Y187796D01*
X191012Y187761D01*
X191010Y187727D01*
X191032Y187538D01*
X191049Y187347D01*
X191058Y187314D01*
X191062Y187280D01*
X191117Y187097D01*
X191167Y186913D01*
X191182Y186882D01*
X191192Y186849D01*
X191279Y186678D01*
X191361Y186506D01*
X191381Y186478D01*
X191396Y186447D01*
X191512Y186295D01*
X191623Y186140D01*
X191648Y186116D01*
X191668Y186089D01*
X191808Y185960D01*
X191945Y185826D01*
X191974Y185807D01*
X192000Y185783D01*
X192161Y185681D01*
X192318Y185574D01*
X192350Y185560D01*
X192379Y185542D01*
X192556Y185469D01*
X192730Y185392D01*
X192764Y185384D01*
X192796Y185371D01*
X192983Y185331D01*
X193168Y185285D01*
X193202Y185283D01*
X193236Y185276D01*
X193548Y185257D01*
X221284Y185257D01*
X224271Y184019D01*
X241263Y167027D01*
X242501Y164040D01*
X242501Y62828D01*
X242504Y62793D01*
X242502Y62759D01*
X242524Y62570D01*
X242541Y62379D01*
X242550Y62346D01*
X242554Y62312D01*
X242609Y62129D01*
X242659Y61945D01*
X242674Y61914D01*
X242684Y61881D01*
X242771Y61710D01*
X242853Y61538D01*
X242873Y61510D01*
X242888Y61479D01*
X243004Y61327D01*
X243115Y61172D01*
X243140Y61148D01*
X243160Y61121D01*
X243300Y60992D01*
X243437Y60858D01*
X243466Y60839D01*
X243492Y60815D01*
X243653Y60713D01*
X243810Y60606D01*
X243842Y60592D01*
X243871Y60574D01*
X244048Y60501D01*
X244222Y60424D01*
X244256Y60416D01*
X244288Y60403D01*
X244475Y60363D01*
X244660Y60317D01*
X244694Y60315D01*
X244728Y60308D01*
X245040Y60289D01*
X291712Y60289D01*
X293766Y59438D01*
X295338Y57866D01*
X295739Y56896D01*
X295838Y56709D01*
X295934Y56519D01*
X295942Y56509D01*
X295948Y56497D01*
X296078Y56330D01*
X296206Y56161D01*
X296216Y56152D01*
X296224Y56141D01*
X296381Y55999D01*
X296537Y55855D01*
X296548Y55848D01*
X296558Y55840D01*
X296738Y55728D01*
X296917Y55614D01*
X296929Y55609D01*
X296940Y55602D01*
X297137Y55523D01*
X297333Y55443D01*
X297346Y55440D01*
X297359Y55435D01*
X297566Y55393D01*
X297774Y55348D01*
X297789Y55347D01*
X297800Y55345D01*
X297839Y55344D01*
X298085Y55329D01*
X308957Y55329D01*
X311945Y54091D01*
X314231Y51805D01*
X315469Y48817D01*
X315469Y32058D01*
X315488Y31847D01*
X315504Y31636D01*
X315507Y31623D01*
X315509Y31610D01*
X315565Y31405D01*
X315618Y31200D01*
X315624Y31188D01*
X315627Y31175D01*
X315718Y30985D01*
X315807Y30792D01*
X315815Y30781D01*
X315821Y30769D01*
X315944Y30597D01*
X316066Y30423D01*
X316075Y30414D01*
X316083Y30403D01*
X316235Y30254D01*
X316385Y30105D01*
X316396Y30098D01*
X316405Y30089D01*
X316582Y29970D01*
X316755Y29849D01*
X316770Y29843D01*
X316778Y29837D01*
X316815Y29821D01*
X317036Y29712D01*
X317506Y29518D01*
X319078Y27946D01*
X319929Y25892D01*
X319929Y12700D01*
X319932Y12665D01*
X319930Y12631D01*
X319952Y12442D01*
X319969Y12251D01*
X319978Y12218D01*
X319982Y12184D01*
X320037Y12001D01*
X320087Y11817D01*
X320102Y11786D01*
X320112Y11753D01*
X320199Y11582D01*
X320281Y11410D01*
X320301Y11382D01*
X320316Y11351D01*
X320432Y11199D01*
X320543Y11044D01*
X320568Y11020D01*
X320588Y10993D01*
X320728Y10864D01*
X320865Y10730D01*
X320894Y10711D01*
X320920Y10687D01*
X321081Y10585D01*
X321238Y10478D01*
X321270Y10464D01*
X321299Y10446D01*
X321476Y10373D01*
X321650Y10296D01*
X321684Y10288D01*
X321716Y10275D01*
X321903Y10235D01*
X322088Y10189D01*
X322122Y10187D01*
X322156Y10180D01*
X322468Y10161D01*
X403100Y10161D01*
X403135Y10164D01*
G37*
G36*
X110175Y10172D02*
X110175Y10172D01*
X110305Y10174D01*
X110398Y10192D01*
X110494Y10201D01*
X110619Y10235D01*
X110747Y10260D01*
X110836Y10294D01*
X110928Y10319D01*
X111045Y10375D01*
X111167Y10422D01*
X111249Y10472D01*
X111335Y10513D01*
X111440Y10588D01*
X111552Y10656D01*
X111623Y10719D01*
X111701Y10775D01*
X111792Y10868D01*
X111889Y10954D01*
X111948Y11029D01*
X112015Y11097D01*
X112088Y11205D01*
X112168Y11307D01*
X112214Y11391D01*
X112267Y11470D01*
X112320Y11589D01*
X112381Y11704D01*
X112411Y11795D01*
X112449Y11882D01*
X112480Y12009D01*
X112520Y12132D01*
X112533Y12227D01*
X112556Y12320D01*
X112564Y12449D01*
X112582Y12578D01*
X112578Y12674D01*
X112584Y12769D01*
X112569Y12898D01*
X112563Y13028D01*
X112543Y13121D01*
X112532Y13216D01*
X112494Y13341D01*
X112466Y13468D01*
X112429Y13556D01*
X112401Y13647D01*
X112342Y13763D01*
X112292Y13883D01*
X112240Y13963D01*
X112197Y14049D01*
X112118Y14152D01*
X112048Y14261D01*
X111962Y14359D01*
X111925Y14407D01*
X111892Y14438D01*
X111841Y14496D01*
X110642Y15694D01*
X109791Y17748D01*
X109791Y27972D01*
X110642Y30026D01*
X112214Y31598D01*
X114615Y32592D01*
X114678Y32625D01*
X114744Y32650D01*
X114877Y32729D01*
X115014Y32801D01*
X115070Y32844D01*
X115131Y32880D01*
X115248Y32982D01*
X115370Y33077D01*
X115418Y33129D01*
X115471Y33176D01*
X115568Y33296D01*
X115672Y33411D01*
X115709Y33471D01*
X115754Y33526D01*
X115828Y33662D01*
X115910Y33793D01*
X115936Y33859D01*
X115970Y33921D01*
X116019Y34068D01*
X116076Y34211D01*
X116090Y34281D01*
X116113Y34348D01*
X116135Y34501D01*
X116166Y34653D01*
X116168Y34723D01*
X116178Y34793D01*
X116174Y34948D01*
X116177Y35103D01*
X116166Y35173D01*
X116164Y35243D01*
X116132Y35394D01*
X116108Y35548D01*
X116085Y35615D01*
X116071Y35684D01*
X116012Y35827D01*
X115962Y35973D01*
X115928Y36035D01*
X115901Y36101D01*
X115818Y36232D01*
X115743Y36367D01*
X115698Y36422D01*
X115660Y36481D01*
X115556Y36595D01*
X115457Y36715D01*
X115403Y36761D01*
X115356Y36813D01*
X115233Y36907D01*
X115115Y37008D01*
X115054Y37043D01*
X114998Y37086D01*
X114860Y37157D01*
X114726Y37235D01*
X114660Y37259D01*
X114597Y37292D01*
X114580Y37297D01*
X113940Y37667D01*
X113467Y38140D01*
X113132Y38719D01*
X112959Y39365D01*
X112959Y44661D01*
X120072Y44661D01*
X120107Y44664D01*
X120141Y44662D01*
X120330Y44684D01*
X120521Y44700D01*
X120554Y44710D01*
X120588Y44714D01*
X120771Y44769D01*
X120955Y44819D01*
X120986Y44834D01*
X121019Y44844D01*
X121190Y44931D01*
X121362Y45012D01*
X121390Y45033D01*
X121421Y45048D01*
X121573Y45163D01*
X121728Y45275D01*
X121752Y45299D01*
X121779Y45320D01*
X121908Y45460D01*
X122042Y45597D01*
X122061Y45626D01*
X122085Y45651D01*
X122187Y45812D01*
X122294Y45970D01*
X122308Y46002D01*
X122326Y46031D01*
X122399Y46208D01*
X122476Y46382D01*
X122484Y46416D01*
X122497Y46448D01*
X122537Y46634D01*
X122583Y46819D01*
X122585Y46854D01*
X122592Y46888D01*
X122611Y47200D01*
X122608Y47235D01*
X122610Y47269D01*
X122588Y47459D01*
X122571Y47649D01*
X122562Y47682D01*
X122558Y47716D01*
X122503Y47899D01*
X122453Y48083D01*
X122438Y48114D01*
X122428Y48147D01*
X122341Y48318D01*
X122259Y48490D01*
X122239Y48518D01*
X122224Y48549D01*
X122108Y48701D01*
X121997Y48856D01*
X121972Y48880D01*
X121952Y48907D01*
X121812Y49037D01*
X121675Y49170D01*
X121646Y49189D01*
X121620Y49213D01*
X121459Y49315D01*
X121302Y49422D01*
X121270Y49436D01*
X121241Y49454D01*
X121064Y49527D01*
X120890Y49604D01*
X120856Y49612D01*
X120824Y49625D01*
X120637Y49666D01*
X120452Y49711D01*
X120418Y49713D01*
X120384Y49720D01*
X120072Y49739D01*
X112959Y49739D01*
X112959Y55035D01*
X113132Y55681D01*
X113467Y56260D01*
X113940Y56733D01*
X114519Y57068D01*
X115165Y57241D01*
X117970Y57241D01*
X117979Y57140D01*
X117995Y56931D01*
X117999Y56916D01*
X118000Y56901D01*
X118056Y56698D01*
X118109Y56495D01*
X118115Y56482D01*
X118119Y56467D01*
X118209Y56277D01*
X118297Y56087D01*
X118306Y56074D01*
X118312Y56060D01*
X118435Y55889D01*
X118555Y55717D01*
X118566Y55707D01*
X118575Y55694D01*
X118725Y55547D01*
X118874Y55399D01*
X118886Y55391D01*
X118897Y55380D01*
X119071Y55262D01*
X119244Y55143D01*
X119258Y55136D01*
X119270Y55128D01*
X119463Y55042D01*
X119653Y54956D01*
X119668Y54952D01*
X119682Y54946D01*
X119886Y54896D01*
X120089Y54844D01*
X120105Y54843D01*
X120119Y54839D01*
X120328Y54826D01*
X120538Y54811D01*
X120554Y54812D01*
X120569Y54811D01*
X120778Y54836D01*
X120986Y54857D01*
X121001Y54862D01*
X121016Y54863D01*
X121218Y54924D01*
X121419Y54982D01*
X121432Y54989D01*
X121447Y54994D01*
X121633Y55088D01*
X121822Y55182D01*
X121835Y55191D01*
X121848Y55198D01*
X122015Y55324D01*
X122184Y55450D01*
X122195Y55461D01*
X122207Y55470D01*
X122350Y55625D01*
X122493Y55777D01*
X122502Y55790D01*
X122512Y55801D01*
X122625Y55979D01*
X122740Y56154D01*
X122748Y56171D01*
X122754Y56181D01*
X122771Y56221D01*
X122870Y56438D01*
X122870Y56439D01*
X122893Y56520D01*
X122925Y56597D01*
X122925Y56598D01*
X122955Y56736D01*
X122994Y56872D01*
X123002Y56956D01*
X123020Y57038D01*
X123035Y57277D01*
X123039Y57320D01*
X123038Y57332D01*
X123039Y57350D01*
X123039Y57576D01*
X123075Y57593D01*
X123208Y57688D01*
X123347Y57778D01*
X123404Y57829D01*
X123441Y57855D01*
X123483Y57898D01*
X123581Y57984D01*
X124328Y58731D01*
X124433Y58858D01*
X124545Y58978D01*
X124577Y59030D01*
X124616Y59077D01*
X124698Y59219D01*
X124786Y59358D01*
X124810Y59415D01*
X124840Y59468D01*
X124895Y59622D01*
X124957Y59775D01*
X124970Y59834D01*
X124991Y59892D01*
X125017Y60054D01*
X125052Y60215D01*
X125057Y60292D01*
X125064Y60336D01*
X125063Y60397D01*
X125071Y60527D01*
X125071Y61157D01*
X126309Y64145D01*
X127617Y65452D01*
X127692Y65542D01*
X127774Y65625D01*
X127836Y65714D01*
X127906Y65798D01*
X127964Y65899D01*
X128030Y65995D01*
X128098Y66134D01*
X128129Y66189D01*
X128141Y66223D01*
X128167Y66276D01*
X129216Y68808D01*
X131852Y71444D01*
X133310Y72048D01*
X133468Y72130D01*
X133628Y72207D01*
X133667Y72234D01*
X133709Y72257D01*
X133850Y72365D01*
X133994Y72469D01*
X134027Y72503D01*
X134065Y72532D01*
X134184Y72664D01*
X134308Y72791D01*
X134335Y72831D01*
X134367Y72867D01*
X134460Y73017D01*
X134560Y73164D01*
X134579Y73208D01*
X134605Y73249D01*
X134670Y73414D01*
X134742Y73576D01*
X134754Y73623D01*
X134771Y73667D01*
X134807Y73841D01*
X134849Y74014D01*
X134852Y74061D01*
X134861Y74108D01*
X134866Y74286D01*
X134877Y74463D01*
X134871Y74511D01*
X134872Y74558D01*
X134845Y74734D01*
X134824Y74910D01*
X134811Y74956D01*
X134803Y75003D01*
X134746Y75171D01*
X134694Y75341D01*
X134672Y75384D01*
X134657Y75429D01*
X134571Y75584D01*
X134490Y75743D01*
X134461Y75781D01*
X134438Y75822D01*
X134325Y75960D01*
X134218Y76101D01*
X134183Y76134D01*
X134152Y76171D01*
X134017Y76286D01*
X133887Y76407D01*
X133846Y76432D01*
X133810Y76463D01*
X133657Y76553D01*
X133507Y76648D01*
X133463Y76667D01*
X133421Y76691D01*
X133255Y76752D01*
X133090Y76819D01*
X133044Y76829D01*
X132999Y76846D01*
X132824Y76877D01*
X132650Y76914D01*
X132591Y76918D01*
X132555Y76924D01*
X132492Y76924D01*
X132338Y76933D01*
X118993Y76933D01*
X118832Y76919D01*
X118672Y76913D01*
X118609Y76899D01*
X118544Y76893D01*
X118389Y76851D01*
X118232Y76817D01*
X118172Y76792D01*
X118110Y76775D01*
X117965Y76706D01*
X117816Y76644D01*
X117761Y76609D01*
X117703Y76581D01*
X117572Y76488D01*
X117437Y76401D01*
X117390Y76357D01*
X117337Y76319D01*
X117225Y76204D01*
X117107Y76095D01*
X117056Y76030D01*
X117023Y75997D01*
X116989Y75947D01*
X116912Y75850D01*
X94566Y43921D01*
X94546Y43888D01*
X94523Y43858D01*
X94434Y43693D01*
X94341Y43531D01*
X94328Y43495D01*
X94310Y43461D01*
X94252Y43283D01*
X94189Y43107D01*
X94183Y43069D01*
X94171Y43033D01*
X94145Y42847D01*
X94114Y42663D01*
X94115Y42625D01*
X94110Y42587D01*
X94117Y42400D01*
X94119Y42213D01*
X94126Y42175D01*
X94128Y42137D01*
X94168Y41955D01*
X94204Y41770D01*
X94217Y41735D01*
X94225Y41697D01*
X94298Y41524D01*
X94365Y41350D01*
X94384Y41317D01*
X94399Y41282D01*
X94501Y41125D01*
X94597Y40965D01*
X94623Y40936D01*
X94643Y40904D01*
X94850Y40670D01*
X95018Y40502D01*
X97029Y35647D01*
X97029Y15153D01*
X96415Y13672D01*
X96391Y13593D01*
X96357Y13518D01*
X96323Y13379D01*
X96281Y13242D01*
X96270Y13160D01*
X96251Y13080D01*
X96242Y12938D01*
X96224Y12795D01*
X96228Y12713D01*
X96223Y12631D01*
X96240Y12489D01*
X96247Y12346D01*
X96265Y12266D01*
X96275Y12184D01*
X96317Y12046D01*
X96349Y11907D01*
X96381Y11832D01*
X96405Y11753D01*
X96470Y11625D01*
X96527Y11494D01*
X96572Y11425D01*
X96610Y11351D01*
X96696Y11238D01*
X96775Y11118D01*
X96832Y11058D01*
X96882Y10993D01*
X96987Y10896D01*
X97086Y10792D01*
X97152Y10743D01*
X97213Y10687D01*
X97333Y10611D01*
X97449Y10526D01*
X97523Y10490D01*
X97593Y10446D01*
X97725Y10391D01*
X97854Y10328D01*
X97933Y10306D01*
X98009Y10275D01*
X98149Y10245D01*
X98287Y10205D01*
X98369Y10197D01*
X98449Y10180D01*
X98695Y10165D01*
X98735Y10161D01*
X98746Y10162D01*
X98761Y10161D01*
X110045Y10161D01*
X110175Y10172D01*
G37*
%LPC*%
G36*
X198879Y121459D02*
X198879Y121459D01*
X198879Y141421D01*
X218841Y141421D01*
X218841Y123665D01*
X218668Y123019D01*
X218333Y122440D01*
X217860Y121967D01*
X217281Y121632D01*
X216635Y121459D01*
X198879Y121459D01*
G37*
%LPD*%
%LPC*%
G36*
X170965Y121459D02*
X170965Y121459D01*
X170319Y121632D01*
X169740Y121967D01*
X169267Y122440D01*
X168932Y123019D01*
X168759Y123665D01*
X168759Y141421D01*
X188721Y141421D01*
X188721Y121459D01*
X170965Y121459D01*
G37*
%LPD*%
D10*
X360680Y266700D02*
X375920Y266700D01*
X375920Y241300D02*
X360680Y241300D01*
X360680Y215900D02*
X375920Y215900D01*
X375920Y190500D02*
X360680Y190500D01*
X360680Y165100D02*
X375920Y165100D01*
X375920Y139700D02*
X360680Y139700D01*
X360680Y114300D02*
X375920Y114300D01*
X375920Y88900D02*
X360680Y88900D01*
X360680Y63500D02*
X375920Y63500D01*
X375920Y38100D02*
X360680Y38100D01*
D11*
X180340Y22860D03*
X165100Y22860D03*
X134620Y22860D03*
X119380Y22860D03*
D10*
X63500Y259080D02*
X63500Y274320D01*
X88900Y274320D02*
X88900Y259080D01*
X114300Y259080D02*
X114300Y274320D01*
X139700Y274320D02*
X139700Y259080D01*
X165100Y259080D02*
X165100Y274320D01*
X228600Y274320D02*
X228600Y259080D01*
X254000Y259080D02*
X254000Y274320D01*
X279400Y274320D02*
X279400Y259080D01*
X304800Y259080D02*
X304800Y274320D01*
X330200Y274320D02*
X330200Y259080D01*
X83820Y33020D02*
X83820Y17780D01*
X58420Y17780D02*
X58420Y33020D01*
D12*
X158600Y47200D03*
X171300Y47200D03*
X209400Y47200D03*
X222100Y47200D03*
X234800Y47200D03*
X247500Y47200D03*
D13*
X303000Y197000D03*
D12*
X285600Y232200D03*
X272900Y232200D03*
X260200Y232200D03*
X247500Y232200D03*
X234800Y232200D03*
X222100Y232200D03*
X209400Y232200D03*
D13*
X303000Y108100D03*
D12*
X260200Y47200D03*
X272900Y47200D03*
X285600Y47200D03*
D13*
X303000Y82700D03*
X303000Y95400D03*
D12*
X145900Y47200D03*
X133200Y47200D03*
X120500Y47200D03*
D13*
X303000Y120800D03*
X303000Y133500D03*
X303000Y146200D03*
X303000Y184300D03*
X303000Y171600D03*
X303000Y158900D03*
D12*
X171300Y232200D03*
X158600Y232200D03*
X145900Y232200D03*
X133200Y232200D03*
X120500Y232200D03*
D14*
X193800Y146500D03*
D15*
X203200Y17780D03*
X226060Y17780D03*
X246380Y17780D03*
X266700Y17780D03*
X287020Y17780D03*
X307340Y17780D03*
X327660Y203200D03*
D16*
X120500Y232200D02*
X88900Y256180D01*
X88900Y266700D01*
X114300Y53400D02*
X120500Y47200D01*
X114300Y53400D02*
X114300Y60960D01*
D17*
X114300Y60960D03*
D16*
X180340Y22860D02*
X187960Y30480D01*
X187960Y63500D02*
X203200Y78740D01*
D17*
X203200Y78740D03*
D16*
X187960Y63500D02*
X187960Y30480D01*
X133200Y36680D02*
X133200Y47200D01*
X133200Y36680D02*
X119380Y22860D01*
X133200Y47200D02*
X133200Y59540D01*
X137160Y63500D01*
D17*
X137160Y63500D03*
D16*
X145900Y232200D02*
X145900Y243840D01*
X144780Y243840D01*
X147320Y246380D01*
X152400Y248920D01*
X152400Y249509D01*
X155448Y252557D01*
X155448Y257048D01*
X165100Y266700D01*
X209400Y247500D02*
X209400Y232200D01*
X209400Y247500D02*
X228600Y266700D01*
X144780Y22860D02*
X134620Y22860D01*
X144780Y22860D02*
X165100Y22860D01*
X145900Y23980D02*
X145900Y47200D01*
X145900Y23980D02*
X144780Y22860D01*
X158600Y47200D02*
X158600Y70000D01*
X157480Y71120D01*
D17*
X157480Y71120D03*
D16*
X83820Y42744D02*
X83820Y25400D01*
X83820Y42744D02*
X113438Y85062D01*
X156238Y85062D01*
X157480Y71120D01*
X182880Y182880D02*
X182880Y219785D01*
X182880Y182880D02*
X188632Y177128D01*
X219667Y177128D01*
X234372Y162423D01*
X234372Y47200D01*
X195580Y232485D02*
X195580Y259080D01*
D17*
X195580Y259080D03*
D16*
X195580Y232485D02*
X182880Y219785D01*
D17*
X170970Y210820D03*
D16*
X171300Y211150D02*
X171300Y232200D01*
X171300Y211150D02*
X170970Y210820D01*
X158600Y199540D02*
X158600Y232200D01*
X158600Y199540D02*
X160020Y198120D01*
D17*
X160020Y198120D03*
X175260Y66040D03*
D16*
X170180Y48620D01*
X171728Y47628D01*
X171728Y47200D01*
X169390Y78593D02*
X164953Y95730D01*
X60452Y35052D02*
X57912Y39543D01*
X60452Y35052D02*
X58420Y25400D01*
X169390Y71910D02*
X175260Y66040D01*
X169390Y71910D02*
X169390Y78593D01*
X164953Y95730D02*
X106479Y95730D01*
X57912Y39543D01*
X285600Y232200D02*
X313480Y232200D01*
X330200Y266700D01*
X247500Y260200D02*
X247500Y232200D01*
X247500Y260200D02*
X254000Y266700D01*
X262740Y247500D02*
X260200Y232200D01*
X262740Y247500D02*
X279400Y266700D01*
X272900Y244960D02*
X272900Y232200D01*
X272900Y244960D02*
X274320Y246380D01*
X299720Y246380D01*
X304800Y261620D01*
X304800Y266700D01*
X303000Y95400D02*
X343640Y93240D01*
X345440Y162560D01*
X345440Y190500D01*
X368300Y190500D01*
X133200Y232200D02*
X133200Y245260D01*
X132080Y246380D01*
X139700Y259080D01*
X139700Y266700D01*
X208280Y30480D02*
X203200Y17780D01*
X208279Y30480D02*
X208515Y31092D01*
X208737Y31708D01*
X208943Y32330D01*
X209134Y32957D01*
X209310Y33588D01*
X209471Y34223D01*
X209616Y34862D01*
X209746Y35504D01*
X209860Y36149D01*
X209959Y36797D01*
X210042Y37447D01*
X210110Y38099D01*
X210161Y38752D01*
X210197Y39406D01*
X210217Y40061D01*
X210222Y40716D01*
X210210Y41371D01*
X210183Y42026D01*
X210140Y42680D01*
X210081Y43332D01*
X210006Y43983D01*
X209916Y44632D01*
X209810Y45279D01*
X209689Y45922D01*
X209552Y46563D01*
X209399Y47200D01*
X222100Y47200D02*
X226060Y17780D01*
X247500Y18900D02*
X247500Y47200D01*
X247500Y18900D02*
X246380Y17780D01*
X261620Y30480D02*
X266700Y17780D01*
X261620Y30480D02*
X261374Y31115D01*
X261144Y31756D01*
X260929Y32402D01*
X260729Y33054D01*
X260545Y33709D01*
X260376Y34369D01*
X260223Y35033D01*
X260086Y35700D01*
X259964Y36370D01*
X259858Y37043D01*
X259769Y37718D01*
X259695Y38395D01*
X259637Y39074D01*
X259596Y39754D01*
X259570Y40434D01*
X259561Y41115D01*
X259568Y41796D01*
X259591Y42477D01*
X259630Y43157D01*
X259685Y43836D01*
X259756Y44513D01*
X259843Y45189D01*
X259946Y45862D01*
X260065Y46532D01*
X260200Y47200D01*
X272900Y47200D02*
X272900Y33020D01*
X287020Y33020D02*
X287020Y17780D01*
X287020Y33020D02*
X272900Y33020D01*
X285600Y47200D02*
X307340Y47200D01*
X307340Y17780D01*
X303000Y197000D02*
X327660Y197000D01*
X327660Y203200D01*
D17*
X327660Y182880D03*
D16*
X329080Y184300D02*
X303000Y184300D01*
X327660Y182880D02*
X329080Y184300D01*
D18*
X35560Y0D02*
X415800Y0D01*
X415800Y292000D01*
X35560Y292000D01*
X35560Y0D01*
M02*
