G04 EAGLE Gerber X2 export*
%TF.Part,Single*%
%TF.FileFunction,Copper,L2,Bot,Mixed*%
%TF.FilePolarity,Positive*%
%TF.GenerationSoftware,Autodesk,EAGLE,8.7.0*%
%TF.CreationDate,2021-03-05T05:11:20Z*%
G75*
%MOMM*%
%FSLAX34Y34*%
%LPD*%
%AMOC8*
5,1,8,0,0,1.08239X$1,22.5*%
G01*
%ADD10C,1.524000*%
%ADD11R,0.800000X0.800000*%
%ADD12R,2.235200X1.219200*%
%ADD13R,2.200000X3.600000*%
%ADD14R,1.400000X1.400000*%
%ADD15C,0.508000*%
%ADD16C,0.756400*%
%ADD17C,0.254000*%

G36*
X403135Y10164D02*
X403135Y10164D01*
X403169Y10162D01*
X403358Y10184D01*
X403549Y10201D01*
X403582Y10210D01*
X403616Y10214D01*
X403799Y10269D01*
X403983Y10319D01*
X404014Y10334D01*
X404047Y10344D01*
X404218Y10431D01*
X404390Y10513D01*
X404418Y10533D01*
X404449Y10548D01*
X404601Y10664D01*
X404756Y10775D01*
X404780Y10800D01*
X404807Y10820D01*
X404936Y10960D01*
X405070Y11097D01*
X405089Y11126D01*
X405113Y11152D01*
X405215Y11313D01*
X405322Y11470D01*
X405336Y11502D01*
X405354Y11531D01*
X405427Y11708D01*
X405504Y11882D01*
X405512Y11916D01*
X405525Y11948D01*
X405565Y12135D01*
X405611Y12320D01*
X405613Y12354D01*
X405620Y12388D01*
X405639Y12700D01*
X405639Y279300D01*
X405636Y279335D01*
X405638Y279369D01*
X405616Y279558D01*
X405599Y279749D01*
X405590Y279782D01*
X405586Y279816D01*
X405531Y279999D01*
X405481Y280183D01*
X405466Y280214D01*
X405456Y280247D01*
X405369Y280418D01*
X405287Y280590D01*
X405267Y280618D01*
X405252Y280649D01*
X405136Y280801D01*
X405025Y280956D01*
X405000Y280980D01*
X404980Y281007D01*
X404840Y281136D01*
X404703Y281270D01*
X404674Y281289D01*
X404648Y281313D01*
X404487Y281415D01*
X404330Y281522D01*
X404298Y281536D01*
X404269Y281554D01*
X404092Y281627D01*
X403918Y281704D01*
X403884Y281712D01*
X403852Y281725D01*
X403665Y281765D01*
X403480Y281811D01*
X403446Y281813D01*
X403412Y281820D01*
X403100Y281839D01*
X385591Y281839D01*
X385461Y281828D01*
X385331Y281826D01*
X385238Y281808D01*
X385142Y281799D01*
X385017Y281765D01*
X384889Y281740D01*
X384800Y281706D01*
X384708Y281681D01*
X384591Y281625D01*
X384469Y281578D01*
X384388Y281528D01*
X384301Y281487D01*
X384196Y281412D01*
X384085Y281344D01*
X384013Y281281D01*
X383935Y281225D01*
X383845Y281132D01*
X383747Y281046D01*
X383688Y280971D01*
X383621Y280903D01*
X383548Y280795D01*
X383468Y280693D01*
X383423Y280609D01*
X383369Y280530D01*
X383317Y280411D01*
X383255Y280296D01*
X383226Y280205D01*
X383187Y280118D01*
X383156Y279991D01*
X383116Y279868D01*
X383103Y279773D01*
X383080Y279680D01*
X383072Y279551D01*
X383055Y279422D01*
X383059Y279326D01*
X383053Y279231D01*
X383068Y279102D01*
X383073Y278972D01*
X383094Y278879D01*
X383105Y278784D01*
X383142Y278659D01*
X383171Y278532D01*
X383207Y278444D01*
X383235Y278353D01*
X383294Y278237D01*
X383344Y278117D01*
X383396Y278037D01*
X383439Y277951D01*
X383518Y277848D01*
X383588Y277739D01*
X383675Y277641D01*
X383711Y277593D01*
X383744Y277562D01*
X383795Y277504D01*
X387118Y274182D01*
X389129Y269327D01*
X389129Y264073D01*
X387118Y259218D01*
X383695Y255796D01*
X383673Y255769D01*
X383647Y255746D01*
X383529Y255597D01*
X383407Y255450D01*
X383389Y255420D01*
X383368Y255393D01*
X383278Y255225D01*
X383183Y255059D01*
X383172Y255027D01*
X383155Y254996D01*
X383096Y254815D01*
X383032Y254635D01*
X383027Y254601D01*
X383016Y254568D01*
X382990Y254379D01*
X382959Y254191D01*
X382959Y254156D01*
X382955Y254122D01*
X382962Y253931D01*
X382965Y253741D01*
X382972Y253706D01*
X382973Y253672D01*
X383014Y253486D01*
X383051Y253298D01*
X383063Y253266D01*
X383071Y253232D01*
X383144Y253056D01*
X383213Y252878D01*
X383231Y252849D01*
X383244Y252817D01*
X383348Y252656D01*
X383447Y252494D01*
X383470Y252468D01*
X383489Y252439D01*
X383695Y252204D01*
X387118Y248782D01*
X389129Y243927D01*
X389129Y238673D01*
X387118Y233818D01*
X383695Y230396D01*
X383673Y230369D01*
X383647Y230346D01*
X383529Y230197D01*
X383407Y230050D01*
X383389Y230020D01*
X383368Y229993D01*
X383278Y229825D01*
X383183Y229659D01*
X383172Y229627D01*
X383155Y229596D01*
X383096Y229415D01*
X383032Y229235D01*
X383027Y229201D01*
X383016Y229168D01*
X382990Y228979D01*
X382959Y228791D01*
X382959Y228756D01*
X382955Y228722D01*
X382962Y228531D01*
X382965Y228341D01*
X382972Y228306D01*
X382973Y228272D01*
X383014Y228086D01*
X383051Y227898D01*
X383063Y227866D01*
X383071Y227832D01*
X383144Y227656D01*
X383213Y227478D01*
X383231Y227449D01*
X383244Y227417D01*
X383348Y227256D01*
X383447Y227094D01*
X383470Y227068D01*
X383489Y227039D01*
X383695Y226804D01*
X387118Y223382D01*
X389129Y218527D01*
X389129Y213273D01*
X387118Y208418D01*
X383695Y204996D01*
X383673Y204969D01*
X383647Y204946D01*
X383529Y204797D01*
X383407Y204650D01*
X383389Y204620D01*
X383368Y204593D01*
X383278Y204425D01*
X383183Y204259D01*
X383172Y204227D01*
X383155Y204196D01*
X383096Y204015D01*
X383032Y203835D01*
X383027Y203801D01*
X383016Y203768D01*
X382990Y203579D01*
X382959Y203391D01*
X382959Y203356D01*
X382955Y203322D01*
X382962Y203131D01*
X382965Y202941D01*
X382972Y202906D01*
X382973Y202872D01*
X383014Y202686D01*
X383051Y202498D01*
X383063Y202466D01*
X383071Y202432D01*
X383144Y202256D01*
X383213Y202078D01*
X383231Y202049D01*
X383244Y202017D01*
X383348Y201856D01*
X383447Y201694D01*
X383470Y201668D01*
X383489Y201639D01*
X383695Y201404D01*
X387118Y197982D01*
X389129Y193127D01*
X389129Y187873D01*
X387118Y183018D01*
X383695Y179596D01*
X383673Y179569D01*
X383647Y179546D01*
X383529Y179397D01*
X383407Y179250D01*
X383389Y179220D01*
X383368Y179193D01*
X383278Y179025D01*
X383183Y178859D01*
X383172Y178827D01*
X383155Y178796D01*
X383096Y178615D01*
X383032Y178435D01*
X383027Y178401D01*
X383016Y178368D01*
X382990Y178179D01*
X382959Y177991D01*
X382959Y177956D01*
X382955Y177922D01*
X382962Y177731D01*
X382965Y177541D01*
X382972Y177506D01*
X382973Y177472D01*
X383014Y177286D01*
X383051Y177098D01*
X383063Y177066D01*
X383071Y177032D01*
X383144Y176856D01*
X383213Y176678D01*
X383231Y176649D01*
X383244Y176617D01*
X383348Y176456D01*
X383447Y176294D01*
X383470Y176268D01*
X383489Y176239D01*
X383658Y176047D01*
X383660Y176044D01*
X383662Y176042D01*
X383695Y176004D01*
X387118Y172582D01*
X389129Y167727D01*
X389129Y162473D01*
X387118Y157618D01*
X383695Y154196D01*
X383673Y154169D01*
X383647Y154146D01*
X383529Y153997D01*
X383407Y153850D01*
X383389Y153820D01*
X383368Y153793D01*
X383278Y153625D01*
X383183Y153459D01*
X383172Y153427D01*
X383155Y153396D01*
X383096Y153215D01*
X383032Y153035D01*
X383027Y153001D01*
X383016Y152968D01*
X382990Y152779D01*
X382959Y152591D01*
X382959Y152556D01*
X382955Y152522D01*
X382962Y152331D01*
X382965Y152141D01*
X382972Y152106D01*
X382973Y152072D01*
X383014Y151886D01*
X383051Y151698D01*
X383063Y151666D01*
X383071Y151632D01*
X383144Y151456D01*
X383213Y151278D01*
X383231Y151249D01*
X383244Y151217D01*
X383348Y151056D01*
X383447Y150894D01*
X383470Y150868D01*
X383489Y150839D01*
X383645Y150662D01*
X383653Y150651D01*
X383660Y150645D01*
X383695Y150604D01*
X387118Y147182D01*
X389129Y142327D01*
X389129Y137073D01*
X387118Y132218D01*
X383695Y128796D01*
X383673Y128769D01*
X383647Y128746D01*
X383529Y128597D01*
X383407Y128450D01*
X383389Y128420D01*
X383368Y128393D01*
X383278Y128225D01*
X383183Y128059D01*
X383172Y128027D01*
X383155Y127996D01*
X383096Y127815D01*
X383032Y127635D01*
X383027Y127601D01*
X383016Y127568D01*
X382990Y127379D01*
X382959Y127191D01*
X382959Y127156D01*
X382955Y127122D01*
X382962Y126931D01*
X382965Y126741D01*
X382972Y126706D01*
X382973Y126672D01*
X383014Y126486D01*
X383051Y126298D01*
X383063Y126266D01*
X383071Y126232D01*
X383144Y126056D01*
X383213Y125878D01*
X383231Y125849D01*
X383244Y125817D01*
X383348Y125656D01*
X383447Y125494D01*
X383470Y125468D01*
X383489Y125439D01*
X383632Y125276D01*
X383645Y125259D01*
X383657Y125248D01*
X383695Y125204D01*
X387118Y121782D01*
X389129Y116927D01*
X389129Y111673D01*
X387118Y106818D01*
X383402Y103102D01*
X381334Y102246D01*
X381307Y102232D01*
X381279Y102222D01*
X381108Y102128D01*
X380935Y102037D01*
X380911Y102019D01*
X380885Y102004D01*
X380734Y101881D01*
X380579Y101761D01*
X380559Y101739D01*
X380535Y101720D01*
X380408Y101572D01*
X380278Y101427D01*
X380262Y101401D01*
X380242Y101378D01*
X380142Y101210D01*
X380040Y101045D01*
X380028Y101017D01*
X380013Y100990D01*
X379945Y100807D01*
X379873Y100627D01*
X379867Y100597D01*
X379856Y100568D01*
X379822Y100377D01*
X379783Y100185D01*
X379782Y100155D01*
X379777Y100125D01*
X379777Y99931D01*
X379772Y99735D01*
X379777Y99705D01*
X379777Y99675D01*
X379811Y99484D01*
X379841Y99290D01*
X379851Y99261D01*
X379856Y99232D01*
X379924Y99049D01*
X379987Y98865D01*
X380002Y98838D01*
X380013Y98809D01*
X380112Y98642D01*
X380207Y98471D01*
X380226Y98448D01*
X380241Y98422D01*
X380368Y98274D01*
X380492Y98123D01*
X380515Y98103D01*
X380535Y98080D01*
X380686Y97957D01*
X380834Y97830D01*
X380860Y97815D01*
X380884Y97796D01*
X381153Y97637D01*
X381245Y97590D01*
X382539Y96650D01*
X383670Y95519D01*
X384610Y94225D01*
X385336Y92800D01*
X385779Y91439D01*
X368300Y91439D01*
X350821Y91439D01*
X351264Y92800D01*
X351990Y94225D01*
X352930Y95519D01*
X354061Y96650D01*
X355355Y97590D01*
X355447Y97637D01*
X355473Y97653D01*
X355500Y97665D01*
X355662Y97772D01*
X355828Y97876D01*
X355851Y97897D01*
X355876Y97914D01*
X356017Y98048D01*
X356161Y98179D01*
X356180Y98203D01*
X356202Y98224D01*
X356317Y98382D01*
X356436Y98536D01*
X356450Y98563D01*
X356468Y98588D01*
X356553Y98762D01*
X356643Y98936D01*
X356652Y98965D01*
X356666Y98992D01*
X356719Y99179D01*
X356776Y99366D01*
X356780Y99396D01*
X356789Y99425D01*
X356808Y99620D01*
X356832Y99813D01*
X356830Y99843D01*
X356833Y99873D01*
X356818Y100068D01*
X356807Y100262D01*
X356800Y100292D01*
X356798Y100322D01*
X356748Y100511D01*
X356704Y100701D01*
X356692Y100728D01*
X356684Y100758D01*
X356602Y100934D01*
X356524Y101114D01*
X356507Y101139D01*
X356495Y101166D01*
X356383Y101326D01*
X356275Y101488D01*
X356254Y101510D01*
X356236Y101535D01*
X356098Y101672D01*
X355963Y101813D01*
X355938Y101831D01*
X355917Y101853D01*
X355757Y101963D01*
X355599Y102078D01*
X355572Y102091D01*
X355547Y102109D01*
X355266Y102246D01*
X353198Y103102D01*
X349482Y106818D01*
X347471Y111673D01*
X347471Y116927D01*
X349482Y121782D01*
X352905Y125204D01*
X352927Y125231D01*
X352953Y125254D01*
X353016Y125334D01*
X353045Y125364D01*
X353075Y125408D01*
X353193Y125550D01*
X353211Y125580D01*
X353232Y125607D01*
X353322Y125775D01*
X353417Y125941D01*
X353428Y125973D01*
X353445Y126004D01*
X353504Y126185D01*
X353568Y126365D01*
X353573Y126399D01*
X353584Y126432D01*
X353610Y126621D01*
X353641Y126809D01*
X353641Y126844D01*
X353645Y126878D01*
X353638Y127069D01*
X353635Y127260D01*
X353628Y127294D01*
X353627Y127328D01*
X353586Y127514D01*
X353549Y127702D01*
X353537Y127734D01*
X353529Y127768D01*
X353456Y127943D01*
X353387Y128122D01*
X353369Y128151D01*
X353356Y128183D01*
X353253Y128343D01*
X353153Y128506D01*
X353130Y128532D01*
X353111Y128561D01*
X352905Y128796D01*
X349482Y132218D01*
X347471Y137073D01*
X347471Y142327D01*
X349482Y147182D01*
X352905Y150604D01*
X352927Y150631D01*
X352953Y150654D01*
X353017Y150735D01*
X353037Y150756D01*
X353060Y150789D01*
X353071Y150803D01*
X353193Y150950D01*
X353211Y150980D01*
X353232Y151007D01*
X353322Y151175D01*
X353417Y151341D01*
X353428Y151373D01*
X353445Y151404D01*
X353504Y151585D01*
X353568Y151765D01*
X353573Y151799D01*
X353584Y151832D01*
X353610Y152021D01*
X353641Y152209D01*
X353641Y152244D01*
X353645Y152278D01*
X353638Y152469D01*
X353635Y152660D01*
X353628Y152694D01*
X353627Y152728D01*
X353586Y152914D01*
X353549Y153102D01*
X353537Y153134D01*
X353529Y153168D01*
X353456Y153343D01*
X353387Y153522D01*
X353369Y153551D01*
X353356Y153583D01*
X353253Y153743D01*
X353153Y153906D01*
X353130Y153932D01*
X353111Y153961D01*
X352905Y154196D01*
X349482Y157618D01*
X347471Y162473D01*
X347471Y167727D01*
X349482Y172582D01*
X352905Y176004D01*
X352927Y176031D01*
X352953Y176054D01*
X353018Y176136D01*
X353030Y176149D01*
X353043Y176168D01*
X353071Y176203D01*
X353193Y176350D01*
X353211Y176380D01*
X353232Y176407D01*
X353322Y176575D01*
X353417Y176741D01*
X353428Y176773D01*
X353445Y176804D01*
X353504Y176985D01*
X353568Y177165D01*
X353573Y177199D01*
X353584Y177232D01*
X353610Y177421D01*
X353641Y177609D01*
X353641Y177644D01*
X353645Y177678D01*
X353638Y177869D01*
X353635Y178060D01*
X353628Y178094D01*
X353627Y178128D01*
X353586Y178314D01*
X353549Y178502D01*
X353537Y178534D01*
X353529Y178568D01*
X353456Y178743D01*
X353387Y178922D01*
X353369Y178951D01*
X353356Y178983D01*
X353253Y179143D01*
X353153Y179306D01*
X353130Y179332D01*
X353111Y179361D01*
X352905Y179596D01*
X349482Y183018D01*
X347382Y188088D01*
X347363Y188151D01*
X347313Y188335D01*
X347298Y188366D01*
X347288Y188399D01*
X347201Y188570D01*
X347119Y188742D01*
X347099Y188770D01*
X347084Y188801D01*
X346968Y188953D01*
X346857Y189108D01*
X346832Y189132D01*
X346812Y189159D01*
X346672Y189288D01*
X346535Y189422D01*
X346506Y189441D01*
X346480Y189465D01*
X346319Y189567D01*
X346162Y189674D01*
X346130Y189688D01*
X346101Y189706D01*
X345924Y189779D01*
X345750Y189856D01*
X345716Y189864D01*
X345684Y189877D01*
X345497Y189917D01*
X345312Y189963D01*
X345278Y189965D01*
X345244Y189972D01*
X344932Y189991D01*
X342788Y189991D01*
X342753Y189988D01*
X342719Y189990D01*
X342530Y189968D01*
X342339Y189951D01*
X342306Y189942D01*
X342272Y189938D01*
X342089Y189883D01*
X341905Y189833D01*
X341874Y189818D01*
X341841Y189808D01*
X341670Y189721D01*
X341498Y189639D01*
X341470Y189619D01*
X341439Y189604D01*
X341287Y189488D01*
X341132Y189377D01*
X341108Y189352D01*
X341081Y189332D01*
X340952Y189192D01*
X340818Y189055D01*
X340799Y189026D01*
X340775Y189000D01*
X340673Y188839D01*
X340566Y188682D01*
X340552Y188650D01*
X340534Y188621D01*
X340461Y188444D01*
X340384Y188270D01*
X340376Y188236D01*
X340363Y188204D01*
X340323Y188017D01*
X340277Y187832D01*
X340275Y187798D01*
X340268Y187764D01*
X340249Y187452D01*
X340249Y174768D01*
X339398Y172714D01*
X337826Y171142D01*
X335772Y170291D01*
X319548Y170291D01*
X317494Y171142D01*
X315922Y172714D01*
X315071Y174768D01*
X315071Y187452D01*
X315068Y187487D01*
X315070Y187521D01*
X315048Y187710D01*
X315031Y187901D01*
X315022Y187934D01*
X315018Y187968D01*
X314963Y188151D01*
X314913Y188335D01*
X314898Y188366D01*
X314888Y188399D01*
X314801Y188570D01*
X314719Y188742D01*
X314699Y188770D01*
X314684Y188801D01*
X314568Y188953D01*
X314457Y189108D01*
X314432Y189132D01*
X314412Y189159D01*
X314272Y189288D01*
X314135Y189422D01*
X314106Y189441D01*
X314080Y189465D01*
X313919Y189567D01*
X313762Y189674D01*
X313730Y189688D01*
X313701Y189706D01*
X313524Y189779D01*
X313350Y189856D01*
X313316Y189864D01*
X313284Y189877D01*
X313097Y189917D01*
X312912Y189963D01*
X312878Y189965D01*
X312844Y189972D01*
X312532Y189991D01*
X165387Y189991D01*
X165271Y189981D01*
X165154Y189981D01*
X165047Y189961D01*
X164939Y189951D01*
X164826Y189921D01*
X164711Y189900D01*
X164565Y189849D01*
X164505Y189833D01*
X164472Y189817D01*
X164416Y189798D01*
X161884Y188749D01*
X158156Y188749D01*
X154712Y190176D01*
X152076Y192812D01*
X151192Y194947D01*
X151131Y195062D01*
X151080Y195182D01*
X151027Y195261D01*
X150983Y195346D01*
X150903Y195449D01*
X150832Y195557D01*
X150766Y195626D01*
X150707Y195702D01*
X150611Y195789D01*
X150521Y195883D01*
X150444Y195940D01*
X150373Y196004D01*
X150263Y196072D01*
X150158Y196149D01*
X150072Y196191D01*
X149991Y196242D01*
X149870Y196290D01*
X149753Y196347D01*
X149661Y196373D01*
X149572Y196408D01*
X149445Y196434D01*
X149320Y196470D01*
X149225Y196479D01*
X149131Y196498D01*
X149001Y196501D01*
X148872Y196514D01*
X148777Y196507D01*
X148681Y196509D01*
X148553Y196489D01*
X148423Y196479D01*
X148331Y196455D01*
X148236Y196440D01*
X148113Y196398D01*
X147987Y196365D01*
X147901Y196325D01*
X147810Y196294D01*
X147697Y196231D01*
X147579Y196176D01*
X147501Y196121D01*
X147417Y196075D01*
X147316Y195992D01*
X147210Y195918D01*
X147143Y195850D01*
X147069Y195789D01*
X146984Y195690D01*
X146893Y195598D01*
X146838Y195520D01*
X146776Y195447D01*
X146711Y195335D01*
X146637Y195228D01*
X146580Y195111D01*
X146549Y195058D01*
X146533Y195016D01*
X146500Y194947D01*
X145898Y193494D01*
X144411Y192008D01*
X144382Y191972D01*
X144348Y191941D01*
X144238Y191800D01*
X144122Y191662D01*
X144100Y191622D01*
X144071Y191586D01*
X143988Y191427D01*
X143899Y191271D01*
X143884Y191228D01*
X143862Y191187D01*
X143808Y191016D01*
X143748Y190847D01*
X143741Y190802D01*
X143727Y190758D01*
X143704Y190580D01*
X143675Y190403D01*
X143675Y190357D01*
X143670Y190311D01*
X143679Y190132D01*
X143681Y189953D01*
X143690Y189907D01*
X143692Y189861D01*
X143701Y189818D01*
X143701Y187959D01*
X137160Y187959D01*
X130619Y187959D01*
X130619Y189992D01*
X130616Y190026D01*
X130618Y190061D01*
X130596Y190251D01*
X130579Y190440D01*
X130570Y190474D01*
X130566Y190508D01*
X130511Y190691D01*
X130461Y190875D01*
X130446Y190906D01*
X130436Y190939D01*
X130349Y191109D01*
X130267Y191282D01*
X130247Y191310D01*
X130232Y191341D01*
X130117Y191492D01*
X130005Y191648D01*
X129980Y191672D01*
X129960Y191699D01*
X129820Y191828D01*
X129683Y191962D01*
X129654Y191981D01*
X129628Y192005D01*
X129468Y192107D01*
X129310Y192214D01*
X129278Y192228D01*
X129249Y192246D01*
X129072Y192319D01*
X128898Y192396D01*
X128864Y192404D01*
X128832Y192417D01*
X128645Y192458D01*
X128460Y192503D01*
X128426Y192505D01*
X128392Y192512D01*
X128080Y192531D01*
X125920Y192531D01*
X125885Y192528D01*
X125851Y192530D01*
X125662Y192508D01*
X125471Y192491D01*
X125438Y192482D01*
X125404Y192478D01*
X125221Y192423D01*
X125037Y192373D01*
X125006Y192358D01*
X124973Y192348D01*
X124802Y192261D01*
X124630Y192179D01*
X124602Y192159D01*
X124571Y192144D01*
X124419Y192028D01*
X124264Y191917D01*
X124240Y191892D01*
X124213Y191872D01*
X124084Y191732D01*
X123950Y191595D01*
X123931Y191566D01*
X123907Y191540D01*
X123805Y191379D01*
X123698Y191222D01*
X123684Y191190D01*
X123666Y191161D01*
X123593Y190984D01*
X123516Y190810D01*
X123508Y190776D01*
X123495Y190744D01*
X123455Y190557D01*
X123409Y190372D01*
X123407Y190338D01*
X123400Y190304D01*
X123381Y189992D01*
X123381Y187959D01*
X116840Y187959D01*
X116806Y187956D01*
X116771Y187958D01*
X116582Y187936D01*
X116392Y187919D01*
X116358Y187910D01*
X116324Y187906D01*
X116141Y187851D01*
X115957Y187801D01*
X115926Y187786D01*
X115893Y187776D01*
X115722Y187689D01*
X115551Y187608D01*
X115523Y187587D01*
X115492Y187572D01*
X115340Y187456D01*
X115185Y187345D01*
X115161Y187321D01*
X115133Y187300D01*
X115004Y187160D01*
X114871Y187023D01*
X114851Y186994D01*
X114828Y186969D01*
X114725Y186808D01*
X114619Y186650D01*
X114605Y186618D01*
X114586Y186589D01*
X114514Y186412D01*
X114436Y186238D01*
X114428Y186204D01*
X114415Y186172D01*
X114375Y185986D01*
X114330Y185800D01*
X114328Y185766D01*
X114320Y185732D01*
X114301Y185420D01*
X114304Y185385D01*
X114302Y185351D01*
X114324Y185161D01*
X114341Y184971D01*
X114350Y184938D01*
X114354Y184904D01*
X114409Y184721D01*
X114460Y184537D01*
X114474Y184506D01*
X114484Y184473D01*
X114571Y184302D01*
X114653Y184130D01*
X114673Y184102D01*
X114689Y184071D01*
X114804Y183919D01*
X114915Y183764D01*
X114940Y183740D01*
X114961Y183712D01*
X115101Y183583D01*
X115238Y183450D01*
X115266Y183431D01*
X115292Y183407D01*
X115453Y183305D01*
X115611Y183198D01*
X115642Y183184D01*
X115672Y183165D01*
X115848Y183093D01*
X116023Y183016D01*
X116056Y183008D01*
X116088Y182995D01*
X116275Y182954D01*
X116460Y182909D01*
X116494Y182907D01*
X116528Y182900D01*
X116840Y182881D01*
X123381Y182881D01*
X123381Y181085D01*
X123208Y180439D01*
X122873Y179860D01*
X122400Y179387D01*
X121821Y179052D01*
X120854Y178793D01*
X120833Y178786D01*
X120810Y178781D01*
X120620Y178708D01*
X120431Y178639D01*
X120411Y178627D01*
X120390Y178619D01*
X120217Y178514D01*
X120042Y178412D01*
X120025Y178397D01*
X120005Y178385D01*
X119854Y178251D01*
X119700Y178120D01*
X119685Y178102D01*
X119668Y178087D01*
X119542Y177928D01*
X119414Y177772D01*
X119403Y177752D01*
X119388Y177734D01*
X119293Y177555D01*
X119194Y177379D01*
X119187Y177357D01*
X119176Y177337D01*
X119113Y177145D01*
X119047Y176953D01*
X119043Y176930D01*
X119036Y176909D01*
X119009Y176708D01*
X118978Y176508D01*
X118978Y176486D01*
X118975Y176462D01*
X118983Y176259D01*
X118988Y176058D01*
X118992Y176036D01*
X118993Y176013D01*
X119037Y175815D01*
X119077Y175617D01*
X119086Y175596D01*
X119091Y175573D01*
X119169Y175387D01*
X119243Y175199D01*
X119256Y175179D01*
X119265Y175158D01*
X119374Y174988D01*
X119481Y174816D01*
X119496Y174799D01*
X119509Y174779D01*
X119716Y174545D01*
X123731Y170530D01*
X124969Y167542D01*
X124969Y163288D01*
X124972Y163253D01*
X124970Y163219D01*
X124992Y163030D01*
X125009Y162839D01*
X125018Y162806D01*
X125022Y162772D01*
X125077Y162589D01*
X125127Y162405D01*
X125142Y162374D01*
X125152Y162341D01*
X125239Y162170D01*
X125321Y161998D01*
X125341Y161970D01*
X125356Y161939D01*
X125472Y161787D01*
X125583Y161632D01*
X125608Y161608D01*
X125628Y161581D01*
X125768Y161452D01*
X125905Y161318D01*
X125934Y161299D01*
X125960Y161275D01*
X126121Y161173D01*
X126278Y161066D01*
X126310Y161052D01*
X126339Y161034D01*
X126516Y160961D01*
X126690Y160884D01*
X126724Y160876D01*
X126756Y160863D01*
X126943Y160823D01*
X127128Y160777D01*
X127162Y160775D01*
X127196Y160768D01*
X127508Y160749D01*
X144702Y160749D01*
X146756Y159898D01*
X148328Y158326D01*
X149179Y156272D01*
X149179Y118048D01*
X148328Y115994D01*
X146733Y114399D01*
X146669Y114366D01*
X146479Y114269D01*
X146469Y114261D01*
X146457Y114255D01*
X146290Y114126D01*
X146121Y113997D01*
X146112Y113988D01*
X146101Y113980D01*
X145960Y113823D01*
X145815Y113666D01*
X145808Y113655D01*
X145800Y113645D01*
X145689Y113467D01*
X145574Y113286D01*
X145569Y113274D01*
X145562Y113263D01*
X145484Y113067D01*
X145403Y112870D01*
X145400Y112857D01*
X145395Y112845D01*
X145353Y112637D01*
X145308Y112430D01*
X145307Y112414D01*
X145305Y112404D01*
X145304Y112364D01*
X145289Y112118D01*
X145289Y98555D01*
X145305Y98377D01*
X145314Y98200D01*
X145324Y98154D01*
X145329Y98106D01*
X145375Y97935D01*
X145416Y97762D01*
X145435Y97718D01*
X145447Y97672D01*
X145523Y97512D01*
X145594Y97348D01*
X145620Y97308D01*
X145641Y97265D01*
X145744Y97121D01*
X145842Y96972D01*
X145875Y96938D01*
X145903Y96899D01*
X146030Y96775D01*
X146153Y96647D01*
X146191Y96618D01*
X146225Y96585D01*
X146373Y96486D01*
X146516Y96381D01*
X146559Y96360D01*
X146598Y96333D01*
X146761Y96261D01*
X146921Y96183D01*
X146966Y96170D01*
X147010Y96151D01*
X147183Y96109D01*
X147354Y96060D01*
X147401Y96055D01*
X147448Y96044D01*
X147625Y96033D01*
X147802Y96016D01*
X147849Y96019D01*
X147897Y96016D01*
X148074Y96037D01*
X148251Y96051D01*
X148297Y96063D01*
X148344Y96069D01*
X148515Y96120D01*
X148686Y96165D01*
X148730Y96185D01*
X148775Y96199D01*
X148934Y96280D01*
X149095Y96354D01*
X149134Y96382D01*
X149177Y96403D01*
X149318Y96510D01*
X149464Y96612D01*
X149497Y96646D01*
X149535Y96675D01*
X149656Y96806D01*
X149781Y96932D01*
X149808Y96971D01*
X149840Y97006D01*
X149936Y97156D01*
X150037Y97302D01*
X150063Y97355D01*
X150082Y97386D01*
X150106Y97444D01*
X150174Y97583D01*
X150238Y97738D01*
X150273Y97849D01*
X150317Y97957D01*
X150340Y98064D01*
X150373Y98167D01*
X150387Y98283D01*
X150412Y98397D01*
X150422Y98552D01*
X150429Y98614D01*
X150428Y98650D01*
X150431Y98709D01*
X150431Y101632D01*
X151282Y103686D01*
X152854Y105258D01*
X154908Y106109D01*
X165132Y106109D01*
X167186Y105258D01*
X168672Y103771D01*
X168708Y103742D01*
X168739Y103707D01*
X168881Y103597D01*
X169018Y103482D01*
X169058Y103459D01*
X169095Y103431D01*
X169253Y103348D01*
X169409Y103259D01*
X169452Y103244D01*
X169493Y103222D01*
X169664Y103168D01*
X169833Y103108D01*
X169879Y103101D01*
X169923Y103087D01*
X170100Y103064D01*
X170277Y103035D01*
X170323Y103035D01*
X170370Y103030D01*
X170548Y103038D01*
X170727Y103041D01*
X170773Y103050D01*
X170819Y103052D01*
X170862Y103061D01*
X172721Y103061D01*
X172721Y96520D01*
X172724Y96486D01*
X172722Y96451D01*
X172744Y96262D01*
X172760Y96072D01*
X172770Y96038D01*
X172774Y96004D01*
X172829Y95821D01*
X172879Y95637D01*
X172894Y95606D01*
X172904Y95573D01*
X172991Y95402D01*
X173072Y95231D01*
X173093Y95203D01*
X173108Y95172D01*
X173223Y95020D01*
X173335Y94865D01*
X173335Y94864D01*
X173359Y94840D01*
X173380Y94813D01*
X173381Y94813D01*
X173381Y94812D01*
X173521Y94683D01*
X173658Y94550D01*
X173686Y94531D01*
X173712Y94507D01*
X173873Y94405D01*
X174031Y94298D01*
X174062Y94284D01*
X174092Y94265D01*
X174268Y94193D01*
X174443Y94116D01*
X174476Y94108D01*
X174508Y94095D01*
X174695Y94054D01*
X174880Y94009D01*
X174914Y94007D01*
X174948Y94000D01*
X175260Y93981D01*
X181801Y93981D01*
X181801Y92185D01*
X181628Y91539D01*
X181293Y90960D01*
X180820Y90487D01*
X180354Y90218D01*
X180198Y90109D01*
X180041Y90005D01*
X180015Y89980D01*
X179985Y89959D01*
X179852Y89824D01*
X179715Y89694D01*
X179694Y89665D01*
X179668Y89639D01*
X179561Y89483D01*
X179449Y89331D01*
X179434Y89298D01*
X179413Y89268D01*
X179335Y89096D01*
X179252Y88926D01*
X179242Y88891D01*
X179227Y88858D01*
X179180Y88675D01*
X179129Y88493D01*
X179125Y88457D01*
X179116Y88422D01*
X179103Y88233D01*
X179084Y88045D01*
X179087Y88009D01*
X179085Y87973D01*
X179105Y87785D01*
X179120Y87596D01*
X179129Y87561D01*
X179133Y87525D01*
X179186Y87344D01*
X179234Y87161D01*
X179249Y87128D01*
X179259Y87093D01*
X179343Y86924D01*
X179423Y86752D01*
X179444Y86722D01*
X179460Y86690D01*
X179573Y86538D01*
X179681Y86383D01*
X179707Y86358D01*
X179728Y86328D01*
X179867Y86199D01*
X180001Y86066D01*
X180030Y86045D01*
X180057Y86020D01*
X180216Y85917D01*
X180371Y85810D01*
X180411Y85790D01*
X180434Y85775D01*
X180491Y85751D01*
X180652Y85673D01*
X182426Y84938D01*
X183912Y83451D01*
X183948Y83422D01*
X183979Y83387D01*
X184121Y83277D01*
X184258Y83162D01*
X184298Y83139D01*
X184335Y83111D01*
X184493Y83028D01*
X184649Y82939D01*
X184692Y82924D01*
X184733Y82902D01*
X184904Y82848D01*
X185073Y82788D01*
X185119Y82781D01*
X185163Y82767D01*
X185340Y82744D01*
X185517Y82715D01*
X185563Y82715D01*
X185610Y82710D01*
X185788Y82718D01*
X185967Y82721D01*
X186013Y82730D01*
X186059Y82732D01*
X186102Y82741D01*
X187961Y82741D01*
X187961Y76200D01*
X187961Y69659D01*
X187170Y69659D01*
X187136Y69656D01*
X187101Y69658D01*
X186911Y69636D01*
X186722Y69619D01*
X186688Y69610D01*
X186654Y69606D01*
X186471Y69551D01*
X186287Y69501D01*
X186256Y69486D01*
X186223Y69476D01*
X186053Y69390D01*
X185880Y69307D01*
X185852Y69287D01*
X185821Y69272D01*
X185670Y69157D01*
X185514Y69045D01*
X185490Y69020D01*
X185463Y69000D01*
X185334Y68860D01*
X185200Y68723D01*
X185181Y68694D01*
X185157Y68668D01*
X185055Y68508D01*
X184948Y68350D01*
X184934Y68318D01*
X184916Y68289D01*
X184843Y68112D01*
X184766Y67938D01*
X184758Y67904D01*
X184745Y67872D01*
X184704Y67685D01*
X184659Y67500D01*
X184657Y67466D01*
X184650Y67432D01*
X184631Y67120D01*
X184631Y64176D01*
X183204Y60732D01*
X180568Y58096D01*
X177124Y56669D01*
X173396Y56669D01*
X169952Y58096D01*
X167316Y60732D01*
X166728Y62151D01*
X166690Y62224D01*
X166660Y62301D01*
X166586Y62423D01*
X166520Y62550D01*
X166469Y62615D01*
X166426Y62686D01*
X166331Y62793D01*
X166244Y62906D01*
X166183Y62961D01*
X166128Y63023D01*
X166016Y63112D01*
X165910Y63207D01*
X165840Y63251D01*
X165775Y63302D01*
X165649Y63370D01*
X165527Y63445D01*
X165451Y63476D01*
X165378Y63515D01*
X165242Y63559D01*
X165109Y63612D01*
X165028Y63628D01*
X164950Y63654D01*
X164808Y63673D01*
X164668Y63702D01*
X164585Y63704D01*
X164504Y63715D01*
X164361Y63709D01*
X164218Y63713D01*
X164136Y63700D01*
X164054Y63697D01*
X163914Y63666D01*
X163773Y63644D01*
X163695Y63617D01*
X163614Y63599D01*
X163482Y63544D01*
X163347Y63498D01*
X163275Y63458D01*
X163199Y63426D01*
X163079Y63348D01*
X162954Y63278D01*
X162890Y63226D01*
X162855Y63204D01*
X159344Y61749D01*
X155616Y61749D01*
X152172Y63176D01*
X150866Y64482D01*
X150766Y64566D01*
X150673Y64656D01*
X150593Y64710D01*
X150520Y64771D01*
X150407Y64836D01*
X150300Y64908D01*
X150212Y64947D01*
X150129Y64995D01*
X150007Y65038D01*
X149888Y65091D01*
X149795Y65113D01*
X149705Y65145D01*
X149577Y65167D01*
X149450Y65197D01*
X149355Y65203D01*
X149261Y65219D01*
X149131Y65217D01*
X149001Y65225D01*
X148906Y65214D01*
X148810Y65213D01*
X148683Y65188D01*
X148554Y65173D01*
X148462Y65145D01*
X148368Y65127D01*
X148247Y65080D01*
X148123Y65043D01*
X148037Y64999D01*
X147948Y64965D01*
X147837Y64897D01*
X147721Y64838D01*
X147645Y64781D01*
X147564Y64731D01*
X147466Y64645D01*
X147363Y64566D01*
X147298Y64496D01*
X147226Y64433D01*
X147146Y64331D01*
X147057Y64235D01*
X147006Y64155D01*
X146947Y64080D01*
X146885Y63965D01*
X146816Y63855D01*
X146779Y63767D01*
X146734Y63683D01*
X146694Y63559D01*
X146645Y63439D01*
X146625Y63345D01*
X146595Y63255D01*
X146577Y63126D01*
X146550Y62999D01*
X146542Y62869D01*
X146534Y62809D01*
X146535Y62764D01*
X146531Y62687D01*
X146531Y61636D01*
X145104Y58192D01*
X142468Y55556D01*
X139024Y54129D01*
X135296Y54129D01*
X131852Y55556D01*
X129216Y58192D01*
X127789Y61636D01*
X127789Y65364D01*
X128838Y67896D01*
X128873Y68007D01*
X128917Y68115D01*
X128940Y68222D01*
X128973Y68325D01*
X128987Y68441D01*
X129012Y68556D01*
X129022Y68709D01*
X129029Y68772D01*
X129028Y68808D01*
X129031Y68867D01*
X129031Y111032D01*
X129028Y111067D01*
X129030Y111101D01*
X129008Y111290D01*
X128991Y111481D01*
X128982Y111514D01*
X128978Y111548D01*
X128923Y111731D01*
X128873Y111915D01*
X128858Y111946D01*
X128848Y111979D01*
X128761Y112150D01*
X128679Y112322D01*
X128659Y112350D01*
X128644Y112381D01*
X128528Y112533D01*
X128417Y112688D01*
X128392Y112712D01*
X128372Y112739D01*
X128232Y112868D01*
X128095Y113002D01*
X128066Y113021D01*
X128040Y113045D01*
X127879Y113147D01*
X127722Y113254D01*
X127690Y113268D01*
X127661Y113286D01*
X127484Y113359D01*
X127310Y113436D01*
X127276Y113444D01*
X127244Y113457D01*
X127057Y113497D01*
X126872Y113543D01*
X126838Y113545D01*
X126804Y113552D01*
X126492Y113571D01*
X120478Y113571D01*
X118424Y114422D01*
X116852Y115994D01*
X116001Y118048D01*
X116001Y126492D01*
X115998Y126527D01*
X116000Y126561D01*
X115978Y126750D01*
X115961Y126941D01*
X115952Y126974D01*
X115948Y127008D01*
X115893Y127191D01*
X115843Y127375D01*
X115828Y127406D01*
X115818Y127439D01*
X115731Y127610D01*
X115649Y127782D01*
X115629Y127810D01*
X115614Y127841D01*
X115498Y127993D01*
X115387Y128148D01*
X115362Y128172D01*
X115342Y128199D01*
X115202Y128328D01*
X115065Y128462D01*
X115036Y128481D01*
X115010Y128505D01*
X114849Y128607D01*
X114692Y128714D01*
X114660Y128728D01*
X114631Y128746D01*
X114454Y128819D01*
X114280Y128896D01*
X114246Y128904D01*
X114214Y128917D01*
X114027Y128957D01*
X113842Y129003D01*
X113808Y129005D01*
X113774Y129012D01*
X113462Y129031D01*
X88692Y129031D01*
X88481Y129012D01*
X88269Y128996D01*
X88256Y128993D01*
X88243Y128991D01*
X88038Y128935D01*
X87833Y128882D01*
X87822Y128876D01*
X87809Y128873D01*
X87618Y128782D01*
X87425Y128692D01*
X87414Y128685D01*
X87402Y128679D01*
X87229Y128556D01*
X87056Y128434D01*
X87047Y128425D01*
X87036Y128417D01*
X86887Y128264D01*
X86739Y128115D01*
X86731Y128104D01*
X86722Y128095D01*
X84954Y126326D01*
X84394Y126094D01*
X84321Y126056D01*
X84244Y126026D01*
X84122Y125952D01*
X83995Y125886D01*
X83930Y125835D01*
X83859Y125792D01*
X83752Y125698D01*
X83639Y125610D01*
X83584Y125549D01*
X83522Y125494D01*
X83433Y125382D01*
X83337Y125276D01*
X83294Y125206D01*
X83243Y125141D01*
X83175Y125015D01*
X83100Y124894D01*
X83069Y124817D01*
X83030Y124744D01*
X82986Y124608D01*
X82933Y124475D01*
X82916Y124394D01*
X82891Y124316D01*
X82871Y124174D01*
X82843Y124034D01*
X82841Y123952D01*
X82830Y123870D01*
X82835Y123727D01*
X82832Y123584D01*
X82845Y123502D01*
X82848Y123420D01*
X82879Y123281D01*
X82901Y123139D01*
X82928Y123061D01*
X82945Y122981D01*
X83001Y122848D01*
X83047Y122713D01*
X83087Y122641D01*
X83119Y122565D01*
X83197Y122445D01*
X83266Y122320D01*
X83319Y122256D01*
X83363Y122187D01*
X83527Y122002D01*
X83552Y121972D01*
X83560Y121965D01*
X83570Y121953D01*
X83821Y121702D01*
X84156Y121123D01*
X84329Y120477D01*
X84329Y117093D01*
X71120Y117093D01*
X71086Y117090D01*
X71051Y117092D01*
X70862Y117070D01*
X70672Y117053D01*
X70638Y117044D01*
X70604Y117040D01*
X70421Y116985D01*
X70237Y116935D01*
X70206Y116920D01*
X70173Y116910D01*
X70002Y116823D01*
X69831Y116741D01*
X69803Y116721D01*
X69772Y116706D01*
X69620Y116590D01*
X69465Y116479D01*
X69440Y116454D01*
X69413Y116434D01*
X69284Y116294D01*
X69151Y116157D01*
X69131Y116128D01*
X69108Y116102D01*
X69005Y115941D01*
X68898Y115784D01*
X68888Y115760D01*
X68814Y115725D01*
X68786Y115705D01*
X68755Y115689D01*
X68603Y115574D01*
X68448Y115463D01*
X68424Y115438D01*
X68397Y115417D01*
X68268Y115277D01*
X68134Y115140D01*
X68115Y115112D01*
X68091Y115086D01*
X67989Y114925D01*
X67882Y114767D01*
X67868Y114736D01*
X67850Y114706D01*
X67777Y114530D01*
X67700Y114356D01*
X67692Y114322D01*
X67679Y114290D01*
X67638Y114103D01*
X67593Y113918D01*
X67591Y113884D01*
X67584Y113850D01*
X67565Y113538D01*
X67565Y105409D01*
X61468Y105409D01*
X61433Y105406D01*
X61399Y105408D01*
X61209Y105386D01*
X61020Y105369D01*
X60986Y105360D01*
X60952Y105356D01*
X60769Y105301D01*
X60585Y105251D01*
X60554Y105236D01*
X60521Y105226D01*
X60351Y105139D01*
X60178Y105057D01*
X60150Y105037D01*
X60119Y105022D01*
X59968Y104907D01*
X59812Y104795D01*
X59788Y104770D01*
X59761Y104750D01*
X59632Y104610D01*
X59498Y104473D01*
X59479Y104444D01*
X59455Y104418D01*
X59353Y104257D01*
X59246Y104100D01*
X59232Y104068D01*
X59214Y104039D01*
X59141Y103862D01*
X59064Y103688D01*
X59056Y103654D01*
X59043Y103622D01*
X59002Y103435D01*
X58957Y103250D01*
X58955Y103216D01*
X58948Y103182D01*
X58929Y102870D01*
X58929Y100262D01*
X58931Y100242D01*
X58929Y100222D01*
X58950Y100018D01*
X58969Y99814D01*
X58974Y99794D01*
X58976Y99774D01*
X59033Y99577D01*
X59087Y99379D01*
X59096Y99361D01*
X59102Y99341D01*
X59193Y99157D01*
X59281Y98973D01*
X59292Y98956D01*
X59301Y98938D01*
X59423Y98773D01*
X59543Y98606D01*
X59557Y98592D01*
X59569Y98576D01*
X59718Y98436D01*
X59865Y98292D01*
X59882Y98281D01*
X59897Y98267D01*
X60069Y98155D01*
X60238Y98040D01*
X60257Y98032D01*
X60274Y98021D01*
X60462Y97941D01*
X60650Y97858D01*
X60670Y97853D01*
X60689Y97845D01*
X60991Y97768D01*
X64623Y97074D01*
X64706Y97066D01*
X64787Y97048D01*
X65029Y97033D01*
X65071Y97029D01*
X65082Y97030D01*
X65099Y97029D01*
X68814Y97029D01*
X68871Y97034D01*
X68983Y97034D01*
X70275Y97121D01*
X70360Y97102D01*
X70548Y97057D01*
X70581Y97055D01*
X70612Y97048D01*
X70762Y97039D01*
X71951Y96546D01*
X72006Y96529D01*
X72110Y96486D01*
X73337Y96072D01*
X73408Y96022D01*
X73565Y95908D01*
X73594Y95894D01*
X73620Y95875D01*
X73755Y95810D01*
X74666Y94899D01*
X74709Y94862D01*
X74789Y94784D01*
X82424Y88103D01*
X82465Y88074D01*
X82534Y88012D01*
X83614Y87169D01*
X83629Y87149D01*
X83731Y87001D01*
X83764Y86969D01*
X83791Y86933D01*
X83850Y86874D01*
X84450Y85661D01*
X84477Y85617D01*
X84517Y85534D01*
X101223Y56059D01*
X101241Y56033D01*
X101254Y56006D01*
X101369Y55848D01*
X101479Y55688D01*
X101501Y55666D01*
X101519Y55642D01*
X101660Y55507D01*
X101797Y55369D01*
X101822Y55351D01*
X101844Y55330D01*
X102006Y55222D01*
X102165Y55110D01*
X102193Y55097D01*
X102219Y55080D01*
X102502Y54948D01*
X130635Y43865D01*
X130726Y43839D01*
X130813Y43803D01*
X130941Y43775D01*
X131067Y43738D01*
X131161Y43728D01*
X131254Y43708D01*
X131459Y43695D01*
X131514Y43689D01*
X131534Y43691D01*
X131566Y43689D01*
X339876Y43689D01*
X339939Y43694D01*
X340106Y43699D01*
X347510Y44372D01*
X347606Y44390D01*
X347703Y44397D01*
X347827Y44430D01*
X347953Y44453D01*
X348044Y44487D01*
X348138Y44511D01*
X348255Y44565D01*
X348375Y44610D01*
X348459Y44660D01*
X348547Y44700D01*
X348652Y44774D01*
X348762Y44839D01*
X348836Y44903D01*
X348916Y44959D01*
X349006Y45050D01*
X349103Y45134D01*
X349164Y45209D01*
X349233Y45278D01*
X349306Y45384D01*
X349387Y45483D01*
X349391Y45491D01*
X352905Y49004D01*
X352927Y49031D01*
X352953Y49054D01*
X353013Y49131D01*
X353067Y49186D01*
X353113Y49254D01*
X353193Y49350D01*
X353211Y49380D01*
X353232Y49407D01*
X353291Y49517D01*
X353319Y49559D01*
X353342Y49609D01*
X353417Y49741D01*
X353428Y49773D01*
X353445Y49804D01*
X353492Y49948D01*
X353502Y49971D01*
X353508Y49999D01*
X353568Y50165D01*
X353573Y50199D01*
X353584Y50232D01*
X353608Y50407D01*
X353608Y50408D01*
X353608Y50410D01*
X353610Y50421D01*
X353641Y50609D01*
X353641Y50644D01*
X353645Y50678D01*
X353638Y50869D01*
X353635Y51060D01*
X353628Y51094D01*
X353627Y51128D01*
X353586Y51314D01*
X353549Y51502D01*
X353537Y51534D01*
X353529Y51568D01*
X353456Y51743D01*
X353387Y51922D01*
X353369Y51951D01*
X353356Y51983D01*
X353253Y52143D01*
X353153Y52306D01*
X353130Y52332D01*
X353111Y52361D01*
X352905Y52596D01*
X349482Y56018D01*
X347471Y60873D01*
X347471Y66127D01*
X349482Y70982D01*
X353198Y74698D01*
X355266Y75554D01*
X355293Y75568D01*
X355321Y75578D01*
X355492Y75672D01*
X355665Y75763D01*
X355689Y75781D01*
X355715Y75796D01*
X355866Y75919D01*
X356021Y76039D01*
X356041Y76061D01*
X356065Y76080D01*
X356192Y76228D01*
X356322Y76373D01*
X356338Y76399D01*
X356358Y76422D01*
X356458Y76590D01*
X356560Y76755D01*
X356572Y76783D01*
X356587Y76810D01*
X356655Y76993D01*
X356727Y77173D01*
X356733Y77203D01*
X356744Y77232D01*
X356778Y77423D01*
X356817Y77615D01*
X356818Y77645D01*
X356823Y77675D01*
X356823Y77869D01*
X356828Y78065D01*
X356823Y78095D01*
X356823Y78125D01*
X356789Y78316D01*
X356759Y78510D01*
X356749Y78539D01*
X356744Y78568D01*
X356676Y78751D01*
X356613Y78935D01*
X356598Y78962D01*
X356587Y78991D01*
X356488Y79158D01*
X356393Y79329D01*
X356374Y79352D01*
X356359Y79378D01*
X356232Y79526D01*
X356108Y79677D01*
X356085Y79697D01*
X356065Y79720D01*
X355914Y79843D01*
X355766Y79970D01*
X355740Y79985D01*
X355716Y80004D01*
X355447Y80163D01*
X355355Y80210D01*
X354061Y81150D01*
X352930Y82281D01*
X351990Y83575D01*
X351264Y85000D01*
X350821Y86361D01*
X368300Y86361D01*
X385779Y86361D01*
X385336Y85000D01*
X384610Y83575D01*
X383670Y82281D01*
X382539Y81150D01*
X381245Y80210D01*
X381153Y80163D01*
X381127Y80147D01*
X381100Y80135D01*
X380938Y80028D01*
X380772Y79924D01*
X380749Y79903D01*
X380724Y79886D01*
X380583Y79752D01*
X380439Y79621D01*
X380420Y79597D01*
X380398Y79576D01*
X380283Y79418D01*
X380164Y79264D01*
X380150Y79237D01*
X380132Y79212D01*
X380047Y79038D01*
X379957Y78864D01*
X379948Y78835D01*
X379934Y78808D01*
X379881Y78621D01*
X379824Y78434D01*
X379820Y78404D01*
X379811Y78375D01*
X379792Y78180D01*
X379768Y77987D01*
X379770Y77957D01*
X379767Y77927D01*
X379782Y77732D01*
X379793Y77538D01*
X379800Y77508D01*
X379802Y77478D01*
X379852Y77289D01*
X379896Y77099D01*
X379908Y77072D01*
X379916Y77042D01*
X379998Y76866D01*
X380076Y76686D01*
X380093Y76661D01*
X380105Y76634D01*
X380217Y76474D01*
X380325Y76312D01*
X380346Y76290D01*
X380364Y76265D01*
X380502Y76128D01*
X380637Y75987D01*
X380662Y75969D01*
X380683Y75947D01*
X380843Y75837D01*
X381001Y75722D01*
X381028Y75709D01*
X381053Y75691D01*
X381334Y75554D01*
X383402Y74698D01*
X387118Y70982D01*
X389129Y66127D01*
X389129Y60873D01*
X387118Y56018D01*
X383695Y52596D01*
X383673Y52569D01*
X383647Y52546D01*
X383529Y52397D01*
X383407Y52250D01*
X383389Y52220D01*
X383368Y52193D01*
X383278Y52025D01*
X383183Y51859D01*
X383172Y51827D01*
X383155Y51796D01*
X383096Y51615D01*
X383032Y51435D01*
X383027Y51401D01*
X383016Y51368D01*
X382990Y51179D01*
X382959Y50991D01*
X382959Y50956D01*
X382955Y50922D01*
X382962Y50731D01*
X382965Y50541D01*
X382972Y50506D01*
X382973Y50472D01*
X383014Y50286D01*
X383015Y50284D01*
X383016Y50272D01*
X383018Y50265D01*
X383051Y50098D01*
X383063Y50066D01*
X383071Y50032D01*
X383136Y49876D01*
X383146Y49841D01*
X383161Y49812D01*
X383213Y49678D01*
X383231Y49649D01*
X383244Y49617D01*
X383322Y49496D01*
X383351Y49440D01*
X383386Y49394D01*
X383447Y49294D01*
X383470Y49268D01*
X383489Y49239D01*
X383594Y49119D01*
X383623Y49081D01*
X383648Y49058D01*
X383695Y49004D01*
X387118Y45582D01*
X389129Y40727D01*
X389129Y35473D01*
X387118Y30618D01*
X383402Y26902D01*
X378547Y24891D01*
X358053Y24891D01*
X353198Y26902D01*
X352515Y27585D01*
X352473Y27620D01*
X352436Y27660D01*
X352301Y27764D01*
X352169Y27874D01*
X352122Y27901D01*
X352079Y27934D01*
X351927Y28012D01*
X351778Y28098D01*
X351727Y28116D01*
X351679Y28141D01*
X351516Y28191D01*
X351354Y28248D01*
X351301Y28257D01*
X351249Y28273D01*
X351079Y28294D01*
X350910Y28322D01*
X350856Y28321D01*
X350802Y28328D01*
X350489Y28319D01*
X342713Y27612D01*
X342711Y27611D01*
X342709Y27611D01*
X342490Y27571D01*
X342270Y27531D01*
X342268Y27531D01*
X342266Y27530D01*
X341978Y27431D01*
X340844Y27431D01*
X340781Y27426D01*
X340614Y27421D01*
X339485Y27318D01*
X339261Y27366D01*
X339052Y27412D01*
X339050Y27412D01*
X339048Y27412D01*
X338737Y27431D01*
X129634Y27431D01*
X129616Y27430D01*
X129589Y27431D01*
X127991Y27403D01*
X126516Y28014D01*
X126499Y28020D01*
X126475Y28031D01*
X100499Y38264D01*
X100441Y38281D01*
X100386Y38305D01*
X100225Y38344D01*
X100067Y38391D01*
X100007Y38398D01*
X99948Y38412D01*
X99783Y38422D01*
X99619Y38440D01*
X99559Y38436D01*
X99499Y38440D01*
X99335Y38420D01*
X99170Y38409D01*
X99112Y38394D01*
X99052Y38387D01*
X98893Y38340D01*
X98733Y38299D01*
X98678Y38275D01*
X98621Y38257D01*
X98473Y38182D01*
X98323Y38114D01*
X98273Y38080D01*
X98219Y38053D01*
X98088Y37953D01*
X97952Y37860D01*
X97909Y37817D01*
X97861Y37781D01*
X97749Y37659D01*
X97631Y37543D01*
X97596Y37494D01*
X97555Y37450D01*
X97467Y37310D01*
X97372Y37175D01*
X97346Y37121D01*
X97314Y37070D01*
X97251Y36917D01*
X97181Y36767D01*
X97166Y36709D01*
X97143Y36653D01*
X97108Y36492D01*
X97066Y36332D01*
X97061Y36272D01*
X97048Y36213D01*
X97029Y35901D01*
X97029Y15153D01*
X96415Y13672D01*
X96391Y13593D01*
X96357Y13518D01*
X96323Y13379D01*
X96281Y13242D01*
X96270Y13160D01*
X96251Y13080D01*
X96242Y12938D01*
X96224Y12795D01*
X96228Y12713D01*
X96223Y12631D01*
X96240Y12489D01*
X96247Y12346D01*
X96265Y12266D01*
X96275Y12184D01*
X96317Y12046D01*
X96349Y11907D01*
X96381Y11832D01*
X96405Y11753D01*
X96470Y11625D01*
X96527Y11494D01*
X96572Y11425D01*
X96610Y11351D01*
X96696Y11238D01*
X96775Y11118D01*
X96832Y11058D01*
X96882Y10993D01*
X96987Y10896D01*
X97086Y10792D01*
X97152Y10743D01*
X97213Y10687D01*
X97333Y10611D01*
X97449Y10526D01*
X97523Y10490D01*
X97593Y10446D01*
X97725Y10391D01*
X97854Y10328D01*
X97933Y10306D01*
X98009Y10275D01*
X98149Y10245D01*
X98287Y10205D01*
X98369Y10197D01*
X98449Y10180D01*
X98695Y10165D01*
X98735Y10161D01*
X98746Y10162D01*
X98761Y10161D01*
X403100Y10161D01*
X403135Y10164D01*
G37*
G36*
X149309Y200797D02*
X149309Y200797D01*
X149357Y200795D01*
X149534Y200815D01*
X149711Y200829D01*
X149757Y200841D01*
X149804Y200847D01*
X149975Y200898D01*
X150146Y200943D01*
X150189Y200963D01*
X150235Y200977D01*
X150394Y201058D01*
X150555Y201132D01*
X150594Y201160D01*
X150637Y201181D01*
X150778Y201289D01*
X150924Y201391D01*
X150957Y201424D01*
X150995Y201453D01*
X151116Y201584D01*
X151241Y201710D01*
X151268Y201749D01*
X151300Y201784D01*
X151396Y201935D01*
X151497Y202080D01*
X151523Y202134D01*
X151542Y202164D01*
X151566Y202223D01*
X151634Y202361D01*
X152076Y203428D01*
X154712Y206064D01*
X158156Y207491D01*
X159060Y207491D01*
X159095Y207494D01*
X159129Y207492D01*
X159318Y207514D01*
X159509Y207531D01*
X159542Y207540D01*
X159576Y207544D01*
X159759Y207599D01*
X159943Y207649D01*
X159974Y207664D01*
X160007Y207674D01*
X160178Y207761D01*
X160350Y207843D01*
X160378Y207863D01*
X160409Y207878D01*
X160561Y207994D01*
X160716Y208105D01*
X160740Y208130D01*
X160767Y208150D01*
X160896Y208290D01*
X161030Y208427D01*
X161049Y208456D01*
X161073Y208482D01*
X161175Y208643D01*
X161282Y208800D01*
X161296Y208832D01*
X161314Y208861D01*
X161387Y209038D01*
X161464Y209212D01*
X161472Y209246D01*
X161485Y209278D01*
X161525Y209465D01*
X161571Y209650D01*
X161573Y209684D01*
X161580Y209718D01*
X161599Y210030D01*
X161599Y212684D01*
X163026Y216128D01*
X165662Y218764D01*
X169106Y220191D01*
X172834Y220191D01*
X175366Y219142D01*
X175477Y219107D01*
X175585Y219063D01*
X175692Y219040D01*
X175795Y219007D01*
X175911Y218993D01*
X176026Y218968D01*
X176179Y218958D01*
X176242Y218951D01*
X176278Y218952D01*
X176337Y218949D01*
X333401Y218949D01*
X333565Y218963D01*
X333729Y218970D01*
X333789Y218983D01*
X333850Y218989D01*
X334009Y219032D01*
X334169Y219068D01*
X334225Y219091D01*
X334284Y219107D01*
X334432Y219178D01*
X334584Y219241D01*
X334636Y219274D01*
X334691Y219301D01*
X334824Y219396D01*
X334963Y219486D01*
X335020Y219537D01*
X335057Y219563D01*
X335099Y219606D01*
X335197Y219692D01*
X336060Y220555D01*
X336165Y220682D01*
X336277Y220802D01*
X336309Y220854D01*
X336348Y220901D01*
X336430Y221043D01*
X336518Y221182D01*
X336542Y221239D01*
X336572Y221292D01*
X336627Y221446D01*
X336689Y221599D01*
X336702Y221658D01*
X336723Y221716D01*
X336749Y221878D01*
X336784Y222039D01*
X336789Y222116D01*
X336796Y222160D01*
X336795Y222221D01*
X336803Y222351D01*
X336803Y224040D01*
X338041Y227028D01*
X346920Y235907D01*
X347057Y236070D01*
X347194Y236231D01*
X347201Y236242D01*
X347209Y236252D01*
X347314Y236437D01*
X347421Y236619D01*
X347426Y236632D01*
X347432Y236643D01*
X347504Y236844D01*
X347577Y237042D01*
X347579Y237055D01*
X347583Y237068D01*
X347618Y237278D01*
X347655Y237486D01*
X347655Y237499D01*
X347657Y237512D01*
X347654Y237726D01*
X347653Y237936D01*
X347651Y237949D01*
X347651Y237962D01*
X347610Y238172D01*
X347572Y238379D01*
X347567Y238394D01*
X347565Y238404D01*
X347551Y238441D01*
X347471Y238672D01*
X347471Y243927D01*
X349482Y248782D01*
X352905Y252204D01*
X352927Y252231D01*
X352953Y252254D01*
X353071Y252403D01*
X353193Y252550D01*
X353211Y252580D01*
X353232Y252607D01*
X353322Y252775D01*
X353417Y252941D01*
X353428Y252973D01*
X353445Y253004D01*
X353504Y253185D01*
X353568Y253365D01*
X353573Y253399D01*
X353584Y253432D01*
X353610Y253621D01*
X353641Y253809D01*
X353641Y253844D01*
X353645Y253878D01*
X353638Y254069D01*
X353635Y254260D01*
X353628Y254294D01*
X353627Y254328D01*
X353586Y254514D01*
X353549Y254702D01*
X353537Y254734D01*
X353529Y254768D01*
X353456Y254943D01*
X353387Y255122D01*
X353369Y255151D01*
X353356Y255183D01*
X353253Y255343D01*
X353153Y255506D01*
X353130Y255532D01*
X353111Y255561D01*
X352905Y255796D01*
X349482Y259218D01*
X348294Y262087D01*
X348212Y262244D01*
X348135Y262404D01*
X348108Y262443D01*
X348085Y262486D01*
X347977Y262626D01*
X347873Y262770D01*
X347839Y262804D01*
X347810Y262842D01*
X347678Y262960D01*
X347551Y263084D01*
X347511Y263111D01*
X347475Y263143D01*
X347325Y263237D01*
X347178Y263337D01*
X347134Y263356D01*
X347093Y263381D01*
X346928Y263447D01*
X346766Y263519D01*
X346719Y263530D01*
X346675Y263548D01*
X346501Y263583D01*
X346328Y263625D01*
X346281Y263628D01*
X346234Y263638D01*
X346056Y263642D01*
X345879Y263653D01*
X345831Y263648D01*
X345784Y263649D01*
X345608Y263622D01*
X345432Y263601D01*
X345386Y263587D01*
X345339Y263580D01*
X345171Y263522D01*
X345001Y263471D01*
X344958Y263449D01*
X344913Y263433D01*
X344758Y263347D01*
X344599Y263266D01*
X344561Y263238D01*
X344520Y263214D01*
X344382Y263102D01*
X344241Y262994D01*
X344208Y262959D01*
X344171Y262929D01*
X344056Y262794D01*
X343935Y262663D01*
X343910Y262623D01*
X343879Y262587D01*
X343789Y262434D01*
X343694Y262283D01*
X343675Y262239D01*
X343651Y262198D01*
X343590Y262031D01*
X343523Y261867D01*
X343513Y261820D01*
X343496Y261775D01*
X343465Y261600D01*
X343428Y261427D01*
X343424Y261368D01*
X343418Y261332D01*
X343418Y261269D01*
X343409Y261115D01*
X343409Y256453D01*
X341398Y251598D01*
X337682Y247882D01*
X332827Y245871D01*
X327573Y245871D01*
X322718Y247882D01*
X319296Y251305D01*
X319269Y251327D01*
X319246Y251353D01*
X319097Y251471D01*
X318950Y251593D01*
X318920Y251611D01*
X318893Y251632D01*
X318725Y251722D01*
X318559Y251817D01*
X318527Y251828D01*
X318496Y251845D01*
X318315Y251904D01*
X318135Y251968D01*
X318101Y251973D01*
X318068Y251984D01*
X317879Y252010D01*
X317691Y252041D01*
X317656Y252041D01*
X317622Y252045D01*
X317431Y252038D01*
X317240Y252035D01*
X317206Y252028D01*
X317172Y252027D01*
X316986Y251986D01*
X316798Y251949D01*
X316766Y251937D01*
X316732Y251929D01*
X316557Y251856D01*
X316378Y251787D01*
X316349Y251769D01*
X316317Y251756D01*
X316157Y251653D01*
X315994Y251553D01*
X315968Y251530D01*
X315939Y251511D01*
X315704Y251305D01*
X312282Y247882D01*
X307427Y245871D01*
X302173Y245871D01*
X297318Y247882D01*
X293896Y251305D01*
X293869Y251327D01*
X293846Y251353D01*
X293697Y251471D01*
X293550Y251593D01*
X293520Y251611D01*
X293493Y251632D01*
X293325Y251722D01*
X293159Y251817D01*
X293127Y251828D01*
X293096Y251845D01*
X292915Y251904D01*
X292735Y251968D01*
X292701Y251973D01*
X292668Y251984D01*
X292479Y252010D01*
X292291Y252041D01*
X292256Y252041D01*
X292222Y252045D01*
X292031Y252038D01*
X291840Y252035D01*
X291806Y252028D01*
X291772Y252027D01*
X291586Y251986D01*
X291398Y251949D01*
X291366Y251937D01*
X291332Y251929D01*
X291157Y251856D01*
X290978Y251787D01*
X290949Y251769D01*
X290917Y251756D01*
X290757Y251653D01*
X290594Y251553D01*
X290568Y251530D01*
X290539Y251511D01*
X290304Y251305D01*
X286882Y247882D01*
X282027Y245871D01*
X276773Y245871D01*
X271918Y247882D01*
X268496Y251305D01*
X268469Y251327D01*
X268446Y251353D01*
X268297Y251471D01*
X268150Y251593D01*
X268120Y251611D01*
X268093Y251632D01*
X267925Y251722D01*
X267759Y251817D01*
X267727Y251828D01*
X267696Y251845D01*
X267515Y251904D01*
X267335Y251968D01*
X267301Y251973D01*
X267268Y251984D01*
X267079Y252010D01*
X266891Y252041D01*
X266856Y252041D01*
X266822Y252045D01*
X266631Y252038D01*
X266440Y252035D01*
X266406Y252028D01*
X266372Y252027D01*
X266186Y251986D01*
X265998Y251949D01*
X265966Y251937D01*
X265932Y251929D01*
X265757Y251856D01*
X265578Y251787D01*
X265549Y251769D01*
X265517Y251756D01*
X265357Y251653D01*
X265194Y251553D01*
X265168Y251530D01*
X265139Y251511D01*
X264904Y251305D01*
X261482Y247882D01*
X256627Y245871D01*
X251373Y245871D01*
X246518Y247882D01*
X243096Y251305D01*
X243069Y251327D01*
X243046Y251353D01*
X242897Y251471D01*
X242750Y251593D01*
X242720Y251611D01*
X242693Y251632D01*
X242525Y251722D01*
X242359Y251817D01*
X242327Y251828D01*
X242296Y251845D01*
X242115Y251904D01*
X241935Y251968D01*
X241901Y251973D01*
X241868Y251984D01*
X241679Y252010D01*
X241491Y252041D01*
X241456Y252041D01*
X241422Y252045D01*
X241231Y252038D01*
X241040Y252035D01*
X241006Y252028D01*
X240972Y252027D01*
X240786Y251986D01*
X240598Y251949D01*
X240566Y251937D01*
X240532Y251929D01*
X240357Y251856D01*
X240178Y251787D01*
X240149Y251769D01*
X240117Y251756D01*
X239957Y251653D01*
X239794Y251553D01*
X239768Y251530D01*
X239739Y251511D01*
X239504Y251305D01*
X236082Y247882D01*
X231227Y245871D01*
X225973Y245871D01*
X221118Y247882D01*
X217402Y251598D01*
X215391Y256453D01*
X215391Y276947D01*
X215963Y278328D01*
X215988Y278407D01*
X216021Y278482D01*
X216055Y278621D01*
X216098Y278758D01*
X216108Y278840D01*
X216128Y278920D01*
X216137Y279062D01*
X216155Y279205D01*
X216151Y279287D01*
X216156Y279369D01*
X216139Y279511D01*
X216132Y279654D01*
X216113Y279734D01*
X216104Y279816D01*
X216062Y279954D01*
X216030Y280093D01*
X215997Y280168D01*
X215973Y280247D01*
X215908Y280375D01*
X215852Y280506D01*
X215806Y280575D01*
X215769Y280649D01*
X215682Y280763D01*
X215603Y280882D01*
X215547Y280942D01*
X215497Y281007D01*
X215392Y281104D01*
X215293Y281208D01*
X215226Y281257D01*
X215166Y281313D01*
X215045Y281390D01*
X214929Y281474D01*
X214856Y281510D01*
X214786Y281554D01*
X214654Y281609D01*
X214525Y281672D01*
X214446Y281694D01*
X214369Y281725D01*
X214229Y281755D01*
X214092Y281795D01*
X214010Y281803D01*
X213929Y281820D01*
X213683Y281835D01*
X213644Y281839D01*
X213633Y281838D01*
X213617Y281839D01*
X180083Y281839D01*
X180001Y281832D01*
X179918Y281834D01*
X179777Y281812D01*
X179634Y281799D01*
X179555Y281778D01*
X179473Y281765D01*
X179338Y281719D01*
X179200Y281681D01*
X179125Y281645D01*
X179048Y281619D01*
X178922Y281549D01*
X178793Y281487D01*
X178726Y281440D01*
X178654Y281399D01*
X178543Y281309D01*
X178427Y281225D01*
X178370Y281166D01*
X178306Y281114D01*
X178213Y281005D01*
X178113Y280903D01*
X178067Y280834D01*
X178013Y280772D01*
X177941Y280648D01*
X177861Y280530D01*
X177828Y280454D01*
X177786Y280383D01*
X177737Y280249D01*
X177679Y280118D01*
X177659Y280038D01*
X177631Y279960D01*
X177606Y279819D01*
X177572Y279680D01*
X177567Y279598D01*
X177553Y279517D01*
X177553Y279374D01*
X177544Y279231D01*
X177554Y279149D01*
X177554Y279067D01*
X177580Y278926D01*
X177596Y278784D01*
X177620Y278705D01*
X177635Y278624D01*
X177715Y278390D01*
X177727Y278353D01*
X177732Y278343D01*
X177737Y278328D01*
X178309Y276947D01*
X178309Y267644D01*
X178320Y267514D01*
X178322Y267384D01*
X178340Y267291D01*
X178349Y267195D01*
X178383Y267070D01*
X178408Y266942D01*
X178442Y266853D01*
X178467Y266761D01*
X178523Y266644D01*
X178570Y266522D01*
X178620Y266440D01*
X178661Y266354D01*
X178736Y266249D01*
X178804Y266137D01*
X178867Y266066D01*
X178923Y265988D01*
X179016Y265897D01*
X179102Y265800D01*
X179177Y265741D01*
X179245Y265674D01*
X179353Y265601D01*
X179455Y265521D01*
X179539Y265475D01*
X179618Y265422D01*
X179737Y265369D01*
X179852Y265308D01*
X179943Y265278D01*
X180030Y265240D01*
X180157Y265209D01*
X180280Y265169D01*
X180375Y265156D01*
X180468Y265133D01*
X180597Y265125D01*
X180726Y265107D01*
X180822Y265111D01*
X180917Y265105D01*
X181046Y265120D01*
X181176Y265126D01*
X181269Y265146D01*
X181364Y265157D01*
X181489Y265195D01*
X181616Y265223D01*
X181704Y265260D01*
X181795Y265288D01*
X181911Y265347D01*
X182031Y265397D01*
X182111Y265449D01*
X182197Y265492D01*
X182300Y265571D01*
X182409Y265641D01*
X182507Y265727D01*
X182555Y265764D01*
X182586Y265797D01*
X182644Y265848D01*
X182767Y265971D01*
X185754Y267209D01*
X190213Y267209D01*
X190329Y267219D01*
X190446Y267219D01*
X190553Y267239D01*
X190661Y267249D01*
X190774Y267279D01*
X190889Y267300D01*
X191035Y267351D01*
X191095Y267367D01*
X191128Y267383D01*
X191184Y267402D01*
X193716Y268451D01*
X197444Y268451D01*
X200888Y267024D01*
X203524Y264388D01*
X204951Y260944D01*
X204951Y257216D01*
X203524Y253772D01*
X200888Y251136D01*
X197444Y249709D01*
X193716Y249709D01*
X192300Y250296D01*
X192096Y250360D01*
X191896Y250425D01*
X191883Y250427D01*
X191870Y250431D01*
X191659Y250458D01*
X191450Y250486D01*
X191436Y250486D01*
X191423Y250487D01*
X191213Y250477D01*
X191000Y250468D01*
X190987Y250465D01*
X190974Y250464D01*
X190768Y250417D01*
X190560Y250370D01*
X190548Y250365D01*
X190535Y250362D01*
X190341Y250279D01*
X190145Y250197D01*
X190134Y250190D01*
X190121Y250184D01*
X189944Y250067D01*
X189766Y249952D01*
X189755Y249942D01*
X189746Y249936D01*
X189717Y249909D01*
X189532Y249746D01*
X178871Y239085D01*
X178871Y239084D01*
X176228Y236441D01*
X173240Y235203D01*
X126480Y235203D01*
X123492Y236441D01*
X114806Y245128D01*
X114679Y245233D01*
X114559Y245345D01*
X114507Y245377D01*
X114460Y245416D01*
X114318Y245498D01*
X114179Y245586D01*
X114122Y245610D01*
X114069Y245640D01*
X113914Y245695D01*
X113762Y245757D01*
X113703Y245770D01*
X113645Y245791D01*
X113483Y245817D01*
X113322Y245852D01*
X113245Y245857D01*
X113201Y245864D01*
X113140Y245863D01*
X113010Y245871D01*
X111673Y245871D01*
X106818Y247882D01*
X103102Y251598D01*
X102246Y253666D01*
X102232Y253693D01*
X102222Y253721D01*
X102128Y253892D01*
X102037Y254065D01*
X102019Y254089D01*
X102004Y254115D01*
X101881Y254266D01*
X101761Y254421D01*
X101739Y254441D01*
X101720Y254465D01*
X101572Y254592D01*
X101427Y254722D01*
X101401Y254738D01*
X101378Y254758D01*
X101210Y254858D01*
X101045Y254960D01*
X101017Y254972D01*
X100990Y254987D01*
X100807Y255055D01*
X100627Y255127D01*
X100597Y255133D01*
X100568Y255144D01*
X100377Y255178D01*
X100185Y255217D01*
X100155Y255218D01*
X100125Y255223D01*
X99931Y255223D01*
X99735Y255228D01*
X99705Y255223D01*
X99675Y255223D01*
X99484Y255189D01*
X99290Y255159D01*
X99261Y255149D01*
X99232Y255144D01*
X99049Y255076D01*
X98865Y255013D01*
X98838Y254998D01*
X98809Y254987D01*
X98642Y254888D01*
X98471Y254793D01*
X98448Y254774D01*
X98422Y254759D01*
X98274Y254632D01*
X98123Y254508D01*
X98103Y254485D01*
X98080Y254465D01*
X97957Y254314D01*
X97830Y254166D01*
X97815Y254140D01*
X97796Y254116D01*
X97637Y253847D01*
X97590Y253755D01*
X96650Y252461D01*
X95519Y251330D01*
X94225Y250390D01*
X92800Y249664D01*
X91439Y249221D01*
X91439Y266700D01*
X91436Y266734D01*
X91438Y266769D01*
X91416Y266958D01*
X91399Y267148D01*
X91390Y267182D01*
X91386Y267216D01*
X91331Y267399D01*
X91281Y267583D01*
X91266Y267614D01*
X91256Y267647D01*
X91169Y267818D01*
X91088Y267989D01*
X91067Y268017D01*
X91052Y268048D01*
X90936Y268200D01*
X90825Y268355D01*
X90801Y268379D01*
X90780Y268407D01*
X90640Y268536D01*
X90503Y268669D01*
X90474Y268689D01*
X90449Y268712D01*
X90288Y268815D01*
X90130Y268921D01*
X90098Y268935D01*
X90069Y268954D01*
X89892Y269026D01*
X89718Y269104D01*
X89684Y269112D01*
X89652Y269125D01*
X89466Y269165D01*
X89280Y269210D01*
X89246Y269212D01*
X89212Y269220D01*
X88900Y269239D01*
X88865Y269236D01*
X88831Y269238D01*
X88641Y269216D01*
X88451Y269199D01*
X88418Y269190D01*
X88384Y269186D01*
X88201Y269131D01*
X88017Y269080D01*
X87986Y269066D01*
X87953Y269056D01*
X87782Y268969D01*
X87610Y268887D01*
X87582Y268867D01*
X87551Y268851D01*
X87399Y268736D01*
X87244Y268625D01*
X87220Y268600D01*
X87192Y268579D01*
X87063Y268439D01*
X86930Y268302D01*
X86911Y268274D01*
X86887Y268248D01*
X86785Y268087D01*
X86678Y267929D01*
X86664Y267898D01*
X86645Y267868D01*
X86573Y267692D01*
X86496Y267517D01*
X86488Y267484D01*
X86475Y267452D01*
X86434Y267265D01*
X86389Y267080D01*
X86387Y267046D01*
X86380Y267012D01*
X86361Y266700D01*
X86361Y249221D01*
X85000Y249664D01*
X83575Y250390D01*
X82281Y251330D01*
X81150Y252461D01*
X80210Y253755D01*
X80163Y253847D01*
X80147Y253873D01*
X80135Y253900D01*
X80028Y254062D01*
X79924Y254228D01*
X79903Y254251D01*
X79886Y254276D01*
X79752Y254417D01*
X79621Y254561D01*
X79597Y254580D01*
X79576Y254602D01*
X79418Y254717D01*
X79264Y254836D01*
X79237Y254850D01*
X79212Y254868D01*
X79038Y254953D01*
X78864Y255043D01*
X78835Y255052D01*
X78808Y255066D01*
X78621Y255119D01*
X78434Y255176D01*
X78404Y255180D01*
X78375Y255189D01*
X78180Y255208D01*
X77987Y255232D01*
X77957Y255230D01*
X77927Y255233D01*
X77732Y255218D01*
X77538Y255207D01*
X77508Y255200D01*
X77478Y255198D01*
X77289Y255148D01*
X77099Y255104D01*
X77072Y255092D01*
X77042Y255084D01*
X76866Y255002D01*
X76686Y254924D01*
X76661Y254907D01*
X76634Y254895D01*
X76474Y254783D01*
X76312Y254675D01*
X76290Y254654D01*
X76265Y254636D01*
X76128Y254498D01*
X75987Y254363D01*
X75969Y254338D01*
X75947Y254317D01*
X75837Y254157D01*
X75722Y253999D01*
X75709Y253972D01*
X75691Y253947D01*
X75554Y253666D01*
X74698Y251598D01*
X72372Y249273D01*
X72267Y249146D01*
X72155Y249025D01*
X72123Y248974D01*
X72084Y248927D01*
X72002Y248784D01*
X71914Y248646D01*
X71890Y248589D01*
X71860Y248536D01*
X71805Y248381D01*
X71743Y248229D01*
X71730Y248169D01*
X71709Y248112D01*
X71683Y247950D01*
X71648Y247789D01*
X71643Y247712D01*
X71636Y247668D01*
X71637Y247607D01*
X71629Y247477D01*
X71629Y238924D01*
X71643Y238760D01*
X71650Y238596D01*
X71663Y238536D01*
X71669Y238476D01*
X71712Y238317D01*
X71748Y238156D01*
X71771Y238100D01*
X71787Y238041D01*
X71858Y237893D01*
X71921Y237741D01*
X71954Y237690D01*
X71981Y237635D01*
X72076Y237501D01*
X72166Y237363D01*
X72217Y237305D01*
X72243Y237268D01*
X72286Y237226D01*
X72372Y237129D01*
X80565Y228936D01*
X80583Y228921D01*
X80598Y228904D01*
X80755Y228777D01*
X80911Y228647D01*
X80931Y228635D01*
X80949Y228621D01*
X81126Y228524D01*
X81301Y228424D01*
X81323Y228416D01*
X81344Y228405D01*
X81535Y228341D01*
X81726Y228273D01*
X81749Y228269D01*
X81770Y228262D01*
X81970Y228232D01*
X82170Y228199D01*
X82193Y228200D01*
X82216Y228196D01*
X82418Y228203D01*
X82620Y228205D01*
X82643Y228210D01*
X82666Y228210D01*
X82864Y228253D01*
X83062Y228291D01*
X83084Y228299D01*
X83106Y228304D01*
X83294Y228381D01*
X83482Y228453D01*
X83502Y228465D01*
X83523Y228474D01*
X83694Y228582D01*
X83867Y228687D01*
X83884Y228702D01*
X83904Y228715D01*
X84052Y228851D01*
X84204Y228985D01*
X84219Y229003D01*
X84236Y229019D01*
X84358Y229180D01*
X84484Y229338D01*
X84495Y229359D01*
X84509Y229377D01*
X84601Y229557D01*
X84696Y229735D01*
X84704Y229757D01*
X84714Y229778D01*
X84813Y230074D01*
X85072Y231041D01*
X85407Y231620D01*
X85880Y232093D01*
X86459Y232428D01*
X87105Y232601D01*
X88901Y232601D01*
X88901Y226060D01*
X88904Y226026D01*
X88902Y225991D01*
X88924Y225802D01*
X88940Y225612D01*
X88950Y225578D01*
X88954Y225544D01*
X89009Y225361D01*
X89059Y225177D01*
X89074Y225146D01*
X89084Y225113D01*
X89171Y224942D01*
X89252Y224771D01*
X89273Y224743D01*
X89288Y224712D01*
X89403Y224560D01*
X89515Y224405D01*
X89539Y224381D01*
X89560Y224353D01*
X89561Y224353D01*
X89561Y224352D01*
X89701Y224223D01*
X89838Y224090D01*
X89866Y224071D01*
X89892Y224047D01*
X90053Y223945D01*
X90211Y223838D01*
X90242Y223824D01*
X90272Y223805D01*
X90448Y223733D01*
X90623Y223656D01*
X90656Y223648D01*
X90688Y223635D01*
X90875Y223594D01*
X91060Y223549D01*
X91094Y223547D01*
X91128Y223540D01*
X91440Y223521D01*
X97981Y223521D01*
X97981Y221619D01*
X97957Y221482D01*
X97957Y221436D01*
X97951Y221390D01*
X97958Y221210D01*
X97959Y221032D01*
X97967Y220986D01*
X97969Y220940D01*
X98008Y220765D01*
X98040Y220589D01*
X98056Y220545D01*
X98066Y220500D01*
X98135Y220335D01*
X98198Y220167D01*
X98222Y220127D01*
X98240Y220085D01*
X98337Y219935D01*
X98429Y219780D01*
X98459Y219745D01*
X98484Y219706D01*
X98691Y219472D01*
X100178Y217986D01*
X101029Y215932D01*
X101029Y206649D01*
X101036Y206567D01*
X101034Y206484D01*
X101056Y206343D01*
X101069Y206200D01*
X101090Y206121D01*
X101103Y206040D01*
X101149Y205904D01*
X101187Y205766D01*
X101223Y205692D01*
X101249Y205614D01*
X101319Y205488D01*
X101381Y205359D01*
X101428Y205293D01*
X101469Y205220D01*
X101559Y205110D01*
X101643Y204993D01*
X101702Y204936D01*
X101754Y204872D01*
X101863Y204779D01*
X101965Y204679D01*
X102034Y204633D01*
X102096Y204580D01*
X102220Y204507D01*
X102338Y204427D01*
X102414Y204394D01*
X102485Y204352D01*
X102619Y204303D01*
X102750Y204245D01*
X102830Y204225D01*
X102908Y204197D01*
X103049Y204172D01*
X103188Y204138D01*
X103270Y204133D01*
X103351Y204119D01*
X103494Y204119D01*
X103637Y204111D01*
X103719Y204120D01*
X103801Y204120D01*
X103942Y204146D01*
X104084Y204163D01*
X104163Y204187D01*
X104244Y204201D01*
X104478Y204282D01*
X104515Y204293D01*
X104525Y204298D01*
X104540Y204303D01*
X106107Y204952D01*
X106253Y205028D01*
X106402Y205097D01*
X106452Y205132D01*
X106506Y205161D01*
X106636Y205261D01*
X106771Y205356D01*
X106814Y205399D01*
X106862Y205436D01*
X106972Y205558D01*
X107088Y205675D01*
X107123Y205725D01*
X107163Y205771D01*
X107250Y205910D01*
X107344Y206045D01*
X107378Y206115D01*
X107401Y206153D01*
X107424Y206210D01*
X107481Y206326D01*
X108102Y207826D01*
X109674Y209398D01*
X111728Y210249D01*
X121952Y210249D01*
X124048Y209381D01*
X124118Y209315D01*
X124170Y209283D01*
X124217Y209244D01*
X124359Y209162D01*
X124498Y209074D01*
X124555Y209050D01*
X124608Y209020D01*
X124762Y208965D01*
X124915Y208903D01*
X124974Y208890D01*
X125032Y208869D01*
X125194Y208843D01*
X125355Y208808D01*
X125432Y208803D01*
X125476Y208796D01*
X125537Y208797D01*
X125667Y208789D01*
X128333Y208789D01*
X128497Y208803D01*
X128661Y208810D01*
X128721Y208823D01*
X128782Y208829D01*
X128941Y208872D01*
X129101Y208908D01*
X129157Y208931D01*
X129216Y208947D01*
X129364Y209018D01*
X129516Y209081D01*
X129568Y209114D01*
X129623Y209141D01*
X129756Y209236D01*
X129895Y209326D01*
X129952Y209377D01*
X129966Y209386D01*
X132048Y210249D01*
X142272Y210249D01*
X144326Y209398D01*
X145898Y207826D01*
X146749Y205772D01*
X146749Y203333D01*
X146764Y203156D01*
X146774Y202979D01*
X146784Y202932D01*
X146789Y202884D01*
X146835Y202713D01*
X146876Y202540D01*
X146895Y202496D01*
X146907Y202450D01*
X146983Y202290D01*
X147054Y202126D01*
X147080Y202086D01*
X147101Y202043D01*
X147204Y201899D01*
X147302Y201751D01*
X147335Y201716D01*
X147363Y201677D01*
X147490Y201553D01*
X147613Y201425D01*
X147651Y201397D01*
X147685Y201363D01*
X147833Y201264D01*
X147976Y201159D01*
X148019Y201138D01*
X148058Y201111D01*
X148221Y201039D01*
X148380Y200961D01*
X148426Y200948D01*
X148470Y200929D01*
X148643Y200887D01*
X148814Y200838D01*
X148861Y200834D01*
X148908Y200822D01*
X149085Y200811D01*
X149262Y200794D01*
X149309Y200797D01*
G37*
%LPC*%
G36*
X73659Y105409D02*
X73659Y105409D01*
X73659Y110999D01*
X84329Y110999D01*
X84329Y107615D01*
X84156Y106969D01*
X83821Y106390D01*
X83348Y105917D01*
X82769Y105582D01*
X82123Y105409D01*
X73659Y105409D01*
G37*
%LPD*%
%LPC*%
G36*
X93979Y228599D02*
X93979Y228599D01*
X93979Y232601D01*
X95775Y232601D01*
X96421Y232428D01*
X97000Y232093D01*
X97473Y231620D01*
X97808Y231041D01*
X97981Y230395D01*
X97981Y228599D01*
X93979Y228599D01*
G37*
%LPD*%
%LPC*%
G36*
X177799Y99059D02*
X177799Y99059D01*
X177799Y103061D01*
X179595Y103061D01*
X180241Y102888D01*
X180820Y102553D01*
X181293Y102080D01*
X181628Y101501D01*
X181801Y100855D01*
X181801Y99059D01*
X177799Y99059D01*
G37*
%LPD*%
%LPC*%
G36*
X193039Y78739D02*
X193039Y78739D01*
X193039Y82741D01*
X194835Y82741D01*
X195481Y82568D01*
X196060Y82233D01*
X196533Y81760D01*
X196868Y81181D01*
X197041Y80535D01*
X197041Y78739D01*
X193039Y78739D01*
G37*
%LPD*%
%LPC*%
G36*
X139699Y178879D02*
X139699Y178879D01*
X139699Y182881D01*
X143701Y182881D01*
X143701Y181085D01*
X143528Y180439D01*
X143193Y179860D01*
X142720Y179387D01*
X142141Y179052D01*
X141495Y178879D01*
X139699Y178879D01*
G37*
%LPD*%
%LPC*%
G36*
X193039Y69659D02*
X193039Y69659D01*
X193039Y73661D01*
X197041Y73661D01*
X197041Y71865D01*
X196868Y71219D01*
X196533Y70640D01*
X196060Y70167D01*
X195481Y69832D01*
X194835Y69659D01*
X193039Y69659D01*
G37*
%LPD*%
%LPC*%
G36*
X132825Y178879D02*
X132825Y178879D01*
X132179Y179052D01*
X131600Y179387D01*
X131127Y179860D01*
X130792Y180439D01*
X130619Y181085D01*
X130619Y182881D01*
X134621Y182881D01*
X134621Y178879D01*
X132825Y178879D01*
G37*
%LPD*%
D10*
X360680Y266700D02*
X375920Y266700D01*
X375920Y241300D02*
X360680Y241300D01*
X360680Y215900D02*
X375920Y215900D01*
X375920Y190500D02*
X360680Y190500D01*
X360680Y165100D02*
X375920Y165100D01*
X375920Y139700D02*
X360680Y139700D01*
X360680Y114300D02*
X375920Y114300D01*
X375920Y88900D02*
X360680Y88900D01*
X360680Y63500D02*
X375920Y63500D01*
X375920Y38100D02*
X360680Y38100D01*
D11*
X91440Y226060D03*
X91440Y210820D03*
X137160Y185420D03*
X137160Y200660D03*
X116840Y185420D03*
X116840Y200660D03*
X190500Y76200D03*
X175260Y76200D03*
X175260Y96520D03*
X160020Y96520D03*
D12*
X70612Y114046D03*
X70612Y137160D03*
X70612Y160274D03*
D13*
X132590Y137160D03*
D10*
X63500Y259080D02*
X63500Y274320D01*
X88900Y274320D02*
X88900Y259080D01*
X114300Y259080D02*
X114300Y274320D01*
X139700Y274320D02*
X139700Y259080D01*
X165100Y259080D02*
X165100Y274320D01*
X228600Y274320D02*
X228600Y259080D01*
X254000Y259080D02*
X254000Y274320D01*
X279400Y274320D02*
X279400Y259080D01*
X304800Y259080D02*
X304800Y274320D01*
X330200Y274320D02*
X330200Y259080D01*
X83820Y33020D02*
X83820Y17780D01*
X58420Y17780D02*
X58420Y33020D01*
D14*
X327660Y182880D03*
D15*
X190500Y81280D02*
X190500Y76200D01*
X190500Y81280D02*
X175260Y96520D01*
X137160Y185420D02*
X116840Y185420D01*
X91440Y226060D02*
X91440Y264160D01*
X88900Y266700D01*
D16*
X114300Y60960D03*
D15*
X114300Y70358D02*
X70612Y114046D01*
X114300Y70358D02*
X114300Y60960D01*
D16*
X203200Y78740D03*
D15*
X203200Y88900D01*
X198120Y88900D01*
X190500Y81280D01*
X77297Y81788D02*
X69169Y88900D01*
X77297Y81788D02*
X96012Y48768D01*
X129540Y35560D01*
X340360Y35560D02*
X368300Y38100D01*
X340360Y35560D02*
X129540Y35560D01*
X69169Y88900D02*
X64089Y88900D01*
X50800Y91440D01*
X50800Y147320D01*
X56134Y160274D01*
X70612Y160274D01*
X91440Y210820D02*
X88328Y213932D01*
X84073Y213932D01*
X63500Y234505D01*
X63500Y266700D01*
X91440Y181102D02*
X70612Y160274D01*
X91440Y181102D02*
X91440Y210820D01*
X116840Y200660D02*
X137160Y200660D01*
X104140Y137160D02*
X70612Y137160D01*
X104140Y137160D02*
X132590Y137160D01*
X116840Y149860D02*
X104140Y137160D01*
X104712Y178053D02*
X104712Y192787D01*
X109473Y197548D01*
X116840Y165925D02*
X116840Y149860D01*
X113728Y197548D02*
X109473Y197548D01*
X113728Y197548D02*
X116840Y200660D01*
X104712Y178053D02*
X116840Y165925D01*
D16*
X137160Y63500D03*
D15*
X137160Y132590D01*
X132590Y137160D01*
D16*
X157480Y71120D03*
D15*
X157480Y93980D01*
X160020Y96520D01*
D16*
X195580Y259080D03*
D15*
X128097Y243332D02*
X118872Y252557D01*
X187371Y259080D02*
X195580Y259080D01*
X118872Y252557D02*
X116332Y259588D01*
X171623Y243332D02*
X187371Y259080D01*
X171623Y243332D02*
X128097Y243332D01*
X116332Y259588D02*
X114300Y266700D01*
X170970Y210820D02*
X337820Y210820D01*
D16*
X170970Y210820D03*
D15*
X358648Y231648D02*
X368300Y241300D01*
X358648Y231648D02*
X354157Y231648D01*
X344932Y222423D01*
X344932Y217932D01*
X337820Y210820D01*
D16*
X160020Y198120D03*
D15*
X346029Y198120D01*
X354157Y206248D01*
X358648Y206248D01*
X368300Y215900D01*
X175260Y76200D02*
X175260Y66040D01*
D16*
X175260Y66040D03*
D15*
X325120Y182880D02*
X327660Y182880D01*
D16*
X327660Y182880D03*
D17*
X35560Y0D02*
X415800Y0D01*
X415800Y292000D01*
X35560Y292000D01*
X35560Y0D01*
M02*
