M48
;GenerationSoftware,Autodesk,EAGLE,8.7.0*%
;CreationDate,2021-03-05T05:11:19Z*%
FMAT,2
ICI,OFF
METRIC,TZ,000.000
T2C0.350
T1C1.016
%
G90
M71
T1
X36830Y26670
X36830Y24130
X36830Y21590
X36830Y19050
X36830Y16510
X36830Y13970
X36830Y11430
X36830Y8890
X36830Y6350
X36830Y3810
X6350Y26670
X8890Y26670
X11430Y26670
X13970Y26670
X16510Y26670
X22860Y26670
X25400Y26670
X27940Y26670
X30480Y26670
X33020Y26670
X8382Y2540
X5842Y2540
T2
X11430Y6096
X20320Y7874
X13716Y6350
X15748Y7112
X19558Y25908
X17097Y21082
X16002Y19812
X17526Y6604
X32766Y18288
M30