G04 EAGLE Gerber X2 export*
%TF.Part,Single*%
%TF.FileFunction,Legend,Bot,1*%
%TF.FilePolarity,Positive*%
%TF.GenerationSoftware,Autodesk,EAGLE,8.7.0*%
%TF.CreationDate,2021-03-05T05:11:20Z*%
G75*
%MOMM*%
%FSLAX34Y34*%
%LPD*%
%AMOC8*
5,1,8,0,0,1.08239X$1,22.5*%
G01*
%ADD10C,0.203200*%
%ADD11C,0.152400*%
%ADD12C,0.025400*%
%ADD13C,0.101600*%


D10*
X85090Y232410D02*
X85090Y204470D01*
X97790Y204470D01*
X97790Y232410D01*
X85090Y232410D01*
D11*
X73914Y226053D02*
X73914Y224585D01*
X73916Y224511D01*
X73922Y224436D01*
X73931Y224363D01*
X73944Y224289D01*
X73961Y224217D01*
X73981Y224146D01*
X74005Y224075D01*
X74033Y224006D01*
X74064Y223939D01*
X74098Y223873D01*
X74136Y223808D01*
X74177Y223746D01*
X74221Y223686D01*
X74268Y223629D01*
X74318Y223574D01*
X74371Y223521D01*
X74426Y223471D01*
X74483Y223424D01*
X74543Y223380D01*
X74605Y223339D01*
X74670Y223301D01*
X74736Y223267D01*
X74803Y223236D01*
X74872Y223208D01*
X74943Y223184D01*
X75014Y223164D01*
X75086Y223147D01*
X75160Y223134D01*
X75233Y223125D01*
X75308Y223119D01*
X75382Y223117D01*
X75382Y223118D02*
X79050Y223118D01*
X79050Y223117D02*
X79124Y223119D01*
X79199Y223125D01*
X79272Y223134D01*
X79346Y223147D01*
X79418Y223164D01*
X79489Y223184D01*
X79560Y223208D01*
X79629Y223236D01*
X79696Y223267D01*
X79762Y223301D01*
X79827Y223339D01*
X79889Y223380D01*
X79949Y223424D01*
X80006Y223471D01*
X80061Y223521D01*
X80114Y223574D01*
X80164Y223629D01*
X80211Y223686D01*
X80255Y223746D01*
X80296Y223808D01*
X80334Y223873D01*
X80368Y223938D01*
X80399Y224006D01*
X80427Y224075D01*
X80451Y224146D01*
X80471Y224217D01*
X80488Y224289D01*
X80501Y224363D01*
X80510Y224436D01*
X80516Y224511D01*
X80518Y224585D01*
X80518Y226053D01*
X79050Y229249D02*
X80518Y231084D01*
X73914Y231084D01*
X73914Y232918D02*
X73914Y229249D01*
D10*
X143510Y207010D02*
X143510Y179070D01*
X143510Y207010D02*
X130810Y207010D01*
X130810Y179070D01*
X143510Y179070D01*
D11*
X148082Y180030D02*
X148082Y181497D01*
X148082Y180030D02*
X148084Y179956D01*
X148090Y179881D01*
X148099Y179808D01*
X148112Y179734D01*
X148129Y179662D01*
X148149Y179591D01*
X148173Y179520D01*
X148201Y179451D01*
X148232Y179384D01*
X148266Y179318D01*
X148304Y179253D01*
X148345Y179191D01*
X148389Y179131D01*
X148436Y179074D01*
X148486Y179019D01*
X148539Y178966D01*
X148594Y178916D01*
X148651Y178869D01*
X148711Y178825D01*
X148773Y178784D01*
X148838Y178746D01*
X148904Y178712D01*
X148971Y178681D01*
X149040Y178653D01*
X149111Y178629D01*
X149182Y178609D01*
X149254Y178592D01*
X149328Y178579D01*
X149401Y178570D01*
X149476Y178564D01*
X149550Y178562D01*
X153218Y178562D01*
X153292Y178564D01*
X153367Y178570D01*
X153440Y178579D01*
X153514Y178592D01*
X153586Y178609D01*
X153657Y178629D01*
X153728Y178653D01*
X153797Y178681D01*
X153864Y178712D01*
X153930Y178746D01*
X153995Y178784D01*
X154057Y178825D01*
X154117Y178869D01*
X154174Y178916D01*
X154229Y178966D01*
X154282Y179019D01*
X154332Y179074D01*
X154379Y179131D01*
X154423Y179191D01*
X154464Y179253D01*
X154502Y179318D01*
X154536Y179383D01*
X154567Y179451D01*
X154595Y179520D01*
X154619Y179591D01*
X154639Y179662D01*
X154656Y179734D01*
X154669Y179808D01*
X154678Y179881D01*
X154684Y179956D01*
X154686Y180030D01*
X154686Y181497D01*
X154686Y186711D02*
X154684Y186790D01*
X154679Y186868D01*
X154669Y186946D01*
X154656Y187023D01*
X154639Y187100D01*
X154619Y187176D01*
X154595Y187251D01*
X154568Y187325D01*
X154537Y187397D01*
X154502Y187468D01*
X154465Y187537D01*
X154424Y187604D01*
X154380Y187669D01*
X154333Y187732D01*
X154283Y187792D01*
X154230Y187850D01*
X154174Y187906D01*
X154116Y187959D01*
X154056Y188009D01*
X153993Y188056D01*
X153928Y188100D01*
X153861Y188141D01*
X153792Y188178D01*
X153721Y188213D01*
X153649Y188244D01*
X153575Y188271D01*
X153500Y188295D01*
X153424Y188315D01*
X153347Y188332D01*
X153270Y188345D01*
X153192Y188355D01*
X153114Y188360D01*
X153035Y188362D01*
X154686Y186711D02*
X154684Y186622D01*
X154679Y186533D01*
X154669Y186445D01*
X154656Y186357D01*
X154640Y186270D01*
X154619Y186183D01*
X154595Y186098D01*
X154568Y186013D01*
X154537Y185930D01*
X154502Y185848D01*
X154464Y185767D01*
X154423Y185688D01*
X154379Y185612D01*
X154331Y185536D01*
X154280Y185463D01*
X154227Y185393D01*
X154170Y185324D01*
X154110Y185258D01*
X154048Y185195D01*
X153983Y185134D01*
X153916Y185076D01*
X153846Y185021D01*
X153774Y184968D01*
X153700Y184919D01*
X153624Y184873D01*
X153546Y184831D01*
X153466Y184791D01*
X153385Y184755D01*
X153302Y184722D01*
X153218Y184693D01*
X151751Y187812D02*
X151807Y187868D01*
X151866Y187922D01*
X151927Y187973D01*
X151991Y188022D01*
X152056Y188067D01*
X152124Y188110D01*
X152193Y188149D01*
X152264Y188186D01*
X152337Y188219D01*
X152411Y188248D01*
X152486Y188275D01*
X152562Y188298D01*
X152640Y188317D01*
X152718Y188333D01*
X152796Y188346D01*
X152876Y188355D01*
X152955Y188360D01*
X153035Y188362D01*
X151751Y187812D02*
X148082Y184694D01*
X148082Y188362D01*
D10*
X123190Y179070D02*
X123190Y207010D01*
X110490Y207010D01*
X110490Y179070D01*
X123190Y179070D01*
D11*
X127762Y180030D02*
X127762Y181497D01*
X127762Y180030D02*
X127764Y179956D01*
X127770Y179881D01*
X127779Y179808D01*
X127792Y179734D01*
X127809Y179662D01*
X127829Y179591D01*
X127853Y179520D01*
X127881Y179451D01*
X127912Y179384D01*
X127946Y179318D01*
X127984Y179253D01*
X128025Y179191D01*
X128069Y179131D01*
X128116Y179074D01*
X128166Y179019D01*
X128219Y178966D01*
X128274Y178916D01*
X128331Y178869D01*
X128391Y178825D01*
X128453Y178784D01*
X128518Y178746D01*
X128584Y178712D01*
X128651Y178681D01*
X128720Y178653D01*
X128791Y178629D01*
X128862Y178609D01*
X128934Y178592D01*
X129008Y178579D01*
X129081Y178570D01*
X129156Y178564D01*
X129230Y178562D01*
X132898Y178562D01*
X132972Y178564D01*
X133047Y178570D01*
X133120Y178579D01*
X133194Y178592D01*
X133266Y178609D01*
X133337Y178629D01*
X133408Y178653D01*
X133477Y178681D01*
X133544Y178712D01*
X133610Y178746D01*
X133675Y178784D01*
X133737Y178825D01*
X133797Y178869D01*
X133854Y178916D01*
X133909Y178966D01*
X133962Y179019D01*
X134012Y179074D01*
X134059Y179131D01*
X134103Y179191D01*
X134144Y179253D01*
X134182Y179318D01*
X134216Y179383D01*
X134247Y179451D01*
X134275Y179520D01*
X134299Y179591D01*
X134319Y179662D01*
X134336Y179734D01*
X134349Y179808D01*
X134358Y179881D01*
X134364Y179956D01*
X134366Y180030D01*
X134366Y181497D01*
X127762Y184694D02*
X127762Y186528D01*
X127764Y186613D01*
X127770Y186697D01*
X127780Y186781D01*
X127793Y186865D01*
X127811Y186948D01*
X127832Y187030D01*
X127857Y187111D01*
X127886Y187191D01*
X127918Y187269D01*
X127954Y187345D01*
X127994Y187420D01*
X128037Y187493D01*
X128083Y187564D01*
X128132Y187633D01*
X128185Y187700D01*
X128241Y187764D01*
X128299Y187825D01*
X128360Y187883D01*
X128424Y187939D01*
X128491Y187992D01*
X128560Y188041D01*
X128631Y188087D01*
X128704Y188130D01*
X128779Y188170D01*
X128855Y188206D01*
X128933Y188238D01*
X129013Y188267D01*
X129094Y188292D01*
X129176Y188313D01*
X129259Y188331D01*
X129343Y188344D01*
X129427Y188354D01*
X129511Y188360D01*
X129596Y188362D01*
X129681Y188360D01*
X129765Y188354D01*
X129849Y188344D01*
X129933Y188331D01*
X130016Y188313D01*
X130098Y188292D01*
X130179Y188267D01*
X130259Y188238D01*
X130337Y188206D01*
X130413Y188170D01*
X130488Y188130D01*
X130561Y188087D01*
X130632Y188041D01*
X130701Y187992D01*
X130768Y187939D01*
X130832Y187883D01*
X130893Y187825D01*
X130951Y187764D01*
X131007Y187700D01*
X131060Y187633D01*
X131109Y187564D01*
X131155Y187493D01*
X131198Y187420D01*
X131238Y187345D01*
X131274Y187269D01*
X131306Y187191D01*
X131335Y187111D01*
X131360Y187030D01*
X131381Y186948D01*
X131399Y186865D01*
X131412Y186781D01*
X131422Y186697D01*
X131428Y186613D01*
X131430Y186528D01*
X134366Y186895D02*
X134366Y184694D01*
X134366Y186895D02*
X134364Y186971D01*
X134358Y187046D01*
X134349Y187121D01*
X134335Y187195D01*
X134318Y187269D01*
X134296Y187341D01*
X134272Y187413D01*
X134243Y187483D01*
X134211Y187551D01*
X134176Y187618D01*
X134137Y187683D01*
X134094Y187746D01*
X134049Y187806D01*
X134001Y187864D01*
X133949Y187920D01*
X133895Y187972D01*
X133838Y188022D01*
X133779Y188069D01*
X133718Y188113D01*
X133654Y188154D01*
X133588Y188191D01*
X133520Y188225D01*
X133451Y188255D01*
X133380Y188282D01*
X133308Y188305D01*
X133235Y188324D01*
X133161Y188339D01*
X133086Y188351D01*
X133011Y188359D01*
X132936Y188363D01*
X132860Y188363D01*
X132785Y188359D01*
X132710Y188351D01*
X132635Y188339D01*
X132561Y188324D01*
X132488Y188305D01*
X132416Y188282D01*
X132345Y188255D01*
X132276Y188225D01*
X132208Y188191D01*
X132142Y188154D01*
X132078Y188113D01*
X132017Y188069D01*
X131958Y188022D01*
X131901Y187972D01*
X131847Y187920D01*
X131795Y187864D01*
X131747Y187806D01*
X131702Y187746D01*
X131659Y187683D01*
X131620Y187618D01*
X131585Y187551D01*
X131553Y187483D01*
X131524Y187413D01*
X131500Y187341D01*
X131478Y187269D01*
X131461Y187195D01*
X131447Y187121D01*
X131438Y187046D01*
X131432Y186971D01*
X131430Y186895D01*
X131431Y186895D02*
X131431Y185427D01*
D10*
X168910Y82550D02*
X196850Y82550D01*
X168910Y82550D02*
X168910Y69850D01*
X196850Y69850D01*
X196850Y82550D01*
D11*
X197358Y87122D02*
X197358Y93726D01*
X195524Y93726D01*
X195439Y93724D01*
X195355Y93718D01*
X195271Y93708D01*
X195187Y93695D01*
X195104Y93677D01*
X195022Y93656D01*
X194941Y93631D01*
X194861Y93602D01*
X194783Y93570D01*
X194707Y93534D01*
X194632Y93494D01*
X194559Y93451D01*
X194488Y93405D01*
X194419Y93356D01*
X194352Y93303D01*
X194288Y93247D01*
X194227Y93189D01*
X194169Y93128D01*
X194113Y93064D01*
X194060Y92997D01*
X194011Y92928D01*
X193965Y92857D01*
X193922Y92784D01*
X193882Y92709D01*
X193846Y92633D01*
X193814Y92555D01*
X193785Y92475D01*
X193760Y92394D01*
X193739Y92312D01*
X193721Y92229D01*
X193708Y92145D01*
X193698Y92061D01*
X193692Y91977D01*
X193690Y91892D01*
X193692Y91807D01*
X193698Y91723D01*
X193708Y91639D01*
X193721Y91555D01*
X193739Y91472D01*
X193760Y91390D01*
X193785Y91309D01*
X193814Y91229D01*
X193846Y91151D01*
X193882Y91075D01*
X193922Y91000D01*
X193965Y90927D01*
X194011Y90856D01*
X194060Y90787D01*
X194113Y90720D01*
X194169Y90656D01*
X194227Y90595D01*
X194288Y90537D01*
X194352Y90481D01*
X194419Y90428D01*
X194488Y90379D01*
X194559Y90333D01*
X194632Y90290D01*
X194707Y90250D01*
X194783Y90214D01*
X194861Y90182D01*
X194941Y90153D01*
X195022Y90128D01*
X195104Y90107D01*
X195187Y90089D01*
X195271Y90076D01*
X195355Y90066D01*
X195439Y90060D01*
X195524Y90058D01*
X195524Y90057D02*
X197358Y90057D01*
X195157Y90057D02*
X193689Y87122D01*
X190122Y90791D02*
X187920Y90791D01*
X187846Y90789D01*
X187771Y90783D01*
X187698Y90774D01*
X187624Y90761D01*
X187552Y90744D01*
X187481Y90724D01*
X187410Y90700D01*
X187341Y90672D01*
X187274Y90641D01*
X187208Y90607D01*
X187143Y90569D01*
X187081Y90528D01*
X187021Y90484D01*
X186964Y90437D01*
X186909Y90387D01*
X186856Y90334D01*
X186806Y90279D01*
X186759Y90222D01*
X186715Y90162D01*
X186674Y90100D01*
X186636Y90035D01*
X186602Y89969D01*
X186571Y89902D01*
X186543Y89833D01*
X186519Y89762D01*
X186499Y89691D01*
X186482Y89619D01*
X186469Y89545D01*
X186460Y89472D01*
X186454Y89397D01*
X186452Y89323D01*
X186453Y89323D02*
X186453Y88956D01*
X186455Y88871D01*
X186461Y88787D01*
X186471Y88703D01*
X186484Y88619D01*
X186502Y88536D01*
X186523Y88454D01*
X186548Y88373D01*
X186577Y88293D01*
X186609Y88215D01*
X186645Y88139D01*
X186685Y88064D01*
X186728Y87991D01*
X186774Y87920D01*
X186823Y87851D01*
X186876Y87784D01*
X186932Y87720D01*
X186990Y87659D01*
X187051Y87601D01*
X187115Y87545D01*
X187182Y87492D01*
X187251Y87443D01*
X187322Y87397D01*
X187395Y87354D01*
X187470Y87314D01*
X187546Y87278D01*
X187624Y87246D01*
X187704Y87217D01*
X187785Y87192D01*
X187867Y87171D01*
X187950Y87153D01*
X188034Y87140D01*
X188118Y87130D01*
X188202Y87124D01*
X188287Y87122D01*
X188372Y87124D01*
X188456Y87130D01*
X188540Y87140D01*
X188624Y87153D01*
X188707Y87171D01*
X188789Y87192D01*
X188870Y87217D01*
X188950Y87246D01*
X189028Y87278D01*
X189104Y87314D01*
X189179Y87354D01*
X189252Y87397D01*
X189323Y87443D01*
X189392Y87492D01*
X189459Y87545D01*
X189523Y87601D01*
X189584Y87659D01*
X189642Y87720D01*
X189698Y87784D01*
X189751Y87851D01*
X189800Y87920D01*
X189846Y87991D01*
X189889Y88064D01*
X189929Y88139D01*
X189965Y88215D01*
X189997Y88293D01*
X190026Y88373D01*
X190051Y88454D01*
X190072Y88536D01*
X190090Y88619D01*
X190103Y88703D01*
X190113Y88787D01*
X190119Y88871D01*
X190121Y88956D01*
X190122Y88956D02*
X190122Y90791D01*
X190121Y90791D02*
X190119Y90898D01*
X190113Y91005D01*
X190103Y91112D01*
X190090Y91218D01*
X190072Y91324D01*
X190051Y91429D01*
X190026Y91533D01*
X189997Y91637D01*
X189964Y91739D01*
X189927Y91839D01*
X189887Y91939D01*
X189843Y92037D01*
X189796Y92133D01*
X189745Y92227D01*
X189691Y92320D01*
X189634Y92410D01*
X189573Y92499D01*
X189509Y92585D01*
X189442Y92668D01*
X189372Y92750D01*
X189299Y92828D01*
X189223Y92904D01*
X189145Y92977D01*
X189063Y93047D01*
X188980Y93114D01*
X188894Y93178D01*
X188805Y93239D01*
X188715Y93296D01*
X188622Y93350D01*
X188528Y93401D01*
X188432Y93448D01*
X188334Y93492D01*
X188235Y93532D01*
X188134Y93569D01*
X188032Y93602D01*
X187928Y93631D01*
X187824Y93656D01*
X187719Y93677D01*
X187613Y93695D01*
X187507Y93708D01*
X187400Y93718D01*
X187293Y93724D01*
X187186Y93726D01*
D10*
X181610Y102870D02*
X153670Y102870D01*
X153670Y90170D01*
X181610Y90170D01*
X181610Y102870D01*
D11*
X182118Y107442D02*
X182118Y114046D01*
X180284Y114046D01*
X180199Y114044D01*
X180115Y114038D01*
X180031Y114028D01*
X179947Y114015D01*
X179864Y113997D01*
X179782Y113976D01*
X179701Y113951D01*
X179621Y113922D01*
X179543Y113890D01*
X179467Y113854D01*
X179392Y113814D01*
X179319Y113771D01*
X179248Y113725D01*
X179179Y113676D01*
X179112Y113623D01*
X179048Y113567D01*
X178987Y113509D01*
X178929Y113448D01*
X178873Y113384D01*
X178820Y113317D01*
X178771Y113248D01*
X178725Y113177D01*
X178682Y113104D01*
X178642Y113029D01*
X178606Y112953D01*
X178574Y112875D01*
X178545Y112795D01*
X178520Y112714D01*
X178499Y112632D01*
X178481Y112549D01*
X178468Y112465D01*
X178458Y112381D01*
X178452Y112297D01*
X178450Y112212D01*
X178452Y112127D01*
X178458Y112043D01*
X178468Y111959D01*
X178481Y111875D01*
X178499Y111792D01*
X178520Y111710D01*
X178545Y111629D01*
X178574Y111549D01*
X178606Y111471D01*
X178642Y111395D01*
X178682Y111320D01*
X178725Y111247D01*
X178771Y111176D01*
X178820Y111107D01*
X178873Y111040D01*
X178929Y110976D01*
X178987Y110915D01*
X179048Y110857D01*
X179112Y110801D01*
X179179Y110748D01*
X179248Y110699D01*
X179319Y110653D01*
X179392Y110610D01*
X179467Y110570D01*
X179543Y110534D01*
X179621Y110502D01*
X179701Y110473D01*
X179782Y110448D01*
X179864Y110427D01*
X179947Y110409D01*
X180031Y110396D01*
X180115Y110386D01*
X180199Y110380D01*
X180284Y110378D01*
X180284Y110377D02*
X182118Y110377D01*
X179917Y110377D02*
X178449Y107442D01*
X174882Y113312D02*
X174882Y114046D01*
X171213Y114046D01*
X173047Y107442D01*
D10*
X118110Y169926D02*
X85090Y169926D01*
X85090Y104394D01*
X118110Y104394D01*
X118110Y169926D01*
D12*
X147870Y129032D02*
X150622Y129032D01*
X147870Y129032D02*
X147806Y129034D01*
X147742Y129040D01*
X147679Y129049D01*
X147617Y129063D01*
X147555Y129080D01*
X147495Y129101D01*
X147436Y129125D01*
X147378Y129153D01*
X147323Y129185D01*
X147269Y129219D01*
X147218Y129257D01*
X147168Y129298D01*
X147122Y129342D01*
X147078Y129388D01*
X147037Y129438D01*
X146999Y129489D01*
X146965Y129543D01*
X146933Y129598D01*
X146905Y129656D01*
X146881Y129715D01*
X146860Y129775D01*
X146843Y129837D01*
X146829Y129899D01*
X146820Y129962D01*
X146814Y130026D01*
X146812Y130090D01*
X146814Y130154D01*
X146820Y130218D01*
X146829Y130281D01*
X146843Y130343D01*
X146860Y130405D01*
X146881Y130465D01*
X146905Y130524D01*
X146933Y130582D01*
X146965Y130637D01*
X146999Y130691D01*
X147037Y130742D01*
X147078Y130792D01*
X147122Y130838D01*
X147168Y130882D01*
X147218Y130923D01*
X147269Y130961D01*
X147323Y130995D01*
X147378Y131027D01*
X147436Y131055D01*
X147495Y131079D01*
X147555Y131100D01*
X147617Y131117D01*
X147679Y131131D01*
X147742Y131140D01*
X147806Y131146D01*
X147870Y131148D01*
X147870Y131149D02*
X150622Y131149D01*
X150623Y133976D02*
X150621Y134036D01*
X150615Y134095D01*
X150606Y134155D01*
X150593Y134213D01*
X150576Y134270D01*
X150556Y134327D01*
X150532Y134382D01*
X150505Y134435D01*
X150475Y134487D01*
X150441Y134536D01*
X150404Y134583D01*
X150365Y134628D01*
X150322Y134671D01*
X150277Y134710D01*
X150230Y134747D01*
X150181Y134781D01*
X150129Y134811D01*
X150076Y134838D01*
X150021Y134862D01*
X149964Y134882D01*
X149907Y134899D01*
X149849Y134912D01*
X149789Y134921D01*
X149730Y134927D01*
X149670Y134929D01*
X150622Y133976D02*
X150620Y133909D01*
X150615Y133842D01*
X150606Y133776D01*
X150593Y133710D01*
X150577Y133646D01*
X150557Y133582D01*
X150533Y133519D01*
X150507Y133457D01*
X150477Y133398D01*
X150444Y133340D01*
X150407Y133283D01*
X150368Y133229D01*
X150326Y133177D01*
X150281Y133128D01*
X150233Y133081D01*
X150183Y133037D01*
X150130Y132995D01*
X150075Y132957D01*
X150019Y132921D01*
X149960Y132889D01*
X149900Y132860D01*
X149838Y132834D01*
X149775Y132812D01*
X148929Y134611D02*
X148971Y134652D01*
X149016Y134691D01*
X149062Y134728D01*
X149111Y134762D01*
X149161Y134793D01*
X149213Y134820D01*
X149267Y134845D01*
X149322Y134867D01*
X149378Y134886D01*
X149435Y134901D01*
X149493Y134913D01*
X149552Y134921D01*
X149611Y134926D01*
X149670Y134928D01*
X148929Y134611D02*
X146812Y132812D01*
X146812Y134928D01*
D13*
X330906Y190889D02*
X330906Y202573D01*
X327661Y202573D02*
X334152Y202573D01*
X322934Y202573D02*
X322934Y190889D01*
X322934Y202573D02*
X319688Y202573D01*
X319575Y202571D01*
X319462Y202565D01*
X319349Y202555D01*
X319236Y202541D01*
X319124Y202524D01*
X319013Y202502D01*
X318903Y202477D01*
X318793Y202447D01*
X318685Y202414D01*
X318578Y202377D01*
X318472Y202337D01*
X318368Y202292D01*
X318265Y202244D01*
X318164Y202193D01*
X318065Y202138D01*
X317968Y202080D01*
X317873Y202018D01*
X317780Y201953D01*
X317690Y201885D01*
X317602Y201814D01*
X317516Y201739D01*
X317433Y201662D01*
X317353Y201582D01*
X317276Y201499D01*
X317201Y201413D01*
X317130Y201325D01*
X317062Y201235D01*
X316997Y201142D01*
X316935Y201047D01*
X316877Y200950D01*
X316822Y200851D01*
X316771Y200750D01*
X316723Y200647D01*
X316678Y200543D01*
X316638Y200437D01*
X316601Y200330D01*
X316568Y200222D01*
X316538Y200112D01*
X316513Y200002D01*
X316491Y199891D01*
X316474Y199779D01*
X316460Y199666D01*
X316450Y199553D01*
X316444Y199440D01*
X316442Y199327D01*
X316444Y199214D01*
X316450Y199101D01*
X316460Y198988D01*
X316474Y198875D01*
X316491Y198763D01*
X316513Y198652D01*
X316538Y198542D01*
X316568Y198432D01*
X316601Y198324D01*
X316638Y198217D01*
X316678Y198111D01*
X316723Y198007D01*
X316771Y197904D01*
X316822Y197803D01*
X316877Y197704D01*
X316935Y197607D01*
X316997Y197512D01*
X317062Y197419D01*
X317130Y197329D01*
X317201Y197241D01*
X317276Y197155D01*
X317353Y197072D01*
X317433Y196992D01*
X317516Y196915D01*
X317602Y196840D01*
X317690Y196769D01*
X317780Y196701D01*
X317873Y196636D01*
X317968Y196574D01*
X318065Y196516D01*
X318164Y196461D01*
X318265Y196410D01*
X318368Y196362D01*
X318472Y196317D01*
X318578Y196277D01*
X318685Y196240D01*
X318793Y196207D01*
X318903Y196177D01*
X319013Y196152D01*
X319124Y196130D01*
X319236Y196113D01*
X319349Y196099D01*
X319462Y196089D01*
X319575Y196083D01*
X319688Y196081D01*
X319688Y196082D02*
X322934Y196082D01*
X312054Y199977D02*
X308809Y202573D01*
X308809Y190889D01*
X312054Y190889D02*
X305563Y190889D01*
X300624Y190889D02*
X297379Y190889D01*
X297266Y190891D01*
X297153Y190897D01*
X297040Y190907D01*
X296927Y190921D01*
X296815Y190938D01*
X296704Y190960D01*
X296594Y190985D01*
X296484Y191015D01*
X296376Y191048D01*
X296269Y191085D01*
X296163Y191125D01*
X296059Y191170D01*
X295956Y191218D01*
X295855Y191269D01*
X295756Y191324D01*
X295659Y191382D01*
X295564Y191444D01*
X295471Y191509D01*
X295381Y191577D01*
X295293Y191648D01*
X295207Y191723D01*
X295124Y191800D01*
X295044Y191880D01*
X294967Y191963D01*
X294892Y192049D01*
X294821Y192137D01*
X294753Y192227D01*
X294688Y192320D01*
X294626Y192415D01*
X294568Y192512D01*
X294513Y192611D01*
X294462Y192712D01*
X294414Y192815D01*
X294369Y192919D01*
X294329Y193025D01*
X294292Y193132D01*
X294259Y193240D01*
X294229Y193350D01*
X294204Y193460D01*
X294182Y193571D01*
X294165Y193683D01*
X294151Y193796D01*
X294141Y193909D01*
X294135Y194022D01*
X294133Y194135D01*
X294135Y194248D01*
X294141Y194361D01*
X294151Y194474D01*
X294165Y194587D01*
X294182Y194699D01*
X294204Y194810D01*
X294229Y194920D01*
X294259Y195030D01*
X294292Y195138D01*
X294329Y195245D01*
X294369Y195351D01*
X294414Y195455D01*
X294462Y195558D01*
X294513Y195659D01*
X294568Y195758D01*
X294626Y195855D01*
X294688Y195950D01*
X294753Y196043D01*
X294821Y196133D01*
X294892Y196221D01*
X294967Y196307D01*
X295044Y196390D01*
X295124Y196470D01*
X295207Y196547D01*
X295293Y196622D01*
X295381Y196693D01*
X295471Y196761D01*
X295564Y196826D01*
X295659Y196888D01*
X295756Y196946D01*
X295855Y197001D01*
X295956Y197052D01*
X296059Y197100D01*
X296163Y197145D01*
X296269Y197185D01*
X296376Y197222D01*
X296484Y197255D01*
X296594Y197285D01*
X296704Y197310D01*
X296815Y197332D01*
X296927Y197349D01*
X297040Y197363D01*
X297153Y197373D01*
X297266Y197379D01*
X297379Y197381D01*
X296729Y202573D02*
X300624Y202573D01*
X296729Y202573D02*
X296628Y202571D01*
X296528Y202565D01*
X296428Y202555D01*
X296328Y202542D01*
X296229Y202524D01*
X296130Y202503D01*
X296033Y202478D01*
X295936Y202449D01*
X295841Y202416D01*
X295747Y202380D01*
X295655Y202340D01*
X295564Y202297D01*
X295475Y202250D01*
X295388Y202200D01*
X295302Y202146D01*
X295219Y202089D01*
X295139Y202029D01*
X295060Y201966D01*
X294984Y201899D01*
X294911Y201830D01*
X294841Y201758D01*
X294773Y201684D01*
X294708Y201607D01*
X294647Y201527D01*
X294588Y201445D01*
X294533Y201361D01*
X294481Y201275D01*
X294432Y201187D01*
X294387Y201097D01*
X294345Y201005D01*
X294307Y200912D01*
X294273Y200817D01*
X294242Y200722D01*
X294215Y200625D01*
X294192Y200527D01*
X294172Y200428D01*
X294157Y200328D01*
X294145Y200228D01*
X294137Y200128D01*
X294133Y200027D01*
X294133Y199927D01*
X294137Y199826D01*
X294145Y199726D01*
X294157Y199626D01*
X294172Y199526D01*
X294192Y199427D01*
X294215Y199329D01*
X294242Y199232D01*
X294273Y199137D01*
X294307Y199042D01*
X294345Y198949D01*
X294387Y198857D01*
X294432Y198767D01*
X294481Y198679D01*
X294533Y198593D01*
X294588Y198509D01*
X294647Y198427D01*
X294708Y198347D01*
X294773Y198270D01*
X294841Y198196D01*
X294911Y198124D01*
X294984Y198055D01*
X295060Y197988D01*
X295139Y197925D01*
X295219Y197865D01*
X295302Y197808D01*
X295388Y197754D01*
X295475Y197704D01*
X295564Y197657D01*
X295655Y197614D01*
X295747Y197574D01*
X295841Y197538D01*
X295936Y197505D01*
X296033Y197476D01*
X296130Y197451D01*
X296229Y197430D01*
X296328Y197412D01*
X296428Y197399D01*
X296528Y197389D01*
X296628Y197383D01*
X296729Y197381D01*
X296729Y197380D02*
X299326Y197380D01*
M02*
