G04 EAGLE Gerber X2 export*
%TF.Part,Single*%
%TF.FileFunction,Soldermask,Bot,1*%
%TF.FilePolarity,Negative*%
%TF.GenerationSoftware,Autodesk,EAGLE,8.7.0*%
%TF.CreationDate,2021-03-05T05:11:20Z*%
G75*
%MOMM*%
%FSLAX34Y34*%
%LPD*%
%AMOC8*
5,1,8,0,0,1.08239X$1,22.5*%
G01*
%ADD10C,1.727200*%
%ADD11R,1.003200X1.003200*%
%ADD12R,2.438400X1.422400*%
%ADD13R,2.403200X3.803200*%
%ADD14R,1.603200X1.603200*%
%ADD15C,0.959600*%


D10*
X360680Y266700D02*
X375920Y266700D01*
X375920Y241300D02*
X360680Y241300D01*
X360680Y215900D02*
X375920Y215900D01*
X375920Y190500D02*
X360680Y190500D01*
X360680Y165100D02*
X375920Y165100D01*
X375920Y139700D02*
X360680Y139700D01*
X360680Y114300D02*
X375920Y114300D01*
X375920Y88900D02*
X360680Y88900D01*
X360680Y63500D02*
X375920Y63500D01*
X375920Y38100D02*
X360680Y38100D01*
D11*
X91440Y226060D03*
X91440Y210820D03*
X137160Y185420D03*
X137160Y200660D03*
X116840Y185420D03*
X116840Y200660D03*
X190500Y76200D03*
X175260Y76200D03*
X175260Y96520D03*
X160020Y96520D03*
D12*
X70612Y114046D03*
X70612Y137160D03*
X70612Y160274D03*
D13*
X132590Y137160D03*
D10*
X63500Y259080D02*
X63500Y274320D01*
X88900Y274320D02*
X88900Y259080D01*
X114300Y259080D02*
X114300Y274320D01*
X139700Y274320D02*
X139700Y259080D01*
X165100Y259080D02*
X165100Y274320D01*
X228600Y274320D02*
X228600Y259080D01*
X254000Y259080D02*
X254000Y274320D01*
X279400Y274320D02*
X279400Y259080D01*
X304800Y259080D02*
X304800Y274320D01*
X330200Y274320D02*
X330200Y259080D01*
X83820Y33020D02*
X83820Y17780D01*
X58420Y17780D02*
X58420Y33020D01*
D14*
X327660Y182880D03*
D15*
X114300Y60960D03*
X203200Y78740D03*
X137160Y63500D03*
X157480Y71120D03*
X195580Y259080D03*
X170970Y210820D03*
X160020Y198120D03*
X175260Y66040D03*
X327660Y182880D03*
M02*
