G04 EAGLE Gerber X2 export*
%TF.Part,Single*%
%TF.FileFunction,Soldermask,Top,1*%
%TF.FilePolarity,Negative*%
%TF.GenerationSoftware,Autodesk,EAGLE,8.7.0*%
%TF.CreationDate,2021-03-05T05:11:20Z*%
G75*
%MOMM*%
%FSLAX34Y34*%
%LPD*%
%AMOC8*
5,1,8,0,0,1.08239X$1,22.5*%
G01*
%ADD10C,1.727200*%
%ADD11R,1.003200X1.003200*%
%ADD12R,1.203200X1.703200*%
%ADD13R,1.703200X1.203200*%
%ADD14R,4.703200X4.703200*%
%ADD15R,1.603200X1.603200*%
%ADD16C,0.959600*%


D10*
X360680Y266700D02*
X375920Y266700D01*
X375920Y241300D02*
X360680Y241300D01*
X360680Y215900D02*
X375920Y215900D01*
X375920Y190500D02*
X360680Y190500D01*
X360680Y165100D02*
X375920Y165100D01*
X375920Y139700D02*
X360680Y139700D01*
X360680Y114300D02*
X375920Y114300D01*
X375920Y88900D02*
X360680Y88900D01*
X360680Y63500D02*
X375920Y63500D01*
X375920Y38100D02*
X360680Y38100D01*
D11*
X180340Y22860D03*
X165100Y22860D03*
X134620Y22860D03*
X119380Y22860D03*
D10*
X63500Y259080D02*
X63500Y274320D01*
X88900Y274320D02*
X88900Y259080D01*
X114300Y259080D02*
X114300Y274320D01*
X139700Y274320D02*
X139700Y259080D01*
X165100Y259080D02*
X165100Y274320D01*
X228600Y274320D02*
X228600Y259080D01*
X254000Y259080D02*
X254000Y274320D01*
X279400Y274320D02*
X279400Y259080D01*
X304800Y259080D02*
X304800Y274320D01*
X330200Y274320D02*
X330200Y259080D01*
X83820Y33020D02*
X83820Y17780D01*
X58420Y17780D02*
X58420Y33020D01*
D12*
X158600Y47200D03*
X171300Y47200D03*
X209400Y47200D03*
X222100Y47200D03*
X234800Y47200D03*
X247500Y47200D03*
D13*
X303000Y197000D03*
D12*
X285600Y232200D03*
X272900Y232200D03*
X260200Y232200D03*
X247500Y232200D03*
X234800Y232200D03*
X222100Y232200D03*
X209400Y232200D03*
D13*
X303000Y108100D03*
D12*
X260200Y47200D03*
X272900Y47200D03*
X285600Y47200D03*
D13*
X303000Y82700D03*
X303000Y95400D03*
D12*
X145900Y47200D03*
X133200Y47200D03*
X120500Y47200D03*
D13*
X303000Y120800D03*
X303000Y133500D03*
X303000Y146200D03*
X303000Y184300D03*
X303000Y171600D03*
X303000Y158900D03*
D12*
X171300Y232200D03*
X158600Y232200D03*
X145900Y232200D03*
X133200Y232200D03*
X120500Y232200D03*
D14*
X193800Y146500D03*
D15*
X203200Y17780D03*
X226060Y17780D03*
X246380Y17780D03*
X266700Y17780D03*
X287020Y17780D03*
X307340Y17780D03*
X327660Y203200D03*
D16*
X114300Y60960D03*
X203200Y78740D03*
X137160Y63500D03*
X157480Y71120D03*
X195580Y259080D03*
X170970Y210820D03*
X160020Y198120D03*
X175260Y66040D03*
X327660Y182880D03*
M02*
