G04 EAGLE Gerber X2 export*
%TF.Part,Single*%
%TF.FileFunction,Copper,L1,Top,Mixed*%
%TF.FilePolarity,Positive*%
%TF.GenerationSoftware,Autodesk,EAGLE,8.7.0*%
%TF.CreationDate,2021-03-05T05:17:05Z*%
G75*
%MOMM*%
%FSLAX34Y34*%
%LPD*%
%AMOC8*
5,1,8,0,0,1.08239X$1,22.5*%
G01*
%ADD10C,1.524000*%
%ADD11C,0.300000*%
%ADD12R,0.800000X0.800000*%
%ADD13C,0.508000*%
%ADD14C,0.756400*%
%ADD15C,0.558800*%
%ADD16C,0.254000*%

G36*
X87038Y176573D02*
X87038Y176573D01*
X87203Y176580D01*
X87262Y176593D01*
X87323Y176599D01*
X87482Y176642D01*
X87642Y176678D01*
X87699Y176701D01*
X87757Y176717D01*
X87905Y176788D01*
X88058Y176851D01*
X88109Y176884D01*
X88164Y176911D01*
X88297Y177006D01*
X88436Y177096D01*
X88494Y177147D01*
X88530Y177173D01*
X88573Y177216D01*
X88670Y177302D01*
X98599Y187231D01*
X99131Y187452D01*
X99204Y187490D01*
X99281Y187519D01*
X99403Y187594D01*
X99530Y187660D01*
X99595Y187711D01*
X99666Y187753D01*
X99773Y187848D01*
X99886Y187936D01*
X99941Y187997D01*
X100003Y188052D01*
X100092Y188164D01*
X100188Y188270D01*
X100231Y188340D01*
X100282Y188405D01*
X100350Y188531D01*
X100426Y188652D01*
X100456Y188729D01*
X100495Y188802D01*
X100539Y188938D01*
X100592Y189071D01*
X100609Y189151D01*
X100634Y189230D01*
X100654Y189372D01*
X100682Y189512D01*
X100684Y189594D01*
X100696Y189676D01*
X100690Y189819D01*
X100693Y189962D01*
X100681Y190043D01*
X100677Y190126D01*
X100646Y190265D01*
X100624Y190407D01*
X100597Y190485D01*
X100580Y190565D01*
X100524Y190697D01*
X100478Y190833D01*
X100438Y190905D01*
X100406Y190981D01*
X100328Y191101D01*
X100259Y191226D01*
X100206Y191290D01*
X100162Y191359D01*
X99998Y191544D01*
X99973Y191574D01*
X99965Y191581D01*
X99955Y191593D01*
X98736Y192812D01*
X97309Y196256D01*
X97309Y199984D01*
X98736Y203428D01*
X100291Y204983D01*
X100399Y205112D01*
X100512Y205236D01*
X100543Y205284D01*
X100579Y205328D01*
X100663Y205475D01*
X100753Y205617D01*
X100782Y205682D01*
X100803Y205719D01*
X100824Y205777D01*
X100879Y205903D01*
X102818Y211184D01*
X102835Y211247D01*
X102860Y211307D01*
X102893Y211464D01*
X102935Y211619D01*
X102941Y211684D01*
X102948Y211717D01*
X103509Y213072D01*
X103521Y213110D01*
X103547Y213169D01*
X104058Y214560D01*
X104114Y214633D01*
X104144Y214691D01*
X104164Y214719D01*
X105200Y215756D01*
X105225Y215786D01*
X105272Y215831D01*
X106277Y216921D01*
X106357Y216967D01*
X106407Y217009D01*
X106436Y217028D01*
X107790Y217589D01*
X107825Y217607D01*
X107885Y217630D01*
X109231Y218253D01*
X109322Y218265D01*
X109384Y218285D01*
X109418Y218291D01*
X110885Y218291D01*
X110924Y218294D01*
X110988Y218293D01*
X112470Y218353D01*
X112558Y218330D01*
X112623Y218324D01*
X112687Y218310D01*
X112999Y218291D01*
X122397Y218291D01*
X125384Y217053D01*
X127035Y215402D01*
X127162Y215297D01*
X127282Y215185D01*
X127334Y215153D01*
X127381Y215114D01*
X127523Y215032D01*
X127662Y214944D01*
X127719Y214920D01*
X127772Y214890D01*
X127927Y214835D01*
X128079Y214773D01*
X128138Y214760D01*
X128196Y214739D01*
X128358Y214713D01*
X128519Y214678D01*
X128596Y214673D01*
X128640Y214666D01*
X128701Y214667D01*
X128831Y214659D01*
X178314Y214659D01*
X178478Y214673D01*
X178643Y214680D01*
X178702Y214693D01*
X178763Y214699D01*
X178922Y214742D01*
X179082Y214778D01*
X179139Y214801D01*
X179197Y214817D01*
X179345Y214888D01*
X179498Y214951D01*
X179549Y214984D01*
X179604Y215011D01*
X179737Y215106D01*
X179876Y215196D01*
X179934Y215247D01*
X179970Y215273D01*
X180013Y215316D01*
X180110Y215402D01*
X181761Y217053D01*
X184749Y218291D01*
X207993Y218291D01*
X208109Y218301D01*
X208226Y218302D01*
X208333Y218321D01*
X208441Y218331D01*
X208554Y218362D01*
X208669Y218383D01*
X208815Y218433D01*
X208875Y218449D01*
X208908Y218465D01*
X208964Y218484D01*
X211496Y219533D01*
X214602Y219533D01*
X214637Y219536D01*
X214671Y219534D01*
X214860Y219556D01*
X215051Y219573D01*
X215084Y219582D01*
X215118Y219586D01*
X215301Y219641D01*
X215485Y219691D01*
X215516Y219706D01*
X215549Y219716D01*
X215720Y219803D01*
X215892Y219885D01*
X215920Y219905D01*
X215951Y219921D01*
X216103Y220036D01*
X216258Y220147D01*
X216282Y220172D01*
X216309Y220193D01*
X216438Y220333D01*
X216572Y220470D01*
X216591Y220498D01*
X216615Y220524D01*
X216717Y220685D01*
X216824Y220843D01*
X216838Y220874D01*
X216856Y220904D01*
X216929Y221080D01*
X217006Y221254D01*
X217014Y221288D01*
X217027Y221320D01*
X217067Y221507D01*
X217113Y221692D01*
X217115Y221726D01*
X217122Y221760D01*
X217141Y222072D01*
X217141Y230070D01*
X218379Y233058D01*
X221022Y235701D01*
X221023Y235702D01*
X226920Y241599D01*
X227025Y241725D01*
X227137Y241846D01*
X227169Y241897D01*
X227208Y241944D01*
X227290Y242087D01*
X227378Y242225D01*
X227402Y242282D01*
X227432Y242335D01*
X227487Y242490D01*
X227549Y242642D01*
X227562Y242702D01*
X227583Y242759D01*
X227609Y242922D01*
X227644Y243082D01*
X227649Y243159D01*
X227656Y243203D01*
X227655Y243264D01*
X227663Y243394D01*
X227663Y251555D01*
X228901Y254543D01*
X234968Y260609D01*
X235073Y260736D01*
X235185Y260856D01*
X235217Y260908D01*
X235256Y260955D01*
X235338Y261097D01*
X235426Y261236D01*
X235450Y261293D01*
X235480Y261346D01*
X235535Y261501D01*
X235597Y261653D01*
X235610Y261712D01*
X235631Y261770D01*
X235657Y261932D01*
X235692Y262093D01*
X235697Y262170D01*
X235704Y262214D01*
X235703Y262275D01*
X235711Y262405D01*
X235711Y276947D01*
X237722Y281802D01*
X241438Y285518D01*
X246293Y287529D01*
X251547Y287529D01*
X256402Y285518D01*
X259824Y282095D01*
X259851Y282073D01*
X259874Y282047D01*
X260023Y281929D01*
X260170Y281807D01*
X260200Y281789D01*
X260227Y281768D01*
X260395Y281678D01*
X260561Y281583D01*
X260593Y281572D01*
X260624Y281555D01*
X260805Y281496D01*
X260985Y281432D01*
X261019Y281427D01*
X261052Y281416D01*
X261241Y281390D01*
X261429Y281359D01*
X261464Y281359D01*
X261498Y281355D01*
X261689Y281362D01*
X261879Y281365D01*
X261914Y281372D01*
X261948Y281373D01*
X262134Y281414D01*
X262322Y281451D01*
X262354Y281463D01*
X262388Y281471D01*
X262564Y281544D01*
X262742Y281613D01*
X262771Y281631D01*
X262803Y281644D01*
X262964Y281748D01*
X263126Y281847D01*
X263152Y281870D01*
X263181Y281889D01*
X263416Y282095D01*
X266838Y285518D01*
X271693Y287529D01*
X276947Y287529D01*
X281802Y285518D01*
X285224Y282095D01*
X285251Y282073D01*
X285274Y282047D01*
X285423Y281929D01*
X285570Y281807D01*
X285600Y281789D01*
X285627Y281768D01*
X285795Y281678D01*
X285961Y281583D01*
X285993Y281572D01*
X286024Y281555D01*
X286205Y281496D01*
X286385Y281432D01*
X286419Y281427D01*
X286452Y281416D01*
X286641Y281390D01*
X286829Y281359D01*
X286864Y281359D01*
X286898Y281355D01*
X287089Y281362D01*
X287279Y281365D01*
X287314Y281372D01*
X287348Y281373D01*
X287534Y281414D01*
X287722Y281451D01*
X287754Y281463D01*
X287788Y281471D01*
X287964Y281544D01*
X288142Y281613D01*
X288171Y281631D01*
X288203Y281644D01*
X288364Y281748D01*
X288526Y281847D01*
X288552Y281870D01*
X288581Y281889D01*
X288816Y282095D01*
X292238Y285518D01*
X297093Y287529D01*
X302347Y287529D01*
X307202Y285518D01*
X310624Y282095D01*
X310651Y282073D01*
X310674Y282047D01*
X310823Y281929D01*
X310970Y281807D01*
X311000Y281789D01*
X311027Y281768D01*
X311195Y281678D01*
X311361Y281583D01*
X311393Y281572D01*
X311424Y281555D01*
X311605Y281496D01*
X311785Y281432D01*
X311819Y281427D01*
X311852Y281416D01*
X312041Y281390D01*
X312229Y281359D01*
X312264Y281359D01*
X312298Y281355D01*
X312489Y281362D01*
X312679Y281365D01*
X312714Y281372D01*
X312748Y281373D01*
X312934Y281414D01*
X313122Y281451D01*
X313154Y281463D01*
X313188Y281471D01*
X313364Y281544D01*
X313542Y281613D01*
X313571Y281631D01*
X313603Y281644D01*
X313764Y281748D01*
X313926Y281847D01*
X313952Y281870D01*
X313981Y281889D01*
X314216Y282095D01*
X317638Y285518D01*
X322493Y287529D01*
X327747Y287529D01*
X332602Y285518D01*
X336024Y282095D01*
X336051Y282073D01*
X336074Y282047D01*
X336223Y281929D01*
X336370Y281807D01*
X336400Y281789D01*
X336427Y281768D01*
X336595Y281678D01*
X336761Y281583D01*
X336793Y281572D01*
X336824Y281555D01*
X337005Y281496D01*
X337185Y281432D01*
X337219Y281427D01*
X337252Y281416D01*
X337441Y281390D01*
X337629Y281359D01*
X337664Y281359D01*
X337698Y281355D01*
X337889Y281362D01*
X338079Y281365D01*
X338114Y281372D01*
X338148Y281373D01*
X338334Y281414D01*
X338522Y281451D01*
X338554Y281463D01*
X338588Y281471D01*
X338764Y281544D01*
X338942Y281613D01*
X338971Y281631D01*
X339003Y281644D01*
X339164Y281748D01*
X339326Y281847D01*
X339352Y281870D01*
X339381Y281889D01*
X339616Y282095D01*
X343038Y285518D01*
X347893Y287529D01*
X353147Y287529D01*
X358002Y285518D01*
X361718Y281802D01*
X363729Y276947D01*
X363729Y272285D01*
X363744Y272108D01*
X363754Y271931D01*
X363764Y271884D01*
X363769Y271837D01*
X363815Y271665D01*
X363856Y271492D01*
X363875Y271448D01*
X363887Y271402D01*
X363963Y271242D01*
X364034Y271079D01*
X364060Y271039D01*
X364081Y270996D01*
X364184Y270852D01*
X364282Y270703D01*
X364315Y270668D01*
X364343Y270630D01*
X364470Y270506D01*
X364592Y270377D01*
X364631Y270349D01*
X364665Y270316D01*
X364813Y270216D01*
X364956Y270111D01*
X364999Y270090D01*
X365038Y270063D01*
X365201Y269991D01*
X365360Y269914D01*
X365406Y269901D01*
X365450Y269881D01*
X365623Y269839D01*
X365794Y269791D01*
X365841Y269786D01*
X365888Y269775D01*
X366065Y269764D01*
X366242Y269746D01*
X366289Y269750D01*
X366337Y269747D01*
X366514Y269767D01*
X366691Y269781D01*
X366737Y269793D01*
X366784Y269799D01*
X366955Y269851D01*
X367126Y269895D01*
X367169Y269915D01*
X367215Y269929D01*
X367374Y270010D01*
X367535Y270084D01*
X367574Y270112D01*
X367617Y270134D01*
X367758Y270241D01*
X367904Y270343D01*
X367937Y270377D01*
X367975Y270406D01*
X368096Y270536D01*
X368221Y270662D01*
X368248Y270701D01*
X368280Y270737D01*
X368376Y270887D01*
X368477Y271033D01*
X368503Y271086D01*
X368522Y271117D01*
X368546Y271175D01*
X368614Y271313D01*
X369802Y274182D01*
X373518Y277898D01*
X378373Y279909D01*
X398867Y279909D01*
X403722Y277898D01*
X407438Y274182D01*
X408374Y271922D01*
X408457Y271764D01*
X408533Y271604D01*
X408560Y271565D01*
X408583Y271523D01*
X408691Y271382D01*
X408795Y271238D01*
X408829Y271205D01*
X408858Y271167D01*
X408990Y271048D01*
X409117Y270924D01*
X409157Y270897D01*
X409193Y270865D01*
X409343Y270771D01*
X409490Y270672D01*
X409534Y270652D01*
X409575Y270627D01*
X409740Y270562D01*
X409902Y270490D01*
X409949Y270478D01*
X409993Y270461D01*
X410167Y270425D01*
X410340Y270383D01*
X410387Y270380D01*
X410434Y270370D01*
X410612Y270366D01*
X410789Y270355D01*
X410837Y270361D01*
X410884Y270360D01*
X411060Y270387D01*
X411236Y270407D01*
X411282Y270421D01*
X411329Y270428D01*
X411497Y270486D01*
X411667Y270538D01*
X411710Y270559D01*
X411755Y270575D01*
X411910Y270661D01*
X412069Y270742D01*
X412107Y270771D01*
X412148Y270794D01*
X412286Y270907D01*
X412427Y271014D01*
X412460Y271049D01*
X412497Y271079D01*
X412612Y271215D01*
X412733Y271345D01*
X412758Y271385D01*
X412789Y271422D01*
X412879Y271575D01*
X412974Y271725D01*
X412993Y271769D01*
X413017Y271810D01*
X413078Y271977D01*
X413145Y272141D01*
X413155Y272188D01*
X413172Y272233D01*
X413203Y272408D01*
X413240Y272582D01*
X413244Y272641D01*
X413250Y272677D01*
X413250Y272740D01*
X413259Y272894D01*
X413259Y297080D01*
X413256Y297115D01*
X413258Y297149D01*
X413236Y297338D01*
X413219Y297529D01*
X413210Y297562D01*
X413206Y297596D01*
X413151Y297779D01*
X413101Y297963D01*
X413086Y297994D01*
X413076Y298027D01*
X412989Y298198D01*
X412907Y298370D01*
X412887Y298398D01*
X412872Y298429D01*
X412756Y298581D01*
X412645Y298736D01*
X412620Y298760D01*
X412600Y298787D01*
X412460Y298916D01*
X412323Y299050D01*
X412294Y299069D01*
X412268Y299093D01*
X412107Y299195D01*
X411950Y299302D01*
X411918Y299316D01*
X411889Y299334D01*
X411712Y299407D01*
X411538Y299484D01*
X411504Y299492D01*
X411472Y299505D01*
X411285Y299545D01*
X411100Y299591D01*
X411066Y299593D01*
X411032Y299600D01*
X410720Y299619D01*
X5080Y299619D01*
X5045Y299616D01*
X5011Y299618D01*
X4822Y299596D01*
X4631Y299579D01*
X4598Y299570D01*
X4564Y299566D01*
X4381Y299511D01*
X4197Y299461D01*
X4166Y299446D01*
X4133Y299436D01*
X3962Y299349D01*
X3790Y299267D01*
X3762Y299247D01*
X3731Y299232D01*
X3579Y299116D01*
X3424Y299005D01*
X3400Y298980D01*
X3373Y298960D01*
X3244Y298820D01*
X3110Y298683D01*
X3091Y298654D01*
X3067Y298628D01*
X2965Y298467D01*
X2858Y298310D01*
X2844Y298278D01*
X2826Y298249D01*
X2753Y298072D01*
X2676Y297898D01*
X2668Y297864D01*
X2655Y297832D01*
X2615Y297645D01*
X2569Y297460D01*
X2567Y297426D01*
X2560Y297392D01*
X2541Y297080D01*
X2541Y256666D01*
X2559Y256457D01*
X2575Y256250D01*
X2579Y256234D01*
X2581Y256218D01*
X2636Y256015D01*
X2688Y255814D01*
X2695Y255799D01*
X2699Y255783D01*
X2788Y255596D01*
X2876Y255405D01*
X2886Y255391D01*
X2893Y255377D01*
X3014Y255207D01*
X3134Y255035D01*
X3145Y255024D01*
X3155Y255011D01*
X3305Y254864D01*
X3452Y254717D01*
X3466Y254708D01*
X3477Y254697D01*
X3651Y254579D01*
X3822Y254460D01*
X3837Y254454D01*
X3850Y254444D01*
X4042Y254360D01*
X4231Y254273D01*
X4247Y254269D01*
X4262Y254262D01*
X4465Y254213D01*
X4667Y254161D01*
X4684Y254159D01*
X4700Y254156D01*
X4907Y254143D01*
X5117Y254127D01*
X5133Y254129D01*
X5149Y254128D01*
X5356Y254152D01*
X5564Y254174D01*
X5580Y254178D01*
X5596Y254180D01*
X5797Y254241D01*
X5997Y254298D01*
X6012Y254305D01*
X6027Y254310D01*
X6213Y254405D01*
X6401Y254497D01*
X6414Y254507D01*
X6429Y254515D01*
X6595Y254640D01*
X6763Y254765D01*
X6774Y254777D01*
X6787Y254787D01*
X6929Y254940D01*
X7072Y255092D01*
X7084Y255108D01*
X7092Y255118D01*
X7117Y255156D01*
X7251Y255349D01*
X14363Y267067D01*
X14400Y267144D01*
X14446Y267216D01*
X14500Y267345D01*
X14561Y267471D01*
X14585Y267553D01*
X14617Y267632D01*
X14647Y267769D01*
X14685Y267904D01*
X14694Y267989D01*
X14712Y268073D01*
X14727Y268308D01*
X14731Y268352D01*
X14730Y268365D01*
X14731Y268385D01*
X14731Y269327D01*
X16742Y274182D01*
X20458Y277898D01*
X25313Y279909D01*
X45807Y279909D01*
X50662Y277898D01*
X54378Y274182D01*
X56389Y269327D01*
X56389Y264073D01*
X54378Y259218D01*
X50955Y255796D01*
X50933Y255769D01*
X50907Y255746D01*
X50789Y255597D01*
X50667Y255450D01*
X50649Y255420D01*
X50628Y255393D01*
X50538Y255225D01*
X50443Y255059D01*
X50432Y255027D01*
X50415Y254996D01*
X50356Y254815D01*
X50292Y254635D01*
X50287Y254601D01*
X50276Y254568D01*
X50250Y254379D01*
X50219Y254191D01*
X50219Y254156D01*
X50215Y254122D01*
X50222Y253931D01*
X50225Y253740D01*
X50232Y253706D01*
X50233Y253672D01*
X50274Y253486D01*
X50311Y253298D01*
X50323Y253266D01*
X50331Y253232D01*
X50404Y253057D01*
X50473Y252878D01*
X50491Y252849D01*
X50504Y252817D01*
X50607Y252657D01*
X50707Y252494D01*
X50730Y252468D01*
X50749Y252439D01*
X50955Y252204D01*
X54378Y248782D01*
X56389Y243927D01*
X56389Y238673D01*
X54378Y233818D01*
X50662Y230102D01*
X48594Y229246D01*
X48567Y229232D01*
X48539Y229222D01*
X48368Y229128D01*
X48195Y229037D01*
X48171Y229019D01*
X48145Y229004D01*
X47994Y228881D01*
X47839Y228761D01*
X47819Y228739D01*
X47795Y228720D01*
X47668Y228572D01*
X47538Y228427D01*
X47522Y228401D01*
X47502Y228378D01*
X47402Y228210D01*
X47300Y228045D01*
X47288Y228017D01*
X47273Y227990D01*
X47205Y227807D01*
X47133Y227627D01*
X47127Y227597D01*
X47116Y227568D01*
X47082Y227377D01*
X47043Y227185D01*
X47042Y227155D01*
X47037Y227125D01*
X47037Y226931D01*
X47032Y226735D01*
X47037Y226705D01*
X47037Y226675D01*
X47071Y226484D01*
X47101Y226290D01*
X47111Y226261D01*
X47116Y226232D01*
X47184Y226049D01*
X47247Y225865D01*
X47262Y225838D01*
X47273Y225809D01*
X47372Y225642D01*
X47467Y225471D01*
X47486Y225448D01*
X47501Y225422D01*
X47628Y225274D01*
X47752Y225123D01*
X47775Y225103D01*
X47795Y225080D01*
X47946Y224957D01*
X48094Y224830D01*
X48120Y224815D01*
X48144Y224796D01*
X48413Y224637D01*
X48505Y224590D01*
X49799Y223650D01*
X50930Y222519D01*
X51870Y221225D01*
X52596Y219800D01*
X53039Y218439D01*
X35560Y218439D01*
X35526Y218436D01*
X35491Y218438D01*
X35302Y218416D01*
X35112Y218399D01*
X35078Y218390D01*
X35044Y218386D01*
X34861Y218331D01*
X34677Y218281D01*
X34646Y218266D01*
X34613Y218256D01*
X34442Y218169D01*
X34271Y218088D01*
X34243Y218067D01*
X34212Y218052D01*
X34060Y217936D01*
X33905Y217825D01*
X33881Y217801D01*
X33853Y217780D01*
X33724Y217640D01*
X33591Y217503D01*
X33571Y217474D01*
X33548Y217449D01*
X33445Y217288D01*
X33339Y217130D01*
X33325Y217098D01*
X33306Y217069D01*
X33234Y216892D01*
X33156Y216718D01*
X33148Y216684D01*
X33135Y216652D01*
X33095Y216466D01*
X33050Y216280D01*
X33048Y216246D01*
X33040Y216212D01*
X33021Y215900D01*
X33024Y215865D01*
X33022Y215831D01*
X33044Y215641D01*
X33061Y215451D01*
X33070Y215418D01*
X33074Y215384D01*
X33129Y215201D01*
X33180Y215017D01*
X33194Y214986D01*
X33204Y214953D01*
X33291Y214782D01*
X33373Y214610D01*
X33393Y214582D01*
X33409Y214551D01*
X33524Y214399D01*
X33635Y214244D01*
X33660Y214220D01*
X33681Y214192D01*
X33821Y214063D01*
X33958Y213930D01*
X33986Y213911D01*
X34012Y213887D01*
X34173Y213785D01*
X34331Y213678D01*
X34362Y213664D01*
X34392Y213645D01*
X34568Y213573D01*
X34743Y213496D01*
X34776Y213488D01*
X34808Y213475D01*
X34995Y213434D01*
X35180Y213389D01*
X35214Y213387D01*
X35248Y213380D01*
X35560Y213361D01*
X53039Y213361D01*
X52596Y212000D01*
X51870Y210575D01*
X50930Y209281D01*
X49799Y208150D01*
X48505Y207210D01*
X48413Y207163D01*
X48387Y207147D01*
X48360Y207135D01*
X48198Y207028D01*
X48032Y206924D01*
X48009Y206903D01*
X47984Y206886D01*
X47843Y206752D01*
X47699Y206621D01*
X47680Y206597D01*
X47658Y206576D01*
X47543Y206418D01*
X47424Y206264D01*
X47410Y206237D01*
X47392Y206212D01*
X47307Y206038D01*
X47217Y205864D01*
X47208Y205835D01*
X47194Y205808D01*
X47141Y205620D01*
X47084Y205434D01*
X47080Y205404D01*
X47071Y205375D01*
X47052Y205180D01*
X47028Y204987D01*
X47030Y204957D01*
X47027Y204927D01*
X47042Y204732D01*
X47053Y204538D01*
X47060Y204508D01*
X47062Y204478D01*
X47112Y204289D01*
X47156Y204099D01*
X47168Y204072D01*
X47176Y204042D01*
X47258Y203866D01*
X47336Y203686D01*
X47353Y203661D01*
X47365Y203634D01*
X47477Y203474D01*
X47585Y203312D01*
X47606Y203290D01*
X47624Y203265D01*
X47762Y203128D01*
X47897Y202987D01*
X47922Y202969D01*
X47943Y202947D01*
X48103Y202837D01*
X48261Y202722D01*
X48288Y202709D01*
X48313Y202691D01*
X48594Y202554D01*
X50662Y201698D01*
X54378Y197982D01*
X56389Y193127D01*
X56389Y187873D01*
X54378Y183018D01*
X52253Y180894D01*
X52170Y180794D01*
X52079Y180701D01*
X52026Y180621D01*
X51965Y180548D01*
X51900Y180435D01*
X51827Y180328D01*
X51789Y180240D01*
X51741Y180157D01*
X51698Y180035D01*
X51645Y179916D01*
X51622Y179823D01*
X51590Y179733D01*
X51569Y179605D01*
X51538Y179478D01*
X51532Y179383D01*
X51517Y179289D01*
X51519Y179159D01*
X51511Y179029D01*
X51522Y178934D01*
X51523Y178838D01*
X51548Y178711D01*
X51563Y178582D01*
X51590Y178490D01*
X51609Y178396D01*
X51655Y178275D01*
X51693Y178151D01*
X51736Y178065D01*
X51771Y177976D01*
X51838Y177865D01*
X51897Y177749D01*
X51955Y177673D01*
X52005Y177592D01*
X52091Y177494D01*
X52169Y177391D01*
X52240Y177326D01*
X52303Y177254D01*
X52405Y177174D01*
X52501Y177085D01*
X52581Y177034D01*
X52656Y176975D01*
X52771Y176914D01*
X52880Y176844D01*
X52969Y176807D01*
X53053Y176762D01*
X53177Y176722D01*
X53297Y176673D01*
X53390Y176653D01*
X53481Y176623D01*
X53610Y176605D01*
X53737Y176578D01*
X53867Y176570D01*
X53927Y176562D01*
X53972Y176563D01*
X54049Y176559D01*
X86874Y176559D01*
X87038Y176573D01*
G37*
G36*
X410755Y2544D02*
X410755Y2544D01*
X410789Y2542D01*
X410978Y2564D01*
X411169Y2581D01*
X411202Y2590D01*
X411236Y2594D01*
X411419Y2649D01*
X411603Y2699D01*
X411634Y2714D01*
X411667Y2724D01*
X411838Y2811D01*
X412010Y2893D01*
X412038Y2913D01*
X412069Y2928D01*
X412221Y3044D01*
X412376Y3155D01*
X412400Y3180D01*
X412427Y3200D01*
X412556Y3340D01*
X412690Y3477D01*
X412709Y3506D01*
X412733Y3532D01*
X412835Y3693D01*
X412942Y3850D01*
X412956Y3882D01*
X412974Y3911D01*
X413047Y4088D01*
X413124Y4262D01*
X413132Y4296D01*
X413145Y4328D01*
X413185Y4515D01*
X413231Y4700D01*
X413233Y4734D01*
X413240Y4768D01*
X413259Y5080D01*
X413259Y31906D01*
X413244Y32084D01*
X413234Y32261D01*
X413224Y32307D01*
X413219Y32355D01*
X413173Y32526D01*
X413132Y32699D01*
X413113Y32743D01*
X413101Y32789D01*
X413025Y32950D01*
X412954Y33113D01*
X412928Y33153D01*
X412907Y33196D01*
X412804Y33340D01*
X412706Y33489D01*
X412673Y33523D01*
X412645Y33562D01*
X412518Y33686D01*
X412396Y33814D01*
X412357Y33843D01*
X412323Y33876D01*
X412175Y33976D01*
X412032Y34080D01*
X411989Y34101D01*
X411950Y34128D01*
X411787Y34200D01*
X411628Y34278D01*
X411582Y34291D01*
X411538Y34310D01*
X411365Y34353D01*
X411194Y34401D01*
X411147Y34406D01*
X411100Y34417D01*
X410923Y34428D01*
X410746Y34446D01*
X410699Y34442D01*
X410651Y34445D01*
X410474Y34424D01*
X410297Y34410D01*
X410251Y34398D01*
X410204Y34393D01*
X410033Y34341D01*
X409862Y34296D01*
X409819Y34276D01*
X409773Y34262D01*
X409614Y34182D01*
X409453Y34107D01*
X409414Y34080D01*
X409371Y34058D01*
X409230Y33951D01*
X409084Y33849D01*
X409051Y33815D01*
X409013Y33786D01*
X408892Y33655D01*
X408767Y33529D01*
X408740Y33490D01*
X408708Y33455D01*
X408612Y33305D01*
X408511Y33159D01*
X408485Y33106D01*
X408466Y33075D01*
X408442Y33017D01*
X408374Y32878D01*
X407438Y30618D01*
X403722Y26902D01*
X398867Y24891D01*
X378373Y24891D01*
X373518Y26902D01*
X369802Y30618D01*
X367791Y35473D01*
X367791Y40728D01*
X367855Y40930D01*
X367920Y41130D01*
X367921Y41143D01*
X367925Y41155D01*
X367952Y41367D01*
X367981Y41576D01*
X367980Y41589D01*
X367982Y41602D01*
X367971Y41813D01*
X367963Y42026D01*
X367960Y42039D01*
X367959Y42052D01*
X367911Y42257D01*
X367865Y42465D01*
X367860Y42477D01*
X367857Y42490D01*
X367773Y42685D01*
X367691Y42881D01*
X367684Y42892D01*
X367679Y42904D01*
X367562Y43080D01*
X367447Y43259D01*
X367437Y43271D01*
X367431Y43280D01*
X367404Y43308D01*
X367240Y43493D01*
X354066Y56668D01*
X353966Y56751D01*
X353873Y56842D01*
X353793Y56895D01*
X353720Y56957D01*
X353607Y57021D01*
X353500Y57094D01*
X353412Y57133D01*
X353329Y57180D01*
X353207Y57223D01*
X353088Y57276D01*
X352995Y57299D01*
X352905Y57331D01*
X352776Y57352D01*
X352650Y57383D01*
X352555Y57389D01*
X352461Y57404D01*
X352330Y57402D01*
X352201Y57410D01*
X352106Y57399D01*
X352010Y57398D01*
X351883Y57373D01*
X351754Y57358D01*
X351662Y57331D01*
X351568Y57313D01*
X351447Y57266D01*
X351323Y57228D01*
X351238Y57185D01*
X351148Y57150D01*
X351037Y57083D01*
X350921Y57024D01*
X350845Y56966D01*
X350764Y56916D01*
X350666Y56830D01*
X350563Y56752D01*
X350498Y56681D01*
X350426Y56618D01*
X350346Y56516D01*
X350257Y56421D01*
X350206Y56340D01*
X350147Y56265D01*
X350086Y56151D01*
X350016Y56041D01*
X349979Y55952D01*
X349934Y55868D01*
X349894Y55745D01*
X349845Y55624D01*
X349825Y55531D01*
X349795Y55440D01*
X349777Y55311D01*
X349750Y55184D01*
X349742Y55054D01*
X349734Y54994D01*
X349735Y54949D01*
X349731Y54872D01*
X349731Y51476D01*
X348304Y48032D01*
X345668Y45396D01*
X342224Y43969D01*
X338496Y43969D01*
X335052Y45396D01*
X332416Y48032D01*
X331367Y50564D01*
X331313Y50667D01*
X331268Y50775D01*
X331209Y50866D01*
X331159Y50963D01*
X331087Y51055D01*
X331024Y51153D01*
X330922Y51269D01*
X330883Y51319D01*
X330856Y51343D01*
X330817Y51388D01*
X322497Y59708D01*
X322370Y59813D01*
X322250Y59925D01*
X322198Y59957D01*
X322151Y59996D01*
X322009Y60078D01*
X321870Y60166D01*
X321813Y60190D01*
X321760Y60220D01*
X321606Y60275D01*
X321453Y60337D01*
X321394Y60350D01*
X321336Y60371D01*
X321174Y60397D01*
X321013Y60432D01*
X320936Y60437D01*
X320892Y60444D01*
X320831Y60443D01*
X320701Y60451D01*
X317787Y60451D01*
X317671Y60441D01*
X317554Y60441D01*
X317447Y60421D01*
X317339Y60411D01*
X317226Y60381D01*
X317111Y60360D01*
X316965Y60309D01*
X316905Y60293D01*
X316872Y60277D01*
X316816Y60258D01*
X314284Y59209D01*
X310556Y59209D01*
X307112Y60636D01*
X304476Y63272D01*
X303049Y66716D01*
X303049Y70444D01*
X304476Y73888D01*
X307112Y76524D01*
X310556Y77951D01*
X314284Y77951D01*
X316816Y76902D01*
X316927Y76867D01*
X317035Y76823D01*
X317142Y76800D01*
X317245Y76767D01*
X317361Y76753D01*
X317476Y76728D01*
X317629Y76718D01*
X317692Y76711D01*
X317728Y76712D01*
X317787Y76709D01*
X326737Y76709D01*
X327384Y76441D01*
X327553Y76388D01*
X327720Y76328D01*
X327768Y76320D01*
X327813Y76306D01*
X327989Y76284D01*
X328165Y76255D01*
X328212Y76255D01*
X328260Y76249D01*
X328437Y76258D01*
X328615Y76261D01*
X328662Y76270D01*
X328710Y76272D01*
X328882Y76313D01*
X329057Y76346D01*
X329102Y76364D01*
X329148Y76375D01*
X329311Y76445D01*
X329477Y76509D01*
X329518Y76534D01*
X329562Y76552D01*
X329710Y76650D01*
X329862Y76743D01*
X329898Y76774D01*
X329937Y76801D01*
X330066Y76923D01*
X330199Y77041D01*
X330229Y77078D01*
X330263Y77111D01*
X330368Y77255D01*
X330478Y77394D01*
X330501Y77436D01*
X330529Y77475D01*
X330607Y77634D01*
X330691Y77791D01*
X330706Y77836D01*
X330727Y77879D01*
X330775Y78050D01*
X330830Y78219D01*
X330837Y78266D01*
X330850Y78312D01*
X330867Y78489D01*
X330892Y78665D01*
X330890Y78713D01*
X330894Y78760D01*
X330881Y78937D01*
X330873Y79115D01*
X330863Y79162D01*
X330859Y79209D01*
X330814Y79381D01*
X330776Y79555D01*
X330757Y79599D01*
X330745Y79645D01*
X330670Y79806D01*
X330602Y79970D01*
X330576Y80010D01*
X330556Y80054D01*
X330454Y80199D01*
X330358Y80348D01*
X330319Y80393D01*
X330298Y80422D01*
X330253Y80467D01*
X330151Y80582D01*
X323413Y87321D01*
X320769Y89964D01*
X319531Y92952D01*
X319531Y157193D01*
X319521Y157309D01*
X319521Y157426D01*
X319501Y157533D01*
X319491Y157641D01*
X319461Y157754D01*
X319440Y157869D01*
X319389Y158015D01*
X319373Y158075D01*
X319357Y158108D01*
X319338Y158164D01*
X318289Y160696D01*
X318289Y164424D01*
X319716Y167868D01*
X322352Y170504D01*
X325796Y171931D01*
X329524Y171931D01*
X332968Y170504D01*
X335604Y167868D01*
X337031Y164424D01*
X337031Y160696D01*
X335982Y158164D01*
X335947Y158053D01*
X335903Y157945D01*
X335880Y157838D01*
X335847Y157735D01*
X335833Y157619D01*
X335808Y157504D01*
X335798Y157351D01*
X335791Y157288D01*
X335792Y157252D01*
X335789Y157193D01*
X335789Y98988D01*
X335790Y98971D01*
X335790Y98963D01*
X335795Y98918D01*
X335803Y98824D01*
X335810Y98660D01*
X335823Y98600D01*
X335829Y98539D01*
X335872Y98380D01*
X335908Y98220D01*
X335931Y98164D01*
X335947Y98105D01*
X336018Y97957D01*
X336081Y97805D01*
X336114Y97753D01*
X336141Y97698D01*
X336236Y97565D01*
X336326Y97426D01*
X336377Y97369D01*
X336403Y97332D01*
X336446Y97290D01*
X336532Y97192D01*
X365047Y68677D01*
X365111Y68624D01*
X365167Y68565D01*
X365283Y68481D01*
X365393Y68388D01*
X365464Y68348D01*
X365531Y68299D01*
X365659Y68236D01*
X365784Y68165D01*
X365861Y68138D01*
X365935Y68101D01*
X366073Y68062D01*
X366208Y68014D01*
X366289Y68001D01*
X366368Y67978D01*
X366511Y67964D01*
X366652Y67941D01*
X366735Y67942D01*
X366816Y67934D01*
X366959Y67945D01*
X367102Y67947D01*
X367183Y67963D01*
X367265Y67969D01*
X367404Y68005D01*
X367544Y68033D01*
X367621Y68062D01*
X367701Y68083D01*
X367831Y68143D01*
X367964Y68195D01*
X368035Y68238D01*
X368110Y68272D01*
X368227Y68354D01*
X368349Y68429D01*
X368411Y68483D01*
X368478Y68531D01*
X368579Y68632D01*
X368686Y68727D01*
X368738Y68791D01*
X368796Y68850D01*
X368877Y68968D01*
X368966Y69080D01*
X369005Y69153D01*
X369052Y69220D01*
X369160Y69442D01*
X369179Y69477D01*
X369182Y69487D01*
X369189Y69501D01*
X369802Y70982D01*
X373518Y74698D01*
X375586Y75554D01*
X375613Y75568D01*
X375641Y75578D01*
X375812Y75672D01*
X375985Y75763D01*
X376009Y75781D01*
X376035Y75796D01*
X376186Y75919D01*
X376341Y76039D01*
X376361Y76061D01*
X376385Y76080D01*
X376512Y76228D01*
X376642Y76373D01*
X376658Y76399D01*
X376678Y76422D01*
X376778Y76590D01*
X376880Y76755D01*
X376892Y76783D01*
X376907Y76810D01*
X376975Y76993D01*
X377047Y77173D01*
X377053Y77203D01*
X377064Y77232D01*
X377098Y77423D01*
X377137Y77615D01*
X377138Y77645D01*
X377143Y77675D01*
X377143Y77869D01*
X377148Y78065D01*
X377143Y78095D01*
X377143Y78125D01*
X377109Y78316D01*
X377079Y78510D01*
X377069Y78539D01*
X377064Y78568D01*
X376996Y78751D01*
X376933Y78935D01*
X376918Y78962D01*
X376907Y78991D01*
X376808Y79158D01*
X376713Y79329D01*
X376694Y79352D01*
X376679Y79378D01*
X376552Y79526D01*
X376428Y79677D01*
X376405Y79697D01*
X376385Y79720D01*
X376234Y79843D01*
X376086Y79970D01*
X376060Y79985D01*
X376036Y80004D01*
X375767Y80163D01*
X375675Y80210D01*
X374381Y81150D01*
X373250Y82281D01*
X372310Y83575D01*
X371584Y85000D01*
X371141Y86361D01*
X388620Y86361D01*
X406099Y86361D01*
X405656Y85000D01*
X404930Y83575D01*
X403990Y82281D01*
X402859Y81150D01*
X401565Y80210D01*
X401473Y80163D01*
X401447Y80147D01*
X401420Y80135D01*
X401258Y80028D01*
X401092Y79924D01*
X401069Y79903D01*
X401044Y79886D01*
X400903Y79752D01*
X400759Y79621D01*
X400740Y79597D01*
X400718Y79576D01*
X400603Y79418D01*
X400484Y79264D01*
X400470Y79237D01*
X400452Y79212D01*
X400367Y79038D01*
X400277Y78864D01*
X400268Y78835D01*
X400254Y78808D01*
X400201Y78621D01*
X400144Y78434D01*
X400140Y78404D01*
X400131Y78375D01*
X400112Y78180D01*
X400088Y77987D01*
X400090Y77957D01*
X400087Y77927D01*
X400102Y77732D01*
X400113Y77538D01*
X400120Y77508D01*
X400122Y77478D01*
X400172Y77289D01*
X400216Y77099D01*
X400228Y77072D01*
X400236Y77042D01*
X400318Y76866D01*
X400396Y76686D01*
X400413Y76661D01*
X400425Y76634D01*
X400537Y76474D01*
X400645Y76312D01*
X400666Y76290D01*
X400684Y76265D01*
X400822Y76128D01*
X400957Y75987D01*
X400982Y75969D01*
X401003Y75947D01*
X401163Y75837D01*
X401321Y75722D01*
X401348Y75709D01*
X401373Y75691D01*
X401654Y75554D01*
X403722Y74698D01*
X407438Y70982D01*
X408374Y68722D01*
X408457Y68564D01*
X408533Y68404D01*
X408560Y68365D01*
X408583Y68323D01*
X408692Y68182D01*
X408795Y68038D01*
X408829Y68005D01*
X408858Y67967D01*
X408990Y67848D01*
X409117Y67724D01*
X409157Y67697D01*
X409193Y67665D01*
X409343Y67571D01*
X409490Y67472D01*
X409534Y67452D01*
X409575Y67427D01*
X409740Y67361D01*
X409902Y67290D01*
X409949Y67278D01*
X409993Y67261D01*
X410167Y67225D01*
X410340Y67183D01*
X410387Y67180D01*
X410434Y67170D01*
X410612Y67166D01*
X410789Y67155D01*
X410837Y67161D01*
X410884Y67160D01*
X411060Y67187D01*
X411236Y67207D01*
X411282Y67221D01*
X411329Y67228D01*
X411497Y67286D01*
X411667Y67338D01*
X411710Y67359D01*
X411755Y67375D01*
X411910Y67461D01*
X412069Y67542D01*
X412107Y67571D01*
X412148Y67594D01*
X412286Y67707D01*
X412427Y67814D01*
X412460Y67849D01*
X412497Y67879D01*
X412612Y68014D01*
X412733Y68145D01*
X412758Y68186D01*
X412789Y68222D01*
X412879Y68375D01*
X412974Y68525D01*
X412993Y68569D01*
X413017Y68610D01*
X413078Y68777D01*
X413145Y68941D01*
X413155Y68988D01*
X413172Y69033D01*
X413203Y69208D01*
X413240Y69382D01*
X413244Y69441D01*
X413250Y69477D01*
X413250Y69540D01*
X413259Y69694D01*
X413259Y108106D01*
X413244Y108284D01*
X413234Y108461D01*
X413224Y108507D01*
X413219Y108555D01*
X413173Y108726D01*
X413132Y108899D01*
X413113Y108943D01*
X413101Y108989D01*
X413025Y109149D01*
X412954Y109313D01*
X412928Y109353D01*
X412907Y109396D01*
X412804Y109540D01*
X412706Y109689D01*
X412673Y109723D01*
X412645Y109762D01*
X412518Y109886D01*
X412395Y110015D01*
X412357Y110043D01*
X412323Y110076D01*
X412175Y110176D01*
X412032Y110280D01*
X411989Y110301D01*
X411950Y110328D01*
X411787Y110400D01*
X411628Y110478D01*
X411582Y110491D01*
X411538Y110510D01*
X411365Y110553D01*
X411194Y110601D01*
X411147Y110606D01*
X411100Y110617D01*
X410923Y110628D01*
X410746Y110646D01*
X410699Y110642D01*
X410651Y110645D01*
X410474Y110624D01*
X410297Y110610D01*
X410251Y110598D01*
X410204Y110593D01*
X410033Y110541D01*
X409862Y110496D01*
X409819Y110476D01*
X409773Y110462D01*
X409614Y110382D01*
X409453Y110307D01*
X409414Y110280D01*
X409371Y110258D01*
X409230Y110151D01*
X409084Y110049D01*
X409051Y110015D01*
X409013Y109986D01*
X408892Y109856D01*
X408767Y109729D01*
X408740Y109690D01*
X408708Y109655D01*
X408612Y109505D01*
X408511Y109359D01*
X408485Y109306D01*
X408466Y109275D01*
X408442Y109217D01*
X408374Y109078D01*
X407438Y106818D01*
X403722Y103102D01*
X401654Y102246D01*
X401627Y102232D01*
X401599Y102222D01*
X401428Y102128D01*
X401255Y102037D01*
X401231Y102019D01*
X401205Y102004D01*
X401054Y101881D01*
X400899Y101761D01*
X400879Y101739D01*
X400855Y101720D01*
X400728Y101571D01*
X400598Y101427D01*
X400582Y101401D01*
X400562Y101378D01*
X400462Y101210D01*
X400360Y101045D01*
X400348Y101017D01*
X400333Y100990D01*
X400265Y100807D01*
X400193Y100627D01*
X400187Y100597D01*
X400176Y100568D01*
X400142Y100377D01*
X400103Y100185D01*
X400102Y100155D01*
X400097Y100125D01*
X400097Y99931D01*
X400092Y99735D01*
X400097Y99705D01*
X400097Y99675D01*
X400131Y99484D01*
X400161Y99290D01*
X400171Y99261D01*
X400176Y99232D01*
X400244Y99049D01*
X400307Y98865D01*
X400322Y98838D01*
X400333Y98809D01*
X400432Y98642D01*
X400527Y98471D01*
X400546Y98448D01*
X400561Y98422D01*
X400688Y98274D01*
X400812Y98123D01*
X400835Y98103D01*
X400855Y98080D01*
X401006Y97957D01*
X401154Y97830D01*
X401180Y97815D01*
X401204Y97796D01*
X401473Y97637D01*
X401565Y97590D01*
X402859Y96650D01*
X403990Y95519D01*
X404930Y94225D01*
X405656Y92800D01*
X406099Y91439D01*
X388620Y91439D01*
X371141Y91439D01*
X371584Y92800D01*
X372310Y94225D01*
X373250Y95519D01*
X374381Y96650D01*
X375675Y97590D01*
X375767Y97637D01*
X375793Y97653D01*
X375820Y97665D01*
X375982Y97772D01*
X376148Y97876D01*
X376171Y97897D01*
X376196Y97914D01*
X376337Y98048D01*
X376481Y98179D01*
X376500Y98203D01*
X376522Y98224D01*
X376637Y98382D01*
X376756Y98536D01*
X376770Y98563D01*
X376788Y98588D01*
X376873Y98762D01*
X376963Y98936D01*
X376972Y98965D01*
X376986Y98992D01*
X377039Y99179D01*
X377096Y99366D01*
X377100Y99396D01*
X377109Y99425D01*
X377128Y99620D01*
X377152Y99813D01*
X377150Y99843D01*
X377153Y99873D01*
X377138Y100068D01*
X377127Y100262D01*
X377120Y100292D01*
X377118Y100322D01*
X377068Y100511D01*
X377024Y100701D01*
X377012Y100728D01*
X377004Y100758D01*
X376922Y100934D01*
X376844Y101114D01*
X376827Y101139D01*
X376815Y101166D01*
X376703Y101326D01*
X376595Y101488D01*
X376574Y101510D01*
X376556Y101535D01*
X376418Y101672D01*
X376283Y101813D01*
X376258Y101831D01*
X376237Y101853D01*
X376077Y101963D01*
X375919Y102078D01*
X375892Y102091D01*
X375867Y102109D01*
X375586Y102246D01*
X373518Y103102D01*
X369802Y106818D01*
X367791Y111673D01*
X367791Y116927D01*
X369802Y121782D01*
X373225Y125204D01*
X373247Y125231D01*
X373273Y125254D01*
X373336Y125334D01*
X373363Y125361D01*
X373391Y125404D01*
X373513Y125550D01*
X373531Y125580D01*
X373552Y125607D01*
X373642Y125775D01*
X373737Y125941D01*
X373748Y125973D01*
X373765Y126004D01*
X373824Y126185D01*
X373888Y126365D01*
X373893Y126399D01*
X373904Y126432D01*
X373930Y126621D01*
X373961Y126809D01*
X373961Y126844D01*
X373965Y126878D01*
X373958Y127069D01*
X373955Y127260D01*
X373948Y127294D01*
X373947Y127328D01*
X373906Y127514D01*
X373869Y127702D01*
X373857Y127734D01*
X373849Y127768D01*
X373776Y127943D01*
X373707Y128122D01*
X373689Y128151D01*
X373676Y128183D01*
X373573Y128343D01*
X373473Y128506D01*
X373450Y128532D01*
X373431Y128561D01*
X373225Y128796D01*
X369802Y132218D01*
X367791Y137073D01*
X367791Y142327D01*
X369802Y147182D01*
X373225Y150604D01*
X373247Y150631D01*
X373273Y150654D01*
X373337Y150735D01*
X373355Y150754D01*
X373375Y150783D01*
X373391Y150803D01*
X373513Y150950D01*
X373531Y150980D01*
X373552Y151007D01*
X373642Y151175D01*
X373737Y151341D01*
X373748Y151373D01*
X373765Y151404D01*
X373824Y151585D01*
X373888Y151765D01*
X373893Y151799D01*
X373904Y151832D01*
X373930Y152021D01*
X373961Y152209D01*
X373961Y152244D01*
X373965Y152278D01*
X373958Y152469D01*
X373955Y152660D01*
X373948Y152694D01*
X373947Y152728D01*
X373906Y152914D01*
X373869Y153102D01*
X373857Y153134D01*
X373849Y153168D01*
X373776Y153343D01*
X373707Y153522D01*
X373689Y153551D01*
X373676Y153583D01*
X373573Y153743D01*
X373473Y153906D01*
X373450Y153932D01*
X373431Y153961D01*
X373225Y154196D01*
X369802Y157618D01*
X367791Y162473D01*
X367791Y167727D01*
X369802Y172582D01*
X373225Y176004D01*
X373247Y176031D01*
X373273Y176054D01*
X373338Y176136D01*
X373348Y176146D01*
X373358Y176162D01*
X373391Y176203D01*
X373513Y176350D01*
X373531Y176380D01*
X373552Y176407D01*
X373642Y176575D01*
X373737Y176741D01*
X373748Y176773D01*
X373765Y176804D01*
X373823Y176984D01*
X373888Y177165D01*
X373893Y177199D01*
X373904Y177232D01*
X373930Y177421D01*
X373961Y177609D01*
X373961Y177644D01*
X373965Y177678D01*
X373958Y177868D01*
X373955Y178060D01*
X373948Y178094D01*
X373947Y178128D01*
X373906Y178314D01*
X373869Y178502D01*
X373857Y178534D01*
X373849Y178568D01*
X373776Y178743D01*
X373707Y178922D01*
X373689Y178951D01*
X373676Y178983D01*
X373573Y179143D01*
X373473Y179306D01*
X373450Y179332D01*
X373431Y179361D01*
X373225Y179596D01*
X369802Y183018D01*
X367791Y187873D01*
X367791Y193127D01*
X369802Y197982D01*
X373225Y201404D01*
X373247Y201431D01*
X373273Y201454D01*
X373339Y201538D01*
X373340Y201539D01*
X373342Y201541D01*
X373391Y201603D01*
X373513Y201750D01*
X373531Y201780D01*
X373552Y201807D01*
X373642Y201975D01*
X373737Y202141D01*
X373748Y202173D01*
X373765Y202204D01*
X373824Y202385D01*
X373888Y202565D01*
X373893Y202599D01*
X373904Y202632D01*
X373930Y202821D01*
X373961Y203009D01*
X373961Y203044D01*
X373965Y203078D01*
X373958Y203269D01*
X373955Y203460D01*
X373948Y203494D01*
X373947Y203528D01*
X373906Y203714D01*
X373869Y203902D01*
X373857Y203934D01*
X373849Y203968D01*
X373776Y204143D01*
X373707Y204322D01*
X373689Y204351D01*
X373676Y204383D01*
X373573Y204543D01*
X373473Y204706D01*
X373450Y204732D01*
X373431Y204761D01*
X373225Y204996D01*
X369802Y208418D01*
X367791Y213273D01*
X367791Y218527D01*
X369802Y223382D01*
X373225Y226804D01*
X373247Y226831D01*
X373273Y226854D01*
X373391Y227003D01*
X373513Y227150D01*
X373531Y227180D01*
X373552Y227207D01*
X373642Y227375D01*
X373737Y227541D01*
X373748Y227573D01*
X373765Y227604D01*
X373824Y227785D01*
X373888Y227965D01*
X373893Y227999D01*
X373904Y228032D01*
X373930Y228221D01*
X373961Y228409D01*
X373961Y228444D01*
X373965Y228478D01*
X373958Y228669D01*
X373955Y228860D01*
X373948Y228894D01*
X373947Y228928D01*
X373906Y229114D01*
X373869Y229302D01*
X373857Y229334D01*
X373849Y229368D01*
X373776Y229543D01*
X373707Y229722D01*
X373689Y229751D01*
X373676Y229783D01*
X373573Y229943D01*
X373473Y230106D01*
X373450Y230132D01*
X373431Y230161D01*
X373225Y230396D01*
X369802Y233818D01*
X367791Y238673D01*
X367791Y243927D01*
X369802Y248782D01*
X373225Y252204D01*
X373247Y252231D01*
X373273Y252254D01*
X373391Y252403D01*
X373513Y252550D01*
X373531Y252580D01*
X373552Y252607D01*
X373642Y252775D01*
X373737Y252941D01*
X373748Y252973D01*
X373765Y253004D01*
X373824Y253185D01*
X373888Y253365D01*
X373893Y253399D01*
X373904Y253432D01*
X373930Y253621D01*
X373961Y253809D01*
X373961Y253844D01*
X373965Y253878D01*
X373958Y254069D01*
X373955Y254260D01*
X373948Y254294D01*
X373947Y254328D01*
X373906Y254514D01*
X373869Y254702D01*
X373857Y254734D01*
X373849Y254768D01*
X373776Y254943D01*
X373707Y255122D01*
X373689Y255151D01*
X373676Y255183D01*
X373573Y255343D01*
X373473Y255506D01*
X373450Y255532D01*
X373431Y255561D01*
X373225Y255796D01*
X369802Y259218D01*
X368614Y262087D01*
X368532Y262244D01*
X368455Y262404D01*
X368428Y262443D01*
X368405Y262486D01*
X368297Y262626D01*
X368193Y262770D01*
X368159Y262804D01*
X368130Y262842D01*
X367998Y262960D01*
X367871Y263084D01*
X367831Y263111D01*
X367795Y263143D01*
X367645Y263237D01*
X367498Y263337D01*
X367454Y263356D01*
X367413Y263381D01*
X367248Y263447D01*
X367086Y263519D01*
X367039Y263530D01*
X366995Y263548D01*
X366821Y263583D01*
X366648Y263625D01*
X366601Y263628D01*
X366554Y263638D01*
X366376Y263642D01*
X366199Y263653D01*
X366151Y263648D01*
X366104Y263649D01*
X365928Y263622D01*
X365752Y263601D01*
X365706Y263587D01*
X365659Y263580D01*
X365491Y263522D01*
X365321Y263471D01*
X365278Y263449D01*
X365233Y263433D01*
X365078Y263347D01*
X364919Y263266D01*
X364881Y263238D01*
X364840Y263214D01*
X364702Y263102D01*
X364561Y262994D01*
X364528Y262959D01*
X364491Y262929D01*
X364376Y262794D01*
X364255Y262663D01*
X364230Y262623D01*
X364199Y262587D01*
X364109Y262434D01*
X364014Y262283D01*
X363995Y262239D01*
X363971Y262198D01*
X363910Y262031D01*
X363843Y261867D01*
X363833Y261820D01*
X363816Y261775D01*
X363785Y261600D01*
X363748Y261427D01*
X363744Y261368D01*
X363738Y261332D01*
X363738Y261269D01*
X363729Y261115D01*
X363729Y256453D01*
X361718Y251598D01*
X358002Y247882D01*
X353147Y245871D01*
X347893Y245871D01*
X343038Y247882D01*
X339616Y251305D01*
X339589Y251327D01*
X339566Y251353D01*
X339417Y251470D01*
X339270Y251593D01*
X339240Y251611D01*
X339213Y251632D01*
X339045Y251722D01*
X338879Y251817D01*
X338847Y251828D01*
X338816Y251845D01*
X338635Y251904D01*
X338455Y251968D01*
X338421Y251973D01*
X338388Y251984D01*
X338199Y252010D01*
X338011Y252041D01*
X337976Y252041D01*
X337942Y252045D01*
X337751Y252038D01*
X337560Y252035D01*
X337526Y252028D01*
X337492Y252027D01*
X337306Y251986D01*
X337118Y251949D01*
X337086Y251937D01*
X337052Y251929D01*
X336876Y251856D01*
X336698Y251787D01*
X336669Y251769D01*
X336637Y251756D01*
X336477Y251652D01*
X336314Y251553D01*
X336288Y251530D01*
X336259Y251511D01*
X336024Y251305D01*
X335846Y251126D01*
X335709Y250962D01*
X335572Y250802D01*
X335565Y250791D01*
X335557Y250780D01*
X335452Y250597D01*
X335344Y250413D01*
X335340Y250401D01*
X335333Y250389D01*
X335263Y250191D01*
X335189Y249991D01*
X335187Y249978D01*
X335183Y249965D01*
X335148Y249755D01*
X335111Y249547D01*
X335111Y249534D01*
X335109Y249521D01*
X335112Y249307D01*
X335113Y249097D01*
X335115Y249084D01*
X335115Y249071D01*
X335156Y248861D01*
X335194Y248654D01*
X335199Y248639D01*
X335201Y248629D01*
X335215Y248592D01*
X335295Y248358D01*
X335709Y247360D01*
X335709Y237540D01*
X334512Y234652D01*
X334463Y234495D01*
X334406Y234340D01*
X334396Y234280D01*
X334378Y234222D01*
X334357Y234059D01*
X334328Y233897D01*
X334329Y233836D01*
X334321Y233775D01*
X334329Y233611D01*
X334330Y233447D01*
X334341Y233387D01*
X334344Y233326D01*
X334381Y233166D01*
X334411Y233004D01*
X334436Y232931D01*
X334446Y232887D01*
X334470Y232831D01*
X334512Y232708D01*
X335709Y229820D01*
X335709Y220000D01*
X334616Y217362D01*
X334576Y217314D01*
X334439Y217154D01*
X334432Y217143D01*
X334424Y217132D01*
X334319Y216949D01*
X334212Y216765D01*
X334207Y216753D01*
X334201Y216742D01*
X334130Y216543D01*
X334056Y216343D01*
X334054Y216330D01*
X334050Y216317D01*
X334015Y216108D01*
X333978Y215899D01*
X333978Y215886D01*
X333976Y215873D01*
X333979Y215659D01*
X333980Y215449D01*
X333982Y215436D01*
X333982Y215423D01*
X334023Y215214D01*
X334061Y215006D01*
X334066Y214991D01*
X334068Y214981D01*
X334082Y214944D01*
X334162Y214711D01*
X334709Y213392D01*
X334709Y203168D01*
X333858Y201114D01*
X332371Y199628D01*
X332342Y199592D01*
X332307Y199561D01*
X332197Y199419D01*
X332082Y199282D01*
X332059Y199242D01*
X332031Y199205D01*
X331948Y199047D01*
X331859Y198891D01*
X331844Y198848D01*
X331822Y198807D01*
X331768Y198636D01*
X331708Y198467D01*
X331701Y198421D01*
X331687Y198377D01*
X331664Y198200D01*
X331635Y198023D01*
X331635Y197977D01*
X331630Y197930D01*
X331638Y197752D01*
X331641Y197573D01*
X331650Y197527D01*
X331652Y197481D01*
X331661Y197438D01*
X331661Y195579D01*
X325120Y195579D01*
X318579Y195579D01*
X318579Y197481D01*
X318603Y197618D01*
X318603Y197664D01*
X318609Y197710D01*
X318602Y197890D01*
X318601Y198068D01*
X318593Y198114D01*
X318591Y198160D01*
X318552Y198335D01*
X318520Y198511D01*
X318504Y198555D01*
X318494Y198600D01*
X318425Y198765D01*
X318362Y198933D01*
X318338Y198973D01*
X318320Y199015D01*
X318223Y199165D01*
X318131Y199320D01*
X318101Y199355D01*
X318076Y199394D01*
X317869Y199628D01*
X316382Y201114D01*
X315531Y203168D01*
X315531Y213392D01*
X316078Y214711D01*
X316141Y214913D01*
X316207Y215115D01*
X316208Y215127D01*
X316212Y215140D01*
X316239Y215352D01*
X316268Y215561D01*
X316267Y215574D01*
X316269Y215587D01*
X316258Y215798D01*
X316250Y216010D01*
X316247Y216023D01*
X316246Y216037D01*
X316198Y216242D01*
X316152Y216450D01*
X316147Y216462D01*
X316144Y216475D01*
X316061Y216669D01*
X315978Y216865D01*
X315971Y216877D01*
X315966Y216889D01*
X315850Y217064D01*
X315734Y217244D01*
X315724Y217256D01*
X315718Y217264D01*
X315691Y217293D01*
X315619Y217374D01*
X314766Y219433D01*
X314706Y219549D01*
X314654Y219668D01*
X314602Y219748D01*
X314557Y219832D01*
X314478Y219935D01*
X314406Y220044D01*
X314340Y220113D01*
X314282Y220188D01*
X314185Y220276D01*
X314096Y220370D01*
X314018Y220426D01*
X313947Y220490D01*
X313837Y220559D01*
X313732Y220636D01*
X313646Y220678D01*
X313565Y220728D01*
X313444Y220776D01*
X313328Y220833D01*
X313236Y220859D01*
X313147Y220895D01*
X313019Y220921D01*
X312894Y220956D01*
X312799Y220966D01*
X312706Y220985D01*
X312576Y220988D01*
X312446Y221001D01*
X312351Y220993D01*
X312256Y220996D01*
X312127Y220976D01*
X311998Y220965D01*
X311905Y220941D01*
X311811Y220927D01*
X311688Y220884D01*
X311562Y220852D01*
X311475Y220811D01*
X311385Y220780D01*
X311271Y220717D01*
X311153Y220662D01*
X311075Y220608D01*
X310992Y220561D01*
X310891Y220479D01*
X310785Y220404D01*
X310717Y220336D01*
X310643Y220276D01*
X310559Y220177D01*
X310467Y220085D01*
X310413Y220006D01*
X310351Y219933D01*
X310285Y219821D01*
X310211Y219714D01*
X310154Y219597D01*
X310123Y219545D01*
X310108Y219503D01*
X310074Y219433D01*
X309216Y217362D01*
X309177Y217315D01*
X309039Y217154D01*
X309032Y217143D01*
X309024Y217133D01*
X308918Y216948D01*
X308812Y216765D01*
X308807Y216753D01*
X308801Y216742D01*
X308729Y216541D01*
X308656Y216343D01*
X308654Y216330D01*
X308650Y216317D01*
X308615Y216109D01*
X308578Y215899D01*
X308578Y215886D01*
X308576Y215873D01*
X308579Y215661D01*
X308580Y215449D01*
X308582Y215436D01*
X308582Y215423D01*
X308623Y215215D01*
X308661Y215006D01*
X308666Y214991D01*
X308668Y214981D01*
X308682Y214945D01*
X308762Y214711D01*
X309309Y213392D01*
X309309Y203168D01*
X308458Y201114D01*
X306971Y199628D01*
X306942Y199592D01*
X306907Y199561D01*
X306797Y199419D01*
X306682Y199282D01*
X306659Y199242D01*
X306631Y199205D01*
X306548Y199047D01*
X306459Y198891D01*
X306444Y198848D01*
X306422Y198807D01*
X306368Y198636D01*
X306308Y198467D01*
X306301Y198421D01*
X306287Y198377D01*
X306264Y198200D01*
X306235Y198023D01*
X306235Y197977D01*
X306230Y197930D01*
X306238Y197752D01*
X306241Y197573D01*
X306250Y197527D01*
X306252Y197481D01*
X306261Y197438D01*
X306261Y195579D01*
X299720Y195579D01*
X293179Y195579D01*
X293179Y197481D01*
X293203Y197618D01*
X293203Y197664D01*
X293209Y197710D01*
X293202Y197890D01*
X293201Y198068D01*
X293193Y198114D01*
X293191Y198160D01*
X293152Y198335D01*
X293120Y198511D01*
X293104Y198555D01*
X293094Y198600D01*
X293025Y198765D01*
X292962Y198933D01*
X292938Y198973D01*
X292920Y199015D01*
X292823Y199165D01*
X292731Y199320D01*
X292701Y199355D01*
X292676Y199394D01*
X292469Y199628D01*
X290982Y201114D01*
X290131Y203168D01*
X290131Y213392D01*
X290678Y214711D01*
X290741Y214914D01*
X290807Y215115D01*
X290808Y215128D01*
X290812Y215140D01*
X290839Y215352D01*
X290868Y215561D01*
X290867Y215574D01*
X290869Y215587D01*
X290858Y215798D01*
X290850Y216011D01*
X290847Y216024D01*
X290846Y216037D01*
X290798Y216242D01*
X290752Y216450D01*
X290747Y216462D01*
X290744Y216475D01*
X290660Y216670D01*
X290578Y216866D01*
X290571Y216877D01*
X290566Y216889D01*
X290449Y217066D01*
X290334Y217244D01*
X290324Y217256D01*
X290318Y217264D01*
X290291Y217293D01*
X290219Y217374D01*
X289366Y219433D01*
X289306Y219549D01*
X289254Y219668D01*
X289202Y219748D01*
X289157Y219832D01*
X289078Y219935D01*
X289006Y220044D01*
X288940Y220113D01*
X288882Y220188D01*
X288785Y220275D01*
X288695Y220370D01*
X288618Y220426D01*
X288547Y220490D01*
X288437Y220559D01*
X288332Y220636D01*
X288246Y220678D01*
X288165Y220728D01*
X288044Y220776D01*
X287928Y220833D01*
X287836Y220859D01*
X287747Y220895D01*
X287619Y220921D01*
X287494Y220956D01*
X287399Y220966D01*
X287306Y220985D01*
X287176Y220988D01*
X287046Y221001D01*
X286951Y220993D01*
X286856Y220996D01*
X286727Y220976D01*
X286597Y220965D01*
X286505Y220941D01*
X286411Y220927D01*
X286288Y220884D01*
X286162Y220851D01*
X286075Y220811D01*
X285985Y220780D01*
X285871Y220717D01*
X285753Y220662D01*
X285675Y220608D01*
X285592Y220561D01*
X285491Y220479D01*
X285384Y220404D01*
X285317Y220336D01*
X285243Y220276D01*
X285159Y220177D01*
X285067Y220085D01*
X285013Y220006D01*
X284951Y219933D01*
X284885Y219821D01*
X284811Y219714D01*
X284754Y219597D01*
X284723Y219545D01*
X284708Y219503D01*
X284674Y219433D01*
X283816Y217362D01*
X283776Y217314D01*
X283639Y217154D01*
X283632Y217143D01*
X283624Y217132D01*
X283519Y216949D01*
X283412Y216765D01*
X283407Y216753D01*
X283401Y216742D01*
X283330Y216543D01*
X283256Y216343D01*
X283254Y216330D01*
X283250Y216317D01*
X283215Y216108D01*
X283178Y215899D01*
X283178Y215886D01*
X283176Y215873D01*
X283179Y215659D01*
X283180Y215449D01*
X283182Y215436D01*
X283182Y215423D01*
X283223Y215214D01*
X283261Y215006D01*
X283266Y214991D01*
X283268Y214981D01*
X283282Y214944D01*
X283362Y214711D01*
X283909Y213392D01*
X283909Y203168D01*
X283058Y201114D01*
X281571Y199628D01*
X281542Y199592D01*
X281507Y199561D01*
X281397Y199419D01*
X281282Y199282D01*
X281259Y199242D01*
X281231Y199205D01*
X281148Y199047D01*
X281059Y198891D01*
X281044Y198848D01*
X281022Y198807D01*
X280968Y198636D01*
X280908Y198467D01*
X280901Y198421D01*
X280887Y198377D01*
X280864Y198200D01*
X280835Y198023D01*
X280835Y197977D01*
X280830Y197930D01*
X280838Y197752D01*
X280841Y197573D01*
X280850Y197527D01*
X280852Y197481D01*
X280861Y197438D01*
X280861Y195579D01*
X274320Y195579D01*
X267779Y195579D01*
X267779Y197481D01*
X267803Y197618D01*
X267803Y197664D01*
X267809Y197710D01*
X267802Y197890D01*
X267801Y198068D01*
X267793Y198114D01*
X267791Y198160D01*
X267752Y198335D01*
X267720Y198511D01*
X267704Y198555D01*
X267694Y198600D01*
X267625Y198765D01*
X267562Y198933D01*
X267538Y198973D01*
X267520Y199015D01*
X267423Y199165D01*
X267331Y199320D01*
X267301Y199355D01*
X267276Y199394D01*
X267069Y199628D01*
X265582Y201114D01*
X264731Y203168D01*
X264731Y213392D01*
X265278Y214711D01*
X265341Y214913D01*
X265407Y215115D01*
X265408Y215127D01*
X265412Y215140D01*
X265439Y215352D01*
X265468Y215561D01*
X265467Y215574D01*
X265469Y215587D01*
X265458Y215798D01*
X265450Y216010D01*
X265447Y216023D01*
X265446Y216037D01*
X265398Y216242D01*
X265352Y216450D01*
X265347Y216462D01*
X265344Y216475D01*
X265261Y216669D01*
X265178Y216865D01*
X265171Y216877D01*
X265166Y216889D01*
X265050Y217064D01*
X264934Y217244D01*
X264924Y217256D01*
X264918Y217264D01*
X264891Y217293D01*
X264819Y217374D01*
X263731Y220000D01*
X263731Y229820D01*
X264928Y232708D01*
X264948Y232772D01*
X264958Y232795D01*
X264968Y232837D01*
X264977Y232865D01*
X265034Y233020D01*
X265044Y233080D01*
X265062Y233138D01*
X265083Y233301D01*
X265112Y233463D01*
X265111Y233524D01*
X265119Y233585D01*
X265111Y233749D01*
X265110Y233913D01*
X265099Y233973D01*
X265096Y234034D01*
X265059Y234194D01*
X265029Y234356D01*
X265004Y234429D01*
X264994Y234473D01*
X264970Y234529D01*
X264928Y234652D01*
X263731Y237540D01*
X263731Y247360D01*
X264145Y248358D01*
X264209Y248562D01*
X264274Y248763D01*
X264276Y248776D01*
X264280Y248788D01*
X264306Y248999D01*
X264335Y249209D01*
X264335Y249222D01*
X264336Y249235D01*
X264325Y249446D01*
X264317Y249659D01*
X264314Y249671D01*
X264313Y249684D01*
X264265Y249890D01*
X264219Y250098D01*
X264214Y250110D01*
X264211Y250123D01*
X264127Y250319D01*
X264046Y250514D01*
X264038Y250524D01*
X264033Y250537D01*
X263916Y250713D01*
X263801Y250892D01*
X263791Y250904D01*
X263785Y250912D01*
X263758Y250940D01*
X263594Y251126D01*
X263415Y251305D01*
X263389Y251327D01*
X263366Y251353D01*
X263217Y251471D01*
X263070Y251594D01*
X263040Y251611D01*
X263013Y251632D01*
X262845Y251722D01*
X262679Y251817D01*
X262646Y251828D01*
X262616Y251845D01*
X262435Y251904D01*
X262255Y251968D01*
X262220Y251973D01*
X262188Y251984D01*
X261999Y252010D01*
X261810Y252041D01*
X261776Y252041D01*
X261742Y252045D01*
X261551Y252038D01*
X261360Y252035D01*
X261326Y252028D01*
X261292Y252027D01*
X261105Y251986D01*
X260918Y251949D01*
X260886Y251937D01*
X260852Y251929D01*
X260677Y251856D01*
X260498Y251787D01*
X260469Y251769D01*
X260437Y251756D01*
X260277Y251652D01*
X260113Y251553D01*
X260088Y251530D01*
X260059Y251511D01*
X259824Y251305D01*
X256402Y247882D01*
X251547Y245871D01*
X246460Y245871D01*
X246425Y245868D01*
X246391Y245870D01*
X246202Y245848D01*
X246011Y245831D01*
X245978Y245822D01*
X245944Y245818D01*
X245761Y245763D01*
X245577Y245713D01*
X245546Y245698D01*
X245513Y245688D01*
X245342Y245601D01*
X245170Y245519D01*
X245142Y245499D01*
X245111Y245484D01*
X244959Y245368D01*
X244804Y245257D01*
X244780Y245232D01*
X244753Y245212D01*
X244624Y245072D01*
X244490Y244935D01*
X244471Y244906D01*
X244447Y244880D01*
X244345Y244719D01*
X244238Y244562D01*
X244224Y244530D01*
X244206Y244501D01*
X244133Y244324D01*
X244056Y244150D01*
X244048Y244116D01*
X244035Y244084D01*
X243995Y243897D01*
X243949Y243712D01*
X243947Y243678D01*
X243940Y243644D01*
X243921Y243332D01*
X243921Y237358D01*
X242683Y234371D01*
X240039Y231727D01*
X234142Y225830D01*
X234037Y225704D01*
X233925Y225583D01*
X233893Y225531D01*
X233854Y225485D01*
X233772Y225342D01*
X233684Y225203D01*
X233660Y225147D01*
X233630Y225094D01*
X233575Y224939D01*
X233513Y224787D01*
X233500Y224727D01*
X233479Y224669D01*
X233453Y224507D01*
X233418Y224346D01*
X233413Y224269D01*
X233406Y224225D01*
X233407Y224165D01*
X233399Y224035D01*
X233399Y163393D01*
X233414Y163216D01*
X233424Y163039D01*
X233434Y162992D01*
X233439Y162945D01*
X233485Y162773D01*
X233526Y162600D01*
X233545Y162556D01*
X233557Y162510D01*
X233633Y162350D01*
X233704Y162187D01*
X233730Y162147D01*
X233751Y162104D01*
X233854Y161959D01*
X233952Y161811D01*
X233985Y161776D01*
X234013Y161737D01*
X234140Y161613D01*
X234263Y161485D01*
X234301Y161457D01*
X234335Y161423D01*
X234483Y161324D01*
X234626Y161219D01*
X234669Y161198D01*
X234708Y161171D01*
X234871Y161099D01*
X235030Y161021D01*
X235076Y161008D01*
X235120Y160989D01*
X235293Y160947D01*
X235464Y160898D01*
X235511Y160894D01*
X235558Y160882D01*
X235735Y160871D01*
X235912Y160854D01*
X235959Y160858D01*
X236007Y160855D01*
X236184Y160875D01*
X236361Y160889D01*
X236407Y160901D01*
X236454Y160907D01*
X236625Y160958D01*
X236796Y161003D01*
X236839Y161023D01*
X236885Y161037D01*
X237044Y161118D01*
X237205Y161192D01*
X237244Y161220D01*
X237287Y161241D01*
X237428Y161349D01*
X237574Y161451D01*
X237607Y161485D01*
X237645Y161513D01*
X237766Y161644D01*
X237891Y161770D01*
X237918Y161809D01*
X237950Y161845D01*
X238046Y161995D01*
X238147Y162141D01*
X238173Y162194D01*
X238192Y162224D01*
X238216Y162283D01*
X238284Y162421D01*
X238436Y162788D01*
X241072Y165424D01*
X244516Y166851D01*
X248244Y166851D01*
X251688Y165424D01*
X252982Y164130D01*
X253140Y163998D01*
X253297Y163863D01*
X253313Y163853D01*
X253327Y163842D01*
X253507Y163739D01*
X253685Y163634D01*
X253705Y163626D01*
X253718Y163618D01*
X253764Y163602D01*
X253974Y163517D01*
X270168Y158119D01*
X270194Y158113D01*
X270219Y158103D01*
X270413Y158061D01*
X270606Y158015D01*
X270633Y158014D01*
X270659Y158008D01*
X270837Y157997D01*
X272001Y157515D01*
X272058Y157497D01*
X272170Y157452D01*
X273369Y157052D01*
X273462Y156988D01*
X273623Y156871D01*
X273647Y156860D01*
X273669Y156845D01*
X273829Y156767D01*
X274720Y155876D01*
X274766Y155838D01*
X274852Y155753D01*
X275807Y154925D01*
X275868Y154829D01*
X275973Y154660D01*
X275991Y154640D01*
X276005Y154618D01*
X276123Y154485D01*
X276605Y153321D01*
X276632Y153268D01*
X276680Y153157D01*
X277245Y152026D01*
X277257Y151959D01*
X277271Y151840D01*
X277285Y151796D01*
X277297Y151719D01*
X277306Y151693D01*
X277311Y151667D01*
X277369Y151499D01*
X277369Y150239D01*
X277374Y150180D01*
X277375Y150059D01*
X277465Y148798D01*
X277441Y148687D01*
X277395Y148494D01*
X277394Y148467D01*
X277388Y148441D01*
X277369Y148129D01*
X277369Y54783D01*
X277383Y54619D01*
X277390Y54455D01*
X277403Y54395D01*
X277409Y54334D01*
X277452Y54176D01*
X277488Y54015D01*
X277511Y53959D01*
X277527Y53900D01*
X277598Y53752D01*
X277661Y53600D01*
X277694Y53548D01*
X277721Y53493D01*
X277816Y53360D01*
X277906Y53222D01*
X277957Y53164D01*
X277983Y53127D01*
X278026Y53085D01*
X278112Y52987D01*
X280144Y50955D01*
X280171Y50933D01*
X280194Y50907D01*
X280343Y50790D01*
X280490Y50667D01*
X280520Y50649D01*
X280547Y50628D01*
X280715Y50538D01*
X280881Y50443D01*
X280913Y50432D01*
X280944Y50415D01*
X281125Y50356D01*
X281305Y50292D01*
X281339Y50287D01*
X281372Y50276D01*
X281561Y50250D01*
X281749Y50219D01*
X281784Y50219D01*
X281818Y50215D01*
X282009Y50222D01*
X282200Y50225D01*
X282234Y50232D01*
X282268Y50233D01*
X282454Y50274D01*
X282642Y50311D01*
X282674Y50323D01*
X282708Y50331D01*
X282884Y50404D01*
X283062Y50473D01*
X283091Y50491D01*
X283123Y50504D01*
X283283Y50608D01*
X283446Y50707D01*
X283472Y50730D01*
X283501Y50749D01*
X283736Y50955D01*
X287158Y54378D01*
X292013Y56389D01*
X297267Y56389D01*
X302122Y54378D01*
X305838Y50662D01*
X307849Y45807D01*
X307849Y25313D01*
X305838Y20458D01*
X302122Y16742D01*
X297267Y14731D01*
X292012Y14731D01*
X291812Y14794D01*
X291610Y14860D01*
X291597Y14861D01*
X291585Y14865D01*
X291374Y14892D01*
X291164Y14921D01*
X291151Y14920D01*
X291138Y14922D01*
X290926Y14911D01*
X290714Y14903D01*
X290702Y14900D01*
X290688Y14899D01*
X290481Y14851D01*
X290275Y14805D01*
X290263Y14800D01*
X290250Y14797D01*
X290054Y14713D01*
X289859Y14631D01*
X289848Y14624D01*
X289836Y14619D01*
X289659Y14502D01*
X289481Y14387D01*
X289469Y14377D01*
X289460Y14371D01*
X289432Y14344D01*
X289247Y14180D01*
X281942Y6876D01*
X281859Y6776D01*
X281768Y6683D01*
X281715Y6603D01*
X281653Y6530D01*
X281589Y6417D01*
X281516Y6310D01*
X281477Y6222D01*
X281430Y6139D01*
X281387Y6017D01*
X281334Y5898D01*
X281311Y5805D01*
X281279Y5715D01*
X281258Y5587D01*
X281227Y5460D01*
X281221Y5365D01*
X281206Y5271D01*
X281208Y5141D01*
X281200Y5011D01*
X281211Y4916D01*
X281212Y4820D01*
X281237Y4693D01*
X281252Y4564D01*
X281279Y4472D01*
X281297Y4378D01*
X281344Y4257D01*
X281382Y4133D01*
X281425Y4048D01*
X281460Y3958D01*
X281527Y3847D01*
X281586Y3731D01*
X281644Y3655D01*
X281694Y3574D01*
X281780Y3476D01*
X281858Y3373D01*
X281928Y3308D01*
X281992Y3236D01*
X282094Y3156D01*
X282189Y3067D01*
X282270Y3016D01*
X282345Y2957D01*
X282459Y2896D01*
X282569Y2826D01*
X282658Y2789D01*
X282742Y2744D01*
X282865Y2704D01*
X282986Y2655D01*
X283079Y2635D01*
X283170Y2605D01*
X283299Y2587D01*
X283426Y2560D01*
X283556Y2552D01*
X283616Y2544D01*
X283661Y2545D01*
X283738Y2541D01*
X410720Y2541D01*
X410755Y2544D01*
G37*
G36*
X193075Y33024D02*
X193075Y33024D01*
X193109Y33022D01*
X193299Y33044D01*
X193489Y33061D01*
X193522Y33070D01*
X193556Y33074D01*
X193739Y33129D01*
X193923Y33180D01*
X193954Y33194D01*
X193987Y33204D01*
X194158Y33291D01*
X194330Y33373D01*
X194358Y33393D01*
X194389Y33409D01*
X194541Y33524D01*
X194696Y33635D01*
X194720Y33660D01*
X194747Y33681D01*
X194877Y33821D01*
X195010Y33958D01*
X195029Y33986D01*
X195053Y34012D01*
X195155Y34173D01*
X195262Y34331D01*
X195276Y34362D01*
X195294Y34392D01*
X195367Y34568D01*
X195444Y34743D01*
X195452Y34776D01*
X195465Y34808D01*
X195506Y34995D01*
X195551Y35180D01*
X195553Y35214D01*
X195560Y35248D01*
X195579Y35560D01*
X195579Y53039D01*
X196940Y52596D01*
X198365Y51870D01*
X199659Y50930D01*
X200790Y49799D01*
X201730Y48505D01*
X201777Y48413D01*
X201793Y48387D01*
X201805Y48360D01*
X201912Y48198D01*
X202016Y48032D01*
X202037Y48009D01*
X202054Y47984D01*
X202188Y47843D01*
X202319Y47699D01*
X202343Y47680D01*
X202364Y47658D01*
X202522Y47543D01*
X202676Y47424D01*
X202703Y47410D01*
X202728Y47392D01*
X202902Y47307D01*
X203076Y47217D01*
X203105Y47208D01*
X203132Y47194D01*
X203319Y47141D01*
X203506Y47084D01*
X203536Y47080D01*
X203565Y47071D01*
X203760Y47052D01*
X203953Y47028D01*
X203983Y47030D01*
X204013Y47027D01*
X204208Y47042D01*
X204402Y47053D01*
X204432Y47060D01*
X204462Y47062D01*
X204651Y47112D01*
X204841Y47156D01*
X204868Y47168D01*
X204898Y47176D01*
X205074Y47258D01*
X205254Y47336D01*
X205279Y47353D01*
X205306Y47365D01*
X205466Y47477D01*
X205628Y47585D01*
X205650Y47606D01*
X205675Y47624D01*
X205812Y47762D01*
X205953Y47897D01*
X205971Y47922D01*
X205993Y47943D01*
X206103Y48103D01*
X206218Y48261D01*
X206231Y48288D01*
X206249Y48313D01*
X206386Y48594D01*
X207242Y50662D01*
X210958Y54378D01*
X215813Y56389D01*
X220695Y56389D01*
X220906Y56408D01*
X221117Y56424D01*
X221130Y56427D01*
X221143Y56429D01*
X221349Y56485D01*
X221553Y56538D01*
X221565Y56544D01*
X221578Y56547D01*
X221768Y56638D01*
X221962Y56727D01*
X221973Y56735D01*
X221984Y56741D01*
X222156Y56863D01*
X222330Y56986D01*
X222340Y56995D01*
X222350Y57003D01*
X222499Y57155D01*
X222648Y57305D01*
X222655Y57316D01*
X222665Y57325D01*
X222783Y57501D01*
X222904Y57675D01*
X222911Y57690D01*
X222917Y57698D01*
X222933Y57734D01*
X223041Y57956D01*
X223420Y58873D01*
X226056Y61509D01*
X229501Y62935D01*
X233229Y62935D01*
X236673Y61509D01*
X239309Y58873D01*
X239688Y57956D01*
X239787Y57768D01*
X239883Y57579D01*
X239891Y57569D01*
X239897Y57557D01*
X240027Y57388D01*
X240155Y57221D01*
X240164Y57212D01*
X240172Y57201D01*
X240330Y57059D01*
X240486Y56915D01*
X240497Y56908D01*
X240507Y56900D01*
X240685Y56788D01*
X240866Y56674D01*
X240878Y56669D01*
X240889Y56662D01*
X241086Y56583D01*
X241282Y56503D01*
X241295Y56500D01*
X241307Y56495D01*
X241516Y56452D01*
X241722Y56408D01*
X241738Y56407D01*
X241748Y56405D01*
X241788Y56404D01*
X242034Y56389D01*
X246467Y56389D01*
X251322Y54378D01*
X254744Y50955D01*
X254771Y50933D01*
X254794Y50907D01*
X254943Y50790D01*
X255090Y50667D01*
X255120Y50649D01*
X255147Y50628D01*
X255315Y50538D01*
X255481Y50443D01*
X255513Y50432D01*
X255544Y50415D01*
X255725Y50356D01*
X255905Y50292D01*
X255939Y50287D01*
X255972Y50276D01*
X256161Y50250D01*
X256349Y50219D01*
X256384Y50219D01*
X256418Y50215D01*
X256609Y50222D01*
X256800Y50225D01*
X256834Y50232D01*
X256868Y50233D01*
X257054Y50274D01*
X257242Y50311D01*
X257274Y50323D01*
X257308Y50331D01*
X257484Y50404D01*
X257662Y50473D01*
X257691Y50491D01*
X257723Y50504D01*
X257883Y50608D01*
X258046Y50707D01*
X258072Y50730D01*
X258101Y50749D01*
X258336Y50955D01*
X260368Y52987D01*
X260473Y53114D01*
X260585Y53235D01*
X260617Y53286D01*
X260656Y53333D01*
X260738Y53476D01*
X260826Y53614D01*
X260850Y53671D01*
X260880Y53724D01*
X260935Y53879D01*
X260997Y54031D01*
X261010Y54091D01*
X261031Y54148D01*
X261057Y54310D01*
X261092Y54471D01*
X261097Y54548D01*
X261104Y54592D01*
X261103Y54653D01*
X261111Y54783D01*
X261111Y142171D01*
X261104Y142248D01*
X261107Y142325D01*
X261085Y142471D01*
X261071Y142619D01*
X261051Y142694D01*
X261040Y142770D01*
X260992Y142911D01*
X260953Y143054D01*
X260920Y143123D01*
X260895Y143196D01*
X260823Y143326D01*
X260759Y143460D01*
X260715Y143523D01*
X260677Y143591D01*
X260584Y143706D01*
X260497Y143827D01*
X260442Y143880D01*
X260394Y143940D01*
X260281Y144037D01*
X260175Y144141D01*
X260111Y144184D01*
X260052Y144234D01*
X259925Y144309D01*
X259802Y144393D01*
X259731Y144424D01*
X259665Y144463D01*
X259415Y144564D01*
X259390Y144575D01*
X259383Y144576D01*
X259375Y144580D01*
X249178Y147979D01*
X249152Y147985D01*
X249127Y147995D01*
X248933Y148037D01*
X248740Y148083D01*
X248713Y148084D01*
X248687Y148090D01*
X248375Y148109D01*
X244516Y148109D01*
X241072Y149536D01*
X238436Y152172D01*
X238284Y152539D01*
X238202Y152696D01*
X238125Y152856D01*
X238098Y152895D01*
X238075Y152938D01*
X237967Y153078D01*
X237863Y153223D01*
X237829Y153256D01*
X237800Y153294D01*
X237668Y153413D01*
X237541Y153537D01*
X237501Y153563D01*
X237465Y153595D01*
X237315Y153689D01*
X237168Y153789D01*
X237124Y153808D01*
X237083Y153833D01*
X236918Y153899D01*
X236756Y153971D01*
X236709Y153982D01*
X236665Y154000D01*
X236491Y154035D01*
X236318Y154078D01*
X236271Y154081D01*
X236224Y154090D01*
X236046Y154094D01*
X235869Y154105D01*
X235821Y154100D01*
X235774Y154101D01*
X235598Y154074D01*
X235422Y154053D01*
X235376Y154039D01*
X235329Y154032D01*
X235161Y153974D01*
X234991Y153923D01*
X234948Y153901D01*
X234903Y153886D01*
X234748Y153799D01*
X234589Y153719D01*
X234551Y153690D01*
X234510Y153666D01*
X234372Y153554D01*
X234231Y153447D01*
X234198Y153411D01*
X234161Y153381D01*
X234046Y153246D01*
X233925Y153115D01*
X233900Y153075D01*
X233869Y153039D01*
X233779Y152885D01*
X233684Y152736D01*
X233665Y152691D01*
X233641Y152650D01*
X233580Y152483D01*
X233513Y152319D01*
X233503Y152272D01*
X233486Y152227D01*
X233455Y152053D01*
X233418Y151879D01*
X233414Y151820D01*
X233408Y151784D01*
X233408Y151721D01*
X233399Y151567D01*
X233399Y133830D01*
X233402Y133795D01*
X233400Y133761D01*
X233422Y133572D01*
X233439Y133381D01*
X233448Y133348D01*
X233452Y133314D01*
X233507Y133131D01*
X233557Y132947D01*
X233572Y132916D01*
X233582Y132883D01*
X233669Y132712D01*
X233751Y132540D01*
X233771Y132512D01*
X233786Y132481D01*
X233902Y132329D01*
X234013Y132174D01*
X234038Y132150D01*
X234058Y132123D01*
X234198Y131994D01*
X234335Y131860D01*
X234364Y131841D01*
X234390Y131817D01*
X234551Y131715D01*
X234708Y131608D01*
X234740Y131594D01*
X234769Y131576D01*
X234946Y131503D01*
X235120Y131426D01*
X235154Y131418D01*
X235186Y131405D01*
X235373Y131365D01*
X235558Y131319D01*
X235592Y131317D01*
X235626Y131310D01*
X235938Y131291D01*
X238084Y131291D01*
X241528Y129864D01*
X244164Y127228D01*
X245591Y123784D01*
X245591Y120056D01*
X244164Y116612D01*
X241528Y113976D01*
X238084Y112549D01*
X234356Y112549D01*
X233554Y112881D01*
X233466Y112909D01*
X233381Y112946D01*
X233251Y112976D01*
X233125Y113016D01*
X233033Y113028D01*
X232943Y113049D01*
X232810Y113056D01*
X232678Y113073D01*
X232585Y113068D01*
X232493Y113073D01*
X232282Y113052D01*
X232228Y113050D01*
X232210Y113046D01*
X232182Y113043D01*
X227792Y112341D01*
X227655Y112307D01*
X227517Y112281D01*
X227411Y112245D01*
X227356Y112231D01*
X227309Y112210D01*
X227221Y112180D01*
X226887Y112041D01*
X226117Y112041D01*
X226072Y112037D01*
X226027Y112040D01*
X225716Y112009D01*
X224956Y111888D01*
X224604Y111972D01*
X224465Y111992D01*
X224327Y112022D01*
X224215Y112029D01*
X224159Y112037D01*
X224108Y112036D01*
X224015Y112041D01*
X223653Y112041D01*
X222942Y112336D01*
X222899Y112349D01*
X222858Y112369D01*
X222559Y112460D01*
X221811Y112638D01*
X221518Y112851D01*
X221397Y112923D01*
X221281Y113003D01*
X221180Y113052D01*
X221131Y113081D01*
X221083Y113100D01*
X221000Y113140D01*
X220665Y113279D01*
X220121Y113823D01*
X220087Y113852D01*
X220057Y113885D01*
X219815Y114084D01*
X219192Y114536D01*
X219002Y114844D01*
X218918Y114957D01*
X218842Y115076D01*
X218768Y115159D01*
X218734Y115205D01*
X218696Y115240D01*
X218635Y115310D01*
X218379Y115565D01*
X218084Y116277D01*
X218063Y116317D01*
X218048Y116359D01*
X217901Y116635D01*
X217498Y117291D01*
X217441Y117648D01*
X217407Y117785D01*
X217381Y117923D01*
X217345Y118029D01*
X217331Y118084D01*
X217310Y118131D01*
X217280Y118219D01*
X217141Y118553D01*
X217141Y119323D01*
X217137Y119368D01*
X217140Y119413D01*
X217109Y119724D01*
X216988Y120484D01*
X217072Y120836D01*
X217092Y120975D01*
X217122Y121113D01*
X217129Y121225D01*
X217137Y121281D01*
X217136Y121332D01*
X217141Y121425D01*
X217141Y126887D01*
X217134Y126970D01*
X217136Y127052D01*
X217114Y127193D01*
X217101Y127336D01*
X217080Y127416D01*
X217067Y127497D01*
X217021Y127632D01*
X216983Y127770D01*
X216947Y127845D01*
X216921Y127923D01*
X216851Y128048D01*
X216789Y128177D01*
X216742Y128244D01*
X216701Y128316D01*
X216611Y128427D01*
X216527Y128543D01*
X216468Y128600D01*
X216416Y128664D01*
X216307Y128757D01*
X216205Y128857D01*
X216136Y128903D01*
X216074Y128957D01*
X215950Y129029D01*
X215832Y129109D01*
X215756Y129142D01*
X215685Y129184D01*
X215551Y129233D01*
X215420Y129291D01*
X215340Y129311D01*
X215262Y129339D01*
X215121Y129364D01*
X214982Y129398D01*
X214900Y129403D01*
X214819Y129417D01*
X214676Y129417D01*
X214533Y129426D01*
X214451Y129416D01*
X214369Y129416D01*
X214228Y129390D01*
X214086Y129374D01*
X214007Y129350D01*
X213926Y129335D01*
X213693Y129255D01*
X213655Y129243D01*
X213645Y129238D01*
X213630Y129233D01*
X210144Y127789D01*
X210091Y127789D01*
X209894Y127772D01*
X209697Y127759D01*
X209670Y127752D01*
X209642Y127749D01*
X209452Y127697D01*
X209260Y127650D01*
X209235Y127638D01*
X209208Y127631D01*
X209031Y127546D01*
X208849Y127465D01*
X208821Y127447D01*
X208801Y127437D01*
X208755Y127404D01*
X208587Y127296D01*
X131084Y70308D01*
X130985Y70222D01*
X130881Y70142D01*
X130817Y70073D01*
X130746Y70011D01*
X130664Y69908D01*
X130575Y69811D01*
X130525Y69732D01*
X130466Y69658D01*
X130404Y69542D01*
X130334Y69431D01*
X130298Y69344D01*
X130253Y69261D01*
X130213Y69136D01*
X130163Y69015D01*
X130143Y68923D01*
X130114Y68833D01*
X130096Y68703D01*
X130068Y68575D01*
X130060Y68447D01*
X130052Y68387D01*
X130054Y68342D01*
X130049Y68263D01*
X130049Y56717D01*
X130056Y56635D01*
X130054Y56553D01*
X130076Y56412D01*
X130089Y56269D01*
X130110Y56189D01*
X130123Y56108D01*
X130169Y55973D01*
X130207Y55835D01*
X130243Y55760D01*
X130269Y55682D01*
X130339Y55557D01*
X130401Y55428D01*
X130448Y55361D01*
X130489Y55289D01*
X130579Y55178D01*
X130663Y55062D01*
X130722Y55004D01*
X130774Y54941D01*
X130883Y54848D01*
X130985Y54748D01*
X131054Y54702D01*
X131116Y54648D01*
X131240Y54576D01*
X131358Y54496D01*
X131434Y54462D01*
X131505Y54421D01*
X131639Y54372D01*
X131770Y54314D01*
X131850Y54294D01*
X131928Y54266D01*
X132069Y54241D01*
X132208Y54207D01*
X132290Y54202D01*
X132371Y54188D01*
X132514Y54188D01*
X132657Y54179D01*
X132739Y54189D01*
X132821Y54189D01*
X132962Y54215D01*
X133104Y54231D01*
X133183Y54255D01*
X133264Y54270D01*
X133497Y54350D01*
X133535Y54362D01*
X133545Y54366D01*
X133560Y54372D01*
X135296Y55091D01*
X139024Y55091D01*
X142468Y53664D01*
X145104Y51028D01*
X146153Y48496D01*
X146207Y48393D01*
X146252Y48285D01*
X146311Y48193D01*
X146361Y48097D01*
X146433Y48005D01*
X146496Y47907D01*
X146598Y47791D01*
X146637Y47741D01*
X146664Y47717D01*
X146703Y47672D01*
X150096Y44279D01*
X150196Y44196D01*
X150289Y44105D01*
X150369Y44052D01*
X150442Y43990D01*
X150555Y43926D01*
X150662Y43853D01*
X150750Y43814D01*
X150833Y43767D01*
X150955Y43723D01*
X151074Y43671D01*
X151167Y43648D01*
X151257Y43616D01*
X151386Y43595D01*
X151512Y43564D01*
X151607Y43558D01*
X151701Y43543D01*
X151832Y43544D01*
X151961Y43536D01*
X152056Y43547D01*
X152152Y43549D01*
X152279Y43574D01*
X152408Y43589D01*
X152500Y43616D01*
X152594Y43634D01*
X152715Y43681D01*
X152839Y43719D01*
X152924Y43762D01*
X153014Y43797D01*
X153125Y43864D01*
X153241Y43923D01*
X153317Y43981D01*
X153398Y44031D01*
X153496Y44117D01*
X153599Y44195D01*
X153664Y44266D01*
X153736Y44329D01*
X153816Y44431D01*
X153905Y44526D01*
X153956Y44607D01*
X154015Y44682D01*
X154076Y44796D01*
X154146Y44906D01*
X154183Y44995D01*
X154228Y45079D01*
X154268Y45202D01*
X154317Y45323D01*
X154337Y45416D01*
X154367Y45507D01*
X154385Y45636D01*
X154411Y45759D01*
X156442Y50662D01*
X160158Y54378D01*
X165013Y56389D01*
X170267Y56389D01*
X175122Y54378D01*
X178838Y50662D01*
X179694Y48594D01*
X179708Y48567D01*
X179718Y48539D01*
X179812Y48368D01*
X179903Y48195D01*
X179921Y48171D01*
X179936Y48145D01*
X180059Y47994D01*
X180179Y47839D01*
X180201Y47819D01*
X180220Y47795D01*
X180368Y47668D01*
X180513Y47538D01*
X180539Y47522D01*
X180562Y47502D01*
X180730Y47402D01*
X180895Y47300D01*
X180923Y47288D01*
X180950Y47273D01*
X181133Y47205D01*
X181313Y47133D01*
X181343Y47127D01*
X181372Y47116D01*
X181563Y47082D01*
X181755Y47043D01*
X181785Y47042D01*
X181815Y47037D01*
X182009Y47037D01*
X182205Y47032D01*
X182235Y47037D01*
X182265Y47037D01*
X182456Y47071D01*
X182650Y47101D01*
X182679Y47111D01*
X182708Y47116D01*
X182891Y47184D01*
X183075Y47247D01*
X183102Y47262D01*
X183131Y47273D01*
X183298Y47372D01*
X183469Y47467D01*
X183492Y47486D01*
X183518Y47501D01*
X183666Y47628D01*
X183817Y47752D01*
X183837Y47775D01*
X183860Y47795D01*
X183983Y47946D01*
X184110Y48094D01*
X184125Y48120D01*
X184144Y48144D01*
X184303Y48413D01*
X184350Y48505D01*
X185290Y49799D01*
X186421Y50930D01*
X187715Y51870D01*
X189140Y52596D01*
X190501Y53039D01*
X190501Y35560D01*
X190504Y35526D01*
X190502Y35491D01*
X190524Y35302D01*
X190540Y35112D01*
X190550Y35078D01*
X190554Y35044D01*
X190609Y34861D01*
X190659Y34677D01*
X190674Y34646D01*
X190684Y34613D01*
X190771Y34442D01*
X190852Y34271D01*
X190873Y34243D01*
X190888Y34212D01*
X191003Y34060D01*
X191115Y33905D01*
X191139Y33881D01*
X191160Y33853D01*
X191300Y33724D01*
X191437Y33591D01*
X191466Y33571D01*
X191491Y33548D01*
X191652Y33445D01*
X191810Y33339D01*
X191842Y33325D01*
X191871Y33306D01*
X192048Y33234D01*
X192222Y33156D01*
X192256Y33148D01*
X192288Y33135D01*
X192474Y33095D01*
X192659Y33050D01*
X192694Y33048D01*
X192728Y33040D01*
X193040Y33021D01*
X193075Y33024D01*
G37*
%LPC*%
G36*
X131993Y245871D02*
X131993Y245871D01*
X127138Y247882D01*
X123422Y251598D01*
X122566Y253666D01*
X122552Y253693D01*
X122542Y253721D01*
X122448Y253892D01*
X122357Y254065D01*
X122339Y254089D01*
X122324Y254115D01*
X122201Y254266D01*
X122081Y254421D01*
X122059Y254441D01*
X122040Y254465D01*
X121892Y254592D01*
X121747Y254722D01*
X121721Y254738D01*
X121698Y254758D01*
X121530Y254858D01*
X121365Y254960D01*
X121337Y254972D01*
X121310Y254987D01*
X121127Y255055D01*
X120947Y255127D01*
X120917Y255133D01*
X120888Y255144D01*
X120697Y255178D01*
X120505Y255217D01*
X120475Y255218D01*
X120445Y255223D01*
X120251Y255223D01*
X120055Y255228D01*
X120025Y255223D01*
X119995Y255223D01*
X119804Y255189D01*
X119610Y255159D01*
X119581Y255149D01*
X119552Y255144D01*
X119369Y255076D01*
X119185Y255013D01*
X119158Y254998D01*
X119129Y254987D01*
X118962Y254888D01*
X118791Y254793D01*
X118768Y254774D01*
X118742Y254759D01*
X118594Y254632D01*
X118443Y254508D01*
X118423Y254485D01*
X118400Y254465D01*
X118277Y254314D01*
X118150Y254166D01*
X118135Y254140D01*
X118116Y254116D01*
X117957Y253847D01*
X117910Y253755D01*
X116970Y252461D01*
X115839Y251330D01*
X114545Y250390D01*
X113120Y249664D01*
X111759Y249221D01*
X111759Y266700D01*
X111759Y284179D01*
X113120Y283736D01*
X114545Y283010D01*
X115839Y282070D01*
X116970Y280939D01*
X117910Y279645D01*
X117957Y279553D01*
X117973Y279527D01*
X117985Y279500D01*
X118092Y279338D01*
X118196Y279172D01*
X118217Y279149D01*
X118234Y279124D01*
X118368Y278983D01*
X118499Y278839D01*
X118523Y278820D01*
X118544Y278798D01*
X118702Y278683D01*
X118856Y278564D01*
X118883Y278550D01*
X118908Y278532D01*
X119082Y278447D01*
X119256Y278357D01*
X119285Y278348D01*
X119312Y278334D01*
X119499Y278281D01*
X119686Y278224D01*
X119716Y278220D01*
X119745Y278211D01*
X119940Y278192D01*
X120133Y278168D01*
X120163Y278170D01*
X120193Y278167D01*
X120388Y278182D01*
X120582Y278193D01*
X120612Y278200D01*
X120642Y278202D01*
X120831Y278252D01*
X121021Y278296D01*
X121048Y278308D01*
X121078Y278316D01*
X121254Y278398D01*
X121434Y278476D01*
X121459Y278493D01*
X121486Y278505D01*
X121646Y278617D01*
X121808Y278725D01*
X121830Y278746D01*
X121855Y278764D01*
X121992Y278902D01*
X122133Y279037D01*
X122151Y279062D01*
X122173Y279083D01*
X122283Y279243D01*
X122398Y279401D01*
X122411Y279428D01*
X122429Y279453D01*
X122566Y279734D01*
X123422Y281802D01*
X127138Y285518D01*
X131993Y287529D01*
X137247Y287529D01*
X142102Y285518D01*
X145524Y282095D01*
X145551Y282073D01*
X145574Y282047D01*
X145723Y281929D01*
X145870Y281807D01*
X145900Y281789D01*
X145927Y281768D01*
X146095Y281678D01*
X146261Y281583D01*
X146293Y281572D01*
X146324Y281555D01*
X146505Y281496D01*
X146685Y281432D01*
X146719Y281427D01*
X146752Y281416D01*
X146941Y281390D01*
X147129Y281359D01*
X147164Y281359D01*
X147198Y281355D01*
X147389Y281362D01*
X147579Y281365D01*
X147614Y281372D01*
X147648Y281373D01*
X147834Y281414D01*
X148022Y281451D01*
X148054Y281463D01*
X148088Y281471D01*
X148264Y281544D01*
X148442Y281613D01*
X148471Y281631D01*
X148503Y281644D01*
X148664Y281748D01*
X148826Y281847D01*
X148852Y281870D01*
X148881Y281889D01*
X149116Y282095D01*
X152538Y285518D01*
X157393Y287529D01*
X162647Y287529D01*
X167502Y285518D01*
X170924Y282095D01*
X170951Y282073D01*
X170974Y282047D01*
X171123Y281929D01*
X171270Y281807D01*
X171300Y281789D01*
X171327Y281768D01*
X171495Y281678D01*
X171661Y281583D01*
X171693Y281572D01*
X171724Y281555D01*
X171905Y281496D01*
X172085Y281432D01*
X172119Y281427D01*
X172152Y281416D01*
X172341Y281390D01*
X172529Y281359D01*
X172564Y281359D01*
X172598Y281355D01*
X172789Y281362D01*
X172979Y281365D01*
X173014Y281372D01*
X173048Y281373D01*
X173234Y281414D01*
X173422Y281451D01*
X173454Y281463D01*
X173488Y281471D01*
X173664Y281544D01*
X173842Y281613D01*
X173871Y281631D01*
X173903Y281644D01*
X174064Y281748D01*
X174226Y281847D01*
X174252Y281870D01*
X174281Y281889D01*
X174516Y282095D01*
X177938Y285518D01*
X182793Y287529D01*
X188047Y287529D01*
X192902Y285518D01*
X196618Y281802D01*
X198629Y276947D01*
X198629Y256453D01*
X196618Y251598D01*
X192902Y247882D01*
X188047Y245871D01*
X182793Y245871D01*
X177938Y247882D01*
X174516Y251305D01*
X174489Y251327D01*
X174466Y251353D01*
X174317Y251471D01*
X174170Y251593D01*
X174140Y251611D01*
X174113Y251632D01*
X173945Y251722D01*
X173779Y251817D01*
X173747Y251828D01*
X173716Y251845D01*
X173535Y251904D01*
X173355Y251968D01*
X173321Y251973D01*
X173288Y251984D01*
X173099Y252010D01*
X172911Y252041D01*
X172876Y252041D01*
X172842Y252045D01*
X172651Y252038D01*
X172460Y252035D01*
X172426Y252028D01*
X172392Y252027D01*
X172206Y251986D01*
X172018Y251949D01*
X171986Y251937D01*
X171952Y251929D01*
X171777Y251856D01*
X171598Y251787D01*
X171569Y251769D01*
X171537Y251756D01*
X171377Y251653D01*
X171214Y251553D01*
X171188Y251530D01*
X171159Y251511D01*
X170924Y251305D01*
X167502Y247882D01*
X162647Y245871D01*
X157393Y245871D01*
X152538Y247882D01*
X149116Y251305D01*
X149089Y251327D01*
X149066Y251353D01*
X148917Y251471D01*
X148770Y251593D01*
X148740Y251611D01*
X148713Y251632D01*
X148545Y251722D01*
X148379Y251817D01*
X148347Y251828D01*
X148316Y251845D01*
X148135Y251904D01*
X147955Y251968D01*
X147921Y251973D01*
X147888Y251984D01*
X147699Y252010D01*
X147511Y252041D01*
X147476Y252041D01*
X147442Y252045D01*
X147251Y252038D01*
X147060Y252035D01*
X147026Y252028D01*
X146992Y252027D01*
X146806Y251986D01*
X146618Y251949D01*
X146586Y251937D01*
X146552Y251929D01*
X146377Y251856D01*
X146198Y251787D01*
X146169Y251769D01*
X146137Y251756D01*
X145977Y251653D01*
X145814Y251553D01*
X145788Y251530D01*
X145759Y251511D01*
X145524Y251305D01*
X142102Y247882D01*
X137247Y245871D01*
X131993Y245871D01*
G37*
%LPD*%
%LPC*%
G36*
X81193Y245871D02*
X81193Y245871D01*
X76338Y247882D01*
X72622Y251598D01*
X70611Y256453D01*
X70611Y276947D01*
X72622Y281802D01*
X76338Y285518D01*
X81193Y287529D01*
X86447Y287529D01*
X91302Y285518D01*
X95018Y281802D01*
X95874Y279734D01*
X95888Y279707D01*
X95898Y279679D01*
X95992Y279508D01*
X96083Y279335D01*
X96101Y279311D01*
X96116Y279285D01*
X96239Y279134D01*
X96359Y278979D01*
X96381Y278959D01*
X96400Y278935D01*
X96548Y278808D01*
X96693Y278678D01*
X96719Y278662D01*
X96742Y278642D01*
X96910Y278542D01*
X97075Y278440D01*
X97103Y278428D01*
X97130Y278413D01*
X97313Y278345D01*
X97493Y278273D01*
X97523Y278267D01*
X97552Y278256D01*
X97743Y278222D01*
X97935Y278183D01*
X97965Y278182D01*
X97995Y278177D01*
X98189Y278177D01*
X98385Y278172D01*
X98415Y278177D01*
X98445Y278177D01*
X98636Y278211D01*
X98830Y278241D01*
X98859Y278251D01*
X98888Y278256D01*
X99071Y278324D01*
X99255Y278387D01*
X99282Y278402D01*
X99311Y278413D01*
X99478Y278512D01*
X99649Y278607D01*
X99672Y278626D01*
X99698Y278641D01*
X99846Y278768D01*
X99997Y278892D01*
X100017Y278915D01*
X100040Y278935D01*
X100163Y279086D01*
X100290Y279234D01*
X100305Y279260D01*
X100324Y279284D01*
X100483Y279553D01*
X100530Y279645D01*
X101470Y280939D01*
X102601Y282070D01*
X103895Y283010D01*
X105320Y283736D01*
X106681Y284179D01*
X106681Y266700D01*
X106681Y249221D01*
X105320Y249664D01*
X103895Y250390D01*
X102601Y251330D01*
X101470Y252461D01*
X100530Y253755D01*
X100483Y253847D01*
X100467Y253873D01*
X100455Y253900D01*
X100348Y254062D01*
X100244Y254228D01*
X100223Y254251D01*
X100206Y254276D01*
X100072Y254417D01*
X99941Y254561D01*
X99917Y254580D01*
X99896Y254602D01*
X99738Y254717D01*
X99584Y254836D01*
X99557Y254850D01*
X99532Y254868D01*
X99358Y254953D01*
X99184Y255043D01*
X99155Y255052D01*
X99128Y255066D01*
X98941Y255119D01*
X98754Y255176D01*
X98724Y255180D01*
X98695Y255189D01*
X98500Y255208D01*
X98307Y255232D01*
X98277Y255230D01*
X98247Y255233D01*
X98052Y255218D01*
X97858Y255207D01*
X97828Y255200D01*
X97798Y255198D01*
X97609Y255148D01*
X97419Y255104D01*
X97392Y255092D01*
X97362Y255084D01*
X97186Y255002D01*
X97006Y254924D01*
X96981Y254907D01*
X96954Y254895D01*
X96794Y254783D01*
X96632Y254675D01*
X96610Y254654D01*
X96585Y254636D01*
X96448Y254498D01*
X96307Y254363D01*
X96289Y254338D01*
X96267Y254317D01*
X96157Y254157D01*
X96042Y253999D01*
X96029Y253972D01*
X96011Y253947D01*
X95874Y253666D01*
X95018Y251598D01*
X91302Y247882D01*
X86447Y245871D01*
X81193Y245871D01*
G37*
%LPD*%
%LPC*%
G36*
X302259Y186499D02*
X302259Y186499D01*
X302259Y190501D01*
X306261Y190501D01*
X306261Y188705D01*
X306088Y188059D01*
X305753Y187480D01*
X305280Y187007D01*
X304701Y186672D01*
X304055Y186499D01*
X302259Y186499D01*
G37*
%LPD*%
%LPC*%
G36*
X276859Y186499D02*
X276859Y186499D01*
X276859Y190501D01*
X280861Y190501D01*
X280861Y188705D01*
X280688Y188059D01*
X280353Y187480D01*
X279880Y187007D01*
X279301Y186672D01*
X278655Y186499D01*
X276859Y186499D01*
G37*
%LPD*%
%LPC*%
G36*
X327659Y186499D02*
X327659Y186499D01*
X327659Y190501D01*
X331661Y190501D01*
X331661Y188705D01*
X331488Y188059D01*
X331153Y187480D01*
X330680Y187007D01*
X330101Y186672D01*
X329455Y186499D01*
X327659Y186499D01*
G37*
%LPD*%
%LPC*%
G36*
X295385Y186499D02*
X295385Y186499D01*
X294739Y186672D01*
X294160Y187007D01*
X293687Y187480D01*
X293352Y188059D01*
X293179Y188705D01*
X293179Y190501D01*
X297181Y190501D01*
X297181Y186499D01*
X295385Y186499D01*
G37*
%LPD*%
%LPC*%
G36*
X269985Y186499D02*
X269985Y186499D01*
X269339Y186672D01*
X268760Y187007D01*
X268287Y187480D01*
X267952Y188059D01*
X267779Y188705D01*
X267779Y190501D01*
X271781Y190501D01*
X271781Y186499D01*
X269985Y186499D01*
G37*
%LPD*%
%LPC*%
G36*
X320785Y186499D02*
X320785Y186499D01*
X320139Y186672D01*
X319560Y187007D01*
X319087Y187480D01*
X318752Y188059D01*
X318579Y188705D01*
X318579Y190501D01*
X322581Y190501D01*
X322581Y186499D01*
X320785Y186499D01*
G37*
%LPD*%
D10*
X381000Y266700D02*
X396240Y266700D01*
X396240Y241300D02*
X381000Y241300D01*
X381000Y215900D02*
X396240Y215900D01*
X396240Y190500D02*
X381000Y190500D01*
X381000Y165100D02*
X396240Y165100D01*
X396240Y139700D02*
X381000Y139700D01*
X381000Y114300D02*
X396240Y114300D01*
X396240Y88900D02*
X381000Y88900D01*
X381000Y63500D02*
X396240Y63500D01*
X396240Y38100D02*
X381000Y38100D01*
X43180Y38100D02*
X27940Y38100D01*
X27940Y63500D02*
X43180Y63500D01*
X43180Y88900D02*
X27940Y88900D01*
X27940Y114300D02*
X43180Y114300D01*
X43180Y139700D02*
X27940Y139700D01*
X27940Y165100D02*
X43180Y165100D01*
X43180Y190500D02*
X27940Y190500D01*
X27940Y215900D02*
X43180Y215900D01*
X43180Y241300D02*
X27940Y241300D01*
X27940Y266700D02*
X43180Y266700D01*
D11*
X321620Y228410D02*
X328620Y228410D01*
X328620Y221410D01*
X321620Y221410D01*
X321620Y228410D01*
X321620Y224409D02*
X328620Y224409D01*
X328620Y227408D02*
X321620Y227408D01*
X321620Y245950D02*
X328620Y245950D01*
X328620Y238950D01*
X321620Y238950D01*
X321620Y245950D01*
X321620Y241949D02*
X328620Y241949D01*
X328620Y244948D02*
X321620Y244948D01*
X277820Y228410D02*
X270820Y228410D01*
X277820Y228410D02*
X277820Y221410D01*
X270820Y221410D01*
X270820Y228410D01*
X270820Y224409D02*
X277820Y224409D01*
X277820Y227408D02*
X270820Y227408D01*
X270820Y245950D02*
X277820Y245950D01*
X277820Y238950D01*
X270820Y238950D01*
X270820Y245950D01*
X270820Y241949D02*
X277820Y241949D01*
X277820Y244948D02*
X270820Y244948D01*
X296220Y228410D02*
X303220Y228410D01*
X303220Y221410D01*
X296220Y221410D01*
X296220Y228410D01*
X296220Y224409D02*
X303220Y224409D01*
X303220Y227408D02*
X296220Y227408D01*
X296220Y245950D02*
X303220Y245950D01*
X303220Y238950D01*
X296220Y238950D01*
X296220Y245950D01*
X296220Y241949D02*
X303220Y241949D01*
X303220Y244948D02*
X296220Y244948D01*
D12*
X325120Y193040D03*
X325120Y208280D03*
X274320Y193040D03*
X274320Y208280D03*
X299720Y193040D03*
X299720Y208280D03*
D10*
X83820Y259080D02*
X83820Y274320D01*
X109220Y274320D02*
X109220Y259080D01*
X134620Y259080D02*
X134620Y274320D01*
X160020Y274320D02*
X160020Y259080D01*
X185420Y259080D02*
X185420Y274320D01*
X248920Y274320D02*
X248920Y259080D01*
X274320Y259080D02*
X274320Y274320D01*
X299720Y274320D02*
X299720Y259080D01*
X325120Y259080D02*
X325120Y274320D01*
X350520Y274320D02*
X350520Y259080D01*
X99060Y60960D02*
X83820Y60960D01*
X83820Y35560D02*
X99060Y35560D01*
X294640Y43180D02*
X294640Y27940D01*
X269240Y27940D02*
X269240Y43180D01*
X243840Y43180D02*
X243840Y27940D01*
X218440Y27940D02*
X218440Y43180D01*
X193040Y43180D02*
X193040Y27940D01*
X167640Y27940D02*
X167640Y43180D01*
D13*
X299720Y193040D02*
X325120Y193040D01*
X299720Y193040D02*
X274320Y193040D01*
D14*
X251460Y73660D03*
D13*
X202692Y45212D02*
X193040Y35560D01*
X202692Y45212D02*
X202692Y49703D01*
X226649Y73660D01*
X251460Y73660D01*
X86360Y215900D02*
X35560Y215900D01*
X86360Y215900D02*
X86840Y215420D01*
X86840Y183083D01*
D14*
X86840Y183083D03*
D13*
X99568Y257048D02*
X109220Y266700D01*
X99568Y257048D02*
X99568Y252557D01*
X86840Y239829D02*
X86840Y215420D01*
X86840Y239829D02*
X99568Y252557D01*
X325120Y193040D02*
X325120Y180340D01*
X378968Y98552D02*
X388620Y88900D01*
X378968Y98552D02*
X374477Y98552D01*
X339570Y167493D02*
X332593Y174470D01*
X325120Y180340D02*
X325910Y182090D01*
X332593Y174470D01*
X339570Y133459D02*
X374477Y98552D01*
X339570Y133459D02*
X339570Y167493D01*
X274320Y193040D02*
X248920Y180170D01*
X237180Y168430D01*
D14*
X237180Y168430D03*
X358140Y215900D03*
D13*
X347980Y215900D01*
X337248Y205168D01*
X337248Y200913D01*
X332487Y196152D01*
X328232Y196152D01*
X325120Y193040D01*
D14*
X327660Y162560D03*
D13*
X378968Y47752D02*
X388620Y38100D01*
X378968Y47752D02*
X374477Y47752D01*
X327660Y94569D01*
X327660Y162560D01*
D14*
X121920Y25400D03*
D13*
X12192Y247823D02*
X23957Y267208D01*
X28448Y267208D01*
X35560Y266700D01*
X12192Y247823D02*
X12192Y26497D01*
X111171Y25400D02*
X121920Y25400D01*
X111171Y25400D02*
X105583Y19812D01*
X34117Y14732D01*
X12192Y26497D01*
X121920Y25400D02*
X121920Y73660D01*
X208280Y137160D01*
D14*
X208280Y137160D03*
D15*
X187023Y266700D02*
X185420Y266700D01*
D13*
X63500Y139700D02*
X35560Y139700D01*
X63500Y139700D02*
X99060Y104140D01*
D14*
X165027Y120140D03*
D13*
X143268Y104140D02*
X99060Y104140D01*
X143268Y104140D02*
X165027Y120140D01*
D14*
X236220Y121920D03*
D13*
X225270Y120170D01*
X225270Y160020D01*
X225270Y228453D01*
D14*
X106680Y127000D03*
D13*
X111617Y139700D01*
X127838Y168621D01*
X214092Y168621D01*
X223271Y160020D01*
X225270Y160020D01*
X225270Y228453D02*
X235792Y238975D01*
X235792Y249938D01*
X248920Y263066D02*
X248920Y266700D01*
X248920Y263066D02*
X235792Y249938D01*
D14*
X340360Y53340D03*
D13*
X325120Y68580D01*
X312420Y68580D01*
D14*
X312420Y68580D03*
X213360Y210162D03*
D13*
X111102Y210162D02*
X106680Y198120D01*
D14*
X106680Y198120D03*
D13*
X186366Y210162D02*
X213360Y210162D01*
X186366Y210162D02*
X182733Y206530D01*
X120780Y210162D02*
X111102Y210162D01*
X124412Y206530D02*
X182733Y206530D01*
X124412Y206530D02*
X120780Y210162D01*
D14*
X213360Y180340D03*
D13*
X103203Y180340D01*
X91293Y168430D01*
X49050Y168430D02*
X35560Y165100D01*
X49050Y168430D02*
X91293Y168430D01*
X269240Y149860D02*
X269240Y35560D01*
X269240Y149860D02*
X246380Y157480D01*
D14*
X246380Y157480D03*
D13*
X243840Y41089D02*
X243840Y35560D01*
X243840Y41089D02*
X231365Y53565D01*
D14*
X231365Y53565D03*
X137160Y45720D03*
D13*
X151892Y21417D02*
X161117Y12192D01*
X275763Y12192D02*
X284988Y21417D01*
X151892Y30988D02*
X137160Y45720D01*
X151892Y30988D02*
X151892Y21417D01*
X284988Y21417D02*
X284988Y23368D01*
X294640Y33020D01*
X275763Y12192D02*
X161117Y12192D01*
X294640Y33020D02*
X294640Y35560D01*
X325120Y208280D02*
X325120Y224910D01*
X274320Y224910D02*
X274320Y208280D01*
X299720Y208280D02*
X299720Y224910D01*
X274320Y242450D02*
X274320Y266700D01*
X299720Y266700D02*
X299720Y242450D01*
X323730Y242450D02*
X325120Y243840D01*
X323730Y242450D02*
X322580Y241300D01*
X323730Y242450D02*
X325120Y242450D01*
D16*
X0Y0D02*
X415800Y0D01*
X415800Y302160D01*
X0Y302160D01*
X0Y0D01*
M02*
