M48
;GenerationSoftware,Autodesk,EAGLE,8.7.0*%
;CreationDate,2021-03-05T05:17:05Z*%
FMAT,2
ICI,OFF
METRIC,TZ,000.000
T2C0.350
T1C1.016
%
G90
M71
T1
X8382Y26670
X10922Y26670
X13462Y26670
X16002Y26670
X18542Y26670
X24892Y26670
X27432Y26670
X3556Y3810
X29972Y26670
X32512Y26670
X35052Y26670
X9144Y3556
X29464Y3556
X26924Y3556
X24384Y3556
X21844Y3556
X19304Y3556
X16764Y3556
X38862Y26670
X38862Y24130
X38862Y21590
X38862Y19050
X38862Y16510
X38862Y13970
X38862Y11430
X38862Y8890
X38862Y6350
X38862Y3810
X9144Y6096
X3556Y6350
X3556Y8890
X3556Y11430
X3556Y13970
X3556Y16510
X3556Y19050
X3556Y21590
X3556Y24130
X3556Y26670
T2
X25146Y7366
X8684Y18308
X23718Y16843
X35814Y21590
X32766Y16256
X12192Y2540
X20828Y13716
X23622Y12192
X10668Y12700
X34036Y5334
X31242Y6858
X21336Y21016
X10668Y19812
X21336Y18034
X24638Y15748
X23136Y5356
X13716Y4572
X16503Y12014
M30