G04 EAGLE Gerber X2 export*
%TF.Part,Single*%
%TF.FileFunction,Legend,Bot,1*%
%TF.FilePolarity,Positive*%
%TF.GenerationSoftware,Autodesk,EAGLE,8.7.0*%
%TF.CreationDate,2021-03-05T05:17:05Z*%
G75*
%MOMM*%
%FSLAX34Y34*%
%LPD*%
%AMOC8*
5,1,8,0,0,1.08239X$1,22.5*%
G01*
%ADD10C,0.152400*%
%ADD11C,0.127000*%
%ADD12C,0.203200*%


D10*
X121920Y128778D02*
X203200Y128778D01*
X121920Y89662D02*
X121798Y89664D01*
X121676Y89670D01*
X121554Y89680D01*
X121433Y89693D01*
X121312Y89711D01*
X121192Y89732D01*
X121072Y89758D01*
X120954Y89787D01*
X120836Y89819D01*
X120719Y89856D01*
X120604Y89896D01*
X120490Y89940D01*
X120378Y89988D01*
X120267Y90039D01*
X120158Y90094D01*
X120050Y90152D01*
X119945Y90214D01*
X119842Y90279D01*
X119740Y90347D01*
X119641Y90419D01*
X119545Y90493D01*
X119450Y90571D01*
X119359Y90652D01*
X119269Y90735D01*
X119183Y90821D01*
X119100Y90911D01*
X119019Y91002D01*
X118941Y91097D01*
X118867Y91193D01*
X118795Y91292D01*
X118727Y91394D01*
X118662Y91497D01*
X118600Y91602D01*
X118542Y91710D01*
X118487Y91819D01*
X118436Y91930D01*
X118388Y92042D01*
X118344Y92156D01*
X118304Y92271D01*
X118267Y92388D01*
X118235Y92506D01*
X118206Y92624D01*
X118180Y92744D01*
X118159Y92864D01*
X118141Y92985D01*
X118128Y93106D01*
X118118Y93228D01*
X118112Y93350D01*
X118110Y93472D01*
X203200Y128778D02*
X203322Y128776D01*
X203444Y128770D01*
X203566Y128760D01*
X203687Y128747D01*
X203808Y128729D01*
X203928Y128708D01*
X204048Y128682D01*
X204166Y128653D01*
X204284Y128621D01*
X204401Y128584D01*
X204516Y128544D01*
X204630Y128500D01*
X204742Y128452D01*
X204853Y128401D01*
X204962Y128346D01*
X205070Y128288D01*
X205175Y128226D01*
X205278Y128161D01*
X205380Y128093D01*
X205479Y128021D01*
X205575Y127947D01*
X205670Y127869D01*
X205761Y127788D01*
X205851Y127705D01*
X205937Y127619D01*
X206020Y127529D01*
X206101Y127438D01*
X206179Y127343D01*
X206253Y127247D01*
X206325Y127148D01*
X206393Y127046D01*
X206458Y126943D01*
X206520Y126838D01*
X206578Y126730D01*
X206633Y126621D01*
X206684Y126510D01*
X206732Y126398D01*
X206776Y126284D01*
X206816Y126169D01*
X206853Y126052D01*
X206885Y125934D01*
X206914Y125816D01*
X206940Y125696D01*
X206961Y125576D01*
X206979Y125455D01*
X206992Y125334D01*
X207002Y125212D01*
X207008Y125090D01*
X207010Y124968D01*
X121920Y128778D02*
X121798Y128776D01*
X121676Y128770D01*
X121554Y128760D01*
X121433Y128747D01*
X121312Y128729D01*
X121192Y128708D01*
X121072Y128682D01*
X120954Y128653D01*
X120836Y128621D01*
X120719Y128584D01*
X120604Y128544D01*
X120490Y128500D01*
X120378Y128452D01*
X120267Y128401D01*
X120158Y128346D01*
X120050Y128288D01*
X119945Y128226D01*
X119842Y128161D01*
X119740Y128093D01*
X119641Y128021D01*
X119545Y127947D01*
X119450Y127869D01*
X119359Y127788D01*
X119269Y127705D01*
X119183Y127619D01*
X119100Y127529D01*
X119019Y127438D01*
X118941Y127343D01*
X118867Y127247D01*
X118795Y127148D01*
X118727Y127046D01*
X118662Y126943D01*
X118600Y126838D01*
X118542Y126730D01*
X118487Y126621D01*
X118436Y126510D01*
X118388Y126398D01*
X118344Y126284D01*
X118304Y126169D01*
X118267Y126052D01*
X118235Y125934D01*
X118206Y125816D01*
X118180Y125696D01*
X118159Y125576D01*
X118141Y125455D01*
X118128Y125334D01*
X118118Y125212D01*
X118112Y125090D01*
X118110Y124968D01*
X203200Y89662D02*
X203322Y89664D01*
X203444Y89670D01*
X203566Y89680D01*
X203687Y89693D01*
X203808Y89711D01*
X203928Y89732D01*
X204048Y89758D01*
X204166Y89787D01*
X204284Y89819D01*
X204401Y89856D01*
X204516Y89896D01*
X204630Y89940D01*
X204742Y89988D01*
X204853Y90039D01*
X204962Y90094D01*
X205070Y90152D01*
X205175Y90214D01*
X205278Y90279D01*
X205380Y90347D01*
X205479Y90419D01*
X205575Y90493D01*
X205670Y90571D01*
X205761Y90652D01*
X205851Y90735D01*
X205937Y90821D01*
X206020Y90911D01*
X206101Y91002D01*
X206179Y91097D01*
X206253Y91193D01*
X206325Y91292D01*
X206393Y91394D01*
X206458Y91497D01*
X206520Y91602D01*
X206578Y91710D01*
X206633Y91819D01*
X206684Y91930D01*
X206732Y92042D01*
X206776Y92156D01*
X206816Y92271D01*
X206853Y92388D01*
X206885Y92506D01*
X206914Y92624D01*
X206940Y92744D01*
X206961Y92864D01*
X206979Y92985D01*
X206992Y93106D01*
X207002Y93228D01*
X207008Y93350D01*
X207010Y93472D01*
X203200Y89662D02*
X121920Y89662D01*
X118110Y93472D02*
X118110Y124968D01*
X207010Y124968D02*
X207010Y114300D01*
X207010Y104140D01*
X207010Y93472D01*
X207010Y104140D02*
X206869Y104142D01*
X206728Y104148D01*
X206587Y104158D01*
X206446Y104171D01*
X206306Y104189D01*
X206167Y104211D01*
X206028Y104236D01*
X205889Y104265D01*
X205752Y104298D01*
X205616Y104335D01*
X205481Y104376D01*
X205346Y104420D01*
X205214Y104468D01*
X205082Y104520D01*
X204952Y104575D01*
X204824Y104634D01*
X204697Y104697D01*
X204573Y104763D01*
X204450Y104832D01*
X204329Y104905D01*
X204210Y104981D01*
X204093Y105061D01*
X203979Y105144D01*
X203866Y105229D01*
X203757Y105318D01*
X203649Y105410D01*
X203545Y105505D01*
X203443Y105603D01*
X203344Y105704D01*
X203247Y105807D01*
X203154Y105913D01*
X203064Y106021D01*
X202976Y106132D01*
X202892Y106245D01*
X202811Y106361D01*
X202733Y106479D01*
X202658Y106599D01*
X202587Y106721D01*
X202519Y106845D01*
X202455Y106971D01*
X202394Y107098D01*
X202337Y107227D01*
X202284Y107358D01*
X202234Y107490D01*
X202187Y107623D01*
X202145Y107758D01*
X202106Y107894D01*
X202071Y108031D01*
X202040Y108168D01*
X202013Y108307D01*
X201989Y108446D01*
X201970Y108586D01*
X201954Y108726D01*
X201942Y108867D01*
X201934Y109008D01*
X201930Y109149D01*
X201930Y109291D01*
X201934Y109432D01*
X201942Y109573D01*
X201954Y109714D01*
X201970Y109854D01*
X201989Y109994D01*
X202013Y110133D01*
X202040Y110272D01*
X202071Y110409D01*
X202106Y110546D01*
X202145Y110682D01*
X202187Y110817D01*
X202234Y110950D01*
X202284Y111082D01*
X202337Y111213D01*
X202394Y111342D01*
X202455Y111469D01*
X202519Y111595D01*
X202587Y111719D01*
X202658Y111841D01*
X202733Y111961D01*
X202811Y112079D01*
X202892Y112195D01*
X202976Y112308D01*
X203064Y112419D01*
X203154Y112527D01*
X203247Y112633D01*
X203344Y112736D01*
X203443Y112837D01*
X203545Y112935D01*
X203649Y113030D01*
X203757Y113122D01*
X203866Y113211D01*
X203979Y113296D01*
X204093Y113379D01*
X204210Y113459D01*
X204329Y113535D01*
X204450Y113608D01*
X204573Y113677D01*
X204697Y113743D01*
X204824Y113806D01*
X204952Y113865D01*
X205082Y113920D01*
X205214Y113972D01*
X205346Y114020D01*
X205481Y114064D01*
X205616Y114105D01*
X205752Y114142D01*
X205889Y114175D01*
X206028Y114204D01*
X206167Y114229D01*
X206306Y114251D01*
X206446Y114269D01*
X206587Y114282D01*
X206728Y114292D01*
X206869Y114298D01*
X207010Y114300D01*
X207010Y93218D02*
X118110Y93218D01*
D11*
X210185Y93345D02*
X221615Y93345D01*
X210185Y92075D02*
X210185Y94615D01*
X221615Y94615D02*
X221615Y92075D01*
X210185Y101817D02*
X210185Y104357D01*
X210185Y101817D02*
X210187Y101717D01*
X210193Y101618D01*
X210203Y101518D01*
X210216Y101420D01*
X210234Y101321D01*
X210255Y101224D01*
X210280Y101128D01*
X210309Y101032D01*
X210342Y100938D01*
X210378Y100845D01*
X210418Y100754D01*
X210462Y100664D01*
X210509Y100576D01*
X210559Y100490D01*
X210613Y100406D01*
X210670Y100324D01*
X210730Y100245D01*
X210794Y100167D01*
X210860Y100093D01*
X210929Y100021D01*
X211001Y99952D01*
X211075Y99886D01*
X211153Y99822D01*
X211232Y99762D01*
X211314Y99705D01*
X211398Y99651D01*
X211484Y99601D01*
X211572Y99554D01*
X211662Y99510D01*
X211753Y99470D01*
X211846Y99434D01*
X211940Y99401D01*
X212036Y99372D01*
X212132Y99347D01*
X212229Y99326D01*
X212328Y99308D01*
X212426Y99295D01*
X212526Y99285D01*
X212625Y99279D01*
X212725Y99277D01*
X219075Y99277D01*
X219175Y99279D01*
X219274Y99285D01*
X219374Y99295D01*
X219472Y99308D01*
X219571Y99326D01*
X219668Y99347D01*
X219764Y99372D01*
X219860Y99401D01*
X219954Y99434D01*
X220047Y99470D01*
X220138Y99510D01*
X220228Y99554D01*
X220316Y99601D01*
X220402Y99651D01*
X220486Y99705D01*
X220568Y99762D01*
X220647Y99822D01*
X220725Y99886D01*
X220799Y99952D01*
X220871Y100021D01*
X220940Y100093D01*
X221006Y100167D01*
X221070Y100245D01*
X221130Y100324D01*
X221187Y100406D01*
X221241Y100490D01*
X221291Y100576D01*
X221338Y100664D01*
X221382Y100754D01*
X221422Y100845D01*
X221458Y100938D01*
X221491Y101032D01*
X221520Y101128D01*
X221545Y101224D01*
X221566Y101321D01*
X221584Y101420D01*
X221597Y101518D01*
X221607Y101618D01*
X221613Y101717D01*
X221615Y101817D01*
X221615Y104357D01*
X219075Y108839D02*
X221615Y112014D01*
X210185Y112014D01*
X210185Y108839D02*
X210185Y115189D01*
D10*
X248920Y131318D02*
X330200Y131318D01*
X248920Y92202D02*
X248798Y92204D01*
X248676Y92210D01*
X248554Y92220D01*
X248433Y92233D01*
X248312Y92251D01*
X248192Y92272D01*
X248072Y92298D01*
X247954Y92327D01*
X247836Y92359D01*
X247719Y92396D01*
X247604Y92436D01*
X247490Y92480D01*
X247378Y92528D01*
X247267Y92579D01*
X247158Y92634D01*
X247050Y92692D01*
X246945Y92754D01*
X246842Y92819D01*
X246740Y92887D01*
X246641Y92959D01*
X246545Y93033D01*
X246450Y93111D01*
X246359Y93192D01*
X246269Y93275D01*
X246183Y93361D01*
X246100Y93451D01*
X246019Y93542D01*
X245941Y93637D01*
X245867Y93733D01*
X245795Y93832D01*
X245727Y93934D01*
X245662Y94037D01*
X245600Y94142D01*
X245542Y94250D01*
X245487Y94359D01*
X245436Y94470D01*
X245388Y94582D01*
X245344Y94696D01*
X245304Y94811D01*
X245267Y94928D01*
X245235Y95046D01*
X245206Y95164D01*
X245180Y95284D01*
X245159Y95404D01*
X245141Y95525D01*
X245128Y95646D01*
X245118Y95768D01*
X245112Y95890D01*
X245110Y96012D01*
X330200Y131318D02*
X330322Y131316D01*
X330444Y131310D01*
X330566Y131300D01*
X330687Y131287D01*
X330808Y131269D01*
X330928Y131248D01*
X331048Y131222D01*
X331166Y131193D01*
X331284Y131161D01*
X331401Y131124D01*
X331516Y131084D01*
X331630Y131040D01*
X331742Y130992D01*
X331853Y130941D01*
X331962Y130886D01*
X332070Y130828D01*
X332175Y130766D01*
X332278Y130701D01*
X332380Y130633D01*
X332479Y130561D01*
X332575Y130487D01*
X332670Y130409D01*
X332761Y130328D01*
X332851Y130245D01*
X332937Y130159D01*
X333020Y130069D01*
X333101Y129978D01*
X333179Y129883D01*
X333253Y129787D01*
X333325Y129688D01*
X333393Y129586D01*
X333458Y129483D01*
X333520Y129378D01*
X333578Y129270D01*
X333633Y129161D01*
X333684Y129050D01*
X333732Y128938D01*
X333776Y128824D01*
X333816Y128709D01*
X333853Y128592D01*
X333885Y128474D01*
X333914Y128356D01*
X333940Y128236D01*
X333961Y128116D01*
X333979Y127995D01*
X333992Y127874D01*
X334002Y127752D01*
X334008Y127630D01*
X334010Y127508D01*
X248920Y131318D02*
X248798Y131316D01*
X248676Y131310D01*
X248554Y131300D01*
X248433Y131287D01*
X248312Y131269D01*
X248192Y131248D01*
X248072Y131222D01*
X247954Y131193D01*
X247836Y131161D01*
X247719Y131124D01*
X247604Y131084D01*
X247490Y131040D01*
X247378Y130992D01*
X247267Y130941D01*
X247158Y130886D01*
X247050Y130828D01*
X246945Y130766D01*
X246842Y130701D01*
X246740Y130633D01*
X246641Y130561D01*
X246545Y130487D01*
X246450Y130409D01*
X246359Y130328D01*
X246269Y130245D01*
X246183Y130159D01*
X246100Y130069D01*
X246019Y129978D01*
X245941Y129883D01*
X245867Y129787D01*
X245795Y129688D01*
X245727Y129586D01*
X245662Y129483D01*
X245600Y129378D01*
X245542Y129270D01*
X245487Y129161D01*
X245436Y129050D01*
X245388Y128938D01*
X245344Y128824D01*
X245304Y128709D01*
X245267Y128592D01*
X245235Y128474D01*
X245206Y128356D01*
X245180Y128236D01*
X245159Y128116D01*
X245141Y127995D01*
X245128Y127874D01*
X245118Y127752D01*
X245112Y127630D01*
X245110Y127508D01*
X330200Y92202D02*
X330322Y92204D01*
X330444Y92210D01*
X330566Y92220D01*
X330687Y92233D01*
X330808Y92251D01*
X330928Y92272D01*
X331048Y92298D01*
X331166Y92327D01*
X331284Y92359D01*
X331401Y92396D01*
X331516Y92436D01*
X331630Y92480D01*
X331742Y92528D01*
X331853Y92579D01*
X331962Y92634D01*
X332070Y92692D01*
X332175Y92754D01*
X332278Y92819D01*
X332380Y92887D01*
X332479Y92959D01*
X332575Y93033D01*
X332670Y93111D01*
X332761Y93192D01*
X332851Y93275D01*
X332937Y93361D01*
X333020Y93451D01*
X333101Y93542D01*
X333179Y93637D01*
X333253Y93733D01*
X333325Y93832D01*
X333393Y93934D01*
X333458Y94037D01*
X333520Y94142D01*
X333578Y94250D01*
X333633Y94359D01*
X333684Y94470D01*
X333732Y94582D01*
X333776Y94696D01*
X333816Y94811D01*
X333853Y94928D01*
X333885Y95046D01*
X333914Y95164D01*
X333940Y95284D01*
X333961Y95404D01*
X333979Y95525D01*
X333992Y95646D01*
X334002Y95768D01*
X334008Y95890D01*
X334010Y96012D01*
X330200Y92202D02*
X248920Y92202D01*
X245110Y96012D02*
X245110Y127508D01*
X334010Y127508D02*
X334010Y116840D01*
X334010Y106680D01*
X334010Y96012D01*
X334010Y106680D02*
X333869Y106682D01*
X333728Y106688D01*
X333587Y106698D01*
X333446Y106711D01*
X333306Y106729D01*
X333167Y106751D01*
X333028Y106776D01*
X332889Y106805D01*
X332752Y106838D01*
X332616Y106875D01*
X332481Y106916D01*
X332346Y106960D01*
X332214Y107008D01*
X332082Y107060D01*
X331952Y107115D01*
X331824Y107174D01*
X331697Y107237D01*
X331573Y107303D01*
X331450Y107372D01*
X331329Y107445D01*
X331210Y107521D01*
X331093Y107601D01*
X330979Y107684D01*
X330866Y107769D01*
X330757Y107858D01*
X330649Y107950D01*
X330545Y108045D01*
X330443Y108143D01*
X330344Y108244D01*
X330247Y108347D01*
X330154Y108453D01*
X330064Y108561D01*
X329976Y108672D01*
X329892Y108785D01*
X329811Y108901D01*
X329733Y109019D01*
X329658Y109139D01*
X329587Y109261D01*
X329519Y109385D01*
X329455Y109511D01*
X329394Y109638D01*
X329337Y109767D01*
X329284Y109898D01*
X329234Y110030D01*
X329187Y110163D01*
X329145Y110298D01*
X329106Y110434D01*
X329071Y110571D01*
X329040Y110708D01*
X329013Y110847D01*
X328989Y110986D01*
X328970Y111126D01*
X328954Y111266D01*
X328942Y111407D01*
X328934Y111548D01*
X328930Y111689D01*
X328930Y111831D01*
X328934Y111972D01*
X328942Y112113D01*
X328954Y112254D01*
X328970Y112394D01*
X328989Y112534D01*
X329013Y112673D01*
X329040Y112812D01*
X329071Y112949D01*
X329106Y113086D01*
X329145Y113222D01*
X329187Y113357D01*
X329234Y113490D01*
X329284Y113622D01*
X329337Y113753D01*
X329394Y113882D01*
X329455Y114009D01*
X329519Y114135D01*
X329587Y114259D01*
X329658Y114381D01*
X329733Y114501D01*
X329811Y114619D01*
X329892Y114735D01*
X329976Y114848D01*
X330064Y114959D01*
X330154Y115067D01*
X330247Y115173D01*
X330344Y115276D01*
X330443Y115377D01*
X330545Y115475D01*
X330649Y115570D01*
X330757Y115662D01*
X330866Y115751D01*
X330979Y115836D01*
X331093Y115919D01*
X331210Y115999D01*
X331329Y116075D01*
X331450Y116148D01*
X331573Y116217D01*
X331697Y116283D01*
X331824Y116346D01*
X331952Y116405D01*
X332082Y116460D01*
X332214Y116512D01*
X332346Y116560D01*
X332481Y116604D01*
X332616Y116645D01*
X332752Y116682D01*
X332889Y116715D01*
X333028Y116744D01*
X333167Y116769D01*
X333306Y116791D01*
X333446Y116809D01*
X333587Y116822D01*
X333728Y116832D01*
X333869Y116838D01*
X334010Y116840D01*
X334010Y95758D02*
X245110Y95758D01*
D11*
X337185Y95885D02*
X348615Y95885D01*
X337185Y94615D02*
X337185Y97155D01*
X348615Y97155D02*
X348615Y94615D01*
X337185Y104357D02*
X337185Y106897D01*
X337185Y104357D02*
X337187Y104257D01*
X337193Y104158D01*
X337203Y104058D01*
X337216Y103960D01*
X337234Y103861D01*
X337255Y103764D01*
X337280Y103668D01*
X337309Y103572D01*
X337342Y103478D01*
X337378Y103385D01*
X337418Y103294D01*
X337462Y103204D01*
X337509Y103116D01*
X337559Y103030D01*
X337613Y102946D01*
X337670Y102864D01*
X337730Y102785D01*
X337794Y102707D01*
X337860Y102633D01*
X337929Y102561D01*
X338001Y102492D01*
X338075Y102426D01*
X338153Y102362D01*
X338232Y102302D01*
X338314Y102245D01*
X338398Y102191D01*
X338484Y102141D01*
X338572Y102094D01*
X338662Y102050D01*
X338753Y102010D01*
X338846Y101974D01*
X338940Y101941D01*
X339036Y101912D01*
X339132Y101887D01*
X339229Y101866D01*
X339328Y101848D01*
X339426Y101835D01*
X339526Y101825D01*
X339625Y101819D01*
X339725Y101817D01*
X346075Y101817D01*
X346175Y101819D01*
X346274Y101825D01*
X346374Y101835D01*
X346472Y101848D01*
X346571Y101866D01*
X346668Y101887D01*
X346764Y101912D01*
X346860Y101941D01*
X346954Y101974D01*
X347047Y102010D01*
X347138Y102050D01*
X347228Y102094D01*
X347316Y102141D01*
X347402Y102191D01*
X347486Y102245D01*
X347568Y102302D01*
X347647Y102362D01*
X347725Y102426D01*
X347799Y102492D01*
X347871Y102561D01*
X347940Y102633D01*
X348006Y102707D01*
X348070Y102785D01*
X348130Y102864D01*
X348187Y102946D01*
X348241Y103030D01*
X348291Y103116D01*
X348338Y103204D01*
X348382Y103294D01*
X348422Y103385D01*
X348458Y103478D01*
X348491Y103572D01*
X348520Y103668D01*
X348545Y103764D01*
X348566Y103861D01*
X348584Y103960D01*
X348597Y104058D01*
X348607Y104158D01*
X348613Y104257D01*
X348615Y104357D01*
X348615Y106897D01*
X337185Y111379D02*
X337185Y114554D01*
X337187Y114665D01*
X337193Y114775D01*
X337202Y114886D01*
X337216Y114996D01*
X337233Y115105D01*
X337254Y115214D01*
X337279Y115322D01*
X337308Y115429D01*
X337340Y115535D01*
X337376Y115640D01*
X337416Y115743D01*
X337459Y115845D01*
X337506Y115946D01*
X337557Y116045D01*
X337610Y116141D01*
X337667Y116236D01*
X337728Y116329D01*
X337791Y116420D01*
X337858Y116509D01*
X337928Y116595D01*
X338001Y116678D01*
X338076Y116760D01*
X338154Y116838D01*
X338236Y116913D01*
X338319Y116986D01*
X338405Y117056D01*
X338494Y117123D01*
X338585Y117186D01*
X338678Y117247D01*
X338773Y117304D01*
X338869Y117357D01*
X338968Y117408D01*
X339069Y117455D01*
X339171Y117498D01*
X339274Y117538D01*
X339379Y117574D01*
X339485Y117606D01*
X339592Y117635D01*
X339700Y117660D01*
X339809Y117681D01*
X339918Y117698D01*
X340028Y117712D01*
X340139Y117721D01*
X340249Y117727D01*
X340360Y117729D01*
X340471Y117727D01*
X340581Y117721D01*
X340692Y117712D01*
X340802Y117698D01*
X340911Y117681D01*
X341020Y117660D01*
X341128Y117635D01*
X341235Y117606D01*
X341341Y117574D01*
X341446Y117538D01*
X341549Y117498D01*
X341651Y117455D01*
X341752Y117408D01*
X341851Y117357D01*
X341948Y117304D01*
X342042Y117247D01*
X342135Y117186D01*
X342226Y117123D01*
X342315Y117056D01*
X342401Y116986D01*
X342484Y116913D01*
X342566Y116838D01*
X342644Y116760D01*
X342719Y116678D01*
X342792Y116595D01*
X342862Y116509D01*
X342929Y116420D01*
X342992Y116329D01*
X343053Y116236D01*
X343110Y116142D01*
X343163Y116045D01*
X343214Y115946D01*
X343261Y115845D01*
X343304Y115743D01*
X343344Y115640D01*
X343380Y115535D01*
X343412Y115429D01*
X343441Y115322D01*
X343466Y115214D01*
X343487Y115105D01*
X343504Y114996D01*
X343518Y114886D01*
X343527Y114775D01*
X343533Y114665D01*
X343535Y114554D01*
X348615Y115189D02*
X348615Y111379D01*
X348615Y115189D02*
X348613Y115289D01*
X348607Y115388D01*
X348597Y115488D01*
X348584Y115586D01*
X348566Y115685D01*
X348545Y115782D01*
X348520Y115878D01*
X348491Y115974D01*
X348458Y116068D01*
X348422Y116161D01*
X348382Y116252D01*
X348338Y116342D01*
X348291Y116430D01*
X348241Y116516D01*
X348187Y116600D01*
X348130Y116682D01*
X348070Y116761D01*
X348006Y116839D01*
X347940Y116913D01*
X347871Y116985D01*
X347799Y117054D01*
X347725Y117120D01*
X347647Y117184D01*
X347568Y117244D01*
X347486Y117301D01*
X347402Y117355D01*
X347316Y117405D01*
X347228Y117452D01*
X347138Y117496D01*
X347047Y117536D01*
X346954Y117572D01*
X346860Y117605D01*
X346764Y117634D01*
X346668Y117659D01*
X346571Y117680D01*
X346472Y117698D01*
X346374Y117711D01*
X346274Y117721D01*
X346175Y117727D01*
X346075Y117729D01*
X345975Y117727D01*
X345876Y117721D01*
X345776Y117711D01*
X345678Y117698D01*
X345579Y117680D01*
X345482Y117659D01*
X345386Y117634D01*
X345290Y117605D01*
X345196Y117572D01*
X345103Y117536D01*
X345012Y117496D01*
X344922Y117452D01*
X344834Y117405D01*
X344748Y117355D01*
X344664Y117301D01*
X344582Y117244D01*
X344503Y117184D01*
X344425Y117120D01*
X344351Y117054D01*
X344279Y116985D01*
X344210Y116913D01*
X344144Y116839D01*
X344080Y116761D01*
X344020Y116682D01*
X343963Y116600D01*
X343909Y116516D01*
X343859Y116430D01*
X343812Y116342D01*
X343768Y116252D01*
X343728Y116161D01*
X343692Y116068D01*
X343659Y115974D01*
X343630Y115878D01*
X343605Y115782D01*
X343584Y115685D01*
X343566Y115586D01*
X343553Y115488D01*
X343543Y115388D01*
X343537Y115289D01*
X343535Y115189D01*
X343535Y112649D01*
D10*
X165100Y212598D02*
X83820Y212598D01*
X80010Y177292D02*
X80012Y177170D01*
X80018Y177048D01*
X80028Y176926D01*
X80041Y176805D01*
X80059Y176684D01*
X80080Y176564D01*
X80106Y176444D01*
X80135Y176326D01*
X80167Y176208D01*
X80204Y176091D01*
X80244Y175976D01*
X80288Y175862D01*
X80336Y175750D01*
X80387Y175639D01*
X80442Y175530D01*
X80500Y175422D01*
X80562Y175317D01*
X80627Y175214D01*
X80695Y175112D01*
X80767Y175013D01*
X80841Y174917D01*
X80919Y174822D01*
X81000Y174731D01*
X81083Y174641D01*
X81169Y174555D01*
X81259Y174472D01*
X81350Y174391D01*
X81445Y174313D01*
X81541Y174239D01*
X81640Y174167D01*
X81742Y174099D01*
X81845Y174034D01*
X81950Y173972D01*
X82058Y173914D01*
X82167Y173859D01*
X82278Y173808D01*
X82390Y173760D01*
X82504Y173716D01*
X82619Y173676D01*
X82736Y173639D01*
X82854Y173607D01*
X82972Y173578D01*
X83092Y173552D01*
X83212Y173531D01*
X83333Y173513D01*
X83454Y173500D01*
X83576Y173490D01*
X83698Y173484D01*
X83820Y173482D01*
X165100Y212598D02*
X165222Y212596D01*
X165344Y212590D01*
X165466Y212580D01*
X165587Y212567D01*
X165708Y212549D01*
X165828Y212528D01*
X165948Y212502D01*
X166066Y212473D01*
X166184Y212441D01*
X166301Y212404D01*
X166416Y212364D01*
X166530Y212320D01*
X166642Y212272D01*
X166753Y212221D01*
X166862Y212166D01*
X166970Y212108D01*
X167075Y212046D01*
X167178Y211981D01*
X167280Y211913D01*
X167379Y211841D01*
X167475Y211767D01*
X167570Y211689D01*
X167661Y211608D01*
X167751Y211525D01*
X167837Y211439D01*
X167920Y211349D01*
X168001Y211258D01*
X168079Y211163D01*
X168153Y211067D01*
X168225Y210968D01*
X168293Y210866D01*
X168358Y210763D01*
X168420Y210658D01*
X168478Y210550D01*
X168533Y210441D01*
X168584Y210330D01*
X168632Y210218D01*
X168676Y210104D01*
X168716Y209989D01*
X168753Y209872D01*
X168785Y209754D01*
X168814Y209636D01*
X168840Y209516D01*
X168861Y209396D01*
X168879Y209275D01*
X168892Y209154D01*
X168902Y209032D01*
X168908Y208910D01*
X168910Y208788D01*
X83820Y212598D02*
X83698Y212596D01*
X83576Y212590D01*
X83454Y212580D01*
X83333Y212567D01*
X83212Y212549D01*
X83092Y212528D01*
X82972Y212502D01*
X82854Y212473D01*
X82736Y212441D01*
X82619Y212404D01*
X82504Y212364D01*
X82390Y212320D01*
X82278Y212272D01*
X82167Y212221D01*
X82058Y212166D01*
X81950Y212108D01*
X81845Y212046D01*
X81742Y211981D01*
X81640Y211913D01*
X81541Y211841D01*
X81445Y211767D01*
X81350Y211689D01*
X81259Y211608D01*
X81169Y211525D01*
X81083Y211439D01*
X81000Y211349D01*
X80919Y211258D01*
X80841Y211163D01*
X80767Y211067D01*
X80695Y210968D01*
X80627Y210866D01*
X80562Y210763D01*
X80500Y210658D01*
X80442Y210550D01*
X80387Y210441D01*
X80336Y210330D01*
X80288Y210218D01*
X80244Y210104D01*
X80204Y209989D01*
X80167Y209872D01*
X80135Y209754D01*
X80106Y209636D01*
X80080Y209516D01*
X80059Y209396D01*
X80041Y209275D01*
X80028Y209154D01*
X80018Y209032D01*
X80012Y208910D01*
X80010Y208788D01*
X165100Y173482D02*
X165222Y173484D01*
X165344Y173490D01*
X165466Y173500D01*
X165587Y173513D01*
X165708Y173531D01*
X165828Y173552D01*
X165948Y173578D01*
X166066Y173607D01*
X166184Y173639D01*
X166301Y173676D01*
X166416Y173716D01*
X166530Y173760D01*
X166642Y173808D01*
X166753Y173859D01*
X166862Y173914D01*
X166970Y173972D01*
X167075Y174034D01*
X167178Y174099D01*
X167280Y174167D01*
X167379Y174239D01*
X167475Y174313D01*
X167570Y174391D01*
X167661Y174472D01*
X167751Y174555D01*
X167837Y174641D01*
X167920Y174731D01*
X168001Y174822D01*
X168079Y174917D01*
X168153Y175013D01*
X168225Y175112D01*
X168293Y175214D01*
X168358Y175317D01*
X168420Y175422D01*
X168478Y175530D01*
X168533Y175639D01*
X168584Y175750D01*
X168632Y175862D01*
X168676Y175976D01*
X168716Y176091D01*
X168753Y176208D01*
X168785Y176326D01*
X168814Y176444D01*
X168840Y176564D01*
X168861Y176684D01*
X168879Y176805D01*
X168892Y176926D01*
X168902Y177048D01*
X168908Y177170D01*
X168910Y177292D01*
X165100Y173482D02*
X83820Y173482D01*
X80010Y177292D02*
X80010Y208788D01*
X168910Y208788D02*
X168910Y198120D01*
X168910Y187960D01*
X168910Y177292D01*
X168910Y187960D02*
X168769Y187962D01*
X168628Y187968D01*
X168487Y187978D01*
X168346Y187991D01*
X168206Y188009D01*
X168067Y188031D01*
X167928Y188056D01*
X167789Y188085D01*
X167652Y188118D01*
X167516Y188155D01*
X167381Y188196D01*
X167246Y188240D01*
X167114Y188288D01*
X166982Y188340D01*
X166852Y188395D01*
X166724Y188454D01*
X166597Y188517D01*
X166473Y188583D01*
X166350Y188652D01*
X166229Y188725D01*
X166110Y188801D01*
X165993Y188881D01*
X165879Y188964D01*
X165766Y189049D01*
X165657Y189138D01*
X165549Y189230D01*
X165445Y189325D01*
X165343Y189423D01*
X165244Y189524D01*
X165147Y189627D01*
X165054Y189733D01*
X164964Y189841D01*
X164876Y189952D01*
X164792Y190065D01*
X164711Y190181D01*
X164633Y190299D01*
X164558Y190419D01*
X164487Y190541D01*
X164419Y190665D01*
X164355Y190791D01*
X164294Y190918D01*
X164237Y191047D01*
X164184Y191178D01*
X164134Y191310D01*
X164087Y191443D01*
X164045Y191578D01*
X164006Y191714D01*
X163971Y191851D01*
X163940Y191988D01*
X163913Y192127D01*
X163889Y192266D01*
X163870Y192406D01*
X163854Y192546D01*
X163842Y192687D01*
X163834Y192828D01*
X163830Y192969D01*
X163830Y193111D01*
X163834Y193252D01*
X163842Y193393D01*
X163854Y193534D01*
X163870Y193674D01*
X163889Y193814D01*
X163913Y193953D01*
X163940Y194092D01*
X163971Y194229D01*
X164006Y194366D01*
X164045Y194502D01*
X164087Y194637D01*
X164134Y194770D01*
X164184Y194902D01*
X164237Y195033D01*
X164294Y195162D01*
X164355Y195289D01*
X164419Y195415D01*
X164487Y195539D01*
X164558Y195661D01*
X164633Y195781D01*
X164711Y195899D01*
X164792Y196015D01*
X164876Y196128D01*
X164964Y196239D01*
X165054Y196347D01*
X165147Y196453D01*
X165244Y196556D01*
X165343Y196657D01*
X165445Y196755D01*
X165549Y196850D01*
X165657Y196942D01*
X165766Y197031D01*
X165879Y197116D01*
X165993Y197199D01*
X166110Y197279D01*
X166229Y197355D01*
X166350Y197428D01*
X166473Y197497D01*
X166597Y197563D01*
X166724Y197626D01*
X166852Y197685D01*
X166982Y197740D01*
X167114Y197792D01*
X167246Y197840D01*
X167381Y197884D01*
X167516Y197925D01*
X167652Y197962D01*
X167789Y197995D01*
X167928Y198024D01*
X168067Y198049D01*
X168206Y198071D01*
X168346Y198089D01*
X168487Y198102D01*
X168628Y198112D01*
X168769Y198118D01*
X168910Y198120D01*
X168910Y177038D02*
X80010Y177038D01*
D11*
X172085Y177165D02*
X183515Y177165D01*
X172085Y175895D02*
X172085Y178435D01*
X183515Y178435D02*
X183515Y175895D01*
X172085Y185637D02*
X172085Y188177D01*
X172085Y185637D02*
X172087Y185537D01*
X172093Y185438D01*
X172103Y185338D01*
X172116Y185240D01*
X172134Y185141D01*
X172155Y185044D01*
X172180Y184948D01*
X172209Y184852D01*
X172242Y184758D01*
X172278Y184665D01*
X172318Y184574D01*
X172362Y184484D01*
X172409Y184396D01*
X172459Y184310D01*
X172513Y184226D01*
X172570Y184144D01*
X172630Y184065D01*
X172694Y183987D01*
X172760Y183913D01*
X172829Y183841D01*
X172901Y183772D01*
X172975Y183706D01*
X173053Y183642D01*
X173132Y183582D01*
X173214Y183525D01*
X173298Y183471D01*
X173384Y183421D01*
X173472Y183374D01*
X173562Y183330D01*
X173653Y183290D01*
X173746Y183254D01*
X173840Y183221D01*
X173936Y183192D01*
X174032Y183167D01*
X174129Y183146D01*
X174228Y183128D01*
X174326Y183115D01*
X174426Y183105D01*
X174525Y183099D01*
X174625Y183097D01*
X180975Y183097D01*
X181075Y183099D01*
X181174Y183105D01*
X181274Y183115D01*
X181372Y183128D01*
X181471Y183146D01*
X181568Y183167D01*
X181664Y183192D01*
X181760Y183221D01*
X181854Y183254D01*
X181947Y183290D01*
X182038Y183330D01*
X182128Y183374D01*
X182216Y183421D01*
X182302Y183471D01*
X182386Y183525D01*
X182468Y183582D01*
X182547Y183642D01*
X182625Y183706D01*
X182699Y183772D01*
X182771Y183841D01*
X182840Y183913D01*
X182906Y183987D01*
X182970Y184065D01*
X183030Y184144D01*
X183087Y184226D01*
X183141Y184310D01*
X183191Y184396D01*
X183238Y184484D01*
X183282Y184574D01*
X183322Y184665D01*
X183358Y184758D01*
X183391Y184852D01*
X183420Y184948D01*
X183445Y185044D01*
X183466Y185141D01*
X183484Y185240D01*
X183497Y185338D01*
X183507Y185438D01*
X183513Y185537D01*
X183515Y185637D01*
X183515Y188177D01*
X183516Y196151D02*
X183514Y196255D01*
X183508Y196360D01*
X183499Y196464D01*
X183486Y196567D01*
X183468Y196670D01*
X183448Y196772D01*
X183423Y196874D01*
X183395Y196974D01*
X183363Y197074D01*
X183327Y197172D01*
X183288Y197269D01*
X183246Y197364D01*
X183200Y197458D01*
X183150Y197550D01*
X183098Y197640D01*
X183042Y197728D01*
X182982Y197814D01*
X182920Y197898D01*
X182855Y197979D01*
X182787Y198058D01*
X182715Y198135D01*
X182642Y198208D01*
X182565Y198280D01*
X182486Y198348D01*
X182405Y198413D01*
X182321Y198475D01*
X182235Y198535D01*
X182147Y198591D01*
X182057Y198643D01*
X181965Y198693D01*
X181871Y198739D01*
X181776Y198781D01*
X181679Y198820D01*
X181581Y198856D01*
X181481Y198888D01*
X181381Y198916D01*
X181279Y198941D01*
X181177Y198961D01*
X181074Y198979D01*
X180971Y198992D01*
X180867Y199001D01*
X180762Y199007D01*
X180658Y199009D01*
X183515Y196151D02*
X183513Y196033D01*
X183507Y195914D01*
X183498Y195796D01*
X183485Y195679D01*
X183467Y195562D01*
X183447Y195445D01*
X183422Y195329D01*
X183394Y195214D01*
X183361Y195101D01*
X183326Y194988D01*
X183286Y194876D01*
X183244Y194766D01*
X183197Y194657D01*
X183147Y194549D01*
X183094Y194444D01*
X183037Y194340D01*
X182977Y194238D01*
X182914Y194138D01*
X182847Y194040D01*
X182778Y193944D01*
X182705Y193851D01*
X182629Y193760D01*
X182551Y193671D01*
X182469Y193585D01*
X182385Y193502D01*
X182299Y193421D01*
X182209Y193344D01*
X182118Y193269D01*
X182024Y193197D01*
X181927Y193128D01*
X181829Y193063D01*
X181728Y193000D01*
X181625Y192941D01*
X181521Y192885D01*
X181415Y192833D01*
X181307Y192784D01*
X181198Y192739D01*
X181087Y192697D01*
X180975Y192659D01*
X178436Y198057D02*
X178511Y198133D01*
X178590Y198208D01*
X178671Y198279D01*
X178755Y198348D01*
X178841Y198413D01*
X178929Y198475D01*
X179019Y198535D01*
X179111Y198591D01*
X179206Y198644D01*
X179302Y198693D01*
X179400Y198739D01*
X179499Y198782D01*
X179600Y198821D01*
X179702Y198856D01*
X179805Y198888D01*
X179909Y198916D01*
X180014Y198941D01*
X180121Y198962D01*
X180227Y198979D01*
X180334Y198992D01*
X180442Y199001D01*
X180550Y199007D01*
X180658Y199009D01*
X178435Y198056D02*
X172085Y192659D01*
X172085Y199009D01*
X342470Y215900D02*
X342472Y216098D01*
X342480Y216295D01*
X342492Y216492D01*
X342509Y216689D01*
X342531Y216885D01*
X342557Y217081D01*
X342589Y217276D01*
X342625Y217470D01*
X342666Y217664D01*
X342711Y217856D01*
X342762Y218047D01*
X342817Y218237D01*
X342876Y218425D01*
X342941Y218612D01*
X343009Y218797D01*
X343083Y218981D01*
X343161Y219162D01*
X343243Y219342D01*
X343330Y219519D01*
X343421Y219695D01*
X343516Y219868D01*
X343615Y220039D01*
X343719Y220207D01*
X343827Y220372D01*
X343938Y220535D01*
X344054Y220695D01*
X344174Y220853D01*
X344297Y221007D01*
X344424Y221158D01*
X344555Y221306D01*
X344690Y221451D01*
X344828Y221592D01*
X344969Y221730D01*
X345114Y221865D01*
X345262Y221996D01*
X345413Y222123D01*
X345567Y222246D01*
X345725Y222366D01*
X345885Y222482D01*
X346048Y222593D01*
X346213Y222701D01*
X346381Y222805D01*
X346552Y222904D01*
X346725Y222999D01*
X346901Y223090D01*
X347078Y223177D01*
X347258Y223259D01*
X347439Y223337D01*
X347623Y223411D01*
X347808Y223479D01*
X347995Y223544D01*
X348183Y223603D01*
X348373Y223658D01*
X348564Y223709D01*
X348756Y223754D01*
X348950Y223795D01*
X349144Y223831D01*
X349339Y223863D01*
X349535Y223889D01*
X349731Y223911D01*
X349928Y223928D01*
X350125Y223940D01*
X350322Y223948D01*
X350520Y223950D01*
X350718Y223948D01*
X350915Y223940D01*
X351112Y223928D01*
X351309Y223911D01*
X351505Y223889D01*
X351701Y223863D01*
X351896Y223831D01*
X352090Y223795D01*
X352284Y223754D01*
X352476Y223709D01*
X352667Y223658D01*
X352857Y223603D01*
X353045Y223544D01*
X353232Y223479D01*
X353417Y223411D01*
X353601Y223337D01*
X353782Y223259D01*
X353962Y223177D01*
X354139Y223090D01*
X354315Y222999D01*
X354488Y222904D01*
X354659Y222805D01*
X354827Y222701D01*
X354992Y222593D01*
X355155Y222482D01*
X355315Y222366D01*
X355473Y222246D01*
X355627Y222123D01*
X355778Y221996D01*
X355926Y221865D01*
X356071Y221730D01*
X356212Y221592D01*
X356350Y221451D01*
X356485Y221306D01*
X356616Y221158D01*
X356743Y221007D01*
X356866Y220853D01*
X356986Y220695D01*
X357102Y220535D01*
X357213Y220372D01*
X357321Y220207D01*
X357425Y220039D01*
X357524Y219868D01*
X357619Y219695D01*
X357710Y219519D01*
X357797Y219342D01*
X357879Y219162D01*
X357957Y218981D01*
X358031Y218797D01*
X358099Y218612D01*
X358164Y218425D01*
X358223Y218237D01*
X358278Y218047D01*
X358329Y217856D01*
X358374Y217664D01*
X358415Y217470D01*
X358451Y217276D01*
X358483Y217081D01*
X358509Y216885D01*
X358531Y216689D01*
X358548Y216492D01*
X358560Y216295D01*
X358568Y216098D01*
X358570Y215900D01*
X358568Y215702D01*
X358560Y215505D01*
X358548Y215308D01*
X358531Y215111D01*
X358509Y214915D01*
X358483Y214719D01*
X358451Y214524D01*
X358415Y214330D01*
X358374Y214136D01*
X358329Y213944D01*
X358278Y213753D01*
X358223Y213563D01*
X358164Y213375D01*
X358099Y213188D01*
X358031Y213003D01*
X357957Y212819D01*
X357879Y212638D01*
X357797Y212458D01*
X357710Y212281D01*
X357619Y212105D01*
X357524Y211932D01*
X357425Y211761D01*
X357321Y211593D01*
X357213Y211428D01*
X357102Y211265D01*
X356986Y211105D01*
X356866Y210947D01*
X356743Y210793D01*
X356616Y210642D01*
X356485Y210494D01*
X356350Y210349D01*
X356212Y210208D01*
X356071Y210070D01*
X355926Y209935D01*
X355778Y209804D01*
X355627Y209677D01*
X355473Y209554D01*
X355315Y209434D01*
X355155Y209318D01*
X354992Y209207D01*
X354827Y209099D01*
X354659Y208995D01*
X354488Y208896D01*
X354315Y208801D01*
X354139Y208710D01*
X353962Y208623D01*
X353782Y208541D01*
X353601Y208463D01*
X353417Y208389D01*
X353232Y208321D01*
X353045Y208256D01*
X352857Y208197D01*
X352667Y208142D01*
X352476Y208091D01*
X352284Y208046D01*
X352090Y208005D01*
X351896Y207969D01*
X351701Y207937D01*
X351505Y207911D01*
X351309Y207889D01*
X351112Y207872D01*
X350915Y207860D01*
X350718Y207852D01*
X350520Y207850D01*
X350322Y207852D01*
X350125Y207860D01*
X349928Y207872D01*
X349731Y207889D01*
X349535Y207911D01*
X349339Y207937D01*
X349144Y207969D01*
X348950Y208005D01*
X348756Y208046D01*
X348564Y208091D01*
X348373Y208142D01*
X348183Y208197D01*
X347995Y208256D01*
X347808Y208321D01*
X347623Y208389D01*
X347439Y208463D01*
X347258Y208541D01*
X347078Y208623D01*
X346901Y208710D01*
X346725Y208801D01*
X346552Y208896D01*
X346381Y208995D01*
X346213Y209099D01*
X346048Y209207D01*
X345885Y209318D01*
X345725Y209434D01*
X345567Y209554D01*
X345413Y209677D01*
X345262Y209804D01*
X345114Y209935D01*
X344969Y210070D01*
X344828Y210208D01*
X344690Y210349D01*
X344555Y210494D01*
X344424Y210642D01*
X344297Y210793D01*
X344174Y210947D01*
X344054Y211105D01*
X343938Y211265D01*
X343827Y211428D01*
X343719Y211593D01*
X343615Y211761D01*
X343516Y211932D01*
X343421Y212105D01*
X343330Y212281D01*
X343243Y212458D01*
X343161Y212638D01*
X343083Y212819D01*
X343009Y213003D01*
X342941Y213188D01*
X342876Y213375D01*
X342817Y213563D01*
X342762Y213753D01*
X342711Y213944D01*
X342666Y214136D01*
X342625Y214330D01*
X342589Y214524D01*
X342557Y214719D01*
X342531Y214915D01*
X342509Y215111D01*
X342492Y215308D01*
X342480Y215505D01*
X342472Y215702D01*
X342470Y215900D01*
D12*
X336520Y229280D02*
X336520Y202520D01*
X364520Y202520D02*
X364520Y229280D01*
X351820Y194900D02*
X349220Y194900D01*
X349220Y236900D02*
X351820Y236900D01*
D11*
X367467Y214588D02*
X367402Y214586D01*
X367338Y214580D01*
X367274Y214570D01*
X367210Y214557D01*
X367148Y214539D01*
X367087Y214518D01*
X367027Y214494D01*
X366969Y214465D01*
X366912Y214433D01*
X366858Y214398D01*
X366806Y214360D01*
X366756Y214318D01*
X366709Y214274D01*
X366665Y214227D01*
X366623Y214177D01*
X366585Y214125D01*
X366550Y214071D01*
X366518Y214014D01*
X366489Y213956D01*
X366465Y213896D01*
X366444Y213835D01*
X366426Y213773D01*
X366413Y213709D01*
X366403Y213645D01*
X366397Y213581D01*
X366395Y213516D01*
X366397Y213422D01*
X366403Y213328D01*
X366413Y213234D01*
X366426Y213141D01*
X366444Y213049D01*
X366465Y212957D01*
X366490Y212866D01*
X366519Y212776D01*
X366552Y212688D01*
X366588Y212601D01*
X366628Y212516D01*
X366671Y212432D01*
X366718Y212351D01*
X366768Y212271D01*
X366821Y212193D01*
X366878Y212118D01*
X366937Y212045D01*
X367000Y211975D01*
X367065Y211907D01*
X370149Y212042D02*
X370214Y212044D01*
X370278Y212050D01*
X370342Y212060D01*
X370406Y212073D01*
X370468Y212091D01*
X370529Y212112D01*
X370589Y212136D01*
X370647Y212165D01*
X370704Y212197D01*
X370758Y212232D01*
X370810Y212270D01*
X370860Y212312D01*
X370907Y212356D01*
X370951Y212403D01*
X370993Y212453D01*
X371031Y212505D01*
X371066Y212559D01*
X371098Y212616D01*
X371127Y212674D01*
X371151Y212734D01*
X371172Y212795D01*
X371190Y212857D01*
X371203Y212921D01*
X371213Y212985D01*
X371219Y213049D01*
X371221Y213114D01*
X371219Y213200D01*
X371214Y213286D01*
X371204Y213372D01*
X371191Y213457D01*
X371175Y213542D01*
X371155Y213626D01*
X371131Y213709D01*
X371104Y213791D01*
X371073Y213871D01*
X371039Y213951D01*
X371001Y214028D01*
X370960Y214104D01*
X370916Y214178D01*
X370869Y214250D01*
X370819Y214321D01*
X369211Y212578D02*
X369244Y212525D01*
X369281Y212474D01*
X369320Y212425D01*
X369362Y212378D01*
X369407Y212334D01*
X369454Y212293D01*
X369503Y212254D01*
X369555Y212218D01*
X369609Y212185D01*
X369664Y212156D01*
X369721Y212130D01*
X369780Y212107D01*
X369839Y212087D01*
X369900Y212071D01*
X369961Y212058D01*
X370024Y212049D01*
X370086Y212044D01*
X370149Y212042D01*
X368405Y214053D02*
X368372Y214106D01*
X368335Y214157D01*
X368296Y214206D01*
X368254Y214253D01*
X368209Y214297D01*
X368162Y214338D01*
X368113Y214377D01*
X368061Y214413D01*
X368007Y214446D01*
X367952Y214475D01*
X367895Y214501D01*
X367836Y214524D01*
X367777Y214544D01*
X367716Y214560D01*
X367655Y214573D01*
X367592Y214582D01*
X367530Y214587D01*
X367467Y214589D01*
X368406Y214053D02*
X369210Y212578D01*
X370149Y217211D02*
X371221Y218552D01*
X366395Y218552D01*
X366395Y219892D02*
X366395Y217211D01*
M02*
