G04 EAGLE Gerber X2 export*
%TF.Part,Single*%
%TF.FileFunction,Paste,Bot*%
%TF.FilePolarity,Positive*%
%TF.GenerationSoftware,Autodesk,EAGLE,8.7.0*%
%TF.CreationDate,2021-03-05T05:17:05Z*%
G75*
%MOMM*%
%FSLAX34Y34*%
%LPD*%
%AMOC8*
5,1,8,0,0,1.08239X$1,22.5*%
G01*
%ADD10R,0.660400X2.032000*%
%ADD11R,1.000000X0.900000*%


D10*
X200660Y78486D03*
X200660Y139954D03*
X187960Y78486D03*
X175260Y78486D03*
X187960Y139954D03*
X175260Y139954D03*
X162560Y78486D03*
X162560Y139954D03*
X149860Y78486D03*
X137160Y78486D03*
X149860Y139954D03*
X137160Y139954D03*
X124460Y78486D03*
X124460Y139954D03*
X327660Y81026D03*
X327660Y142494D03*
X314960Y81026D03*
X302260Y81026D03*
X314960Y142494D03*
X302260Y142494D03*
X289560Y81026D03*
X289560Y142494D03*
X276860Y81026D03*
X264160Y81026D03*
X276860Y142494D03*
X264160Y142494D03*
X251460Y81026D03*
X251460Y142494D03*
X162560Y162306D03*
X162560Y223774D03*
X149860Y162306D03*
X137160Y162306D03*
X149860Y223774D03*
X137160Y223774D03*
X124460Y162306D03*
X124460Y223774D03*
X111760Y162306D03*
X99060Y162306D03*
X111760Y223774D03*
X99060Y223774D03*
X86360Y162306D03*
X86360Y223774D03*
D11*
X358520Y236400D03*
X342520Y236400D03*
X342520Y195400D03*
X358520Y195400D03*
M02*
