G04 EAGLE Gerber X2 export*
%TF.Part,Single*%
%TF.FileFunction,Paste,Top*%
%TF.FilePolarity,Positive*%
%TF.GenerationSoftware,Autodesk,EAGLE,8.7.0*%
%TF.CreationDate,2021-03-05T05:17:05Z*%
G75*
%MOMM*%
%FSLAX34Y34*%
%LPD*%
%AMOC8*
5,1,8,0,0,1.08239X$1,22.5*%
G01*
%ADD10C,0.300000*%
%ADD11R,0.800000X0.800000*%


D10*
X321620Y228410D02*
X328620Y228410D01*
X328620Y221410D01*
X321620Y221410D01*
X321620Y228410D01*
X321620Y224409D02*
X328620Y224409D01*
X328620Y227408D02*
X321620Y227408D01*
X321620Y245950D02*
X328620Y245950D01*
X328620Y238950D01*
X321620Y238950D01*
X321620Y245950D01*
X321620Y241949D02*
X328620Y241949D01*
X328620Y244948D02*
X321620Y244948D01*
X277820Y228410D02*
X270820Y228410D01*
X277820Y228410D02*
X277820Y221410D01*
X270820Y221410D01*
X270820Y228410D01*
X270820Y224409D02*
X277820Y224409D01*
X277820Y227408D02*
X270820Y227408D01*
X270820Y245950D02*
X277820Y245950D01*
X277820Y238950D01*
X270820Y238950D01*
X270820Y245950D01*
X270820Y241949D02*
X277820Y241949D01*
X277820Y244948D02*
X270820Y244948D01*
X296220Y228410D02*
X303220Y228410D01*
X303220Y221410D01*
X296220Y221410D01*
X296220Y228410D01*
X296220Y224409D02*
X303220Y224409D01*
X303220Y227408D02*
X296220Y227408D01*
X296220Y245950D02*
X303220Y245950D01*
X303220Y238950D01*
X296220Y238950D01*
X296220Y245950D01*
X296220Y241949D02*
X303220Y241949D01*
X303220Y244948D02*
X296220Y244948D01*
D11*
X325120Y193040D03*
X325120Y208280D03*
X274320Y193040D03*
X274320Y208280D03*
X299720Y193040D03*
X299720Y208280D03*
M02*
